<svg width="80" height="81" viewBox="0 0 80 81" fill="none" xmlns="http://www.w3.org/2000/svg">
<circle cx="40" cy="40.6515" r="40" fill="#DEEFFF"/>
<path d="M46.9441 37.3516L11.2852 46.4729L16.3384 66.2515L51.9973 57.1302L46.9441 37.3516Z" fill="#48A4FE"/>
<path d="M16.3426 66.6516C16.2905 66.6498 16.2396 66.6359 16.1938 66.6109C16.1302 66.5687 16.0836 66.5049 16.0621 66.431L11.008 46.3757C10.9904 46.3011 11.0021 46.2225 11.0405 46.1564C11.0789 46.0904 11.1412 46.042 11.214 46.0216L46.8906 36.7747C46.9608 36.7485 47.0379 36.7485 47.1081 36.7747C47.1411 36.7938 47.1699 36.8197 47.1925 36.8506C47.2152 36.8816 47.2313 36.917 47.2397 36.9546L52.2939 57.0099C52.3033 57.0469 52.3055 57.0854 52.3002 57.1232C52.295 57.161 52.2825 57.1975 52.2633 57.2303C52.2442 57.2632 52.2188 57.292 52.1887 57.3149C52.1586 57.3379 52.1243 57.3545 52.0878 57.364L16.4113 66.6109L16.3426 66.6516ZM11.6376 46.5382L16.5486 66.0305L51.67 56.9228L46.7875 37.4074L11.6376 46.5382Z" fill="#231F20"/>
<path d="M16.2734 66.6514L31.4243 50.8239L52.3037 57.4269L16.2734 66.6514Z" fill="#48A4FE"/>
<path d="M16.5604 66.6515C16.5108 66.6512 16.4621 66.6374 16.4192 66.6116C16.3763 66.5857 16.3406 66.5487 16.3158 66.5041C16.2823 66.4494 16.268 66.3844 16.2753 66.32C16.2825 66.2557 16.3109 66.1959 16.3556 66.1506L31.2662 50.0386C31.3026 49.9986 31.349 49.9698 31.4001 49.9553C31.4513 49.9408 31.5053 49.941 31.5563 49.9561L52.1045 56.6861C52.1635 56.7053 52.2148 56.7438 52.2507 56.7959C52.2867 56.848 52.3052 56.9108 52.3036 56.9748C52.3008 57.0389 52.2783 57.1003 52.2394 57.1501C52.2005 57.1999 52.1473 57.2356 52.0875 57.2518L16.6287 66.6397L16.5604 66.6515ZM31.5563 50.5748L17.4536 65.8146L50.9838 56.9336L31.5563 50.5748Z" fill="#231F20"/>
<path d="M11 46.792L32.1338 54.3412L47.0303 37.6343L11 46.792Z" fill="#48A4FE"/>
<path d="M32.0856 54.3367C32.0536 54.3427 32.0208 54.3427 31.9888 54.3367L11.188 46.6473C11.1311 46.6262 11.0823 46.5871 11.0485 46.5355C11.0148 46.484 10.9978 46.4227 11.0002 46.3606C11.0027 46.2978 11.0244 46.2374 11.0622 46.188C11.1 46.1386 11.152 46.1027 11.2107 46.0855L46.6735 36.7635C46.7322 36.7488 46.7939 36.7533 46.85 36.7763C46.9061 36.7994 46.9538 36.8399 46.9864 36.8922C47.0194 36.946 47.0345 37.0093 47.0293 37.0727C47.0242 37.136 46.9991 37.1959 46.958 37.2433L32.2961 54.2548C32.2687 54.283 32.2357 54.3049 32.1994 54.3191C32.1631 54.3332 32.1243 54.3392 32.0856 54.3367ZM12.2519 46.4015L32.0002 53.6988L45.9168 37.5476L12.2519 46.4015Z" fill="#231F20"/>
<path d="M65.8385 18.7826L45.4883 23.818L48.2778 35.1051L68.628 30.0697L65.8385 18.7826Z" fill="#48A4FE"/>
<path d="M48.3505 34.9963C48.2864 34.9959 48.2241 34.9746 48.1734 34.9358C48.1227 34.8969 48.0863 34.8425 48.07 34.7812L45.2814 23.6218C45.2638 23.5491 45.2755 23.4724 45.314 23.408C45.3524 23.3435 45.4147 23.2964 45.4876 23.2764L65.8548 18.2997C65.8909 18.2896 65.9287 18.2869 65.966 18.2918C66.0032 18.2967 66.039 18.3091 66.0712 18.3282C66.1034 18.3473 66.1312 18.3727 66.1531 18.4028C66.175 18.433 66.1904 18.4673 66.1983 18.5036L68.9926 29.6629C69.0015 29.6993 69.0031 29.737 68.9972 29.7739C68.9913 29.8108 68.9781 29.8462 68.9583 29.8781C68.9394 29.9107 68.9139 29.9392 68.8833 29.9616C68.8528 29.984 68.8178 29.9999 68.7808 30.0083L48.4193 34.985L48.3505 34.9963ZM45.9056 23.7577L48.5624 34.3679L68.3685 29.5271L65.7403 18.9169L45.9056 23.7577Z" fill="#231F20"/>
<path d="M47.9082 34.9962L56.8345 26.2031L68.9991 29.9911L47.9082 34.9962Z" fill="#48A4FE"/>
<path d="M48.1949 34.9856C48.1446 34.9864 48.0949 34.9744 48.0514 34.9509C48.0079 34.9274 47.9721 34.8932 47.948 34.8521C47.9162 34.802 47.9029 34.7435 47.9101 34.6857C47.9174 34.6279 47.9448 34.5739 47.9882 34.5319L56.6326 26.2856C56.6693 26.2493 56.7163 26.2235 56.7682 26.2112C56.8201 26.1989 56.8747 26.2007 56.9256 26.2162L68.7119 29.7709C68.7881 29.7709 68.8611 29.799 68.915 29.8491C68.9689 29.8991 68.9991 29.967 68.9991 30.0378C68.9991 30.1086 68.9689 30.1764 68.915 30.2265C68.8611 30.2765 68.7881 30.3046 68.7119 30.3046L48.2868 34.9962L48.1949 34.9856ZM56.9198 26.7766L49.1025 34.249L67.5746 30.0057L56.9198 26.7766Z" fill="#231F20"/>
<path d="M45.2734 23.8755L57.07 27.9618L65.4856 19.1687L45.2734 23.8755Z" fill="#48A4FE"/>
<path d="M57.538 28.8368C57.5036 28.8426 57.4686 28.8426 57.4342 28.8368L45.4587 24.2073C45.4011 24.1841 45.3521 24.1422 45.3189 24.0877C45.2857 24.0331 45.27 23.9689 45.2741 23.9043C45.276 23.8398 45.2978 23.7776 45.3363 23.7273C45.3748 23.6771 45.4279 23.6413 45.4875 23.6255L66.0063 18.2991C66.0658 18.2829 66.1287 18.2871 66.1857 18.3111C66.2428 18.3351 66.2911 18.3776 66.3236 18.4324C66.3553 18.489 66.3691 18.5548 66.3629 18.6202C66.3567 18.6855 66.3308 18.7471 66.289 18.796L57.7515 28.7399C57.6949 28.7999 57.6184 28.8347 57.538 28.8368ZM46.5431 23.9891L57.4515 28.2309L65.2333 19.1414L46.5431 23.9891Z" fill="#231F20"/>
<path d="M35.5185 15.9361L18.8398 23.4082L22.9782 32.6564L39.6568 25.1843L35.5185 15.9361Z" fill="#48A4FE"/>
<path d="M23.2767 33.2376C23.222 33.2391 23.1682 33.2238 23.122 33.1937C23.0758 33.1637 23.0392 33.1202 23.0169 33.0688L18.9348 23.6598C18.9189 23.6251 18.9099 23.5875 18.9084 23.5491C18.9069 23.5108 18.913 23.4726 18.9261 23.4367C18.9393 23.4008 18.9594 23.3681 18.9851 23.3404C19.0109 23.3127 19.0417 23.2906 19.0759 23.2755L35.5288 15.6773C35.5977 15.6455 35.6761 15.643 35.7468 15.6702C35.8176 15.6975 35.8751 15.7523 35.9071 15.8228L39.9779 25.2027C40.0062 25.2736 40.0062 25.3531 39.9779 25.424C39.9495 25.4946 39.8974 25.5525 39.8311 25.587L23.3726 33.1561C23.3468 33.1901 23.314 33.218 23.2767 33.2376ZM19.5615 23.6889L23.4178 32.5622L39.3569 25.2027L35.5062 16.3294L19.5615 23.6889Z" fill="#231F20"/>
<path d="M23.3027 32.3584L29.3249 23.5653L39.9997 24.9932L23.3027 32.3584Z" fill="#48A4FE"/>
<path d="M22.7243 33.2373C22.6702 33.2402 22.6165 33.2276 22.5694 33.201C22.5222 33.1745 22.4836 33.1351 22.458 33.0874C22.4323 33.0398 22.4207 32.9858 22.4245 32.9318C22.4284 32.8778 22.4474 32.826 22.4795 32.7824L28.61 23.6959C28.64 23.6506 28.6821 23.6145 28.7316 23.5918C28.781 23.5692 28.8358 23.5608 28.8897 23.5676L39.7464 25.049C39.809 25.0571 39.8673 25.0854 39.9125 25.1296C39.9577 25.1738 39.9874 25.2315 39.997 25.294C40.0054 25.3568 39.9935 25.4206 39.9631 25.4762C39.9327 25.5318 39.8853 25.5763 39.8279 25.6031L22.8408 33.1848C22.8062 33.2106 22.7664 33.2285 22.7243 33.2373ZM28.9888 24.1683L23.5343 32.2634L38.6566 25.4864L28.9888 24.1683Z" fill="#231F20"/>
<path d="M18.9082 23.3528L29.7913 25.3239L35.6052 15.6515L18.9082 23.3528Z" fill="#48A4FE"/>
<path d="M29.7082 25.3239H29.6638L19.1322 23.4655C19.0745 23.455 19.0217 23.426 18.9817 23.3829C18.9417 23.3398 18.9168 23.2848 18.9105 23.2262C18.9029 23.1671 18.9144 23.107 18.9433 23.055C18.9722 23.0029 19.0171 22.9615 19.0713 22.9369L35.2234 15.6758C35.2785 15.6513 35.3399 15.6451 35.3987 15.6581C35.4576 15.6711 35.5107 15.7027 35.5504 15.7481C35.586 15.7954 35.6052 15.8531 35.6052 15.9123C35.6052 15.9715 35.586 16.0291 35.5504 16.0764L29.9243 25.2015C29.9 25.2371 29.8678 25.2666 29.8304 25.2878C29.7929 25.309 29.7511 25.3214 29.7082 25.3239ZM20.1189 23.0983L29.5751 24.7675L34.6303 16.5772L20.1189 23.0983Z" fill="#231F20"/>
</svg>
