<svg width="80" height="81" viewBox="0 0 80 81" fill="none" xmlns="http://www.w3.org/2000/svg">
<circle cx="40" cy="40.6516" r="40" fill="#DEEFFF"/>
<path d="M29.0139 32.693L9.27148 38.5167L12.6675 50.1266L32.41 44.3029L29.0139 32.693Z" fill="white"/>
<path d="M12.6694 50.2483C12.649 50.248 12.629 50.2425 12.6113 50.2324C12.5845 50.2158 12.564 50.1906 12.5532 50.1608L9.15723 38.551C9.14822 38.52 9.15177 38.4867 9.16711 38.4584C9.18245 38.4301 9.20833 38.409 9.2391 38.3998L28.9812 32.5657C29.012 32.5566 29.0451 32.5602 29.0733 32.5756C29.1015 32.591 29.1225 32.617 29.1317 32.6479L32.5277 44.2578C32.5341 44.2719 32.5374 44.2873 32.5374 44.3029C32.5374 44.3184 32.5341 44.3338 32.5277 44.3479C32.521 44.3624 32.511 44.3752 32.4987 44.3853C32.4863 44.3954 32.4719 44.4026 32.4564 44.4063L12.7143 50.2404L12.6694 50.2483ZM9.42395 38.5987L12.7513 49.9752L32.2636 44.2206L28.9337 32.8415L9.42395 38.5987Z" fill="#231F20"/>
<path d="M21.3325 43.2077C21.3185 43.2102 21.3042 43.2102 21.2902 43.2077L9.23001 38.6305C9.21399 38.6258 9.1991 38.6179 9.18628 38.6071C9.17346 38.5964 9.16298 38.5832 9.15549 38.5682C9.148 38.5532 9.14367 38.5368 9.14276 38.5201C9.14185 38.5034 9.14438 38.4866 9.1502 38.4709C9.15602 38.4552 9.16501 38.4409 9.17659 38.4288C9.18817 38.4167 9.2021 38.4072 9.21752 38.4008C9.23294 38.3943 9.24951 38.3912 9.26619 38.3915C9.28288 38.3918 9.29933 38.3955 9.31451 38.4025L21.2902 42.9425L28.9193 32.6188C28.9398 32.5971 28.9676 32.5837 28.9973 32.5812C29.027 32.5788 29.0566 32.5874 29.0804 32.6054C29.1042 32.6234 29.1206 32.6496 29.1265 32.6789C29.1323 32.7083 29.1272 32.7388 29.1121 32.7646L21.4302 43.1599C21.4187 43.175 21.4039 43.1871 21.3869 43.1954C21.37 43.2037 21.3513 43.2079 21.3325 43.2077Z" fill="#231F20"/>
<path d="M32.3851 44.3188C32.3711 44.3214 32.3568 44.3214 32.3428 44.3188L23.0659 40.8025C23.0512 40.7969 23.0377 40.7885 23.0262 40.7777C23.0147 40.7668 23.0055 40.7539 22.999 40.7395C22.9925 40.725 22.9889 40.7095 22.9883 40.6937C22.9878 40.6779 22.9904 40.6621 22.996 40.6473C23.0015 40.6325 23.0099 40.619 23.0207 40.6074C23.0314 40.5959 23.0444 40.5866 23.0587 40.5801C23.0731 40.5735 23.0885 40.5699 23.1043 40.5694C23.12 40.5689 23.1357 40.5715 23.1505 40.5771L32.4405 44.0934C32.4555 44.0984 32.4694 44.1065 32.4812 44.1171C32.493 44.1276 32.5025 44.1405 32.5092 44.1549C32.5159 44.1693 32.5195 44.1849 32.52 44.2008C32.5205 44.2167 32.5177 44.2325 32.5118 44.2472C32.5016 44.2716 32.4836 44.2918 32.4606 44.3048C32.4377 44.3177 32.4111 44.3227 32.3851 44.3188Z" fill="#231F20"/>
<path d="M12.6351 50.1529C12.6085 50.1539 12.5823 50.1455 12.5612 50.129C12.536 50.11 12.5193 50.0818 12.5149 50.0504C12.5104 50.0191 12.5185 49.9873 12.5374 49.962L18.4447 41.9613C18.4541 41.9486 18.4659 41.9378 18.4794 41.9297C18.4929 41.9215 18.5078 41.9161 18.5234 41.9138C18.539 41.9115 18.5548 41.9122 18.5701 41.916C18.5854 41.9199 18.5998 41.9267 18.6124 41.9361C18.6251 41.9455 18.6358 41.9573 18.6439 41.9708C18.652 41.9844 18.6574 41.9994 18.6597 42.0151C18.662 42.0307 18.6613 42.0466 18.6575 42.062C18.6537 42.0773 18.6469 42.0918 18.6375 42.1045L12.7381 50.1025C12.7268 50.1191 12.7113 50.1325 12.6933 50.1413C12.6752 50.1502 12.6552 50.1541 12.6351 50.1529Z" fill="#231F20"/>
<path d="M32.9713 30.1302L15.0996 19.8893L9.12768 30.3991L26.9994 40.64L32.9713 30.1302Z" fill="white"/>
<path d="M26.9976 40.7599C26.9763 40.7601 26.9553 40.7546 26.9368 40.744L9.06702 30.5025C9.05309 30.495 9.04077 30.4849 9.0308 30.4726C9.02082 30.4603 9.01338 30.4461 9.00892 30.4309C8.99703 30.4011 8.99703 30.3679 9.00892 30.3381L14.9928 19.8288C15.0093 19.8011 15.0359 19.7809 15.0669 19.7725C15.098 19.7641 15.131 19.7681 15.1592 19.7837L33.029 30.0252C33.0428 30.0329 33.055 30.0433 33.0647 30.0558C33.0745 30.0683 33.0817 30.0826 33.0858 30.0979C33.09 30.1132 33.0911 30.1292 33.0891 30.145C33.087 30.1607 33.0819 30.1759 33.0739 30.1896L27.1032 40.6989C27.0869 40.7272 27.0604 40.7481 27.0293 40.7573L26.9976 40.7599ZM9.30469 30.3514L26.9659 40.4735L32.8177 30.1763L15.1433 20.0542L9.30469 30.3514Z" fill="#231F20"/>
<path d="M20.185 31.9054C20.1614 31.9049 20.1384 31.8977 20.1188 31.8845C20.0991 31.8714 20.0836 31.8529 20.0741 31.8312L14.988 19.9376C14.9756 19.908 14.9753 19.8747 14.9872 19.845C14.9991 19.8152 15.0221 19.7913 15.0514 19.7785C15.0659 19.7719 15.0816 19.7684 15.0975 19.7681C15.1134 19.7678 15.1293 19.7707 15.144 19.7766C15.1588 19.7825 15.1723 19.7914 15.1836 19.8026C15.1949 19.8139 15.2038 19.8273 15.2098 19.8421L20.2616 31.6509L32.9687 30.012C32.9844 30.0094 33.0005 30.01 33.0159 30.0139C33.0313 30.0177 33.0458 30.0247 33.0584 30.0344C33.071 30.0441 33.0815 30.0563 33.0893 30.0702C33.097 30.0842 33.1018 30.0996 33.1034 30.1154C33.1056 30.1311 33.1047 30.1471 33.1007 30.1624C33.0968 30.1778 33.0898 30.1922 33.0802 30.2047C33.0706 30.2173 33.0586 30.2279 33.0449 30.2358C33.0312 30.2437 33.0161 30.2487 33.0004 30.2507L20.214 31.9028L20.185 31.9054Z" fill="#231F20"/>
<path d="M27.0477 40.6751C27.024 40.675 27.0009 40.6678 26.9811 40.6547C26.9614 40.6415 26.946 40.6228 26.9367 40.6009L23.0232 31.4493C23.0108 31.4197 23.0105 31.3865 23.0224 31.3567C23.0342 31.3269 23.0573 31.303 23.0866 31.2902C23.116 31.2777 23.1491 31.2775 23.1788 31.2894C23.2084 31.3013 23.2322 31.3244 23.245 31.3538L27.1586 40.5054C27.1709 40.535 27.1712 40.5683 27.1594 40.598C27.1475 40.6278 27.1245 40.6517 27.0952 40.6645C27.0804 40.6718 27.0641 40.6755 27.0477 40.6751Z" fill="#231F20"/>
<path d="M9.17592 30.4336C9.14654 30.4317 9.11887 30.4191 9.09806 30.3981C9.07724 30.3772 9.0647 30.3494 9.06276 30.3199C9.06083 30.2904 9.06963 30.2612 9.08753 30.2377C9.10543 30.2143 9.13121 30.1981 9.16008 30.1923L18.9968 28.9194C19.0124 28.9172 19.0283 28.9181 19.0436 28.9221C19.0589 28.9261 19.0732 28.9331 19.0857 28.9428C19.0983 28.9524 19.1088 28.9644 19.1166 28.9782C19.1245 28.9919 19.1295 29.0071 19.1315 29.0228C19.1353 29.0547 19.1267 29.0868 19.1075 29.1125C19.0884 29.1382 19.06 29.1555 19.0285 29.1607L9.20233 30.431L9.17592 30.4336Z" fill="#231F20"/>
<path d="M63.4239 26.5884H36.2852V47.9147H70.5354V33.1809C70.5354 29.5452 67.3507 26.5884 63.4239 26.5884Z" fill="#48A4FE"/>
<path d="M70.5358 48.0314H36.2829C36.2511 48.0307 36.2209 48.0176 36.1987 47.9948C36.1765 47.972 36.1641 47.9413 36.1641 47.9094V26.5884C36.1641 26.5568 36.1766 26.5264 36.1989 26.5041C36.2212 26.4817 36.2514 26.4691 36.2829 26.4691H63.4243C67.4118 26.4691 70.6573 29.4843 70.6573 33.1889V47.9147C70.6553 47.9459 70.6417 47.9753 70.6192 47.9969C70.5967 48.0185 70.5669 48.0308 70.5358 48.0314ZM36.4017 47.7928H70.4143V33.181C70.4143 29.6089 67.2798 26.7025 63.4243 26.7025H36.4017V47.7928Z" fill="#231F20"/>
<path d="M43.3929 33.4461V47.9067H29.1699V33.4461C29.1653 31.7256 29.8087 30.0669 30.9709 28.8027C31.6107 28.1015 32.3889 27.5418 33.2559 27.1592C34.1229 26.7766 35.0598 26.5795 36.0068 26.5804H36.6142C37.9902 26.5911 39.3311 27.0181 40.4617 27.8058C41.5923 28.5935 42.4602 29.7052 42.9519 30.9958C43.0525 31.2551 43.1354 31.5209 43.2001 31.7914C43.2097 31.8179 43.2159 31.8455 43.2186 31.8736C43.3381 32.389 43.3966 32.9169 43.3929 33.4461Z" fill="#231F20"/>
<path d="M43.3941 48.0473H29.1711C29.1361 48.0473 29.1025 48.0333 29.0777 48.0085C29.053 47.9836 29.0391 47.9499 29.0391 47.9147V33.4461C29.0398 31.5903 29.7742 29.8107 31.081 28.4984C32.3877 27.1861 34.1599 26.4486 36.0079 26.4479H36.6153C38.0177 26.4609 39.3835 26.898 40.5348 27.7022C41.6861 28.5063 42.5693 29.6403 43.0693 30.956C43.171 31.2151 43.2548 31.4809 43.3201 31.7516C43.3312 31.786 43.3383 31.8216 43.3413 31.8577C43.4679 32.3776 43.5317 32.9109 43.5314 33.4461V47.9068C43.5325 47.9253 43.5297 47.9438 43.5233 47.9612C43.5168 47.9786 43.5068 47.9945 43.4938 48.0077C43.4809 48.0209 43.4653 48.0313 43.4481 48.0381C43.431 48.045 43.4125 48.0481 43.3941 48.0473ZM29.3031 47.7821H43.2673V33.4461C43.2682 32.9309 43.2088 32.4173 43.0904 31.916C43.0882 31.8944 43.0838 31.8731 43.0772 31.8524C43.0762 31.8436 43.0762 31.8347 43.0772 31.8259C43.014 31.5619 42.9338 31.3023 42.8369 31.0489C42.3528 29.7828 41.4999 28.6927 40.3896 27.9207C39.2793 27.1486 37.9631 26.7306 36.6127 26.721H36.0079C35.1277 26.7196 34.2559 26.8926 33.4423 27.2299C32.6287 27.5673 31.8894 28.0625 31.2666 28.6872C30.6439 29.3118 30.1499 30.0537 29.813 30.8703C29.476 31.6869 29.3028 32.5622 29.3031 33.4461V47.7821Z" fill="#231F20"/>
<path d="M29.1726 47.9148H43.3929V60.5695C43.3929 62.2954 42.7101 63.9507 41.4948 65.1711C40.2795 66.3915 38.6312 67.0772 36.9125 67.0772H35.6503C33.9316 67.0772 32.2833 66.3915 31.068 65.1711C29.8527 63.9507 29.1699 62.2954 29.1699 60.5695V47.9148H29.1726Z" fill="white"/>
<path d="M36.9122 67.1989H35.6526C33.9017 67.1989 32.2225 66.5005 30.9844 65.2572C29.7463 64.0139 29.0508 62.3276 29.0508 60.5693V47.9146C29.0515 47.8824 29.0645 47.8518 29.0871 47.8291C29.1097 47.8063 29.1403 47.7933 29.1723 47.7926H43.3926C43.4246 47.7933 43.4551 47.8063 43.4777 47.8291C43.5004 47.8518 43.5134 47.8824 43.5141 47.9146V60.5693C43.5141 62.3276 42.8185 64.0139 41.5804 65.2572C40.3423 66.5005 38.6631 67.1989 36.9122 67.1989ZM29.2937 48.0313V60.564C29.2951 62.2571 29.9655 63.8806 31.1577 65.0778C32.35 66.275 33.9666 66.9483 35.6526 66.9497H36.9122C38.5965 66.9469 40.2109 66.2738 41.4018 65.0778C42.5927 63.8819 43.263 62.2606 43.2658 60.5693V48.0313H29.2937Z" fill="#231F20"/>
<path d="M39.7977 59.5114H32.7707C32.7357 59.5114 32.7021 59.4974 32.6773 59.4726C32.6526 59.4477 32.6387 59.414 32.6387 59.3788C32.6387 59.3436 32.6526 59.3099 32.6773 59.2851C32.7021 59.2602 32.7357 59.2462 32.7707 59.2462H39.7977C39.8327 59.2462 39.8663 59.2602 39.8911 59.2851C39.9158 59.3099 39.9297 59.3436 39.9297 59.3788C39.9297 59.414 39.9158 59.4477 39.8911 59.4726C39.8663 59.4974 39.8327 59.5114 39.7977 59.5114Z" fill="#D1D3D4"/>
<path d="M51.0279 37.3178C51.779 37.3178 52.3879 36.7064 52.3879 35.9521C52.3879 35.1979 51.779 34.5864 51.0279 34.5864C50.2768 34.5864 49.668 35.1979 49.668 35.9521C49.668 36.7064 50.2768 37.3178 51.0279 37.3178Z" fill="white"/>
<path d="M51.029 37.4372C50.7358 37.4377 50.449 37.3508 50.205 37.1876C49.9609 37.0243 49.7707 36.792 49.6582 36.52C49.5457 36.2481 49.5162 35.9487 49.5733 35.6599C49.6303 35.3711 49.7715 35.1057 49.9788 34.8975C50.1862 34.6893 50.4504 34.5476 50.738 34.4902C51.0256 34.4329 51.3237 34.4626 51.5945 34.5755C51.8653 34.6885 52.0967 34.8796 52.2592 35.1246C52.4218 35.3697 52.5083 35.6577 52.5078 35.9521C52.5071 36.3458 52.3511 36.7231 52.0739 37.0014C51.7967 37.2798 51.421 37.4365 51.029 37.4372ZM51.029 34.7084C50.7841 34.7084 50.5446 34.7814 50.3409 34.918C50.1373 35.0547 49.9785 35.2489 49.8848 35.4762C49.791 35.7034 49.7665 35.9535 49.8143 36.1948C49.8621 36.436 49.98 36.6576 50.1533 36.8316C50.3265 37.0055 50.5471 37.124 50.7874 37.172C51.0276 37.22 51.2767 37.1953 51.503 37.1012C51.7293 37.0071 51.9227 36.8476 52.0588 36.6431C52.1949 36.4386 52.2675 36.1981 52.2675 35.9521C52.2675 35.7888 52.2355 35.6271 52.1732 35.4762C52.111 35.3253 52.0198 35.1882 51.9048 35.0727C51.7898 34.9572 51.6532 34.8656 51.503 34.8031C51.3527 34.7406 51.1917 34.7084 51.029 34.7084Z" fill="#231F20"/>
<path d="M51.0297 34.7083C50.9977 34.7077 50.9672 34.6946 50.9445 34.6719C50.9219 34.6491 50.9089 34.6185 50.9082 34.5863V17.7841C50.9089 17.7522 50.922 17.7219 50.9447 17.6996C50.9674 17.6773 50.9979 17.6648 51.0297 17.6648C51.0612 17.6648 51.0914 17.6774 51.1137 17.6997C51.136 17.7221 51.1485 17.7525 51.1485 17.7841V34.5863C51.1485 34.6182 51.1361 34.6489 51.1139 34.6717C51.0917 34.6945 51.0614 34.7076 51.0297 34.7083Z" fill="#231F20"/>
<path d="M56.0262 19.0544L51.0273 21.3138V17.7842H56.0262V19.0544Z" fill="white"/>
<path d="M51.0266 21.4464C51.0013 21.4464 50.9765 21.439 50.9553 21.4252C50.9363 21.4136 50.9208 21.3972 50.9101 21.3777C50.8995 21.3581 50.8941 21.3361 50.8946 21.3138V17.7842C50.8946 17.749 50.9085 17.7153 50.9332 17.6904C50.958 17.6656 50.9916 17.6516 51.0266 17.6516H56.0255C56.0603 17.6523 56.0935 17.6665 56.1181 17.6912C56.1427 17.7159 56.1569 17.7493 56.1575 17.7842V19.0518C56.1573 19.0776 56.1497 19.1028 56.1357 19.1244C56.1216 19.146 56.1017 19.1632 56.0783 19.1738L51.0794 21.4332C51.063 21.4415 51.045 21.4461 51.0266 21.4464ZM51.1586 17.9168V21.099L55.8935 18.959V17.8982L51.1586 17.9168Z" fill="#231F20"/>
<path d="M53.873 47.9148H48.1426V49.2885H53.873V47.9148Z" fill="white"/>
<path d="M53.8714 49.4076H48.141C48.1092 49.4076 48.0787 49.3951 48.056 49.3728C48.0333 49.3505 48.0202 49.3201 48.0195 49.2883V47.9146C48.0202 47.8824 48.0332 47.8518 48.0559 47.8291C48.0785 47.8063 48.109 47.7933 48.141 47.7926H53.8714C53.9034 47.7933 53.9339 47.8063 53.9565 47.8291C53.9792 47.8518 53.9922 47.8824 53.9929 47.9146V49.2883C53.9922 49.3201 53.9791 49.3505 53.9564 49.3728C53.9337 49.3951 53.9032 49.4076 53.8714 49.4076ZM48.2625 49.1663H53.7499V48.0313H48.2625V49.1663Z" fill="#231F20"/>
<path d="M49.0645 68.5117V49.2883H52.5132V68.5117" fill="white"/>
<path d="M52.5084 68.6336C52.4766 68.6329 52.4464 68.6198 52.4242 68.597C52.402 68.5742 52.3896 68.5435 52.3896 68.5116V49.4182H49.1811V68.5116C49.1836 68.529 49.1825 68.5467 49.1776 68.5635C49.1727 68.5804 49.1643 68.596 49.1529 68.6092C49.1415 68.6225 49.1274 68.6332 49.1115 68.6405C49.0956 68.6478 49.0784 68.6516 49.0609 68.6516C49.0435 68.6516 49.0262 68.6478 49.0103 68.6405C48.9945 68.6332 48.9803 68.6225 48.9689 68.6092C48.9575 68.596 48.9491 68.5804 48.9443 68.5635C48.9394 68.5467 48.9382 68.529 48.9408 68.5116V49.2883C48.9404 49.2722 48.9433 49.2561 48.9493 49.2412C48.9553 49.2262 48.9642 49.2126 48.9755 49.2012C48.9869 49.1898 49.0004 49.1808 49.0153 49.1748C49.0302 49.1688 49.0462 49.1659 49.0622 49.1663H52.5084C52.5244 49.1659 52.5404 49.1688 52.5553 49.1748C52.5702 49.1808 52.5837 49.1898 52.5951 49.2012C52.6064 49.2126 52.6154 49.2262 52.6214 49.2412C52.6273 49.2561 52.6302 49.2722 52.6299 49.2883V68.5116C52.6299 68.544 52.6171 68.575 52.5943 68.5979C52.5715 68.6208 52.5406 68.6336 52.5084 68.6336Z" fill="#231F20"/>
<path d="M40.9686 34.3L40.9449 34.3928L40.2741 36.9996L39.6113 39.5693L39.3974 40.394L38.8719 42.4333L37.9767 45.9125L37.974 45.9231L37.9503 46.0133L25.4649 42.7701L24.6621 42.5632L21.5857 41.765L18.0312 40.8395L18.055 40.7414L21.047 29.1262L24.3558 29.9854L27.6593 30.842L31.4541 31.8311L39.2231 33.8465L40.9475 34.2947L40.9686 34.3Z" fill="white"/>
<path d="M37.9513 46.1353H37.9223L18.0006 40.9615C17.9698 40.9528 17.9436 40.9325 17.9273 40.9048C17.9111 40.8772 17.9061 40.8443 17.9135 40.813L17.9399 40.7149L20.9292 29.0971C20.9387 29.0667 20.9583 29.0405 20.9846 29.0228C20.9992 29.0163 21.0149 29.0129 21.0308 29.0129C21.0468 29.0129 21.0625 29.0163 21.077 29.0228L40.9776 34.1913C41.0117 34.2002 41.0416 34.2209 41.0621 34.2496C41.0831 34.2767 41.0926 34.311 41.0885 34.3451L38.9891 42.4625L38.0675 46.0425C38.0615 46.0689 38.0467 46.0925 38.0256 46.1094C38.0045 46.1262 37.9783 46.1354 37.9513 46.1353ZM18.1802 40.7547L37.8668 45.8675L40.8271 34.3875L21.1325 29.2721L18.1802 40.7547Z" fill="#231F20"/>
<path d="M29.0658 39.3836C29.0476 39.3838 29.0296 39.3798 29.0132 39.372C28.9967 39.3642 28.9822 39.3527 28.9707 39.3386L20.9535 29.2031C20.9358 29.1776 20.9284 29.1463 20.9329 29.1156C20.9374 29.0848 20.9535 29.057 20.9777 29.0377C21.002 29.0184 21.0327 29.0091 21.0635 29.0118C21.0943 29.0145 21.123 29.0288 21.1436 29.052L29.1028 39.1291L40.9253 34.1992C40.9548 34.1884 40.9873 34.1895 41.016 34.2022C41.0447 34.2149 41.0674 34.2383 41.0793 34.2674C41.0912 34.2965 41.0915 34.3291 41.08 34.3585C41.0686 34.3878 41.0462 34.4115 41.0177 34.4247L29.1107 39.3889C29.0955 39.39 29.0803 39.3882 29.0658 39.3836Z" fill="#231F20"/>
<path d="M37.9862 46.0372C37.9685 46.0369 37.951 46.0328 37.9351 46.025C37.9191 46.0172 37.905 46.006 37.8938 45.9921L31.7172 38.193C31.6995 38.1675 31.6921 38.1362 31.6966 38.1055C31.7011 38.0747 31.7171 38.0469 31.7414 38.0276C31.7657 38.0083 31.7963 37.999 31.8272 38.0017C31.858 38.0043 31.8866 38.0187 31.9073 38.0418L38.0734 45.841C38.0835 45.8535 38.0911 45.8679 38.0956 45.8833C38.1002 45.8988 38.1017 45.915 38.1 45.931C38.0982 45.9471 38.0934 45.9626 38.0856 45.9767C38.0779 45.9908 38.0675 46.0033 38.0549 46.0133C38.0346 46.0273 38.0109 46.0356 37.9862 46.0372Z" fill="#231F20"/>
<path d="M18.0567 40.8713C18.0287 40.8719 18.0015 40.8625 17.9797 40.8449C17.958 40.8272 17.9431 40.8025 17.9378 40.7749C17.9324 40.7474 17.9369 40.7188 17.9504 40.6942C17.964 40.6697 17.9857 40.6507 18.0118 40.6406L27.1593 36.8113C27.1741 36.8045 27.1902 36.8007 27.2066 36.8002C27.223 36.7998 27.2392 36.8026 27.2545 36.8086C27.2697 36.8146 27.2836 36.8237 27.2952 36.8352C27.3069 36.8467 27.3161 36.8605 27.3224 36.8757C27.3286 36.8909 27.3317 36.9072 27.3315 36.9237C27.3313 36.9401 27.3278 36.9563 27.3212 36.9714C27.3146 36.9864 27.305 36.9999 27.2931 37.0112C27.2811 37.0224 27.2671 37.0311 27.2517 37.0367L18.0936 40.8554C18.0821 40.8624 18.0696 40.8677 18.0567 40.8713Z" fill="#231F20"/>
<path d="M43.3935 33.4462V40.2668L42.9895 40.1899L39.9632 39.5879L36.8867 38.9726L33.9978 38.4052L30.784 37.7661L30.1423 37.6388L29.9733 37.6043L29.1811 37.4425L26.0122 36.8114L25.0352 36.6178L25.624 33.6212L26.0756 31.3379L27.3775 24.748L36.62 26.5884L39.1208 27.0817C39.9917 27.4354 40.7806 27.9655 41.4385 28.639C42.0964 29.3124 42.6091 30.1147 42.9446 30.9958C43.0451 31.2551 43.128 31.5209 43.1928 31.7914H43.2166V31.8869C43.3359 32.3979 43.3953 32.9212 43.3935 33.4462Z" fill="white"/>
<path d="M43.3925 40.3967H43.3713L42.9673 40.3198L24.9945 36.7398C24.9631 36.7327 24.9356 36.7137 24.9179 36.6867C24.9085 36.674 24.9019 36.6593 24.8987 36.6437C24.8955 36.6281 24.8958 36.612 24.8994 36.5966L27.2418 24.7268C27.2481 24.6952 27.2667 24.6674 27.2934 24.6495C27.3202 24.6316 27.3529 24.6251 27.3844 24.6313L39.1435 26.9729C40.0332 27.3301 40.8399 27.8677 41.5133 28.5521C42.1867 29.2365 42.7122 30.0531 43.0571 30.9507C43.1519 31.1995 43.2321 31.4536 43.2974 31.7118C43.3196 31.7325 43.3328 31.761 43.3344 31.7914V31.8709C43.456 32.3862 43.5172 32.914 43.5166 33.4435V40.2641C43.5169 40.282 43.513 40.2998 43.5052 40.3159C43.4974 40.332 43.4859 40.3461 43.4717 40.3569C43.4515 40.3801 43.4231 40.3944 43.3925 40.3967ZM25.1714 36.5223L43.2657 40.1288V33.4461C43.2659 32.9299 43.2056 32.4155 43.0861 31.9134C43.0848 31.9028 43.0848 31.8921 43.0861 31.8815V31.855C43.0784 31.8435 43.0722 31.831 43.0677 31.8179C43.0049 31.5538 42.9246 31.2942 42.8273 31.0409C42.4981 30.1749 41.9944 29.3864 41.3478 28.7247C40.7012 28.0631 39.9256 27.5426 39.0696 27.1957L27.4504 24.8833L25.1714 36.5223Z" fill="#231F20"/>
<path d="M35.9443 34.5308C35.927 34.531 35.9098 34.5276 35.8939 34.5207C35.878 34.5139 35.8637 34.5037 35.8519 34.491L27.2721 24.8276C27.2617 24.8158 27.2538 24.802 27.2487 24.787C27.2436 24.7721 27.2414 24.7563 27.2424 24.7406C27.2434 24.7248 27.2475 24.7094 27.2544 24.6952C27.2613 24.681 27.2709 24.6683 27.2827 24.6579C27.2945 24.6474 27.3082 24.6394 27.3231 24.6343C27.338 24.6292 27.3537 24.6271 27.3694 24.628C27.3851 24.629 27.4004 24.6331 27.4146 24.64C27.4287 24.647 27.4413 24.6567 27.4517 24.6685L35.9733 34.2603L42.8921 30.8951C42.9213 30.8818 42.9545 30.8802 42.9848 30.8905C43.0152 30.9009 43.0406 30.9224 43.0558 30.9508C43.0694 30.9804 43.071 31.0141 43.0602 31.0449C43.0493 31.0756 43.0269 31.1009 42.9977 31.1152L35.9945 34.5069C35.9799 34.5187 35.9627 34.5269 35.9443 34.5308Z" fill="#231F20"/>
<path d="M43.3941 38.6041C43.377 38.6036 43.3603 38.5995 43.3448 38.5922C43.3294 38.5849 43.3156 38.5745 43.3043 38.5616L38.5299 33.181C38.5128 33.1566 38.5052 33.1267 38.5086 33.097C38.512 33.0674 38.526 33.04 38.5482 33.0201C38.5703 33.0001 38.5989 32.989 38.6287 32.9889C38.6584 32.9887 38.6871 32.9995 38.7095 33.0192L43.4839 38.3946C43.4951 38.4057 43.5039 38.4189 43.51 38.4334C43.5161 38.448 43.5192 38.4636 43.5192 38.4794C43.5192 38.4952 43.5161 38.5108 43.51 38.5254C43.5039 38.54 43.4951 38.5532 43.4839 38.5643C43.4724 38.5767 43.4585 38.5866 43.4431 38.5935C43.4276 38.6003 43.411 38.6039 43.3941 38.6041Z" fill="#231F20"/>
<path d="M25.0459 36.6417C25.0232 36.6418 25.0009 36.6353 24.9817 36.6231C24.9625 36.6109 24.9472 36.5934 24.9376 36.5727C24.9239 36.5438 24.922 36.5107 24.9324 36.4804C24.9428 36.4502 24.9646 36.4252 24.9931 36.411L33.9188 32.0725C33.9332 32.063 33.9495 32.0566 33.9665 32.0539C33.9836 32.0512 34.001 32.0521 34.0177 32.0567C34.0343 32.0613 34.0498 32.0694 34.0631 32.0804C34.0764 32.0915 34.0872 32.1053 34.0948 32.1209C34.1024 32.1365 34.1065 32.1535 34.107 32.1708C34.1075 32.1882 34.1044 32.2054 34.0977 32.2214C34.091 32.2374 34.081 32.2518 34.0684 32.2636C34.0558 32.2754 34.0408 32.2844 34.0244 32.29L25.0908 36.6284C25.0771 36.6364 25.0617 36.641 25.0459 36.6417Z" fill="#231F20"/>
<path d="M43.3978 34.5864H25.998V46.6869H43.3978V34.5864Z" fill="white"/>
<path d="M43.3936 46.8089H25.9965C25.9645 46.8083 25.934 46.7952 25.9113 46.7725C25.8887 46.7497 25.8757 46.7191 25.875 46.687V34.5865C25.875 34.5541 25.8878 34.5231 25.9106 34.5002C25.9334 34.4774 25.9643 34.4645 25.9965 34.4645H43.3936C43.4096 34.4641 43.4256 34.4671 43.4405 34.4731C43.4554 34.4791 43.4689 34.488 43.4803 34.4994C43.4917 34.5108 43.5006 34.5244 43.5066 34.5394C43.5125 34.5544 43.5154 34.5704 43.5151 34.5865V46.687C43.5151 46.703 43.5119 46.7188 43.5058 46.7336C43.4997 46.7484 43.4908 46.7619 43.4795 46.7732C43.4682 46.7845 43.4548 46.7935 43.4401 46.7997C43.4253 46.8058 43.4095 46.8089 43.3936 46.8089ZM26.1153 46.565H43.28V34.7058H26.1153V46.565Z" fill="#231F20"/>
<path d="M36.2824 42.505C36.2558 42.5052 36.2299 42.4968 36.2084 42.4811L25.9096 34.6846C25.893 34.6714 25.8802 34.654 25.8726 34.6342C25.8642 34.6197 25.8597 34.6033 25.8594 34.5865C25.859 34.5704 25.8619 34.5544 25.8679 34.5394C25.8739 34.5244 25.8828 34.5108 25.8942 34.4994C25.9055 34.488 25.9191 34.4791 25.934 34.4731C25.9489 34.4671 25.9648 34.4641 25.9809 34.4645C25.9977 34.4647 26.0144 34.4683 26.0299 34.4751C26.0453 34.4819 26.0592 34.4919 26.0707 34.5043L36.2665 42.2318L43.3225 36.8936C43.335 36.8818 43.3497 36.8727 43.3659 36.867C43.382 36.8613 43.3992 36.8591 43.4163 36.8605C43.4333 36.8619 43.4499 36.8669 43.4649 36.8752C43.4799 36.8835 43.4929 36.8949 43.5032 36.9086C43.5135 36.9224 43.5208 36.9381 43.5247 36.9549C43.5285 36.9717 43.5287 36.989 43.5254 37.0059C43.522 37.0228 43.5151 37.0387 43.5052 37.0527C43.4953 37.0667 43.4825 37.0785 43.4678 37.0872L36.3537 42.4784C36.3333 42.4947 36.3083 42.504 36.2824 42.505Z" fill="#231F20"/>
<path d="M43.3938 44.2976C43.3682 44.2974 43.3432 44.2891 43.3225 44.2737L38.5692 40.6831C38.5438 40.6636 38.5271 40.6349 38.5227 40.6031C38.5182 40.5714 38.5264 40.5391 38.5455 40.5134C38.5548 40.5005 38.5667 40.4896 38.5804 40.4814C38.594 40.4731 38.6092 40.4677 38.6249 40.4655C38.6407 40.4633 38.6568 40.4643 38.6721 40.4684C38.6875 40.4725 38.7019 40.4797 38.7145 40.4895L43.4546 44.0801C43.4742 44.0958 43.4885 44.1172 43.4956 44.1413C43.5026 44.1655 43.502 44.1912 43.4939 44.215C43.4858 44.2389 43.4706 44.2596 43.4503 44.2744C43.43 44.2891 43.4057 44.2973 43.3806 44.2976H43.3938Z" fill="#231F20"/>
<path d="M25.9942 46.7054C25.9694 46.7045 25.9454 46.6961 25.9255 46.6811C25.9056 46.6661 25.8908 46.6454 25.883 46.6217C25.8753 46.598 25.8749 46.5724 25.8821 46.5485C25.8892 46.5246 25.9034 46.5035 25.9229 46.488L33.8451 40.4868C33.8708 40.4716 33.9012 40.4665 33.9304 40.4723C33.9596 40.4782 33.9857 40.4946 34.0037 40.5186C34.0216 40.5425 34.0302 40.5722 34.0277 40.602C34.0252 40.6319 34.0119 40.6598 33.9903 40.6804L26.0681 46.6816C26.0465 46.6969 26.0207 46.7053 25.9942 46.7054Z" fill="#231F20"/>
<path d="M35.8434 35.6536L17.293 44.595L22.507 55.5039L41.0574 46.5626L35.8434 35.6536Z" fill="white"/>
<path d="M22.5019 55.6289C22.4792 55.6287 22.4571 55.6222 22.4379 55.61C22.4188 55.5978 22.4034 55.5805 22.3936 55.56L17.1808 44.6502C17.1689 44.6204 17.1689 44.5872 17.1808 44.5574C17.192 44.5277 17.2136 44.5032 17.2415 44.4884L35.7927 35.549C35.8217 35.5354 35.855 35.5339 35.8852 35.5448C35.9154 35.5558 35.94 35.5782 35.9537 35.6074L41.1533 46.5145C41.1652 46.5443 41.1652 46.5775 41.1533 46.6073C41.1483 46.6222 41.1403 46.636 41.1299 46.6479C41.1194 46.6597 41.1068 46.6694 41.0926 46.6762L22.5547 55.6157C22.5382 55.6238 22.5202 55.6283 22.5019 55.6289ZM17.4502 44.6555L22.5573 55.3452L40.8893 46.5092L35.7847 35.8328L17.4502 44.6555Z" fill="#231F20"/>
<path d="M29.9269 47.2809H29.9031L17.2673 44.7192C17.2518 44.7164 17.237 44.7105 17.2238 44.7018C17.2106 44.6932 17.1993 44.682 17.1905 44.6689C17.1816 44.6559 17.1754 44.6411 17.1723 44.6257C17.1692 44.6102 17.1691 44.5942 17.1722 44.5787C17.175 44.5629 17.181 44.5478 17.1898 44.5343C17.1985 44.5209 17.2099 44.5094 17.2232 44.5005C17.2366 44.4915 17.2515 44.4854 17.2673 44.4825C17.283 44.4795 17.2992 44.4798 17.3148 44.4832L29.8609 47.0264L35.7365 35.6048C35.7533 35.5804 35.7784 35.5631 35.8071 35.5559C35.8357 35.5488 35.866 35.5524 35.8922 35.5661C35.9184 35.5797 35.9388 35.6025 35.9495 35.6301C35.9602 35.6577 35.9605 35.6883 35.9504 35.7162L30.0352 47.2173C30.0248 47.237 30.0092 47.2534 29.9901 47.2646C29.971 47.2759 29.9491 47.2815 29.9269 47.2809Z" fill="#231F20"/>
<path d="M41.0116 46.5994H40.9878L31.2673 44.629C31.2358 44.6226 31.2081 44.604 31.1903 44.5772C31.1725 44.5503 31.166 44.5175 31.1722 44.4859C31.175 44.47 31.181 44.4549 31.1898 44.4415C31.1986 44.4281 31.21 44.4165 31.2233 44.4076C31.2366 44.3987 31.2516 44.3926 31.2673 44.3896C31.283 44.3867 31.2992 44.3869 31.3148 44.3904L41.0353 46.3607C41.0646 46.3669 41.0906 46.3838 41.1082 46.408C41.1259 46.4322 41.134 46.4622 41.1311 46.4921C41.1281 46.522 41.1143 46.5497 41.0923 46.57C41.0702 46.5903 41.0415 46.6017 41.0116 46.602V46.5994Z" fill="#231F20"/>
<path d="M22.4596 55.5388C22.4404 55.5382 22.4215 55.5337 22.4041 55.5255C22.3899 55.5182 22.3772 55.5082 22.3669 55.496C22.3565 55.4838 22.3487 55.4696 22.3438 55.4543C22.3389 55.4391 22.337 55.423 22.3383 55.407C22.3396 55.391 22.344 55.3754 22.3513 55.3611L26.8934 46.5145C26.9086 46.4861 26.9341 46.4648 26.9646 46.4549C26.9951 46.445 27.0283 46.4473 27.0571 46.4615C27.0854 46.4767 27.1066 46.5023 27.1165 46.533C27.1263 46.5636 27.124 46.5969 27.1099 46.6259L22.5573 55.4725C22.5482 55.4911 22.5344 55.507 22.5172 55.5187C22.5001 55.5303 22.4802 55.5372 22.4596 55.5388Z" fill="#231F20"/>
<path d="M49.0645 52.2902L52.5132 54.8387V49.2883H49.0645V52.2902Z" fill="#231F20"/>
<path d="M52.5086 54.9713C52.4812 54.9715 52.4544 54.9632 52.432 54.9474L48.9805 52.399C48.9643 52.3865 48.9511 52.3705 48.9419 52.3521C48.9328 52.3337 48.9279 52.3135 48.9277 52.2929V49.2884C48.9277 49.2532 48.9416 49.2195 48.9664 49.1946C48.9912 49.1697 49.0248 49.1558 49.0598 49.1558H52.5086C52.5436 49.1558 52.5772 49.1697 52.6019 49.1946C52.6267 49.2195 52.6406 49.2532 52.6406 49.2884V54.8387C52.6412 54.8633 52.6348 54.8876 52.6222 54.9088C52.6096 54.9299 52.5912 54.947 52.5693 54.958C52.5505 54.9677 52.5296 54.9722 52.5086 54.9713ZM49.1918 52.224L52.3765 54.5788V49.4209H49.1944L49.1918 52.224Z" fill="#231F20"/>
</svg>
