<svg width="80" height="81" viewBox="0 0 80 81" fill="none" xmlns="http://www.w3.org/2000/svg">
<circle cx="40" cy="40.6516" r="40" fill="#DEEFFF"/>
<path d="M22.4911 48.3825C22.4911 48.3825 22.7445 51.3028 24.2097 52.2616C25.6748 53.2204 29.7601 52.6471 30.087 53.0134C30.4139 53.3796 37.2381 63.5508 38.0629 64.0651C38.8877 64.5795 41.2865 62.9225 42.8817 60.5246C42.8817 60.5246 36.0355 51.2386 35.6744 50.3789C35.3132 49.5193 35.9539 45.3301 35.5732 43.5852L22.4911 48.3825Z" fill="white"/>
<path d="M37.2238 65.4272C37.155 65.411 37.0879 65.3882 37.0235 65.3591C36.4915 65.0147 34.1967 61.7457 30.4158 56.2034C29.5651 54.9484 28.8202 53.8705 28.7245 53.7488C28.6288 53.6271 27.8679 53.7249 27.2878 53.7356C25.7818 53.736 23.7195 53.7404 22.6989 53.0516C21.0693 51.9477 20.7888 48.8586 20.7754 48.7278C20.7667 48.6509 20.7842 48.573 20.8249 48.507C20.8656 48.441 20.9271 48.391 20.9989 48.3655L34.5849 43.3286C34.6311 43.3123 34.6798 43.3058 34.7281 43.3094C34.7764 43.3131 34.8234 43.3269 34.866 43.3499C34.9494 43.3997 35.0097 43.4817 35.0338 43.5778C35.1937 44.9532 35.206 46.3448 35.0706 47.7281C34.9608 48.692 34.9658 49.6641 35.0854 50.6228C35.3473 51.2542 39.6671 57.2695 42.5074 61.1623C42.5511 61.219 42.5755 61.2889 42.5768 61.3617C42.5782 61.4345 42.5564 61.5062 42.5149 61.566C41.0288 63.7646 38.4838 65.8557 37.2238 65.4272ZM28.9951 53.098C29.0883 53.1254 29.1725 53.1771 29.2398 53.248C29.3507 53.3674 29.8556 54.1111 30.9887 55.7668C32.9219 58.5711 36.8487 64.3636 37.3998 64.7368C37.9508 65.1099 40.1109 63.7942 41.8193 61.322C40.621 59.6888 34.8175 51.7128 34.4636 50.8422C34.2603 50.3571 34.307 49.3032 34.388 47.6371C34.4841 46.4461 34.496 45.251 34.4236 44.0612L21.47 48.8897C21.5747 49.6236 21.9666 51.6809 23.069 52.4049C23.9268 52.9789 25.9522 52.9768 27.2852 52.977C27.8591 52.9406 28.434 52.9812 28.9951 53.098Z" fill="#231F20"/>
<path d="M50.0533 48.9929C50.0533 48.9929 40.4077 44.6145 35.5389 45.581C34.3093 45.842 33.0992 46.1865 31.9173 46.6123C29.1234 47.5856 26.3825 48.8366 24.3957 49.3789C20.4582 50.4358 17.2081 49.8164 16.251 45.6773C15.4417 42.1475 16.9584 41.1192 20.2688 39.3498C21.901 38.4739 25.1576 37.2186 28.1375 35.6164C29.8711 34.7519 31.465 33.634 32.8665 32.2995C36.0201 29.0591 37.5045 22.955 37.5045 22.955L50.0533 48.9929Z" fill="white"/>
<path d="M19.7812 49.6766C19.4496 49.5673 19.1316 49.4201 18.8336 49.238C18.1916 48.818 17.6436 48.2695 17.2242 47.6272C16.8048 46.9849 16.523 46.2629 16.3968 45.5067C15.501 41.6148 17.2491 40.4773 20.6821 38.6326C21.4016 38.2475 22.4044 37.7944 23.5653 37.2787C25.1805 36.5546 27.0073 35.7109 28.7648 34.7888C30.5152 33.9166 32.1241 32.786 33.5374 31.4349C36.6892 28.1939 38.2151 22.0039 38.2298 21.9404C38.2463 21.8756 38.2821 21.8173 38.3324 21.7733C38.3828 21.7294 38.4453 21.7017 38.5118 21.694C38.5791 21.6863 38.6471 21.7002 38.706 21.7337C38.7649 21.7673 38.8115 21.8188 38.8391 21.8807L51.6974 48.6667C51.7251 48.7263 51.7342 48.7929 51.7233 48.8576C51.7124 48.9224 51.682 48.9822 51.6363 49.0293C51.5898 49.0773 51.5298 49.1101 51.4642 49.1232C51.3986 49.1363 51.3305 49.1293 51.2689 49.1029C51.1644 49.0674 41.4131 44.6627 36.5749 45.6393C35.3282 45.9051 34.1015 46.2565 32.9034 46.6909C31.7285 47.106 30.5555 47.556 29.4543 47.9961C28.0524 48.5834 26.6209 49.0974 25.1654 49.5361C22.9849 50.1089 21.1881 50.1551 19.7812 49.6766ZM38.6315 22.9396C38.082 24.8065 36.5843 29.2125 34.0071 31.889C32.5439 33.2845 30.8806 34.4539 29.0721 35.3588C27.2877 36.3197 25.4548 37.1408 23.8314 37.8689C22.6848 38.3826 21.6841 38.8296 20.9893 39.2026C17.649 40.9761 16.2339 41.9188 17.0208 45.3834C17.1298 46.0544 17.3755 46.696 17.7428 47.2684C18.1101 47.8409 18.591 48.3318 19.1558 48.7109C20.5099 49.5274 22.4662 49.5971 24.9753 48.9237C26.4071 48.4964 27.8148 47.9925 29.1922 47.4141C30.3201 46.9762 31.4829 46.5159 32.6639 46.1029C33.9005 45.6586 35.1663 45.3 36.4524 45.0294C40.7097 44.1702 48.2564 47.1337 50.7355 48.189L38.6315 22.9396Z" fill="#231F20"/>
<path d="M34.616 46.3439C31.5541 47.3044 27.7825 48.6746 25.6454 49.2915C20.7611 50.7058 18.1614 50.1472 16.7345 45.8594C15.2593 41.4512 17.2586 40.4965 20.8755 38.7066C22.6577 37.8236 26.2241 36.5775 29.4779 34.962C29.4779 34.962 28.7713 37.5546 30.4297 41.5748C31.2472 43.5385 32.7201 45.2163 34.616 46.3439Z" fill="#231F20"/>
<path d="M19.5434 51.232C19.3455 51.1664 19.1535 51.0841 18.9694 50.9859C17.7563 50.3478 16.9201 49.1028 16.336 47.0704C14.9523 42.2702 17.1093 41.0899 20.6735 39.1293C21.4774 38.675 22.5215 38.2078 23.7378 37.6536C25.4301 36.8756 27.3443 35.9694 29.1865 34.9804C29.244 34.9469 29.3101 34.9319 29.3759 34.9374C29.4417 34.9429 29.5041 34.9686 29.5548 35.0111C29.6064 35.0527 29.6448 35.1089 29.6651 35.1727C29.6854 35.2365 29.6868 35.3051 29.6691 35.3701C29.6691 35.3701 28.9716 38.0437 30.4128 42.0194C31.1318 43.9641 32.4634 45.6085 34.2022 46.6991C34.2586 46.7318 34.3047 46.7798 34.3356 46.8378C34.3664 46.8959 34.3807 46.9616 34.3768 47.0277C34.3683 47.0938 34.3424 47.1565 34.3019 47.2093C34.2614 47.2621 34.2078 47.3031 34.1467 47.3278C32.7637 47.8253 31.2427 48.4141 29.7647 48.9812C28.0716 49.6352 26.4752 50.2566 25.3399 50.6346C22.7638 51.5122 20.9146 51.6983 19.5434 51.232ZM28.8835 35.918C27.2181 36.807 25.5258 37.585 24.0124 38.2782C22.811 38.8302 21.7625 39.3105 21.0342 39.7104C17.5195 41.6515 15.7676 42.6057 16.9895 46.8706C17.5176 48.7093 18.248 49.8237 19.2841 50.3725C20.5398 51.0324 22.3368 50.9158 25.1321 49.9818C26.2436 49.6321 27.8466 48.9911 29.5311 48.3414C30.781 47.8569 32.0633 47.3615 33.2721 46.914C31.679 45.7485 30.4625 44.1304 29.7739 42.2605C28.9883 40.2519 28.6832 38.0787 28.8835 35.918Z" fill="#231F20"/>
<path d="M53.7049 48.8056C50.7694 50.0419 46.3291 46.6708 42.8358 40.94C41.9399 39.4733 41.1484 37.947 40.4673 36.3723C39.7972 34.8263 39.2345 33.2375 38.7831 31.617C36.9373 25.1057 37.5343 19.612 40.492 18.3698C44.1442 16.8302 50.0756 22.3961 53.7296 30.8031C57.3837 39.21 57.3713 47.264 53.7049 48.8056Z" fill="#48A4FE"/>
<path d="M44.2518 17.7413C47.7186 18.9203 51.9174 23.7583 54.7547 30.2832C58.4523 38.7787 58.452 46.9196 54.7357 48.4729C53.8133 48.8234 52.7888 48.8165 51.8652 48.4536C49.2789 47.5741 46.289 44.6636 43.7551 40.5265C42.85 39.0448 42.0504 37.5027 41.3623 35.9118C40.6901 34.349 40.1264 32.7432 39.6751 31.1058C37.8104 24.5275 38.4136 18.9773 41.4017 17.7223C42.3181 17.3776 43.3341 17.3844 44.2518 17.7413ZM44.4563 17.137C43.3815 16.7199 42.1909 16.7194 41.123 17.1356C37.8881 18.4953 37.0503 24.1747 39.0389 31.2533C39.9853 34.6186 41.3836 37.8461 43.1961 40.8486C45.8421 45.1181 48.9175 48.1184 51.6505 49.0478C52.737 49.4684 53.941 49.4632 55.0165 49.0334C57.0582 48.1777 58.2005 45.6682 58.1819 41.9553C58.0427 37.8329 57.0839 33.7715 55.3605 30.0039C52.4845 23.4727 48.2227 18.4178 44.4563 17.137Z" fill="#231F20"/>
<path d="M48.9204 37.8598L43.3621 41.3209C42.4816 39.901 41.7028 38.424 41.0314 36.9007C40.371 35.4052 39.8152 33.8687 39.368 32.3022L46.2131 30.8288L48.9204 37.8598Z" fill="white"/>
<path d="M49.1802 37.549C50.129 37.1903 50.2753 35.2436 49.507 33.201C48.7386 31.1584 47.3465 29.7933 46.3977 30.152C45.4489 30.5107 45.3026 32.4574 46.0709 34.5C46.8393 36.5426 48.2313 37.9077 49.1802 37.549Z" fill="#231F20"/>
<path d="M48.7231 38.2331C47.5615 37.8381 46.2767 36.4665 45.4495 34.5955C44.9684 33.5595 44.7229 32.4582 44.7286 31.3623C44.7765 30.3188 45.1842 29.6258 45.8753 29.4119C46.5664 29.198 47.4076 29.4914 48.265 30.2246C49.1183 31.0558 49.781 32.0313 50.2089 33.0862C51.314 35.5742 51.1291 37.8517 49.7883 38.2789C49.4461 38.373 49.071 38.3569 48.7231 38.2331ZM46.7587 30.1171C46.5684 30.0418 46.3598 30.0282 46.1695 30.0786C45.7806 30.2039 45.5375 30.7027 45.5021 31.4413C45.4952 32.4356 45.7194 33.4348 46.1599 34.3734C47.1419 36.5914 48.7089 37.8603 49.5038 37.6081C50.2986 37.3558 50.4953 35.5313 49.5133 33.3133C49.1074 32.3577 48.4921 31.4766 47.7074 30.7267C47.4367 30.468 47.1135 30.2603 46.7587 30.1171Z" fill="#231F20"/>
<path d="M20.0847 49.7785C20.0289 49.76 19.9817 49.7206 19.9507 49.6666C18.3557 46.895 17.769 43.9887 18.3049 41.4907L18.327 41.4252C18.3322 41.3567 18.3573 41.29 18.3985 41.2356C18.4398 41.1812 18.4947 41.1421 18.5548 41.1245C18.5906 41.1126 18.6275 41.1088 18.6633 41.1133C18.6992 41.1178 18.7332 41.1305 18.7633 41.1507C18.7934 41.1708 18.819 41.198 18.8386 41.2306C18.8582 41.2632 18.8713 41.3005 18.8772 41.3403C18.8832 41.4232 18.874 41.5081 18.8501 41.5898C18.3512 43.9279 18.9091 46.6652 20.4355 49.3007C20.4662 49.3532 20.4804 49.4169 20.476 49.4825C20.4716 49.5481 20.4488 49.6123 20.411 49.6658C20.3731 49.7193 20.3221 49.7594 20.2653 49.7803C20.2086 49.8012 20.1489 49.8017 20.095 49.782L20.0847 49.7785Z" fill="white"/>
<path d="M22.7132 39.213C22.6661 39.1965 22.622 39.173 22.584 39.1441C22.546 39.1153 22.515 39.0817 22.4931 39.0457C22.4686 39.0126 22.452 38.9773 22.4446 38.9421C22.4371 38.9069 22.4387 38.8723 22.4495 38.8406C22.4603 38.8088 22.4799 38.7803 22.5072 38.7569C22.5345 38.7336 22.569 38.7157 22.6086 38.7043L27.1426 37.527C27.1815 37.5142 27.2252 37.5083 27.271 37.5097C27.3168 37.5111 27.3637 37.5198 27.4089 37.5352C27.4542 37.5506 27.4967 37.5723 27.5339 37.5991C27.5711 37.626 27.6022 37.6573 27.6252 37.6911C27.6498 37.7243 27.6663 37.7595 27.6738 37.7948C27.6813 37.83 27.6796 37.8645 27.6688 37.8963C27.6581 37.9281 27.6385 37.9565 27.6111 37.9799C27.5838 38.0033 27.5493 38.0212 27.5097 38.0325L22.9757 39.2098C22.9384 39.2244 22.8959 39.2321 22.8508 39.2327C22.8056 39.2332 22.7588 39.2265 22.7132 39.213Z" fill="white"/>
<path d="M23.5718 41.141C23.5086 41.1166 23.4619 41.0538 23.4414 40.9659C23.4225 40.8818 23.4304 40.7804 23.4632 40.6833C23.4961 40.5862 23.5514 40.501 23.6174 40.4457L27.3304 37.6238C27.3961 37.5713 27.4665 37.5533 27.5267 37.5738C27.5869 37.5942 27.6319 37.6515 27.6522 37.7332C27.6622 37.7746 27.6656 37.8209 27.6622 37.8695C27.6587 37.9182 27.6486 37.9681 27.6322 38.0164C27.6158 38.0648 27.5936 38.1106 27.5668 38.1513C27.5401 38.192 27.5093 38.2267 27.4762 38.2534L23.7678 41.0769C23.7033 41.131 23.6336 41.1538 23.5718 41.141Z" fill="white"/>
<path d="M23.6859 41.1795C23.6387 41.1644 23.5943 41.1419 23.556 41.1138C23.5176 41.0857 23.4863 41.0526 23.4642 41.017C23.4396 40.9838 23.4231 40.9485 23.4157 40.9132C23.4082 40.8779 23.4099 40.8434 23.4207 40.8115C23.4314 40.7797 23.4511 40.7512 23.4784 40.7277C23.5058 40.7043 23.5403 40.6864 23.5799 40.675L28.1153 39.4937C28.1541 39.4809 28.1978 39.4749 28.2436 39.4763C28.2894 39.4777 28.3364 39.4863 28.3816 39.5017C28.4268 39.5171 28.4693 39.5389 28.5065 39.5657C28.5437 39.5926 28.5748 39.6239 28.5978 39.6578C28.6224 39.691 28.6389 39.7263 28.6464 39.7616C28.6538 39.7968 28.6521 39.8314 28.6414 39.8633C28.6306 39.8951 28.6109 39.9236 28.5836 39.947C28.5563 39.9705 28.5218 39.9884 28.4821 39.9998L23.9468 41.1811C23.9093 41.1948 23.8669 41.2018 23.822 41.2015C23.7771 41.2013 23.7308 41.1938 23.6859 41.1795Z" fill="white"/>
</svg>
