<svg width="169" height="164" viewBox="0 0 169 164" fill="none" xmlns="http://www.w3.org/2000/svg">
<path d="M82.0759 163.639C121.341 163.639 153.171 159.467 153.171 154.319C153.171 149.172 121.341 145 82.0759 145C42.811 145 10.9805 149.172 10.9805 154.319C10.9805 159.467 42.811 163.639 82.0759 163.639Z" fill="#D1D3D4"/>
<circle cx="75.5" cy="78.5" r="75.5" fill="#DEEFFF"/>
<path d="M125.751 34.3583L99.3527 40.788C98.6426 41.2412 93.8363 41.6024 91.9229 40.8865C90.0096 40.1707 90.2463 38.5879 90.6079 37.5173C90.9696 36.4468 95.2499 36.1447 95.2499 36.1447C95.2499 36.1447 93.3497 35.2843 93.4549 34.4765C93.5601 33.6687 96.9002 35.6652 96.9002 35.6652L122.089 28.0205L125.751 34.3583Z" fill="white"/>
<path d="M95.3031 41.6153C94.1259 41.6656 92.9481 41.5327 91.8118 41.2213C90.6809 40.7944 89.504 39.7961 90.2995 37.4383C90.6086 36.5254 92.7257 36.1248 94.1722 35.9409C93.6133 35.5665 93.0545 35.0411 93.1334 34.4632C93.143 34.3746 93.1753 34.2901 93.2271 34.2176C93.2789 34.1451 93.3485 34.0872 93.4292 34.0494C94.0867 33.7473 95.8554 34.7062 96.9469 35.3629L121.991 27.7051C122.062 27.6821 122.139 27.6846 122.209 27.7121C122.278 27.7397 122.336 27.7906 122.372 27.8561L126.035 34.1939C126.057 34.2399 126.069 34.2904 126.069 34.3417C126.069 34.3929 126.057 34.4435 126.035 34.4894C126.012 34.536 125.98 34.5771 125.941 34.61C125.901 34.6429 125.854 34.6668 125.805 34.6799L99.4585 41.0965C98.9062 41.3986 97.0981 41.6153 95.3031 41.6153ZM93.7909 34.6142C93.8763 34.9557 94.6588 35.514 95.3886 35.8489C95.4556 35.8777 95.5105 35.9288 95.5441 35.9934C95.5776 36.0581 95.5877 36.1323 95.5727 36.2036C95.5589 36.2743 95.5227 36.3387 95.4694 36.3872C95.4161 36.4357 95.3486 36.4657 95.2768 36.4729C93.3043 36.6108 91.1017 37.0837 90.9242 37.6222C90.4047 39.1525 90.7598 40.0982 92.0419 40.5776C93.9355 41.2869 98.6169 40.8732 99.1824 40.512C99.2126 40.4915 99.2459 40.476 99.281 40.466L125.246 34.1413L121.958 28.4078L96.9995 35.9672C96.9579 35.9849 96.9132 35.994 96.868 35.994C96.8228 35.994 96.778 35.9849 96.7365 35.9672C95.8339 35.3608 94.8392 34.9039 93.7909 34.6142Z" fill="#231F20"/>
<path d="M95.2499 36.1445C95.2499 36.1445 94.5004 38.3775 96.5123 38.9424L95.2499 36.1445Z" fill="white"/>
<path d="M96.5129 39.2508H96.4274C96.1366 39.1815 95.8636 39.0522 95.6258 38.8712C95.388 38.6902 95.1907 38.4616 95.0467 38.1999C94.7455 37.5128 94.7081 36.739 94.9415 36.026C94.9699 35.9446 95.0293 35.8775 95.1068 35.8394C95.1843 35.8013 95.2737 35.7952 95.3557 35.8225C95.4385 35.8495 95.5071 35.9083 95.5466 35.9859C95.586 36.0634 95.593 36.1535 95.5661 36.2362C95.387 36.7799 95.4104 37.3699 95.6318 37.8978C95.7338 38.0794 95.8733 38.2371 96.0411 38.3606C96.2089 38.484 96.4011 38.5703 96.6049 38.6137C96.6464 38.6258 96.685 38.6459 96.7187 38.6729C96.7524 38.6999 96.7804 38.7332 96.8011 38.7711C96.8219 38.8089 96.835 38.8504 96.8397 38.8933C96.8444 38.9361 96.8406 38.9795 96.8285 39.0209C96.8083 39.0884 96.7665 39.1475 96.7095 39.1891C96.6525 39.2306 96.5834 39.2523 96.5129 39.2508Z" fill="#231F20"/>
<path d="M68.4046 41.8781C68.7272 42.0651 69.0125 42.31 69.2462 42.6005C69.56 42.9858 69.7822 43.4372 69.896 43.9207C70.0099 44.4042 70.0125 44.9072 69.9037 45.3918C69.5552 46.8629 67.7273 47.3227 66.511 47.9729C65.0579 48.7544 63.5785 49.4769 62.086 50.1796C59.0418 51.5982 55.9384 52.8855 52.8087 54.1202C50.2313 55.1185 47.6342 56.0905 45.0042 56.918C44.156 57.1938 42.2821 58.1462 41.355 57.8769C40.2965 57.5748 38.0675 51.8478 43.196 50.948C44.2122 50.6668 45.2004 50.2931 46.1482 49.8315C48.5415 48.9164 50.9238 47.9904 53.2952 47.0534C56.083 45.9435 58.8642 44.8204 61.6192 43.6317C63.5851 42.7713 66.3597 40.7222 68.4046 41.8781Z" fill="white"/>
<path d="M41.7296 58.238C41.5745 58.2415 41.4196 58.2238 41.2693 58.1855C40.4737 57.9556 39.5335 55.9919 39.6322 54.2449C39.6913 53.1152 40.2305 51.1449 43.1432 50.6392C43.8273 50.4876 44.4899 50.2516 45.1157 49.9365C45.4379 49.792 45.7732 49.6541 46.0559 49.5359C48.515 48.5967 50.9214 47.6641 53.1898 46.7578C56.5431 45.4442 59.1073 44.3737 61.5072 43.3426C61.9214 43.1653 62.3817 42.9288 62.8682 42.6858C64.6303 41.7729 66.8132 40.6367 68.5884 41.6284C68.942 41.8394 69.2557 42.1105 69.5155 42.4297C69.8617 42.8549 70.1067 43.3531 70.232 43.8867C70.3573 44.4203 70.3596 44.9753 70.2388 45.5099C69.9363 46.8234 68.6608 47.3883 67.5364 47.894C67.2406 48.0319 66.9447 48.1632 66.6883 48.3012C65.3733 49.0105 63.9136 49.7329 62.2436 50.5145C59.4098 51.828 56.3721 53.1415 52.9465 54.455C49.9878 55.6044 47.5024 56.491 45.1223 57.2594C44.925 57.3251 44.662 57.4302 44.3727 57.5484C43.5373 57.9267 42.6435 58.1599 41.7296 58.238ZM67.017 41.878C65.8006 41.878 64.387 42.5939 63.1509 43.2441C62.6512 43.5068 62.1844 43.7432 61.7439 43.9008C59.3374 44.9385 56.7666 45.9893 53.4133 47.3226C51.1384 48.2289 48.732 49.1615 46.2663 50.1073C45.977 50.2189 45.6746 50.3503 45.3656 50.4882C44.6945 50.8227 43.986 51.0762 43.255 51.2435C40.9143 51.6507 40.3488 53.089 40.2897 54.2317C40.1976 55.9393 41.1313 57.4368 41.4469 57.5156C42.0386 57.6863 43.2813 57.1872 44.0769 56.8588C44.3859 56.734 44.662 56.6289 44.879 56.5567C47.2394 55.7948 49.7182 54.9082 52.6638 53.7654C56.0762 52.4519 59.1007 51.1384 61.9214 49.8249C63.5783 49.0564 65.0182 48.334 66.3266 47.6313C66.6028 47.4868 66.9053 47.3489 67.2143 47.2044C68.2531 46.7381 69.3249 46.2521 69.555 45.2341C69.6529 44.7984 69.6506 44.3462 69.5481 43.9116C69.4455 43.477 69.2456 43.0714 68.9632 42.7252C68.7552 42.4628 68.5013 42.2403 68.2137 42.0685C67.8369 41.9065 67.4256 41.8411 67.017 41.878Z" fill="#231F20"/>
<path d="M104.449 41.123C104.092 41.6777 103.549 42.0874 102.917 42.2789C102.003 42.6861 101.082 43.0736 100.168 43.4742C99.9739 43.5562 99.8033 43.6859 99.6723 43.8512C99.5413 44.0165 99.4541 44.2121 99.4188 44.4199C99.2084 45.4116 99.0243 46.3902 98.8008 47.3885C98.6855 47.8157 98.6969 48.2671 98.8334 48.6879C98.97 49.1088 99.2259 49.481 99.5701 49.7594C100.28 50.4162 100.951 51.073 101.608 51.7297C101.88 51.9434 102.057 52.2557 102.1 52.5987C102.143 52.9417 102.049 53.2879 101.838 53.5621C101.115 54.764 100.372 55.9527 99.5766 57.1152C98.8665 58.1529 98.4457 58.2514 97.2557 57.8376L97.1505 57.7917C96.2497 57.4304 95.3423 57.0758 94.4481 56.6949C94.1746 56.5618 93.8701 56.505 93.5669 56.5304C93.2637 56.5558 92.973 56.6626 92.7255 56.8394C91.8488 57.4304 90.9722 58.015 90.0955 58.5929C89.8995 58.7295 89.738 58.9098 89.6238 59.1196C89.5097 59.3293 89.4461 59.5628 89.438 59.8014C89.4041 60.0957 89.3865 60.3917 89.3854 60.688C89.3854 61.66 89.3854 62.6583 89.3854 63.604C89.3907 63.854 89.3174 64.0993 89.1759 64.3054C89.0344 64.5116 88.8317 64.6683 88.5964 64.7534C88.41 64.8487 88.2138 64.9236 88.0112 64.9767C86.5253 65.2853 85.0393 65.5809 83.5534 65.8764C83.3526 65.9197 83.1433 65.8993 82.9547 65.8181C82.7661 65.7368 82.6076 65.5988 82.5014 65.4233C82.2492 65.0692 82.0292 64.6933 81.8439 64.3002C81.5085 63.5449 81.2192 62.7765 80.9102 62.0081C80.7863 61.6979 80.5856 61.4243 80.3268 61.213C80.0681 61.0016 79.7597 60.8593 79.4308 60.7996L77.3663 60.353C75.5976 59.9787 75.3215 60.0641 74.0788 61.3513C73.487 61.949 72.9084 62.5598 72.2904 63.1246C72.0691 63.3865 71.7541 63.5516 71.4126 63.5848C71.0711 63.6179 70.7302 63.5164 70.4625 63.3019C69.2199 62.5269 67.9903 61.7257 66.7871 60.8982C65.9455 60.3136 65.8206 59.8539 66.1822 58.8885C66.5438 57.923 66.8989 57.0824 67.2802 56.1892C67.4496 55.8431 67.5202 55.4571 67.4842 55.0736C67.4483 54.6901 67.3072 54.3239 67.0764 54.0153C66.5899 53.3191 66.0704 52.6426 65.6299 51.9136C65.4348 51.5397 65.1319 51.2328 64.7603 51.0326C64.3888 50.8324 63.9657 50.7481 63.5456 50.7905C63.4733 50.7905 63.401 50.7905 63.3287 50.7905H60.3699C60.1207 50.7954 59.8762 50.7228 59.67 50.5828C59.4639 50.4428 59.3064 50.2423 59.2193 50.009C59.114 49.7998 59.0324 49.5795 58.976 49.3522C58.6867 47.9468 58.3974 46.5347 58.1213 45.1227C58.0485 44.8238 58.083 44.509 58.2187 44.2329C58.3545 43.9569 58.5829 43.7372 58.8642 43.6121C59.2574 43.4049 59.6612 43.2186 60.074 43.0539C60.7315 42.7846 61.389 42.535 62.0465 42.2657C62.3303 42.1615 62.5823 41.9858 62.7782 41.7557C62.974 41.5255 63.107 41.2488 63.1643 40.9522C63.3944 39.8488 63.5851 38.7455 63.7889 37.6684C63.8293 37.4614 63.8219 37.2479 63.7672 37.0441C63.7125 36.8404 63.612 36.6518 63.4733 36.4928C63.1446 36.1053 62.8158 35.7375 62.4476 35.3763C61.9545 34.8706 61.4285 34.4043 60.9551 33.892C60.7921 33.7645 60.6568 33.6053 60.5573 33.4239C60.4579 33.2426 60.3965 33.0429 60.3768 32.837C60.3571 32.6312 60.3796 32.4235 60.4428 32.2266C60.5061 32.0298 60.6088 31.8478 60.7447 31.6918C61.5074 30.4965 62.2898 29.3209 63.092 28.1519C63.2773 27.8304 63.5793 27.5924 63.9355 27.4872C64.2917 27.3821 64.6748 27.4178 65.0053 27.587C66.0244 27.9877 67.037 28.4146 68.0627 28.8086C68.3559 28.9424 68.6804 28.993 69.0005 28.9548C69.3206 28.9165 69.624 28.791 69.8774 28.5919C70.7453 27.9351 71.6526 27.3506 72.5534 26.7333C72.7642 26.5921 72.9385 26.403 73.0619 26.1815C73.1854 25.9601 73.2545 25.7125 73.2635 25.4591C73.2635 25.0651 73.2964 24.671 73.2964 24.277C73.2964 23.4363 73.2372 22.6022 73.2964 21.7681C73.2889 21.4645 73.3871 21.1676 73.5741 20.9282C73.7611 20.6887 74.0254 20.5213 74.3221 20.4546C75.8738 20.1196 77.4386 19.7978 79.0035 19.5548C79.2866 19.4997 79.5802 19.5441 79.8343 19.6806C80.0883 19.817 80.2873 20.0372 80.3974 20.3035C80.6604 20.8289 80.9036 21.3675 81.1469 21.9126C81.3902 22.4577 81.6992 23.1736 81.9885 23.7975C82.0527 23.9969 82.1677 24.1762 82.3221 24.3178C82.4766 24.4594 82.6652 24.5585 82.8696 24.6053C83.9281 24.8286 84.9999 25.0125 86.0584 25.2621C86.4282 25.3645 86.8199 25.3568 87.1854 25.2402C87.551 25.1235 87.8745 24.9029 88.1164 24.6053C88.8397 23.8369 89.6221 23.1145 90.3716 22.3658C90.5496 22.1642 90.7897 22.0277 91.0541 21.9777C91.3184 21.9278 91.5919 21.9672 91.8313 22.0899C93.4664 22.8468 94.9781 23.8453 96.3154 25.0519C96.5033 25.2751 96.5976 25.5622 96.5784 25.8532C96.5351 26.2463 96.4354 26.6311 96.2826 26.996C95.9275 27.9351 95.5396 28.8677 95.178 29.8135C95.0813 30.0216 95.0373 30.2502 95.0499 30.4793C95.0625 30.7083 95.1313 30.9308 95.2503 31.127C95.9801 32.1975 96.7165 33.2615 97.5055 34.2861C97.7311 34.5221 98.0301 34.6748 98.3537 34.7195C98.79 34.7713 99.23 34.7845 99.6687 34.7589C100.497 34.7589 101.326 34.713 102.147 34.7589C102.492 34.7595 102.825 34.8808 103.09 35.1016C103.354 35.3224 103.532 35.6287 103.594 35.9674C103.725 36.5059 103.857 37.0445 103.956 37.5896C104.146 38.6404 104.324 39.6912 104.508 40.742L104.449 41.123ZM79.8451 52.2289C82.3435 52.6077 84.8908 51.9871 86.9341 50.5019C88.9774 49.0166 90.352 46.7864 90.7596 44.2951C91.1181 41.8112 90.5024 39.2849 89.0408 37.2437C87.5792 35.2025 85.3848 33.804 82.9156 33.3403C81.6665 33.1322 80.3886 33.1729 79.1554 33.4603C77.9222 33.7476 76.7581 34.2758 75.7301 35.0145C74.7022 35.7531 73.8307 36.6877 73.1658 37.7642C72.501 38.8408 72.056 40.0381 71.8564 41.2872C70.9359 45.4248 73.75 51.2766 79.8451 52.2289Z" fill="white"/>
<path d="M83.3431 66.2703C83.1212 66.2679 82.9036 66.2094 82.7104 66.1003C82.5173 65.9912 82.3549 65.835 82.2385 65.6464C81.9793 65.2782 81.7589 64.8843 81.581 64.4708C81.3508 63.9651 81.147 63.4528 80.9235 62.934C80.8248 62.6844 80.7196 62.4283 80.621 62.1721C80.5186 61.9097 80.3495 61.6785 80.1305 61.5011C79.9115 61.3238 79.65 61.2065 79.3718 61.1607L78.471 60.9637L77.3138 60.7141C75.6635 60.3594 75.4925 60.412 74.3024 61.6204L73.9868 61.9422C73.5134 62.4283 73.0203 62.934 72.5075 63.4068C72.2299 63.7119 71.8488 63.903 71.4381 63.943C71.0274 63.9831 70.6165 63.8692 70.2851 63.6236C68.9044 62.7566 67.6946 61.9685 66.5965 61.2067C65.6432 60.5499 65.4525 59.8931 65.8667 58.8095C66.2152 57.8769 66.6031 56.9508 66.9713 56.097C67.1188 55.8032 67.1809 55.4739 67.1507 55.1466C67.1205 54.8193 66.9991 54.5069 66.8004 54.245C66.6557 54.0348 66.5111 53.8246 66.3598 53.5882C66.0114 53.1088 65.6563 52.6096 65.3407 52.0908C65.1782 51.7686 64.9213 51.5035 64.6041 51.331C64.2869 51.1585 63.9245 51.0868 63.5655 51.1253C63.5087 51.1319 63.4513 51.1319 63.3945 51.1253H63.3222H62.3359H60.3634C60.0518 51.1303 59.7461 51.0399 59.4875 50.8661C59.2289 50.6923 59.0297 50.4436 58.9169 50.1533C58.8066 49.9449 58.7205 49.7246 58.6605 49.4966C58.3624 48.0823 58.0753 46.6703 57.7992 45.2604C57.7142 44.8937 57.758 44.5089 57.9231 44.1705C58.0883 43.8321 58.3649 43.5607 58.7065 43.4018C59.1073 43.1859 59.52 42.993 59.9426 42.8238L61.1064 42.3641L61.9414 42.0357C62.1781 41.9502 62.3878 41.8037 62.5495 41.6111C62.7112 41.4185 62.819 41.1866 62.8619 40.9389C63.046 40.0786 63.2038 39.2116 63.3616 38.3119L63.4866 37.6091C63.5182 37.449 63.5121 37.2838 63.4688 37.1265C63.4254 36.9692 63.3459 36.8241 63.2367 36.7028C62.9343 36.3416 62.5792 35.9869 62.2307 35.606C62.0335 35.4024 61.8297 35.1988 61.6193 35.0018C61.4089 34.8047 61.0144 34.4172 60.7316 34.1086C60.5399 33.9541 60.3812 33.7629 60.2648 33.5461C60.1484 33.3293 60.0767 33.0914 60.054 32.8464C60.0314 32.6014 60.0581 32.3544 60.1327 32.12C60.2073 31.8855 60.3283 31.6684 60.4884 31.4815C61.2445 30.2928 62.0401 29.0974 62.8422 27.935C63.0715 27.555 63.4364 27.276 63.8634 27.1542C64.2905 27.0323 64.7478 27.0766 65.1435 27.2782L66.7083 27.9021L68.2008 28.4998C68.4428 28.611 68.7109 28.6532 68.9754 28.622C69.2399 28.5907 69.4906 28.487 69.6999 28.3225C70.3574 27.8233 71.0741 27.3505 71.7513 26.8907L72.4088 26.4572C72.5768 26.3411 72.7153 26.1874 72.8135 26.0084C72.9116 25.8294 72.9667 25.6301 72.9743 25.4261C73.0072 25.0321 73.0072 24.638 73.0072 24.2702C73.0072 23.9024 73.0072 23.7054 73.0072 23.423C73.0072 22.8713 73.0072 22.3065 73.0072 21.7417C73.0048 21.3633 73.135 20.996 73.3751 20.7034C73.6153 20.4108 73.9503 20.2112 74.3222 20.1392C75.6832 19.8502 77.1297 19.5744 79.0101 19.2394C79.363 19.1696 79.7291 19.2228 80.0474 19.3901C80.3657 19.5575 80.6169 19.8288 80.7591 20.1589C80.9826 20.6055 81.1865 21.0586 81.4166 21.5118L81.5349 21.7811C81.6533 22.0372 81.7651 22.2934 81.8768 22.5495C82.0412 22.9239 82.2056 23.2982 82.3765 23.666C82.4299 23.8063 82.5184 23.9307 82.6334 24.0273C82.7485 24.1238 82.8864 24.1894 83.034 24.2177L84.1518 24.441C84.8487 24.5789 85.5391 24.7168 86.2295 24.8744C86.5426 24.9635 86.8752 24.958 87.1852 24.8586C87.4953 24.7593 87.7689 24.5706 87.9719 24.3162C88.4453 23.8105 88.9515 23.3245 89.4315 22.8582L90.2402 22.0701C90.464 21.8212 90.7632 21.6524 91.0922 21.5895C91.4211 21.5267 91.7616 21.5732 92.0615 21.722C93.7307 22.4892 95.2719 23.5081 96.6311 24.7431C96.7633 24.8851 96.8643 25.053 96.9277 25.2362C96.9911 25.4195 97.0155 25.6139 96.9993 25.8071C96.9597 26.2319 96.8555 26.6483 96.6903 27.0418C96.4931 27.5738 96.2827 28.0992 96.0723 28.6246C95.9079 29.0383 95.7435 29.4521 95.5857 29.8659C95.5067 30.0251 95.4683 30.2014 95.4741 30.379C95.4798 30.5566 95.5295 30.73 95.6186 30.8838C96.2761 31.8296 97.0322 32.9395 97.8672 34.0297C98.0467 34.2017 98.2777 34.3101 98.5247 34.3384C98.8339 34.3817 99.1466 34.3949 99.4584 34.3778H100.635C101.174 34.3778 101.733 34.3778 102.286 34.3778C102.687 34.4164 103.064 34.5869 103.358 34.8627C103.652 35.1384 103.846 35.5038 103.91 35.9015C104.035 36.4138 104.166 36.9721 104.271 37.5434C104.409 38.2856 104.534 39.0343 104.666 39.7764L104.824 40.7025C104.83 40.7372 104.83 40.7728 104.824 40.8076L104.764 41.1753C104.759 41.2099 104.748 41.2433 104.732 41.2739C104.348 41.8956 103.756 42.3611 103.061 42.5874C102.503 42.837 101.957 43.0668 101.411 43.3033L100.293 43.7827C100.147 43.8446 100.019 43.9428 99.9209 44.0681C99.8231 44.1934 99.7589 44.3416 99.7345 44.4986C99.6556 44.8729 99.5833 45.2407 99.5044 45.6151C99.3795 46.2324 99.2546 46.8564 99.1099 47.4737C99.0033 47.8459 99.0087 48.2412 99.1257 48.6103C99.2426 48.9794 99.4658 49.306 99.7674 49.5491C100.425 50.1139 101.05 50.751 101.819 51.5194C102.151 51.7797 102.366 52.1606 102.418 52.579C102.47 52.9974 102.354 53.4192 102.095 53.7524C101.207 55.217 100.51 56.3138 99.8266 57.3186C99.0376 58.468 98.5116 58.6322 97.1177 58.1659L97.0322 58.1264L96.2038 57.7981C95.5463 57.5419 94.9282 57.2858 94.2904 57.0165C94.0675 56.907 93.8192 56.8595 93.5715 56.8792C93.3239 56.8988 93.0862 56.9848 92.8834 57.1282L92.5283 57.3712C91.7788 57.8834 91.0292 58.3892 90.2731 58.8883C90.1128 58.9948 89.9803 59.1379 89.8865 59.3058C89.7928 59.4737 89.7405 59.6616 89.734 59.8537C89.6993 60.137 89.6817 60.4221 89.6814 60.7075C89.6814 61.2461 89.6814 61.7846 89.6814 62.3166V63.6301C89.6863 63.9432 89.5942 64.2501 89.4176 64.5088C89.241 64.7675 88.9887 64.9653 88.6951 65.075L88.6162 65.1144C88.4338 65.2052 88.242 65.2756 88.0442 65.3246L84.8356 65.9813L83.5863 66.2309C83.5066 66.2513 83.4252 66.2645 83.3431 66.2703ZM76.058 59.8734C76.5281 59.8917 76.9951 59.9577 77.4519 60.0705L78.6156 60.32L79.5164 60.5171C79.8992 60.5843 80.2583 60.7489 80.5589 60.9951C80.8595 61.2413 81.0915 61.5607 81.2325 61.9225C81.3377 62.1787 81.4429 62.4348 81.5415 62.6975C81.7453 63.2032 81.9426 63.7089 82.199 64.2081C82.367 64.5821 82.5718 64.9385 82.8105 65.272C82.8797 65.3969 82.9877 65.4958 83.1182 65.5539C83.2487 65.6119 83.3945 65.626 83.5337 65.5939L84.7764 65.3443C85.8481 65.1276 86.9133 64.9174 87.9784 64.6875C88.1311 64.6499 88.2789 64.5949 88.419 64.5233L88.4979 64.4839C88.6751 64.4272 88.8293 64.3146 88.9371 64.1631C89.045 64.0115 89.1008 63.8292 89.0962 63.6433V62.3297C89.0962 61.7912 89.0962 61.2526 89.0962 60.7141C89.0962 60.4448 89.0962 60.1493 89.1488 59.7946C89.1646 59.5043 89.2484 59.2218 89.3934 58.9697C89.5385 58.7176 89.7407 58.503 89.9838 58.3432C90.7334 57.8506 91.4829 57.3449 92.2325 56.8326L92.5875 56.5962C92.8802 56.3897 93.2224 56.2646 93.5794 56.2334C93.9363 56.2023 94.2951 56.2662 94.6192 56.4189L96.5194 57.1938L97.3215 57.5157V57.8572L97.4333 57.5485C98.505 57.9294 98.7483 57.8506 99.3729 56.9574C100.03 55.9657 100.741 54.8755 101.622 53.4174C101.711 53.314 101.778 53.1929 101.818 53.0619C101.858 52.9308 101.869 52.7929 101.852 52.6571C101.834 52.5213 101.789 52.3907 101.717 52.2739C101.646 52.1571 101.55 52.0566 101.437 51.9791C100.681 51.191 100.037 50.5605 99.4189 50.0088C99.0286 49.6892 98.7386 49.2641 98.5835 48.7843C98.4285 48.3045 98.4149 47.7903 98.5445 47.303C98.6825 46.6922 98.8074 46.0748 98.9324 45.4575C99.0113 45.0831 99.0836 44.7087 99.1625 44.341C99.2094 44.0817 99.3198 43.8381 99.4838 43.6318C99.6479 43.4255 99.8605 43.263 100.103 43.1588L101.22 42.6728C101.766 42.4429 102.312 42.2065 102.851 41.9635C103.393 41.8001 103.867 41.4632 104.199 41.0046L104.238 40.7484L104.021 39.9078C103.897 39.1656 103.765 38.4235 103.634 37.6814C103.528 37.1231 103.403 36.578 103.278 36.0789C103.235 35.8107 103.099 35.5663 102.893 35.3886C102.688 35.2109 102.426 35.1111 102.154 35.1068C101.622 35.1068 101.069 35.1068 100.543 35.1068H99.3729C99.0172 35.1308 98.66 35.1153 98.3078 35.0609C97.9025 35.002 97.5293 34.8075 97.2492 34.5092C96.4076 33.4058 95.6317 32.2828 94.9874 31.3304C94.8352 31.0906 94.7453 30.8167 94.7258 30.5335C94.7063 30.2502 94.7578 29.9666 94.8756 29.7082L95.3687 28.4604C95.5791 27.9415 95.783 27.4161 95.9868 26.8907C96.1233 26.5564 96.214 26.2051 96.2564 25.8465C96.2707 25.6568 96.2171 25.4683 96.1051 25.3145C94.7943 24.1267 93.3114 23.1436 91.7065 22.3984C91.5262 22.306 91.3202 22.2764 91.1212 22.3145C90.9222 22.3526 90.7417 22.4562 90.6084 22.6086C90.3454 22.8779 90.0693 23.1406 89.7997 23.4033C89.3197 23.8696 88.8266 24.3556 88.3598 24.8416C88.0759 25.1786 87.7024 25.4283 87.2823 25.562C86.8622 25.6956 86.4129 25.7078 85.9862 25.5969C85.3287 25.4327 84.6186 25.3013 83.9348 25.1634L82.8105 24.9401C82.5652 24.8867 82.3363 24.7753 82.143 24.6153C81.9497 24.4553 81.7975 24.2514 81.6993 24.0207C81.5284 23.6463 81.364 23.2719 81.193 22.891L80.8577 22.1292L80.7328 21.8599C80.5355 21.4133 80.3383 20.9667 80.1147 20.5464C80.0365 20.3432 79.8882 20.1746 79.6965 20.071C79.5048 19.9675 79.2824 19.9357 79.0693 19.9816C77.1954 20.3099 75.7818 20.5858 74.4011 20.8682C74.1881 20.9285 74.0008 21.0568 73.8678 21.2335C73.7348 21.4103 73.6635 21.6257 73.6647 21.8468C73.6318 22.3787 73.6647 22.937 73.6647 23.4755C73.6647 23.7645 73.6647 24.0469 73.6647 24.3359C73.6647 24.6249 73.6647 25.1306 73.6318 25.5443C73.6162 25.8469 73.5309 26.1417 73.3827 26.406C73.2344 26.6702 73.0272 26.8968 72.777 27.068L72.1195 27.5015C71.462 27.9547 70.7519 28.4275 70.0879 28.9136C69.7884 29.143 69.4331 29.2884 69.0585 29.3346C68.684 29.3808 68.3039 29.3261 67.9576 29.1763L66.465 28.5786L64.9068 27.9218C64.7785 27.8493 64.6371 27.8031 64.4907 27.7859C64.3444 27.7688 64.196 27.7811 64.0545 27.8221C63.913 27.8631 63.7811 27.932 63.6666 28.0247C63.5521 28.1174 63.4574 28.232 63.3879 28.3619C62.5858 29.5243 61.7968 30.7131 61.0407 31.8953C60.9241 32.0202 60.8353 32.1684 60.7802 32.3301C60.7252 32.4918 60.7051 32.6634 60.7212 32.8334C60.7374 33.0035 60.7894 33.1681 60.874 33.3166C60.9585 33.4651 61.0736 33.594 61.2116 33.6948C61.4878 33.9903 61.7836 34.2727 62.0729 34.5552C62.3622 34.8376 62.5003 34.9624 62.7304 35.1725C63.1118 35.56 63.4537 35.9344 63.7693 36.3087C63.9399 36.5041 64.0636 36.7359 64.1308 36.9863C64.198 37.2367 64.2071 37.4992 64.1572 37.7536L64.0323 38.4563C63.8745 39.3298 63.7167 40.1968 63.5326 41.0834C63.4675 41.4353 63.3121 41.7643 63.0816 42.0383C62.8511 42.3123 62.5534 42.5218 62.2176 42.6465L61.376 42.9815L60.2254 43.4412C59.8238 43.5999 59.431 43.7796 59.0484 43.9797C58.8299 44.0738 58.6519 44.2423 58.546 44.4551C58.44 44.6679 58.4131 44.9114 58.4698 45.1422C58.746 46.5477 59.0353 47.9597 59.3246 49.3652C59.3701 49.5358 59.4341 49.701 59.5153 49.8578C59.5706 50.0468 59.6856 50.2129 59.8432 50.3313C60.0008 50.4497 60.1925 50.514 60.3897 50.5145H62.3622H63.3485H63.5523C64.0362 50.4687 64.5227 50.5695 64.9484 50.8038C65.3741 51.0381 65.7193 51.395 65.939 51.8281C66.2415 52.3272 66.5965 52.8132 66.9253 53.2861C67.0765 53.4897 67.2277 53.6999 67.3724 53.9429C67.6346 54.2971 67.7952 54.716 67.8369 55.1546C67.8786 55.5932 67.7998 56.0348 67.6091 56.432C67.2475 57.2858 66.8595 58.1987 66.5111 59.1247C66.1626 60.0508 66.2941 60.2544 66.9976 60.7404C68.0956 61.5022 69.2923 62.2838 70.6665 63.1441C70.7692 63.2292 70.8879 63.2931 71.0155 63.3319C71.1432 63.3708 71.2774 63.3839 71.4101 63.3704C71.5429 63.357 71.6717 63.3173 71.789 63.2536C71.9063 63.1899 72.0097 63.1036 72.0932 62.9996C72.5929 62.5399 73.0795 62.0408 73.5529 61.5613L73.8685 61.2395C74.7627 60.2215 75.2427 59.8734 76.058 59.8734ZM81.318 52.6753C80.8069 52.6757 80.2967 52.6339 79.7926 52.5505C78.4463 52.3506 77.1561 51.8746 76.003 51.1523C74.85 50.4301 73.8591 49.4772 73.0926 48.3538C72.3695 47.329 71.8596 46.1698 71.5931 44.9446C71.3266 43.7195 71.3088 42.4534 71.5409 41.2213C71.848 39.3689 72.6786 37.6427 73.935 36.246C75.1914 34.8494 76.8212 33.8405 78.6324 33.3381C80.4437 32.8358 82.3609 32.861 84.1583 33.4107C85.9557 33.9604 87.5584 35.0117 88.7776 36.4409C89.9968 37.87 90.7818 39.6174 91.04 41.4773C91.2982 43.3372 91.0189 45.232 90.235 46.9386C89.4512 48.6452 88.1954 50.0925 86.6155 51.11C85.0357 52.1276 83.1977 52.6729 81.318 52.6819V52.6753ZM79.8978 51.9069C81.0924 52.0939 82.3122 52.044 83.4874 51.76C84.6627 51.476 85.7705 50.9635 86.7474 50.2517C87.7244 49.54 88.5513 48.6429 89.1811 47.6118C89.8109 46.5807 90.2311 45.4358 90.4178 44.2424C90.6099 43.046 90.5612 41.8234 90.2744 40.646C89.9877 39.4687 89.4686 38.3603 88.7477 37.3858C87.6916 35.8909 86.2114 34.7464 84.4979 34.0998C82.7844 33.4533 80.9163 33.3344 79.1345 33.7585C77.3527 34.1826 75.739 35.1302 74.5015 36.4792C73.264 37.8281 72.4596 39.5164 72.1919 41.3264C71.9751 42.4735 71.9915 43.6524 72.24 44.7931C72.4885 45.9338 72.964 47.0129 73.6384 47.9663C74.3528 49.0207 75.2786 49.9153 76.3572 50.5937C77.4358 51.272 78.6437 51.7192 79.9043 51.9069H79.8978Z" fill="#231F20"/>
<path d="M44.4062 91.6343L43.4725 93.4338C41.0266 98.1362 39.3763 106.116 34.4187 110.746C32.5909 112.454 12.5174 121.215 12.5174 121.215L10.3477 115.304C10.3477 115.304 26.2789 105.249 27.6399 103.876C29.3363 102.143 36.5753 79.0835 36.5753 79.0835L44.4062 91.6343Z" fill="white"/>
<path d="M12.5171 121.537C12.4738 121.547 12.4289 121.547 12.3856 121.537C12.3446 121.521 12.3075 121.496 12.2769 121.464C12.2463 121.432 12.2228 121.395 12.2081 121.353L10.0383 115.442C10.0133 115.371 10.0133 115.293 10.0384 115.221C10.0634 115.149 10.1121 115.088 10.1764 115.048C15.6665 111.587 26.318 104.763 27.3503 103.699C28.6982 102.32 34.2014 85.428 36.2068 79.0377C36.2262 78.9771 36.2625 78.9233 36.3114 78.8826C36.3603 78.8419 36.4198 78.816 36.483 78.8078C36.5453 78.8017 36.6081 78.8126 36.6648 78.8391C36.7215 78.8657 36.77 78.9071 36.8051 78.9589L44.6557 91.5162C44.6846 91.5649 44.6999 91.6205 44.6999 91.6771C44.6999 91.7337 44.6846 91.7893 44.6557 91.838C44.6557 91.838 44.3072 92.4948 43.722 93.6375C42.9167 95.2932 42.199 96.99 41.572 98.7209C39.9348 102.97 38.0807 107.791 34.6025 111.035C32.7549 112.763 13.4573 121.209 12.6354 121.543C12.5959 121.549 12.5558 121.547 12.5171 121.537ZM10.7747 115.436L12.7472 120.795C19.7496 117.734 32.8141 111.83 34.208 110.53C37.5744 107.39 39.4023 102.648 41.0131 98.4582C41.6457 96.7041 42.3722 94.9853 43.1894 93.3092L44.0376 91.6738L36.6473 79.8586C35.4112 83.7664 29.4148 102.484 27.85 104.106C26.5744 105.413 12.7932 114.122 10.7747 115.436Z" fill="#231F20"/>
<path d="M10.3737 115.278C10.3737 115.278 5.48194 116.092 5.51481 116.815C5.54769 117.537 9.45982 129.871 10.9063 129.346C12.3528 128.82 12.5172 121.215 12.5172 121.215L10.3737 115.278Z" fill="#231F20"/>
<path d="M10.8138 129.688C10.6576 129.685 10.5061 129.635 10.3798 129.543C8.52566 128.315 5.21844 117.413 5.18556 116.835C5.18556 116.579 5.13954 115.81 10.3206 114.95C10.3968 114.938 10.4747 114.953 10.5408 114.993C10.6069 115.032 10.657 115.094 10.6823 115.167L12.852 121.077C12.8589 121.119 12.8589 121.161 12.852 121.202C12.806 123.035 12.5496 129.083 10.9979 129.635C10.9397 129.662 10.8776 129.68 10.8138 129.688ZM5.84964 116.848C5.93511 117.34 6.80301 120.23 7.90104 123.199C9.99846 128.867 10.7809 129.031 10.8138 129.031C11.5633 128.762 12.1288 124.801 12.2142 121.268L10.1628 115.646C8.24951 115.981 6.16524 116.513 5.84964 116.848Z" fill="#231F20"/>
<path d="M50.2639 87.9696C50.2639 87.9696 50.5006 88.6986 50.8754 89.9005C52.4599 94.9575 56.589 108.29 56.7205 110.306C56.8849 112.808 47.6865 130.909 47.6865 130.909L41.4468 129.812C41.4468 129.812 47.0224 110.385 47.0027 108.474C47.0027 106.05 35.8252 84.6069 35.8252 84.6069L50.2639 87.9696Z" fill="white"/>
<path d="M47.6867 131.238H47.6341L41.401 130.141C41.3562 130.135 41.3134 130.119 41.2757 130.094C41.2381 130.069 41.2068 130.035 41.1841 129.996C41.1582 129.957 41.1412 129.913 41.1344 129.866C41.1276 129.819 41.1311 129.772 41.1446 129.727C43.0645 123.028 46.7005 109.958 46.6873 108.487C46.6873 106.563 38.633 90.7086 35.5098 84.7649C35.4766 84.7117 35.459 84.6502 35.459 84.5875C35.459 84.5248 35.4766 84.4634 35.5098 84.4102C35.5495 84.3617 35.6018 84.325 35.6609 84.3041C35.72 84.2833 35.7838 84.2791 35.8452 84.292L50.3102 87.6546C50.3649 87.6675 50.4154 87.6942 50.4568 87.7322C50.4982 87.7701 50.5292 87.818 50.5469 87.8714L51.1583 89.8088C52.8744 95.2928 56.8851 108.264 57.0166 110.293C57.1876 112.855 48.3245 130.325 47.9497 131.067C47.9236 131.115 47.8859 131.156 47.8399 131.186C47.794 131.215 47.7413 131.233 47.6867 131.238ZM41.8744 129.55L47.5092 130.548C50.1392 125.373 56.5235 112.277 56.392 110.333C56.2605 108.389 51.8947 94.2617 50.56 89.973L49.9946 88.2457L36.4435 85.0867C38.3239 88.7252 47.3054 106.208 47.3317 108.474C47.3646 110.287 42.6503 126.837 41.8744 129.55Z" fill="#231F20"/>
<path d="M27.5868 34.8639C26.2701 34.9528 24.9856 35.3104 23.8127 35.9147C21.7613 36.8999 19.802 38.5418 19.3483 40.742C18.9801 42.5481 19.6705 44.3936 20.545 45.9961C21.4194 47.5986 22.5175 49.1682 22.9843 50.9415C23.4511 52.7148 23.2473 54.8821 21.8468 56.0446C23.7546 55.3159 25.5311 54.2822 27.1068 52.9841C28.0393 52.2251 28.648 51.1404 28.8097 49.9498C28.8069 48.9705 28.5678 48.0063 28.1128 47.1388C27.4384 45.8459 26.9935 44.446 26.7978 43.0012C26.6992 41.5563 27.2383 39.967 28.4876 39.2314C29.5856 38.5746 33.169 38.6469 32.6035 36.6043C32.1761 35.0806 28.8689 34.8114 27.5868 34.8639Z" fill="white"/>
<path d="M21.8465 56.3924C21.7791 56.3931 21.713 56.373 21.6573 56.3349C21.6017 56.2968 21.5591 56.2425 21.5354 56.1793C21.5117 56.1162 21.508 56.0473 21.5249 55.9821C21.5417 55.9168 21.5783 55.8583 21.6296 55.8145C23.0366 54.6191 23.0695 52.5306 22.6684 51.0463C22.2513 49.7738 21.677 48.5582 20.9589 47.4276C20.7222 47.0072 20.4789 46.5935 20.2554 46.1732C19.0916 44.0124 18.7037 42.2326 19.0259 40.676C19.5847 37.9505 22.1753 36.3348 23.6678 35.6189C24.8805 34.9915 26.2104 34.6225 27.5734 34.5353C28.8884 34.4827 32.4257 34.7454 32.932 36.5647C32.9998 36.7618 33.0243 36.9711 33.0039 37.1785C32.9835 37.3859 32.9186 37.5865 32.8136 37.7666C32.3468 38.5678 31.1173 38.8568 30.039 39.1129C29.5679 39.1978 29.1088 39.339 28.6714 39.5333C27.4156 40.2688 27.0605 41.8648 27.1394 43.001C27.3094 44.3415 27.7074 45.6431 28.3163 46.8496L28.3952 47.0269C28.8709 47.9443 29.1189 48.9624 29.1185 49.9955C28.9604 51.2815 28.3129 52.4573 27.3104 53.2793C25.7131 54.5998 23.9124 55.6533 21.978 56.399C21.9342 56.4055 21.8895 56.4033 21.8465 56.3924ZM27.5997 35.192C26.326 35.2765 25.0836 35.623 23.9505 36.21C22.5698 36.8668 20.1699 38.3577 19.6702 40.8074C19.3809 42.2326 19.7491 43.8416 20.834 45.8645C21.0575 46.2782 21.2942 46.6854 21.5309 47.0992C22.2777 48.2784 22.872 49.5473 23.2996 50.8756C23.7285 52.3083 23.6066 53.8494 22.9577 55.1971C24.3758 54.5904 25.6928 53.7709 26.8633 52.7671C27.7255 52.0569 28.2946 51.0534 28.461 49.9495C28.46 49.0229 28.2344 48.1103 27.8035 47.2896L27.7246 47.1123C27.0839 45.8379 26.6679 44.4626 26.4951 43.047C26.4023 42.2629 26.526 41.4684 26.8528 40.7495C27.1797 40.0306 27.6971 39.4147 28.3492 38.9684C28.8424 38.7365 29.3642 38.5708 29.9009 38.4759C30.8083 38.2591 31.9326 37.9899 32.2613 37.4316C32.3136 37.3312 32.3451 37.2213 32.3542 37.1085C32.3632 36.9957 32.3495 36.8823 32.3139 36.7749C31.9523 35.4613 28.941 35.1723 27.6128 35.2249L27.5997 35.192Z" fill="#231F20"/>
<path d="M29.1908 35.3101C28.7585 36.0635 28.594 36.9407 28.724 37.7993C28.7642 38.377 28.9747 38.93 29.3289 39.3886C29.5635 39.6492 29.8554 39.8518 30.1817 39.9805C30.508 40.1093 30.8598 40.1607 31.2093 40.1308C31.5256 40.1244 31.8281 40.0003 32.0575 39.7827C32.222 39.578 32.3287 39.3331 32.3665 39.0734C32.7479 37.2804 31.4263 31.7899 29.1908 35.3101Z" fill="#231F20"/>
<path d="M31.0323 40.466C30.6603 40.4722 30.2914 40.3979 29.9509 40.2483C29.6105 40.0986 29.3064 39.8771 29.0598 39.599C28.6695 39.0911 28.4405 38.478 28.4023 37.8389C28.2661 36.9064 28.4491 35.9552 28.9217 35.1396C29.7896 33.7669 30.5523 33.7144 31.0323 33.9114C32.3999 34.4631 33.0048 37.7535 32.6957 39.1656C32.6477 39.4844 32.5136 39.7841 32.3078 40.0325C32.0228 40.3116 31.6417 40.4714 31.2427 40.4791L31.0323 40.466ZM29.474 35.4877C29.0817 36.1763 28.9334 36.9769 29.0532 37.7601C29.0819 38.275 29.2652 38.7693 29.5792 39.1787C29.7795 39.4039 30.0289 39.5802 30.3082 39.6941C30.5875 39.8079 30.8891 39.8563 31.1901 39.8355C31.4312 39.8352 31.6643 39.7491 31.8476 39.5925C31.968 39.4282 32.0449 39.2361 32.0711 39.0342C32.3275 37.8258 31.7226 34.9229 30.8087 34.5485C30.355 34.3712 29.8422 34.9754 29.4937 35.5205L29.474 35.4877Z" fill="#231F20"/>
<path d="M40.9734 47.1321C40.4408 47.7889 39.6584 48.1041 38.3039 47.9727C37.1984 47.8196 36.148 47.3954 35.2465 46.738C33.4907 45.5034 32.1132 43.8053 31.2679 41.8337C30.4226 39.862 30.1429 37.6944 30.4599 35.573C31.1766 31.2712 35.4635 26.9891 40.0857 28.6245C40.8648 28.9087 41.5726 29.3591 42.1596 29.9444C42.7467 30.5296 43.199 31.2357 43.485 32.0134C43.7976 31.9073 44.1343 31.8943 44.4541 31.9759C44.774 32.0576 45.0632 32.2303 45.2866 32.4731C46.4832 33.6618 46.4372 34.936 45.7994 36.3677C44.7474 38.7124 43.4587 40.9651 42.5119 43.3426C41.9662 44.6824 41.7558 46.1863 40.9734 47.1321Z" fill="white"/>
<path d="M38.8175 48.2947C38.6334 48.2947 38.4427 48.2947 38.2455 48.2947C37.0819 48.1353 35.9778 47.6833 35.0369 46.9812C33.2193 45.7151 31.7941 43.9647 30.9235 41.9293C30.0528 39.8939 29.7718 37.6552 30.1122 35.4681C30.3565 34.122 30.8806 32.8421 31.6507 31.7108C32.4208 30.5796 33.4198 29.6222 34.5832 28.9005C35.4093 28.3863 36.3408 28.065 37.3085 27.9604C38.2761 27.8558 39.2549 27.9706 40.172 28.2962C40.9466 28.5767 41.6555 29.0128 42.2549 29.5776C42.8542 30.1424 43.3313 30.8239 43.6567 31.5801C43.9927 31.5364 44.3343 31.5732 44.6532 31.6874C44.9722 31.8016 45.2594 31.9899 45.4911 32.2368C47.0363 33.7671 46.5629 35.3959 46.0763 36.4927C45.6424 37.4647 45.1624 38.4236 44.6956 39.3562C44.0381 40.6697 43.3806 42.062 42.7954 43.4609C42.6179 43.9075 42.4732 44.3804 42.3351 44.8336C42.1275 45.7434 41.7408 46.6029 41.1977 47.3621C40.8978 47.6878 40.5276 47.941 40.1152 48.1025C39.7029 48.2641 39.2591 48.3298 38.8175 48.2947ZM38.0219 28.5393C36.9381 28.5489 35.8762 28.8458 34.9448 29.3996C33.8599 30.0757 32.9289 30.9715 32.212 32.0292C31.4951 33.0869 31.0083 34.283 30.7829 35.5404C30.478 37.6042 30.751 39.712 31.5714 41.6304C32.3919 43.5488 33.7278 45.203 35.4314 46.4098C36.2873 47.0367 37.2861 47.4407 38.3375 47.5854C38.7645 47.6796 39.2086 47.662 39.6268 47.5342C40.045 47.4065 40.423 47.173 40.7243 46.8564C41.2059 46.1644 41.5497 45.3862 41.7368 44.5643C41.8749 44.098 42.0261 43.612 42.2102 43.1391C42.7757 41.7139 43.466 40.3282 44.1301 38.9884C44.5969 38.0623 45.0703 37.1035 45.4977 36.1446C46.1552 34.6472 46.0369 33.5963 45.0572 32.6243C44.8793 32.429 44.6494 32.2883 44.3945 32.2185C44.1395 32.1487 43.87 32.1528 43.6173 32.2303C43.5759 32.2472 43.5315 32.2557 43.4868 32.2553C43.4421 32.2549 43.3979 32.2455 43.3568 32.2278C43.3158 32.21 43.2787 32.1842 43.2478 32.152C43.2168 32.1197 43.1927 32.0815 43.1767 32.0398C42.9114 31.3068 42.4874 30.6413 41.9351 30.0908C41.3827 29.5402 40.7156 29.1181 39.9813 28.8545C39.3599 28.6392 38.7059 28.5325 38.0482 28.5393H38.0219Z" fill="#231F20"/>
<path d="M44.3994 37.1689C44.3994 37.1689 47.2004 39.5464 46.9768 40.2689C46.7533 40.9913 45.2936 40.9847 45.2936 40.9847" fill="white"/>
<path d="M45.3134 41.3134C45.2256 41.3117 45.142 41.2756 45.0806 41.213C45.0191 41.1504 44.9847 41.0662 44.9847 40.9785C44.9837 40.9348 44.9918 40.8914 45.0085 40.851C45.0251 40.8107 45.05 40.7742 45.0815 40.7439C45.1131 40.7137 45.1505 40.6903 45.1916 40.6753C45.2326 40.6602 45.2764 40.6539 45.32 40.6566C45.6751 40.6566 46.5693 40.5384 46.681 40.1772C46.7928 39.816 45.5567 38.5616 44.2088 37.4188C44.1426 37.3622 44.1015 37.2816 44.0947 37.1948C44.088 37.1079 44.116 37.022 44.1727 36.9558C44.2293 36.8896 44.31 36.8486 44.397 36.8418C44.4839 36.835 44.5699 36.863 44.6362 36.9196C45.7408 37.8588 47.5621 39.5467 47.3122 40.3677C47.0624 41.1886 45.5764 41.3134 45.3134 41.3134Z" fill="#231F20"/>
<path d="M45.9572 53.2206C42.8144 53.4701 37.4097 50.3177 37.4097 50.1995C36.8353 48.1621 36.3635 46.0973 35.9961 44.0127C35.9961 44.0127 38.1198 43.4085 38.6261 40.5253C39.1324 37.6421 41.815 37.1889 42.8538 33.3994C44.3858 34.0562 44.6488 36.2892 45.0433 37.6815C45.5956 39.6431 46.1019 41.6134 46.5621 43.5924C46.858 44.8534 43.656 45.8123 42.9787 45.6021C43.702 47.4673 43.702 47.4673 45.9572 53.2206Z" fill="white"/>
<path d="M45.6091 53.5619C42.4399 53.5619 37.226 50.7312 37.0616 50.2781C36.4766 48.2243 35.9982 46.1418 35.6282 44.0388C35.6153 43.9583 35.6323 43.8759 35.6758 43.807C35.7194 43.7381 35.7866 43.6874 35.8649 43.6644C35.9438 43.6644 37.8374 43.0733 38.278 40.4397C38.5621 39.1745 39.2303 38.0277 40.1913 37.1559C41.2967 36.1129 42.1065 34.7965 42.5386 33.3401C42.5517 33.2952 42.5741 33.2536 42.6043 33.2179C42.6345 33.1821 42.6719 33.1531 42.714 33.1327C42.7561 33.1123 42.8021 33.1009 42.8488 33.0993C42.8956 33.0977 42.9422 33.1059 42.9857 33.1234C44.4124 33.7342 44.8332 35.468 45.1686 36.8669C45.2343 37.1362 45.2935 37.3923 45.3592 37.6222C45.9115 39.5925 46.4244 41.5628 46.8846 43.5331C46.9268 43.7599 46.9055 43.9939 46.8232 44.2094C46.7408 44.425 46.6006 44.6136 46.4178 44.7547C45.5624 45.4175 44.5412 45.8332 43.4656 45.9565C44.0311 47.408 44.2086 47.8743 46.2666 53.1153C46.2843 53.1637 46.2905 53.2156 46.2848 53.2669C46.2791 53.3182 46.2616 53.3674 46.2337 53.4108C46.2073 53.4542 46.1708 53.4907 46.1273 53.517C46.0838 53.5433 46.0346 53.5587 45.9839 53.5619C45.859 53.5687 45.7339 53.5687 45.6091 53.5619ZM37.6796 50.0022C38.2517 50.3831 42.5846 52.8526 45.4842 52.9051C43.3999 47.5853 43.3802 47.5393 42.6766 45.7201C42.6545 45.6627 42.6489 45.6003 42.6605 45.5399C42.6722 45.4796 42.7005 45.4237 42.7424 45.3786C42.7845 45.3341 42.8381 45.302 42.8972 45.2858C42.9563 45.2696 43.0187 45.2699 43.0777 45.2866C44.1255 45.2663 45.1384 44.9068 45.9641 44.2621C46.1943 44.0454 46.2863 43.8483 46.2469 43.671C45.7866 41.7007 45.2738 39.7304 44.728 37.7601C44.6557 37.5237 44.5965 37.2544 44.5308 36.9786C44.2546 35.8555 43.9259 34.4894 43.058 33.8721C42.5761 35.2823 41.7699 36.5599 40.7041 37.6025C39.8285 38.3854 39.2174 39.4202 38.9552 40.5645C38.8635 41.3438 38.5737 42.0866 38.1133 42.7223C37.653 43.3581 37.0374 43.8655 36.3252 44.1964C36.529 45.1619 37.1273 48.2815 37.6796 50.0022Z" fill="#231F20"/>
<path d="M46.0956 42.1538C45.9423 42.3358 45.7517 42.4829 45.5366 42.585C45.3215 42.6871 45.0869 42.7418 44.8488 42.7456C44.6107 42.7493 44.3745 42.7019 44.1563 42.6066C43.9381 42.5113 43.7429 42.3704 43.584 42.1932" fill="white"/>
<path d="M44.7738 43.0995C44.5037 43.0935 44.2376 43.0321 43.9922 42.9192C43.7467 42.8062 43.5272 42.644 43.3471 42.4428C43.2869 42.3792 43.2545 42.2943 43.257 42.2069C43.2594 42.1194 43.2966 42.0366 43.3602 41.9765C43.4239 41.9164 43.5088 41.884 43.5964 41.8865C43.6839 41.8889 43.7669 41.926 43.827 41.9896C43.94 42.1372 44.0852 42.257 44.2516 42.3401C44.4179 42.4232 44.601 42.4673 44.787 42.469C45.1917 42.4302 45.5694 42.2486 45.8521 41.9568C45.912 41.8981 45.992 41.8645 46.0758 41.8629C46.1596 41.8612 46.2409 41.8915 46.303 41.9477C46.3651 42.0039 46.4035 42.0817 46.4101 42.1652C46.4167 42.2487 46.3912 42.3315 46.3387 42.3968C45.9356 42.8278 45.3829 43.0886 44.7936 43.1258L44.7738 43.0995Z" fill="#231F20"/>
<path d="M42.9788 45.6016C42.5058 45.7106 42.0155 45.7213 41.5382 45.6332C41.0609 45.5451 40.6068 45.36 40.2041 45.0894C40.2041 45.0894 41.1772 48.0514 43.9782 48.1761L42.9788 45.6016Z" fill="#231F20"/>
<path d="M43.9788 48.505C40.9872 48.3736 39.9483 45.3197 39.9089 45.2211C39.8851 45.1537 39.8845 45.0804 39.9072 45.0126C39.9298 44.9448 39.9743 44.8865 40.0338 44.8468C40.0911 44.8051 40.1602 44.7827 40.231 44.7827C40.3019 44.7827 40.371 44.8051 40.4283 44.8468C40.7919 45.0855 41.2 45.2487 41.6281 45.3266C42.0562 45.4044 42.4957 45.3954 42.9202 45.3C42.9969 45.2802 43.0782 45.2894 43.1485 45.3258C43.2189 45.3621 43.2734 45.4231 43.3016 45.497L44.301 48.0715C44.3203 48.1214 44.3271 48.1753 44.3207 48.2285C44.3144 48.2816 44.2952 48.3324 44.2647 48.3764C44.2342 48.4205 44.1935 48.4564 44.1459 48.4811C44.0984 48.5058 44.0455 48.5185 43.992 48.5181L43.9788 48.505ZM40.928 45.8779C41.1876 46.3693 41.5496 46.7995 41.9897 47.1394C42.4297 47.4792 42.9376 47.7209 43.4791 47.8482L42.7624 45.9764C42.1467 46.0574 41.5208 46.0036 40.928 45.8188V45.8779Z" fill="#231F20"/>
<path d="M43.6163 37.124C43.769 37.0911 43.8238 36.7454 43.7388 36.3519C43.6539 35.9583 43.4612 35.6659 43.3086 35.6988C43.156 35.7316 43.1011 36.0774 43.1861 36.4709C43.2711 36.8645 43.4637 37.1569 43.6163 37.124Z" fill="#231F20"/>
<path d="M40.7041 39.3232C40.5063 38.8499 40.1808 38.4406 39.7639 38.1411C39.4755 37.8762 39.1499 37.655 38.7974 37.4843C38.619 37.3982 38.4235 37.3535 38.2254 37.3535C38.0273 37.3535 37.8317 37.3982 37.6534 37.4843C37.5018 37.5727 37.3707 37.6921 37.2687 37.8348C37.1667 37.9774 37.0962 38.14 37.0616 38.3118C36.9957 38.6584 37.0092 39.0154 37.1011 39.3561C37.29 40.0943 37.6693 40.7701 38.2011 41.3163C38.7329 41.8625 39.3987 42.26 40.1321 42.4691L39.994 42.3838" fill="white"/>
<path d="M40.1319 42.7975C40.1038 42.8037 40.0746 42.8037 40.0464 42.7975C39.2556 42.5637 38.5397 42.1273 37.9699 41.5317C37.4001 40.936 36.9962 40.2018 36.7984 39.402C36.6944 39.014 36.6809 38.6073 36.7589 38.2133C36.7989 37.9938 36.8861 37.7857 37.0143 37.6032C37.1426 37.4206 37.3089 37.268 37.5019 37.1559C37.7263 37.0472 37.9725 36.9907 38.2219 36.9907C38.4713 36.9907 38.7174 37.0472 38.9418 37.1559C39.3252 37.3448 39.6776 37.5906 39.9873 37.8849C40.4478 38.219 40.8073 38.6735 41.0261 39.1984C41.0391 39.2415 41.0434 39.2868 41.0388 39.3316C41.0343 39.3764 41.0209 39.4198 40.9996 39.4595C40.9782 39.4991 40.9492 39.5341 40.9143 39.5626C40.8794 39.5911 40.8392 39.6124 40.796 39.6253C40.7528 39.6382 40.7075 39.6425 40.6627 39.638C40.6178 39.6334 40.5743 39.6201 40.5346 39.5988C40.495 39.5774 40.4599 39.5485 40.4314 39.5136C40.4029 39.4787 40.3816 39.4386 40.3686 39.3954C40.1896 38.9821 39.9008 38.6255 39.5336 38.3643C39.2721 38.1024 38.973 37.8811 38.646 37.7075C38.5111 37.6447 38.3641 37.6122 38.2153 37.6122C38.0665 37.6122 37.9195 37.6447 37.7846 37.7075C37.6751 37.7736 37.5809 37.8623 37.5083 37.9676C37.4358 38.073 37.3865 38.1925 37.3638 38.3183C37.3062 38.6147 37.3174 38.9203 37.3967 39.2115C37.5556 39.8481 37.8655 40.437 38.3004 40.9286C38.7353 41.4202 39.2823 41.7999 39.8952 42.0356C39.975 42.0215 40.0571 42.0379 40.1253 42.0816L40.2634 42.167C40.3326 42.2059 40.3845 42.2694 40.4089 42.3449C40.4333 42.4203 40.4283 42.5022 40.3949 42.5742C40.3768 42.6325 40.3424 42.6844 40.2959 42.724C40.2493 42.7635 40.1924 42.789 40.1319 42.7975Z" fill="#231F20"/>
<path d="M48.4036 51.953C48.4036 51.953 39.1986 47.3162 35.9768 50.4096C32.7551 53.5029 32.8997 63.5843 32.7354 80.4565L52.5458 79.0839C52.5458 79.0839 52.8483 54.4027 48.4036 51.953Z" fill="#48A4FE"/>
<path d="M56.2542 58.5072C57.6087 58.5729 70.476 60.1426 71.8304 58.8619C73.1849 57.5812 75.9661 55.7685 76.137 56.2348C76.308 56.7011 74.4473 59.0064 74.4473 59.0064C74.4473 59.0064 78.5961 57.6929 79.2207 58.3496C79.8453 59.0064 78.2279 61.8896 77.2482 62.7434C76.9852 62.9798 74.25 63.5381 72.6457 64.0044C65.4132 66.0863 55.6691 66.0666 52.9207 64.1554C49.1335 61.5284 38.4557 56.4319 37.8377 55.5321C37.2196 54.6323 39.0606 48.7674 43.6237 51.2828C43.6237 51.2566 54.9064 58.4481 56.2542 58.5072Z" fill="white"/>
<path d="M60.9089 65.8827C57.2598 65.8827 54.1564 65.3901 52.7362 64.3984C50.8097 63.0849 47.0817 61.0752 43.8008 59.3216C40.0465 57.3513 37.8833 56.1757 37.5677 55.6897C37.0943 55.0329 37.6006 52.8985 38.7841 51.5784C39.5402 50.7377 41.1905 49.5424 43.7811 50.9676C48.1337 53.7391 55.3465 58.1394 56.2736 58.192C56.5234 58.192 57.1546 58.2708 58.0291 58.3496C61.1391 58.6583 70.6005 59.5778 71.5999 58.6386C72.5993 57.6994 75.3476 55.6766 76.1301 55.8605C76.2022 55.8749 76.2693 55.9079 76.3247 55.9563C76.3801 56.0047 76.4218 56.0668 76.4457 56.1363C76.5772 56.4844 76.2024 57.2462 75.3345 58.4087C76.8204 57.995 78.9047 57.5484 79.457 58.1066C79.5442 58.204 79.6098 58.3187 79.6495 58.4432C79.6891 58.5677 79.702 58.6992 79.6871 58.829C79.6871 60.0244 78.2932 62.2574 77.4845 62.9732C77.2807 63.1571 76.6626 63.3213 74.9334 63.7416C74.1576 63.9321 73.362 64.1291 72.7242 64.3065C68.8739 65.3563 64.9002 65.8864 60.9089 65.8827ZM41.4864 50.961C41.0635 50.9673 40.6471 51.0651 40.2657 51.2476C39.8843 51.4302 39.547 51.6931 39.2772 52.0184C38.1266 53.2925 37.9162 55.0461 38.1068 55.3022C38.3764 55.6831 41.3943 57.2725 44.1098 58.7305C47.3973 60.4907 51.1516 62.4872 53.111 63.8467C55.5766 65.574 65.0315 65.817 72.5401 63.6497C73.1976 63.4658 73.9998 63.2688 74.7756 63.0783C75.5513 62.9074 76.3155 62.6881 77.0637 62.4215C77.8264 61.7648 79.0362 59.6828 79.0362 58.7568C79.0485 58.6737 79.0347 58.5888 78.9968 58.5138C78.714 58.2577 76.6363 58.6189 74.5521 59.2822C74.4847 59.3015 74.4129 59.2992 74.3468 59.2757C74.2808 59.2521 74.2238 59.2085 74.1839 59.1509C74.1407 59.0955 74.1172 59.0273 74.1172 58.9571C74.1172 58.8869 74.1407 58.8187 74.1839 58.7634C74.7671 58.0624 75.2864 57.3107 75.7356 56.5172C74.3905 57.1836 73.1483 58.0396 72.047 59.0589C70.9753 60.0703 64.6435 59.604 57.9568 58.9538C57.0954 58.8685 56.4708 58.8093 56.2341 58.7962C54.8336 58.7305 44.6029 52.2286 43.4392 51.493C42.8432 51.155 42.1717 50.9721 41.4864 50.961Z" fill="#231F20"/>
<path d="M32.735 80.4562L23.3262 103.614C23.3262 103.614 47.4696 111.876 58.5419 109.965L52.5455 79.0967L32.735 80.4562Z" fill="#231F20"/>
<path d="M54.6694 110.562C42.8344 110.562 24.1022 104.205 23.2212 103.903C23.1785 103.889 23.1391 103.867 23.1052 103.837C23.0714 103.808 23.0437 103.772 23.0239 103.732C23.0062 103.69 22.9971 103.646 22.9971 103.601C22.9971 103.555 23.0062 103.511 23.0239 103.469L32.4328 80.3314C32.4554 80.274 32.494 80.2242 32.5442 80.1881C32.5943 80.152 32.6538 80.1311 32.7155 80.1278L52.526 78.7552C52.6048 78.7518 52.6823 78.7763 52.7448 78.8243C52.8073 78.8724 52.8509 78.9409 52.8679 79.0179L58.8643 109.886C58.8771 109.973 58.8584 110.061 58.8117 110.135C58.7601 110.208 58.6822 110.257 58.5947 110.273C57.2967 110.48 55.9836 110.577 54.6694 110.562ZM23.7669 103.397C26.6665 104.356 47.8643 111.226 58.1607 109.676L52.2827 79.4645L32.9719 80.778L23.7669 103.397Z" fill="#231F20"/>
<path d="M41.4473 129.812C41.4473 129.812 39.6984 134.449 40.3493 134.784C41.0002 135.119 53.6308 137.916 53.9069 136.393C54.1831 134.869 47.6738 130.909 47.6738 130.909L41.4473 129.812Z" fill="#231F20"/>
<path d="M52.2761 137.174C48.581 137.174 40.6515 135.303 40.211 135.079C39.9874 134.961 39.3037 134.613 41.1512 129.694C41.1801 129.623 41.2324 129.564 41.2994 129.527C41.3664 129.49 41.444 129.477 41.5194 129.49L47.746 130.587C47.7853 130.593 47.8232 130.607 47.8577 130.627C49.4291 131.585 54.5379 134.83 54.2421 136.452C54.2193 136.563 54.1696 136.666 54.0973 136.753C54.0251 136.84 53.9325 136.908 53.8278 136.951C53.3315 137.131 52.8032 137.207 52.2761 137.174ZM40.5595 134.482C42.7103 135.063 44.8895 135.535 47.0885 135.894C53.052 136.918 53.5846 136.314 53.6043 136.288C53.7424 135.506 50.5929 133.043 47.5684 131.198L41.6509 130.16C41.0066 132.006 40.428 134.075 40.5595 134.482Z" fill="#231F20"/>
<path d="M152.808 107.64C152.966 108.113 154.531 110.773 154.208 111.285C153.886 111.797 148.81 115.022 150.309 115.502C151.809 115.981 160.409 114.845 160.409 114.845L155.195 101.184L152.808 107.64Z" fill="#231F20"/>
<path d="M151.657 115.941C151.171 115.963 150.685 115.921 150.21 115.816C150.088 115.787 149.976 115.723 149.888 115.633C149.801 115.542 149.742 115.428 149.717 115.304C149.592 114.614 150.618 113.695 152.814 112.02C153.206 111.743 153.579 111.44 153.932 111.114C154.011 110.799 153.189 109.176 152.88 108.566C152.669 108.145 152.544 107.909 152.492 107.751C152.469 107.681 152.469 107.605 152.492 107.535L154.892 101.079C154.915 101.015 154.957 100.96 155.012 100.921C155.067 100.883 155.133 100.862 155.201 100.862C155.267 100.862 155.332 100.883 155.386 100.922C155.441 100.961 155.481 101.016 155.503 101.079L160.711 114.706C160.731 114.752 160.742 114.801 160.742 114.851C160.742 114.901 160.731 114.95 160.711 114.995C160.685 115.038 160.651 115.074 160.61 115.101C160.569 115.128 160.523 115.146 160.474 115.153C159.731 115.238 154.438 115.941 151.657 115.941ZM150.342 115.173H150.388C151.499 115.527 157.305 114.877 159.935 114.516L155.194 102.116L153.143 107.633C153.209 107.778 153.327 108.014 153.452 108.29C154.372 110.096 154.767 111.035 154.471 111.488C154.092 111.896 153.666 112.257 153.202 112.565C152.439 113.13 150.401 114.687 150.362 115.173H150.342Z" fill="#231F20"/>
<path d="M128.546 105.006C128.546 105.006 131.524 113.584 131.025 113.787C130.525 113.991 117.875 116.887 118.447 116.119C119.019 115.35 124.877 112.283 124.943 112.638C125.008 112.993 124.154 108.474 124.154 108.474L128.546 105.006Z" fill="#231F20"/>
<path d="M118.835 116.526C118.487 116.526 118.257 116.487 118.178 116.395C118.127 116.328 118.1 116.246 118.1 116.162C118.1 116.077 118.127 115.996 118.178 115.928C118.585 115.35 123.05 112.796 124.562 112.349C124.483 111.994 124.378 111.456 124.22 110.628L123.826 108.533C123.813 108.475 123.817 108.414 123.838 108.358C123.859 108.302 123.896 108.253 123.944 108.218L128.336 104.75C128.377 104.717 128.425 104.694 128.477 104.684C128.528 104.674 128.582 104.676 128.632 104.691C128.682 104.706 128.728 104.733 128.766 104.77C128.804 104.806 128.832 104.852 128.849 104.901C131.933 113.768 131.479 113.965 131.144 114.096C131.052 114.122 121.485 116.526 118.835 116.526ZM124.792 112.96C122.847 113.771 120.978 114.756 119.21 115.902C121.577 115.666 129.474 113.892 130.756 113.525C130.716 112.704 129.579 109.013 128.389 105.552L124.509 108.612C124.661 109.387 125.206 112.244 125.266 112.553C125.279 112.639 125.26 112.726 125.211 112.798C125.162 112.87 125.088 112.921 125.003 112.94C124.95 112.999 124.851 113.012 124.792 112.96ZM124.661 112.71H124.628C124.633 112.744 124.645 112.777 124.663 112.806C124.681 112.836 124.705 112.861 124.733 112.881C124.704 112.826 124.68 112.769 124.661 112.71Z" fill="#231F20"/>
<path d="M123.812 54.4681C123.812 54.4681 114.995 72.6802 114.883 78.4466C114.771 84.213 122.319 108.474 122.319 108.474L130.012 107.2C130.012 107.2 124.279 82.952 125.147 80.4169C126.015 77.8818 132.629 61.5809 132.629 61.5809C132.629 61.5809 135.259 75.5634 137.087 80.7124C138.915 85.8615 150.631 107.948 150.631 107.948L158.686 106.398C158.686 106.398 148.014 81.691 147.62 77.4286C147.225 73.1662 145.128 50.3765 145.128 50.3765L123.812 54.4681Z" fill="#231F20"/>
<path d="M122.32 108.802C122.25 108.803 122.181 108.78 122.124 108.739C122.067 108.698 122.025 108.639 122.004 108.572C121.695 107.581 114.436 84.1997 114.548 78.4399C114.66 72.6801 123.148 55.0722 123.51 54.3235C123.533 54.2775 123.566 54.2375 123.607 54.2067C123.648 54.1759 123.696 54.1552 123.747 54.1462L145.056 50.0545C145.102 50.0457 145.149 50.0463 145.194 50.0565C145.239 50.0667 145.282 50.0861 145.319 50.1136C145.391 50.1709 145.438 50.253 145.451 50.3435C145.451 50.3435 147.548 73.1332 147.943 77.4022C148.331 81.5661 158.877 106.024 158.982 106.267C159.003 106.312 159.014 106.362 159.014 106.411C159.014 106.461 159.003 106.511 158.982 106.556C158.958 106.598 158.925 106.635 158.885 106.664C158.845 106.692 158.8 106.711 158.752 106.72L150.698 108.27C150.629 108.285 150.557 108.276 150.494 108.245C150.431 108.214 150.38 108.163 150.349 108.099C149.869 107.2 138.626 85.9401 136.785 80.8239C135.246 76.555 133.182 66.1453 132.524 62.7432C131.058 66.3685 126.199 78.4005 125.469 80.5218C124.812 82.5315 128.757 100.402 130.341 107.121C130.354 107.164 130.356 107.21 130.348 107.254C130.34 107.299 130.322 107.341 130.295 107.377C130.273 107.416 130.241 107.449 130.204 107.474C130.166 107.499 130.123 107.515 130.078 107.521L122.386 108.796L122.32 108.802ZM124.029 54.757C123.194 56.5039 115.311 73.0938 115.206 78.453C115.1 83.8122 121.715 105.413 122.543 108.106L129.611 106.93C128.744 103.233 123.99 82.7745 124.838 80.3117C125.686 77.8488 132.071 62.1259 132.32 61.4625C132.345 61.3958 132.392 61.3393 132.453 61.3023C132.513 61.2654 132.585 61.2501 132.656 61.2589C132.726 61.265 132.793 61.294 132.845 61.3414C132.897 61.3889 132.932 61.4522 132.945 61.5216C132.945 61.6596 135.575 75.537 137.39 80.6006C139.119 85.4016 149.586 105.282 150.803 107.581L158.213 106.155C156.825 102.924 147.66 81.4873 147.285 77.4613C146.91 73.4353 145.096 53.693 144.826 50.7704L124.029 54.757Z" fill="#231F20"/>
<path d="M122.786 23.7314L112.51 29.0775L114.449 39.5989L124.108 37.2805L122.786 23.7314Z" fill="#48A4FE"/>
<path d="M122.787 23.7315C123.398 22.8974 136.068 19.9945 139.882 23.1667C143.695 26.3389 146.279 48.7805 146.871 55.67L121.939 57.4761C121.939 57.4761 119.407 28.3354 122.787 23.7315Z" fill="#48A4FE"/>
<path d="M121.767 55.3612C121.685 55.3614 121.606 55.3302 121.546 55.2741C121.486 55.2179 121.45 55.141 121.445 55.0591C121.379 54.2316 119.873 34.7454 120.978 29.9313C120.998 29.847 121.051 29.7741 121.125 29.7286C121.199 29.683 121.288 29.6686 121.372 29.6883C121.415 29.6975 121.455 29.7152 121.49 29.7402C121.525 29.7652 121.555 29.797 121.578 29.8338C121.6 29.8705 121.615 29.9115 121.622 29.9542C121.628 29.9969 121.626 30.0405 121.616 30.0824C120.537 34.7914 122.082 54.8096 122.096 55.0066C122.099 55.0497 122.094 55.0932 122.081 55.1344C122.068 55.1756 122.046 55.2138 122.018 55.2468C121.99 55.2797 121.956 55.3068 121.917 55.3265C121.879 55.3461 121.836 55.3579 121.793 55.3612H121.767Z" fill="#231F20"/>
<path d="M130.058 18.944C131.45 18.6606 132.737 18.0019 133.78 17.0393C134.266 16.6218 134.61 16.0643 134.766 15.4434C134.834 15.1324 134.8 14.8079 134.669 14.5179C134.537 14.228 134.315 13.9882 134.036 13.8343C134.341 13.6629 134.6 13.4205 134.791 13.1278C134.982 12.8352 135.1 12.5008 135.134 12.153C135.201 11.4535 135.073 10.7492 134.766 10.117C134.622 9.68639 134.369 9.30032 134.032 8.99645C133.694 8.69258 133.283 8.48129 132.84 8.38317C133.221 7.72641 133.616 6.91859 133.346 6.18958C133.185 5.83689 132.944 5.52654 132.642 5.28324C132.076 4.7663 131.462 4.30448 130.808 3.90404C130.46 3.69387 130.012 3.49028 129.664 3.71358C129.521 2.98894 129.177 2.319 128.671 1.78019C128.166 1.24137 127.519 0.855365 126.804 0.666188C126.098 0.46073 125.343 0.49773 124.66 0.771271C124.004 1.17403 123.386 1.63567 122.813 2.15048C122.223 1.95129 121.595 1.89269 120.978 1.97936C120.362 2.06603 119.774 2.29557 119.262 2.64962C118.903 2.97469 118.637 3.38908 118.49 3.85057C118.343 4.31206 118.322 4.80414 118.427 5.27668C117.646 5.65215 116.955 6.19211 116.402 6.85948C116.124 7.19264 115.924 7.58387 115.817 8.00441C115.71 8.42494 115.699 8.86407 115.784 9.28951C115.884 9.71173 116.12 10.0893 116.457 10.3636C116.793 10.6379 117.211 10.7936 117.645 10.8066C117.271 11.1476 117.034 11.613 116.978 12.1158C116.922 12.6186 117.052 13.1244 117.342 13.5388C117.654 13.9374 118.078 14.2341 118.559 14.3908C119.041 14.5476 119.558 14.5574 120.045 14.4188C120.176 14.366 120.319 14.3479 120.459 14.3663C120.625 14.4249 120.773 14.5269 120.886 14.6618C121.307 15.0362 121.859 14.9574 122.313 15.2135C122.93 15.638 123.51 16.1125 124.049 16.6321C124.612 17.0789 125.198 17.4954 125.804 17.88C126.437 18.3868 127.12 18.827 127.843 19.1935C128.5 19.4497 128.914 19.1935 129.572 19.0293L130.058 18.944Z" fill="white"/>
<path d="M128.368 19.6597C128.143 19.6588 127.92 19.6165 127.711 19.5349C127.186 19.307 126.698 19.0015 126.264 18.6285C126.047 18.4643 125.83 18.3002 125.607 18.1557C124.987 17.7656 124.389 17.3402 123.818 16.8815C123.641 16.7371 123.45 16.5663 123.266 16.3955C122.92 16.0601 122.542 15.7608 122.135 15.5023C121.968 15.4182 121.788 15.3606 121.603 15.3316C121.254 15.2735 120.927 15.129 120.649 14.9112L120.564 14.8259C120.507 14.7695 120.443 14.7209 120.373 14.6814C120.301 14.6846 120.231 14.6978 120.163 14.7208C119.606 14.8897 119.01 14.8853 118.456 14.7082C117.902 14.531 117.415 14.1895 117.059 13.7291C116.788 13.3364 116.637 12.8736 116.624 12.3967C116.611 11.9199 116.737 11.4495 116.987 11.0429C116.612 10.9127 116.275 10.6916 116.006 10.3993C115.738 10.107 115.546 9.75268 115.448 9.36815C115.348 8.89569 115.355 8.40678 115.469 7.93737C115.583 7.46797 115.8 7.03001 116.106 6.65571C116.64 6.00011 117.311 5.4689 118.072 5.09918C118 4.59993 118.053 4.09076 118.225 3.61658C118.397 3.1424 118.683 2.71778 119.058 2.38018C119.583 1.99894 120.188 1.74173 120.827 1.62797C121.466 1.5142 122.122 1.54683 122.747 1.72341C123.311 1.23776 123.913 0.798482 124.548 0.409884C125.297 0.108522 126.126 0.0668963 126.902 0.291666C127.616 0.481891 128.268 0.852541 128.797 1.36789C129.325 1.88324 129.712 2.52592 129.92 3.23397C130.306 3.22959 130.683 3.34679 130.998 3.56892C131.665 3.98039 132.293 4.45311 132.872 4.98097C133.218 5.25654 133.492 5.61288 133.668 6.01865C133.764 6.3688 133.784 6.73521 133.729 7.09395C133.673 7.4527 133.543 7.79571 133.345 8.1006C133.742 8.27366 134.099 8.5253 134.395 8.84027C134.691 9.15524 134.92 9.52698 135.068 9.93297C135.398 10.6189 135.535 11.382 135.463 12.1397C135.388 12.7748 135.084 13.3609 134.608 13.7882C134.813 14.0082 134.963 14.2733 135.046 14.5619C135.129 14.8505 135.144 15.1546 135.088 15.4498C134.924 16.1395 134.547 16.76 134.01 17.2231C132.92 18.2167 131.582 18.8974 130.137 19.1934L129.631 19.3116C129.479 19.3116 129.341 19.3904 129.21 19.4298C128.942 19.5473 128.659 19.6247 128.368 19.6597ZM120.347 14.0246H120.504C120.698 14.0752 120.872 14.1827 121.004 14.3333L121.077 14.399C121.27 14.5424 121.496 14.635 121.734 14.6682C121.977 14.7161 122.211 14.7979 122.431 14.9112C122.886 15.1885 123.307 15.5168 123.687 15.8898C123.864 16.054 124.042 16.2116 124.219 16.3561C124.782 16.7947 125.368 17.2025 125.975 17.5777C126.205 17.7353 126.435 17.9061 126.665 18.0834C127.051 18.4131 127.483 18.6852 127.947 18.8912C128.297 19.0144 128.681 18.9979 129.019 18.8453C129.164 18.7993 129.315 18.7533 129.486 18.7139L129.979 18.6023C131.312 18.3261 132.546 17.6953 133.549 16.7765C133.988 16.4086 134.301 15.9125 134.443 15.3578C134.498 15.1196 134.475 14.8702 134.378 14.6458C134.281 14.4214 134.115 14.2337 133.904 14.11C133.848 14.0841 133.801 14.0435 133.766 13.9926C133.731 13.9418 133.711 13.8825 133.707 13.821C133.706 13.7585 133.723 13.6971 133.756 13.6437C133.789 13.5903 133.835 13.5471 133.891 13.5189C134.147 13.368 134.363 13.1592 134.523 12.9094C134.683 12.6595 134.782 12.3756 134.812 12.0806C134.868 11.4416 134.75 10.7993 134.47 10.2219C134.279 9.78848 133.733 8.7705 132.819 8.67198C132.765 8.66779 132.712 8.64916 132.667 8.618C132.622 8.58684 132.586 8.54427 132.563 8.49466C132.537 8.44733 132.524 8.39426 132.524 8.34032C132.524 8.28638 132.537 8.23331 132.563 8.18598C132.911 7.56862 133.267 6.87245 133.05 6.26822C132.907 5.96492 132.696 5.69939 132.432 5.49324C131.88 5.00073 131.283 4.56096 130.65 4.17971C130.393 4.02209 130.051 3.8579 129.854 3.98268C129.807 4.00855 129.754 4.02211 129.7 4.02211C129.646 4.02211 129.592 4.00855 129.545 3.98268C129.494 3.96305 129.45 3.93011 129.416 3.88735C129.383 3.84458 129.361 3.79357 129.354 3.73968C129.217 3.07786 128.898 2.46712 128.434 1.97547C127.97 1.48382 127.378 1.13055 126.724 0.954997C126.087 0.769912 125.406 0.804618 124.791 1.05351C124.21 1.43077 123.65 1.84081 123.115 2.28166C123.077 2.3521 123.015 2.40631 122.94 2.43412C122.864 2.46193 122.782 2.46143 122.707 2.43272C122.174 2.25335 121.606 2.19974 121.048 2.27608C120.49 2.35242 119.958 2.55663 119.492 2.87275C119.172 3.1589 118.936 3.52589 118.807 3.93506C118.679 4.34423 118.663 4.78043 118.762 5.1977C118.779 5.26927 118.771 5.34441 118.74 5.4111C118.709 5.47778 118.657 5.53215 118.591 5.56549C117.831 5.90369 117.157 6.40878 116.619 7.04321C116.371 7.33682 116.191 7.68188 116.094 8.05335C115.996 8.42482 115.982 8.81337 116.053 9.19083C116.133 9.53977 116.326 9.85276 116.602 10.0817C116.877 10.3107 117.22 10.443 117.579 10.4584C117.648 10.4506 117.719 10.4673 117.777 10.5057C117.836 10.544 117.88 10.6016 117.901 10.6685C117.927 10.7322 117.931 10.8026 117.913 10.869C117.896 10.9354 117.856 10.9942 117.802 11.0363C117.492 11.3254 117.298 11.7168 117.254 12.1381C117.21 12.5594 117.321 12.9823 117.565 13.3284C117.838 13.6718 118.207 13.9267 118.625 14.0611C119.042 14.1955 119.491 14.2034 119.913 14.0837C120.054 14.0428 120.2 14.0229 120.347 14.0246Z" fill="#231F20"/>
<path d="M120.452 14.9048C120.452 14.9048 119.216 18.2477 119.748 18.7534C120.281 19.2591 121.511 18.5564 121.511 18.5564" fill="white"/>
<path d="M120.288 19.2658C120.007 19.2765 119.733 19.1776 119.525 18.99C118.92 18.4186 119.65 16.1133 120.143 14.7932C120.173 14.7114 120.234 14.6447 120.313 14.6077C120.391 14.5708 120.482 14.5666 120.564 14.5962C120.645 14.6286 120.711 14.6909 120.748 14.7703C120.784 14.8498 120.789 14.9402 120.761 15.0231C120.169 16.619 119.808 18.2544 119.985 18.5236C120.163 18.7929 121.031 18.4514 121.346 18.2675C121.422 18.2267 121.512 18.2169 121.595 18.2401C121.678 18.2634 121.749 18.3179 121.793 18.3923C121.816 18.4292 121.83 18.4702 121.836 18.5129C121.842 18.5555 121.84 18.599 121.829 18.6406C121.818 18.6823 121.798 18.7213 121.772 18.7553C121.746 18.7894 121.713 18.8178 121.675 18.8389C121.251 19.0856 120.777 19.2317 120.288 19.2658Z" fill="#231F20"/>
<path d="M119.585 8.4488C119.425 8.59282 119.32 8.78786 119.289 9.00048C119.147 9.74695 119.147 10.5133 119.289 11.2598C119.492 12.7399 119.79 14.2053 120.183 15.6469C120.643 17.5647 121.156 19.4693 121.708 21.3608C122.057 22.5627 125.219 21.8534 125.693 21.3608L126.35 26.28C126.35 26.28 127.961 26.3456 130.229 24.5724C132.498 22.7991 132.333 22.1752 132.333 22.1752L130.821 16.6781C130.821 16.6781 128.737 17.1772 126.922 14.9902C126.633 14.6355 126.416 14.0379 126.068 13.762C125.719 13.4862 125.114 13.4533 124.753 12.9673C124.585 12.7412 124.472 12.4795 124.423 12.2026C124.374 11.9256 124.39 11.6411 124.47 11.3714C124.503 11.2532 124.549 11.1087 124.47 11.0167C124.411 10.9761 124.343 10.9492 124.273 10.9379C124.072 10.8899 123.884 10.8021 123.719 10.6798C123.554 10.5574 123.415 10.4031 123.31 10.226C123.206 10.0488 123.138 9.8525 123.112 9.64872C123.085 9.44495 123.1 9.23788 123.155 9.03989C122.359 9.22378 121.643 8.55388 121.097 7.93652C121.268 8.13355 119.867 8.28461 119.848 8.29774C119.751 8.32983 119.661 8.38122 119.585 8.4488Z" fill="white"/>
<path d="M126.317 26.6081H126.265C126.188 26.6055 126.115 26.5757 126.058 26.5239C126.001 26.4721 125.965 26.4018 125.956 26.3257L125.384 21.8925C124.421 22.2973 123.365 22.4269 122.333 22.2669C122.109 22.2375 121.897 22.1455 121.722 22.0015C121.548 21.8574 121.418 21.6671 121.347 21.4525C120.794 19.5676 120.282 17.6367 119.815 15.7255L119.716 15.3117C119.361 13.9932 119.093 12.6527 118.914 11.2989C118.78 10.5086 118.793 9.70026 118.953 8.91483C119 8.63025 119.147 8.37168 119.368 8.18583C119.474 8.10603 119.595 8.04597 119.723 8.0085H119.841C120.161 7.97539 120.478 7.91608 120.788 7.83117C120.806 7.79637 120.831 7.76521 120.86 7.73923C120.891 7.70845 120.927 7.68402 120.967 7.66734C121.007 7.65067 121.05 7.64209 121.094 7.64209C121.137 7.64209 121.18 7.65067 121.22 7.66734C121.26 7.68402 121.296 7.70845 121.327 7.73923C121.807 8.28434 122.438 8.88856 123.063 8.73751C123.119 8.72529 123.178 8.72794 123.234 8.74521C123.289 8.76247 123.339 8.79376 123.378 8.83602C123.417 8.87887 123.444 8.93103 123.457 8.98742C123.47 9.04381 123.468 9.10252 123.451 9.15784C123.407 9.31033 123.396 9.47025 123.417 9.62742C123.439 9.78459 123.493 9.93557 123.576 10.0707C123.654 10.2079 123.758 10.3281 123.884 10.424C124.009 10.5199 124.153 10.5896 124.305 10.629C124.443 10.6457 124.572 10.7055 124.674 10.7997C124.745 10.8918 124.79 11.0012 124.805 11.1166C124.82 11.232 124.804 11.3493 124.759 11.4565C124.691 11.678 124.676 11.9126 124.716 12.141C124.756 12.3693 124.85 12.5849 124.989 12.77C125.151 12.9605 125.366 13.0978 125.607 13.1641C125.842 13.2442 126.064 13.3593 126.265 13.5056C126.514 13.7357 126.719 14.0095 126.87 14.3134C126.961 14.475 127.062 14.6308 127.172 14.7797C128.823 16.75 130.657 16.3691 130.736 16.356C130.819 16.3358 130.906 16.3484 130.98 16.3913C131.053 16.4342 131.107 16.5039 131.13 16.5858L132.643 22.0895C132.695 22.3588 132.564 23.1009 130.374 24.8151C128.185 26.5293 126.574 26.6081 126.317 26.6081ZM125.66 21.0321C125.693 21.0258 125.726 21.0258 125.759 21.0321C125.818 21.05 125.871 21.085 125.911 21.133C125.951 21.1809 125.976 21.2395 125.982 21.3014L126.58 25.8988C127.834 25.664 129.004 25.1046 129.973 24.2766C131.702 22.9236 131.946 22.3063 131.992 22.188L130.571 17.0193C129.818 17.0634 129.066 16.9182 128.384 16.597C127.702 16.2757 127.111 15.7886 126.666 15.1804C126.529 15.0055 126.408 14.8187 126.304 14.6221C126.189 14.3903 126.036 14.1794 125.851 13.9982C125.708 13.8902 125.548 13.808 125.377 13.7552C125.025 13.6445 124.712 13.4347 124.476 13.151C124.277 12.8823 124.143 12.5709 124.084 12.2415C124.026 11.912 124.046 11.5736 124.141 11.2529V11.2135C123.903 11.1622 123.68 11.0606 123.484 10.9156C123.289 10.7706 123.128 10.5855 123.01 10.3729C122.832 10.0755 122.741 9.7342 122.747 9.3877C122.078 9.27098 121.474 8.91354 121.051 8.38285C120.684 8.49218 120.307 8.56694 119.927 8.60615C119.867 8.61834 119.811 8.64296 119.762 8.6784C119.696 8.73094 119.65 8.81632 119.585 9.05275C119.453 9.75818 119.453 10.4818 119.585 11.1872C119.764 12.5162 120.027 13.8324 120.374 15.1278L120.472 15.5416C120.939 17.4462 121.445 19.364 121.998 21.2423C122.044 21.4131 122.215 21.5313 122.504 21.6035C123.505 21.7586 124.53 21.5833 125.423 21.1044C125.492 21.0494 125.579 21.0235 125.667 21.0321H125.66Z" fill="#231F20"/>
<path d="M125.417 14.294C125.355 13.8003 125.435 13.2993 125.647 12.8491C125.753 12.4806 125.92 12.1322 126.14 11.818C126.247 11.6583 126.389 11.5251 126.556 11.4284C126.722 11.3317 126.908 11.274 127.1 11.2598C127.27 11.2626 127.438 11.3015 127.592 11.374C127.746 11.4465 127.883 11.5508 127.994 11.6801C128.212 11.9398 128.37 12.245 128.454 12.5733C128.658 13.2878 128.668 14.0433 128.484 14.763C128.301 15.4828 127.93 16.1412 127.409 16.6715L127.488 16.5336" fill="white"/>
<path d="M127.409 16.9866C127.337 16.9881 127.268 16.9649 127.212 16.9209C127.148 16.8724 127.104 16.8023 127.088 16.7236C127.072 16.645 127.086 16.5633 127.126 16.494L127.185 16.3889C127.652 15.8993 127.984 15.2968 128.148 14.6405C128.311 13.9842 128.302 13.2967 128.119 12.6454C128.048 12.3638 127.915 12.1014 127.731 11.8769C127.649 11.7821 127.549 11.7055 127.435 11.6523C127.322 11.5991 127.199 11.5705 127.074 11.5683C126.932 11.5829 126.795 11.6287 126.674 11.7026C126.552 11.7764 126.448 11.8763 126.37 11.9952C126.174 12.2861 126.023 12.605 125.923 12.9409C125.733 13.3322 125.657 13.7695 125.706 14.2019C125.722 14.2879 125.704 14.3767 125.656 14.45C125.609 14.5233 125.535 14.5755 125.449 14.5959C125.408 14.6056 125.364 14.6067 125.322 14.5993C125.279 14.5919 125.239 14.5761 125.203 14.5529C125.167 14.5296 125.136 14.4994 125.111 14.4639C125.087 14.4284 125.07 14.3885 125.062 14.3464C124.983 13.7935 125.068 13.2299 125.305 12.7242C125.421 12.3224 125.603 11.9428 125.844 11.6011C125.985 11.4076 126.167 11.2481 126.377 11.1345C126.588 11.0208 126.821 10.9558 127.06 10.9443C127.278 10.9451 127.492 10.9924 127.689 11.083C127.887 11.1737 128.062 11.3055 128.204 11.4697C128.458 11.7663 128.64 12.1167 128.737 12.4943C128.955 13.2638 128.969 14.0769 128.776 14.8532C128.584 15.6295 128.192 16.3422 127.639 16.9209C127.573 16.9709 127.491 16.9943 127.409 16.9866Z" fill="#231F20"/>
<path d="M125.666 21.3606C126.534 20.8383 127.233 20.0765 127.678 19.167C127.678 19.167 128.257 22.1159 125.949 23.5542L125.666 21.3606Z" fill="#231F20"/>
<path d="M125.949 23.8828C125.901 23.8919 125.852 23.8919 125.804 23.8828C125.755 23.8581 125.713 23.8218 125.681 23.7773C125.649 23.7327 125.628 23.681 125.62 23.6267L125.337 21.4331C125.33 21.37 125.34 21.3059 125.368 21.2488C125.396 21.1917 125.441 21.1439 125.495 21.1113C126.298 20.6245 126.949 19.9241 127.376 19.0885C127.398 19.0198 127.444 18.9611 127.505 18.9227C127.566 18.8843 127.639 18.8686 127.711 18.8783C127.781 18.8843 127.848 18.9133 127.9 18.9608C127.952 19.0083 127.988 19.0716 128 19.141C128 19.2723 128.592 22.3263 126.12 23.8631C126.066 23.8847 126.007 23.8915 125.949 23.8828ZM126.015 21.5251L126.205 22.9568C126.576 22.6123 126.873 22.197 127.08 21.7356C127.286 21.2742 127.398 20.776 127.409 20.2706C127.006 20.7509 126.536 21.1711 126.015 21.5185V21.5251Z" fill="#231F20"/>
<path d="M120.768 14.2233C120.914 14.1837 120.951 13.8496 120.85 13.477C120.749 13.1044 120.548 12.8345 120.402 12.8741C120.255 12.9137 120.219 13.2478 120.32 13.6204C120.421 13.993 120.621 14.2629 120.768 14.2233Z" fill="#231F20"/>
<path d="M122.03 20.0141C121.879 20.0179 121.728 19.9979 121.583 19.955C121.496 19.9297 121.422 19.8709 121.378 19.7915C121.335 19.712 121.324 19.6185 121.349 19.5314C121.375 19.4443 121.434 19.3708 121.513 19.3271C121.593 19.2833 121.686 19.273 121.774 19.2982C121.826 19.2982 122.878 19.6003 123.641 18.0635C123.682 17.9874 123.75 17.9299 123.832 17.9029C123.914 17.876 124.003 17.8818 124.081 17.919C124.12 17.9379 124.155 17.9643 124.184 17.9967C124.212 18.0291 124.234 18.0668 124.248 18.1077C124.263 18.1485 124.268 18.1918 124.266 18.2349C124.263 18.2781 124.252 18.3202 124.233 18.359C124.066 18.8184 123.768 19.2195 123.377 19.5133C122.986 19.8071 122.518 19.9811 122.03 20.0141Z" fill="#231F20"/>
<path d="M123.859 35.4419C123.859 35.4419 106.672 47.0338 104.232 46.9024C101.793 46.7711 98.2424 44.9781 98.1503 46.2457C98.0583 47.5132 101.675 48.61 101.675 48.61C101.675 48.61 96.6447 49.2143 96.8025 50.6854C96.9603 52.1566 98.7421 53.851 100.853 53.608C102.963 53.365 104.449 52.2945 106.33 51.9595C108.21 51.6246 127.869 42.0161 127.869 42.0161L123.859 35.4419Z" fill="white"/>
<path d="M100.444 53.9755C99.5053 53.9691 98.5974 53.6397 97.8733 53.0429C97.1254 52.4855 96.6252 51.6583 96.4794 50.7376C96.3413 49.4767 98.7215 48.8068 100.339 48.4981C99.1949 48.0252 97.7484 47.2305 97.8207 46.2322C97.8262 46.1184 97.8575 46.0072 97.9121 45.9071C97.9668 45.807 98.0434 45.7206 98.1363 45.6543C98.6886 45.2602 99.8129 45.5689 101.246 45.9564C102.226 46.2561 103.232 46.4628 104.251 46.5738C106.072 46.5738 116.816 39.7762 123.641 35.1723C123.677 35.1461 123.719 35.1279 123.763 35.1189C123.808 35.1098 123.853 35.1101 123.897 35.1198C123.941 35.1294 123.982 35.1478 124.018 35.1737C124.054 35.1997 124.085 35.2327 124.108 35.2708L128.112 41.8385C128.137 41.8766 128.154 41.9199 128.161 41.9654C128.168 42.0108 128.165 42.0572 128.151 42.1012C128.137 42.1438 128.115 42.1832 128.086 42.217C128.056 42.2508 128.02 42.2785 127.98 42.2982C127.171 42.6923 108.255 51.9527 106.348 52.2679C105.533 52.4344 104.738 52.6854 103.975 53.0166C102.983 53.4612 101.934 53.7662 100.858 53.923C100.74 53.9624 100.622 53.9755 100.444 53.9755ZM98.8332 46.0943C98.7239 46.0852 98.6142 46.108 98.5176 46.16C98.5176 46.16 98.4848 46.16 98.4782 46.2585C98.4256 46.9547 100.411 47.8742 101.766 48.2813C101.853 48.2883 101.934 48.3296 101.99 48.3961C102.047 48.4626 102.075 48.5489 102.068 48.636C102.061 48.7231 102.02 48.8039 101.953 48.8605C101.887 48.9172 101.8 48.9451 101.713 48.9381C99.7406 49.1745 97.0514 49.9036 97.1106 50.6523C97.2388 51.399 97.6511 52.0673 98.2612 52.5175C98.6116 52.8077 99.0168 53.0248 99.4528 53.1556C99.8888 53.2865 100.347 53.3286 100.799 53.2793C101.816 53.1285 102.807 52.839 103.745 52.419C104.55 52.0703 105.389 51.8084 106.25 51.6374C107.677 51.401 120.504 45.2471 127.375 41.8845L123.739 35.8948C120.998 37.7337 106.546 47.3553 104.192 47.2174C103.126 47.0998 102.073 46.8799 101.049 46.5606C100.327 46.3412 99.5846 46.1938 98.8332 46.1206V46.0943Z" fill="#231F20"/>
<path d="M130.539 28.9399L123.339 34.1678L128.665 43.1458L134.602 39.3825" fill="#48A4FE"/>
<path d="M128.664 43.474H128.586C128.5 43.4495 128.427 43.3931 128.382 43.3164L123.056 34.345C123.015 34.2747 123.001 34.192 123.017 34.1122C123.033 34.0325 123.077 33.9611 123.141 33.9116L130.374 28.6574C130.444 28.6079 130.531 28.5878 130.616 28.6013C130.7 28.6148 130.776 28.6609 130.828 28.7297C130.854 28.7642 130.873 28.8038 130.884 28.846C130.895 28.8881 130.897 28.932 130.89 28.975C130.883 29.018 130.868 29.0591 130.845 29.096C130.821 29.1328 130.791 29.1646 130.755 29.1894L123.799 34.2465L128.803 42.6728L134.457 39.0934C134.493 39.0643 134.535 39.0432 134.58 39.0314C134.625 39.0195 134.672 39.0174 134.717 39.0249C134.763 39.0325 134.807 39.0497 134.845 39.0753C134.884 39.101 134.917 39.1345 134.942 39.1737C134.966 39.2129 134.983 39.2569 134.989 39.3027C134.996 39.3486 134.992 39.3954 134.979 39.4399C134.967 39.4844 134.944 39.5257 134.915 39.5611C134.885 39.5965 134.847 39.6251 134.806 39.6451L128.888 43.4084C128.823 43.4552 128.744 43.4784 128.664 43.474Z" fill="#231F20"/>
<path d="M71.3309 41.1689C71.019 41.341 70.7529 41.5852 70.555 41.8812C70.3571 42.1772 70.2331 42.5162 70.1934 42.8699C70.155 43.0984 70.2043 43.333 70.3315 43.5267C70.3637 43.5731 70.4047 43.6126 70.4523 43.643C70.4999 43.6734 70.5531 43.6941 70.6087 43.7039C70.6643 43.7137 70.7214 43.7123 70.7765 43.7C70.8316 43.6876 70.8837 43.6644 70.9298 43.6318C70.7975 43.7404 70.6886 43.8747 70.6097 44.0266C70.5308 44.1784 70.4835 44.3446 70.4706 44.5152C70.4577 44.6858 70.4795 44.8573 70.5347 45.0192C70.5899 45.1812 70.6773 45.3303 70.7917 45.4576C71.0388 45.7002 71.3501 45.8674 71.689 45.9396C72.0279 46.0117 72.3804 45.9857 72.7051 45.8648C73.3497 45.6042 73.8936 45.1437 74.2568 44.5512C75.1641 43.1852 75.8676 40.0524 73.9346 39.192C73.514 39.0561 73.0671 39.0215 72.6306 39.0912C72.1941 39.1608 71.7802 39.3326 71.4229 39.5927C71.0679 39.8225 70.4498 40.1378 70.4827 40.6566C70.5024 41.0244 70.943 41.5958 71.3309 41.1689Z" fill="white"/>
<path d="M72.0402 46.2979C71.7589 46.3011 71.4802 46.2441 71.2228 46.1308C70.9654 46.0175 70.7352 45.8506 70.5477 45.6411C70.3928 45.4624 70.2776 45.2529 70.2097 45.0265C70.1417 44.8002 70.1224 44.562 70.1532 44.3276C70.1729 44.1714 70.215 44.0188 70.2781 43.8744C70.199 43.8216 70.1281 43.7575 70.0677 43.684C69.8888 43.4279 69.8179 43.1118 69.8704 42.8039C69.9277 42.2679 70.1586 41.7652 70.5279 41.3722C70.3244 41.176 70.2004 40.9118 70.1795 40.63C70.14 39.9732 70.7449 39.5989 71.146 39.3165L71.2709 39.2377C71.6747 38.9508 72.1404 38.7626 72.6303 38.6885C73.1203 38.6143 73.6208 38.6562 74.0916 38.8108C74.4128 38.9492 74.6982 39.159 74.9261 39.4242C75.1539 39.6893 75.3183 40.0029 75.4066 40.341C75.7043 41.8293 75.4094 43.3748 74.5847 44.6494C74.1836 45.3058 73.5786 45.8131 72.8621 46.0943C72.6024 46.2104 72.3241 46.2794 72.0402 46.2979ZM71.0737 43.927C70.9224 44.0597 70.8283 44.2455 70.8107 44.4458C70.7918 44.5845 70.8019 44.7255 70.8404 44.86C70.8789 44.9945 70.9449 45.1196 71.0342 45.2274C71.2371 45.4246 71.4926 45.5592 71.7702 45.6151C72.0477 45.671 72.3355 45.6459 72.5991 45.5426C73.1746 45.3071 73.6587 44.8925 73.9798 44.3604C74.6934 43.2444 74.9588 41.9003 74.7228 40.5972C74.6624 40.3534 74.5476 40.1263 74.3871 39.933C74.2266 39.7397 74.0244 39.5851 73.7957 39.4807C73.4252 39.369 73.0338 39.3453 72.6525 39.4114C72.2713 39.4776 71.9108 39.6317 71.5997 39.8616L71.4682 39.947C71.1789 40.1243 70.8107 40.3673 70.8107 40.6037C70.8298 40.7372 70.8977 40.8589 71.0013 40.9453L71.1723 40.8467C71.2414 40.8096 71.3213 40.7977 71.3982 40.8133C71.4751 40.8289 71.544 40.871 71.5931 40.9321C71.6435 40.9906 71.6713 41.0651 71.6713 41.1423C71.6713 41.2194 71.6435 41.294 71.5931 41.3525C71.5066 41.4532 71.3957 41.5301 71.2709 41.5758C71.0673 41.7346 70.8978 41.9328 70.7724 42.1584C70.647 42.3841 70.5683 42.6326 70.5411 42.8893C70.5139 43.0335 70.5395 43.1827 70.6134 43.3096C70.6263 43.3268 70.6433 43.3406 70.6627 43.3498C70.6822 43.359 70.7037 43.3632 70.7252 43.3622H70.7646C70.8324 43.3143 70.916 43.2945 70.9981 43.3067C71.0802 43.3189 71.1543 43.3623 71.2052 43.4278C71.2565 43.4934 71.2809 43.576 71.2736 43.6589C71.2663 43.7418 71.2277 43.8188 71.1657 43.8744L71.0737 43.927Z" fill="#231F20"/>
<path d="M53.2561 136.682H3.08887V155.472H53.2561V136.682Z" fill="white"/>
<path d="M53.2821 155.8H3.08852C3.00133 155.8 2.91771 155.766 2.85605 155.704C2.7944 155.643 2.75977 155.559 2.75977 155.472V136.682C2.75977 136.595 2.7944 136.511 2.85605 136.45C2.91771 136.388 3.00133 136.354 3.08852 136.354H53.2821C53.3687 136.355 53.4514 136.39 53.5127 136.452C53.574 136.513 53.6091 136.595 53.6108 136.682V155.498C53.6027 155.58 53.5648 155.656 53.5041 155.712C53.4435 155.768 53.3644 155.799 53.2821 155.8ZM3.44356 155.144H52.9533V137.01H3.41727L3.44356 155.144Z" fill="#231F20"/>
<path d="M110.583 126.726H60.416V155.472H110.583V126.726Z" fill="white"/>
<path d="M110.583 155.8H60.4157C60.3285 155.8 60.2449 155.766 60.1832 155.704C60.1215 155.643 60.0869 155.559 60.0869 155.472V126.725C60.0869 126.638 60.1215 126.555 60.1832 126.493C60.2449 126.432 60.3285 126.397 60.4157 126.397H110.583C110.67 126.397 110.754 126.432 110.815 126.493C110.877 126.555 110.912 126.638 110.912 126.725V155.498C110.905 155.581 110.867 155.658 110.807 155.714C110.746 155.77 110.666 155.801 110.583 155.8ZM60.7444 155.144H110.254V127.054H60.7444V155.144Z" fill="#231F20"/>
<path d="M167.91 114.818H117.743V155.472H167.91V114.818Z" fill="white"/>
<path d="M167.911 155.8H117.717C117.631 155.799 117.548 155.763 117.487 155.702C117.426 155.641 117.39 155.558 117.389 155.472V114.818C117.389 114.731 117.423 114.648 117.485 114.586C117.547 114.524 117.63 114.49 117.717 114.49H167.885C167.972 114.49 168.055 114.524 168.117 114.586C168.179 114.648 168.213 114.731 168.213 114.818V155.498C168.207 155.576 168.174 155.65 168.118 155.705C168.063 155.76 167.989 155.794 167.911 155.8ZM118.072 155.143H167.582V115.147H118.072V155.143Z" fill="#231F20"/>
</svg>
