<svg width="213" height="174" viewBox="0 0 213 174" fill="none" xmlns="http://www.w3.org/2000/svg">
<path d="M20.4918 161.655C20.3939 161.655 20.3001 161.616 20.2309 161.547C20.1616 161.478 20.1228 161.384 20.1228 161.286V47.0697C20.1228 46.9719 20.1616 46.878 20.2309 46.8088C20.3001 46.7396 20.3939 46.7007 20.4918 46.7007C20.5897 46.7007 20.6836 46.7396 20.7528 46.8088C20.822 46.878 20.8609 46.9719 20.8609 47.0697V161.286C20.8609 161.384 20.822 161.478 20.7528 161.547C20.6836 161.616 20.5897 161.655 20.4918 161.655Z" fill="#D1D3D4"/>
<path d="M64.8376 161.655C64.7397 161.655 64.6458 161.616 64.5766 161.547C64.5074 161.478 64.4685 161.384 64.4685 161.286V47.0697C64.4685 46.9719 64.5074 46.878 64.5766 46.8088C64.6458 46.7396 64.7397 46.7007 64.8376 46.7007C64.9355 46.7007 65.0293 46.7396 65.0986 46.8088C65.1678 46.878 65.2067 46.9719 65.2067 47.0697V161.286C65.2067 161.384 65.1678 161.478 65.0986 161.547C65.0293 161.616 64.9355 161.655 64.8376 161.655Z" fill="#D1D3D4"/>
<path d="M109.125 161.655C109.027 161.655 108.933 161.616 108.864 161.547C108.795 161.478 108.756 161.384 108.756 161.286V47.0697C108.756 46.9719 108.795 46.878 108.864 46.8088C108.933 46.7396 109.027 46.7007 109.125 46.7007C109.223 46.7007 109.317 46.7396 109.386 46.8088C109.455 46.878 109.494 46.9719 109.494 47.0697V161.286C109.494 161.384 109.455 161.478 109.386 161.547C109.317 161.616 109.223 161.655 109.125 161.655Z" fill="#D1D3D4"/>
<path d="M153.486 161.655C153.388 161.655 153.294 161.616 153.225 161.547C153.156 161.478 153.117 161.384 153.117 161.286V47.0697C153.117 46.9719 153.156 46.878 153.225 46.8088C153.294 46.7396 153.388 46.7007 153.486 46.7007C153.584 46.7007 153.678 46.7396 153.747 46.8088C153.816 46.878 153.855 46.9719 153.855 47.0697V161.286C153.855 161.384 153.816 161.478 153.747 161.547C153.678 161.616 153.584 161.655 153.486 161.655Z" fill="#D1D3D4"/>
<path d="M197.817 161.655C197.719 161.655 197.625 161.616 197.556 161.547C197.487 161.478 197.448 161.384 197.448 161.286V47.0697C197.448 46.9719 197.487 46.878 197.556 46.8088C197.625 46.7396 197.719 46.7007 197.817 46.7007C197.915 46.7007 198.009 46.7396 198.078 46.8088C198.147 46.878 198.186 46.9719 198.186 47.0697V161.286C198.186 161.384 198.147 161.478 198.078 161.547C198.009 161.616 197.915 161.655 197.817 161.655Z" fill="#D1D3D4"/>
<path d="M197.817 47.4237H20.4918C20.3939 47.4237 20.3001 47.3848 20.2309 47.3156C20.1616 47.2464 20.1228 47.1525 20.1228 47.0546C20.1228 46.9567 20.1616 46.8629 20.2309 46.7936C20.3001 46.7244 20.3939 46.6855 20.4918 46.6855H197.817C197.915 46.6855 198.009 46.7244 198.078 46.7936C198.147 46.8629 198.186 46.9567 198.186 47.0546C198.186 47.1525 198.147 47.2464 198.078 47.3156C198.009 47.3848 197.915 47.4237 197.817 47.4237Z" fill="#D1D3D4"/>
<path d="M197.817 85.201H20.4918C20.3939 85.201 20.3001 85.1621 20.2309 85.0929C20.1616 85.0237 20.1228 84.9298 20.1228 84.8319C20.1228 84.7341 20.1616 84.6402 20.2309 84.571C20.3001 84.5018 20.3939 84.4629 20.4918 84.4629H197.817C197.915 84.4629 198.009 84.5018 198.078 84.571C198.147 84.6402 198.186 84.7341 198.186 84.8319C198.186 84.9298 198.147 85.0237 198.078 85.0929C198.009 85.1621 197.915 85.201 197.817 85.201Z" fill="#D1D3D4"/>
<path d="M197.817 122.963H20.4918C20.3939 122.963 20.3001 122.924 20.2309 122.855C20.1616 122.786 20.1228 122.692 20.1228 122.594C20.1228 122.496 20.1616 122.402 20.2309 122.333C20.3001 122.264 20.3939 122.225 20.4918 122.225H197.817C197.915 122.225 198.009 122.264 198.078 122.333C198.147 122.402 198.186 122.496 198.186 122.594C198.186 122.692 198.147 122.786 198.078 122.855C198.009 122.924 197.915 122.963 197.817 122.963Z" fill="#D1D3D4"/>
<path d="M207.937 161.98H4.40832C4.31044 161.98 4.21657 161.941 4.14736 161.872C4.07814 161.803 4.03926 161.709 4.03926 161.611C4.04115 161.513 4.08064 161.421 4.14944 161.352C4.21825 161.283 4.31103 161.244 4.40832 161.242H207.937C208.034 161.244 208.127 161.283 208.196 161.352C208.264 161.421 208.304 161.513 208.306 161.611C208.306 161.709 208.267 161.803 208.198 161.872C208.128 161.941 208.035 161.98 207.937 161.98Z" fill="#D1D3D4"/>
<path d="M36.4868 158.023V166.098C36.4868 169.162 45.2261 171.642 56.01 171.642C66.7939 171.642 75.5406 169.162 75.5406 166.098V158.023H36.4868Z" fill="white"/>
<path d="M55.9808 172.011C46.2008 172.011 36.0886 169.797 36.0886 166.106V158.024C36.0886 157.926 36.1274 157.832 36.1967 157.763C36.2659 157.694 36.3597 157.655 36.4576 157.655H75.5409C75.6388 157.655 75.7327 157.694 75.8019 157.763C75.8711 157.832 75.91 157.926 75.91 158.024V166.099C75.91 169.797 65.7904 172.011 55.9808 172.011ZM36.8267 158.393V166.099C36.8267 168.601 44.5252 171.266 55.9808 171.266C67.4364 171.266 75.1718 168.594 75.1718 166.099V158.393H36.8267Z" fill="#231F20"/>
<path d="M56.01 163.56C66.7924 163.56 75.5332 161.081 75.5332 158.024C75.5332 154.966 66.7924 152.488 56.01 152.488C45.2276 152.488 36.4868 154.966 36.4868 158.024C36.4868 161.081 45.2276 163.56 56.01 163.56Z" fill="#231F20"/>
<path d="M55.9801 163.884C44.8493 163.884 36.1321 161.308 36.1321 158.024C36.1321 154.739 44.8493 152.119 55.9801 152.119C67.1109 152.119 75.8354 154.695 75.8354 158.024C75.8354 161.352 67.1404 163.884 55.9801 163.884ZM55.9801 152.812C44.495 152.812 36.7891 155.514 36.7891 158.031C36.7891 160.548 44.5024 163.242 55.9801 163.242C67.4578 163.242 75.1711 160.548 75.1711 158.031C75.1711 155.514 67.4947 152.805 55.9801 152.805V152.812Z" fill="#231F20"/>
<path d="M32.4939 145.675V153.757C32.4939 156.813 41.2332 159.293 52.0171 159.293C62.8009 159.293 71.5476 156.813 71.5476 153.757V145.675H32.4939Z" fill="white"/>
<path d="M52.0167 159.663C42.2367 159.663 32.1245 157.448 32.1245 153.758V145.675C32.1245 145.577 32.1634 145.483 32.2326 145.414C32.3018 145.345 32.3957 145.306 32.4935 145.306H71.5473C71.6452 145.306 71.7391 145.345 71.8083 145.414C71.8775 145.483 71.9164 145.577 71.9164 145.675V153.758C71.9164 157.456 61.7968 159.663 52.0167 159.663ZM32.8626 146.044V153.758C32.8626 156.252 40.5612 158.924 52.0167 158.924C63.4723 158.924 71.2078 156.252 71.2078 153.758V146.044H32.8626Z" fill="#231F20"/>
<path d="M52.0171 151.21C62.7994 151.21 71.5402 148.732 71.5402 145.675C71.5402 142.617 62.7994 140.139 52.0171 140.139C41.2347 140.139 32.4939 142.617 32.4939 145.675C32.4939 148.732 41.2347 151.21 52.0171 151.21Z" fill="white"/>
<path d="M52.0167 151.579C42.2367 151.579 32.1245 149.365 32.1245 145.674C32.1245 141.984 42.2367 139.77 52.0167 139.77C61.7968 139.77 71.9459 141.984 71.9459 145.674C71.9459 149.365 61.7968 151.579 52.0167 151.579ZM52.0167 140.508C40.5612 140.508 32.8626 143.18 32.8626 145.674C32.8626 148.169 40.5612 150.841 52.0167 150.841C63.4723 150.841 71.2078 148.169 71.2078 145.674C71.2078 143.18 63.4797 140.508 52.0167 140.508Z" fill="#231F20"/>
<path d="M52.0165 149.402C43.6979 149.402 35.2686 148.126 35.2686 145.712C35.2686 143.298 43.6979 141.984 52.0165 141.984C60.3351 141.984 68.7644 143.261 68.7644 145.712C68.7644 148.162 60.3424 149.402 52.0165 149.402ZM52.0165 142.686C42.0962 142.686 36.0067 144.428 36.0067 145.675C36.0067 146.922 42.0962 148.627 52.0165 148.627C61.9368 148.627 68.0262 146.885 68.0262 145.675C68.0262 144.464 61.9368 142.686 52.0165 142.686Z" fill="#D1D3D4"/>
<path d="M82.339 159.478V167.553C82.339 170.616 91.0857 173.096 101.87 173.096C112.653 173.096 121.393 170.616 121.393 167.553V159.478H82.339Z" fill="white"/>
<path d="M101.869 173.465C92.0893 173.465 81.9402 171.251 81.9402 167.56V159.478C81.9402 159.38 81.9791 159.286 82.0483 159.217C82.1175 159.148 82.2114 159.109 82.3093 159.109H121.363C121.461 159.109 121.555 159.148 121.624 159.217C121.693 159.286 121.732 159.38 121.732 159.478V167.553C121.762 171.251 111.649 173.465 101.869 173.465ZM82.6783 159.847V167.553C82.6783 170.048 90.3769 172.72 101.869 172.72C113.362 172.72 121.06 170.04 121.06 167.553V159.847H82.6783Z" fill="#231F20"/>
<path d="M101.869 165.014C112.652 165.014 121.392 162.535 121.392 159.478C121.392 156.42 112.652 153.942 101.869 153.942C91.0869 153.942 82.3461 156.42 82.3461 159.478C82.3461 162.535 91.0869 165.014 101.869 165.014Z" fill="#231F20"/>
<path d="M101.87 165.338C90.7389 165.338 82.0143 162.762 82.0143 159.477C82.0143 156.193 90.7389 153.609 101.87 153.609C113 153.609 121.718 156.185 121.718 159.477C121.718 162.769 113 165.338 101.87 165.338ZM101.87 154.266C90.3846 154.266 82.6786 156.96 82.6786 159.485C82.6786 162.009 90.3919 164.696 101.87 164.696C113.347 164.696 121.061 162.002 121.061 159.485C121.061 156.968 113.355 154.259 101.87 154.259V154.266Z" fill="#231F20"/>
<path d="M85.5055 147.808V155.927C85.5055 158.983 94.2448 161.463 105.029 161.463C115.813 161.463 124.559 158.983 124.559 155.927V147.808H85.5055Z" fill="white"/>
<path d="M105.014 161.832C95.234 161.832 85.0849 159.618 85.0849 155.927V147.808C85.0849 147.71 85.1238 147.616 85.193 147.547C85.2622 147.478 85.3561 147.439 85.454 147.439H124.508C124.606 147.439 124.699 147.478 124.769 147.547C124.838 147.616 124.877 147.71 124.877 147.808V155.927C124.914 159.618 114.794 161.832 105.014 161.832ZM85.823 148.214V155.927C85.823 158.422 93.5216 161.094 105.014 161.094C116.507 161.094 124.205 158.422 124.205 155.927V148.177L85.823 148.214Z" fill="#231F20"/>
<path d="M105.013 153.344C115.796 153.344 124.537 150.866 124.537 147.808C124.537 144.751 115.796 142.272 105.013 142.272C94.2311 142.272 85.4902 144.751 85.4902 147.808C85.4902 150.866 94.2311 153.344 105.013 153.344Z" fill="#231F20"/>
<path d="M105.013 153.668C93.8827 153.668 85.1655 151.092 85.1655 147.807C85.1655 144.523 93.8827 141.947 105.013 141.947C116.144 141.947 124.869 144.515 124.869 147.807C124.869 151.099 116.144 153.668 105.013 153.668ZM105.013 142.596C93.5284 142.596 85.8225 145.29 85.8225 147.807C85.8225 150.324 93.5358 153.019 105.013 153.019C116.491 153.019 124.205 150.324 124.205 147.807C124.205 145.29 116.506 142.596 105.013 142.596Z" fill="#231F20"/>
<path d="M82.339 136.094V144.214C82.339 147.269 91.0857 149.749 101.87 149.749C112.653 149.749 121.393 147.269 121.393 144.214V136.094H82.339Z" fill="white"/>
<path d="M101.869 150.081C92.0893 150.081 81.9402 147.867 81.9402 144.176V136.057C81.9421 135.96 81.9816 135.867 82.0504 135.798C82.1192 135.729 82.212 135.69 82.3093 135.688H121.363C121.461 135.688 121.555 135.727 121.624 135.796C121.693 135.865 121.732 135.959 121.732 136.057V144.176C121.762 147.874 111.649 150.081 101.869 150.081ZM82.6783 136.463V144.176C82.6783 146.671 90.3769 149.343 101.869 149.343C113.362 149.343 121.06 146.671 121.06 144.176V136.463H82.6783Z" fill="#231F20"/>
<path d="M101.869 141.63C112.652 141.63 121.392 139.151 121.392 136.094C121.392 133.037 112.652 130.558 101.869 130.558C91.0869 130.558 82.3461 133.037 82.3461 136.094C82.3461 139.151 91.0869 141.63 101.869 141.63Z" fill="#231F20"/>
<path d="M101.87 141.962C90.7389 141.962 82.0143 139.386 82.0143 136.057C82.0143 132.729 90.7389 130.197 101.87 130.197C113 130.197 121.718 132.773 121.718 136.057C121.718 139.342 113 141.962 101.87 141.962ZM101.87 130.891C90.3846 130.891 82.6786 133.585 82.6786 136.102C82.6786 138.619 90.3919 141.313 101.87 141.313C113.347 141.313 121.061 138.619 121.061 136.102C121.061 133.585 113.355 130.883 101.87 130.883V130.891Z" fill="#231F20"/>
<path d="M88.6349 126.521V134.596C88.6349 137.659 97.3816 140.139 108.165 140.139C118.949 140.139 127.689 137.659 127.689 134.596V126.521H88.6349Z" fill="white"/>
<path d="M108.165 140.508C98.3852 140.508 88.2361 138.293 88.2361 134.603V126.52C88.2361 126.423 88.275 126.329 88.3442 126.259C88.4134 126.19 88.5073 126.151 88.6052 126.151H127.659C127.757 126.151 127.851 126.19 127.92 126.259C127.989 126.329 128.028 126.423 128.028 126.52V134.595C128.058 138.293 117.982 140.508 108.165 140.508ZM88.9742 126.889V134.595C88.9742 137.09 96.6728 139.762 108.165 139.762C119.658 139.762 127.356 137.083 127.356 134.595V126.889H88.9742Z" fill="#231F20"/>
<path d="M108.165 132.057C118.948 132.057 127.688 129.578 127.688 126.521C127.688 123.463 118.948 120.985 108.165 120.985C97.3828 120.985 88.642 123.463 88.642 126.521C88.642 129.578 97.3828 132.057 108.165 132.057Z" fill="#231F20"/>
<path d="M108.166 132.382C97.0274 132.382 88.3102 129.805 88.3102 126.521C88.3102 123.236 97.0274 120.653 108.166 120.653C119.304 120.653 128.014 123.229 128.014 126.521C128.014 129.813 119.296 132.382 108.166 132.382ZM108.166 121.31C96.6731 121.31 88.9745 124.011 88.9745 126.528C88.9745 129.045 96.6878 131.739 108.166 131.739C119.643 131.739 127.357 129.045 127.357 126.528C127.357 124.011 119.651 121.302 108.166 121.302V121.31Z" fill="#231F20"/>
<path d="M84.3538 116.939V125.022C84.3538 128.078 93.0931 130.558 103.877 130.558C114.661 130.558 123.408 128.078 123.408 125.022V116.939H84.3538Z" fill="white"/>
<path d="M103.877 130.927C94.0971 130.927 83.9849 128.713 83.9849 125.022V116.94C83.9849 116.842 84.0238 116.748 84.093 116.679C84.1622 116.61 84.2561 116.571 84.354 116.571H123.408C123.506 116.571 123.599 116.61 123.669 116.679C123.738 116.748 123.777 116.842 123.777 116.94V125.022C123.777 128.72 113.657 130.927 103.877 130.927ZM84.723 117.309V125.022C84.723 127.517 92.4216 130.189 103.877 130.189C115.333 130.189 123.068 127.517 123.068 125.022V117.309H84.723Z" fill="#231F20"/>
<path d="M103.877 122.476C114.659 122.476 123.4 119.998 123.4 116.94C123.4 113.883 114.659 111.404 103.877 111.404C93.0946 111.404 84.3538 113.883 84.3538 116.94C84.3538 119.998 93.0946 122.476 103.877 122.476Z" fill="white"/>
<path d="M103.877 122.845C94.0971 122.845 83.9849 120.631 83.9849 116.94C83.9849 113.25 94.0971 111.035 103.877 111.035C113.657 111.035 123.806 113.25 123.806 116.94C123.806 120.631 113.657 122.845 103.877 122.845ZM103.877 111.773C92.4216 111.773 84.723 114.445 84.723 116.94C84.723 119.435 92.4216 122.107 103.877 122.107C115.333 122.107 123.068 119.435 123.068 116.94C123.068 114.445 115.34 111.773 103.877 111.773Z" fill="#231F20"/>
<path d="M103.877 120.667C95.5583 120.667 87.129 119.39 87.129 116.977C87.129 114.563 95.5583 113.249 103.877 113.249C112.195 113.249 120.625 114.526 120.625 116.977C120.625 119.427 112.203 120.667 103.877 120.667ZM103.877 113.95C93.9566 113.95 87.8672 115.692 87.8672 116.94C87.8672 118.187 93.9566 119.892 103.877 119.892C113.797 119.892 119.887 118.15 119.887 116.94C119.887 115.729 113.797 113.95 103.877 113.95Z" fill="#D1D3D4"/>
<path d="M180.457 155.027V163.109C180.457 166.165 171.717 168.645 160.934 168.645C150.15 168.645 141.403 166.165 141.403 163.109V155.027H180.457Z" fill="white"/>
<path d="M160.934 169.014C151.154 169.014 141.005 166.8 141.005 163.109V155.027C141.005 154.929 141.044 154.835 141.113 154.766C141.182 154.697 141.276 154.658 141.374 154.658H180.428C180.525 154.658 180.619 154.697 180.689 154.766C180.758 154.835 180.797 154.929 180.797 155.027V163.109C180.826 166.8 170.714 169.014 160.934 169.014ZM141.743 155.396V163.109C141.743 165.604 149.441 168.276 160.934 168.276C172.426 168.276 180.088 165.604 180.088 163.109V155.396H141.743Z" fill="#231F20"/>
<path d="M160.933 160.562C171.716 160.562 180.456 158.084 180.456 155.027C180.456 151.969 171.716 149.491 160.933 149.491C150.151 149.491 141.41 151.969 141.41 155.027C141.41 158.084 150.151 160.562 160.933 160.562Z" fill="#231F20"/>
<path d="M160.934 160.887C149.803 160.887 141.078 158.311 141.078 155.027C141.078 151.742 149.803 149.159 160.934 149.159C172.064 149.159 180.782 151.735 180.782 155.027C180.782 158.319 172.064 160.887 160.934 160.887ZM160.934 149.816C149.449 149.816 141.743 152.51 141.743 155.027C141.743 157.544 149.463 160.238 160.934 160.238C172.404 160.238 180.125 157.544 180.125 155.027C180.125 152.51 172.419 149.816 160.934 149.816Z" fill="#231F20"/>
<path d="M174.168 145.446V153.529C174.168 156.584 165.421 159.065 154.637 159.065C143.853 159.065 135.114 156.584 135.114 153.529V145.446H174.168Z" fill="white"/>
<path d="M154.637 159.434C144.857 159.434 134.708 157.219 134.708 153.529V145.446C134.708 145.348 134.747 145.254 134.816 145.185C134.885 145.116 134.979 145.077 135.077 145.077H174.131C174.229 145.077 174.323 145.116 174.392 145.185C174.461 145.254 174.5 145.348 174.5 145.446V153.529C174.537 157.227 164.417 159.434 154.637 159.434ZM135.446 145.815V153.529C135.446 156.023 143.145 158.695 154.637 158.695C166.13 158.695 173.828 156.023 173.828 153.529V145.815H135.446Z" fill="#231F20"/>
<path d="M154.637 150.982C165.42 150.982 174.161 148.503 174.161 145.446C174.161 142.389 165.42 139.91 154.637 139.91C143.855 139.91 135.114 142.389 135.114 145.446C135.114 148.503 143.855 150.982 154.637 150.982Z" fill="#231F20"/>
<path d="M154.637 151.314C143.507 151.314 134.789 148.738 134.789 145.446C134.789 142.154 143.507 139.585 154.637 139.585C165.768 139.585 174.493 142.161 174.493 145.446C174.493 148.731 165.768 151.314 154.637 151.314ZM154.637 140.242C143.152 140.242 135.446 142.936 135.446 145.453C135.446 147.97 143.16 150.665 154.637 150.665C166.115 150.665 173.828 147.97 173.828 145.453C173.828 142.936 166.123 140.235 154.637 140.235V140.242Z" fill="#231F20"/>
<path d="M178.448 135.865V143.984C178.448 147.048 169.709 149.528 158.925 149.528C148.141 149.528 139.387 147.011 139.387 143.947V135.828L178.448 135.865Z" fill="white"/>
<path d="M158.919 149.853C149.146 149.853 139.027 147.638 139.027 143.948V135.829C139.027 135.731 139.065 135.637 139.135 135.568C139.204 135.498 139.298 135.459 139.396 135.459H178.449C178.547 135.459 178.641 135.498 178.71 135.568C178.78 135.637 178.818 135.731 178.818 135.829V143.948C178.818 147.646 168.699 149.853 158.919 149.853ZM139.765 136.234V143.948C139.765 146.443 147.463 149.115 158.919 149.115C170.374 149.115 178.11 146.443 178.11 143.948V136.234H139.765Z" fill="#231F20"/>
<path d="M158.926 141.401C169.709 141.401 178.449 138.922 178.449 135.865C178.449 132.808 169.709 130.329 158.926 130.329C148.144 130.329 139.403 132.808 139.403 135.865C139.403 138.922 148.144 141.401 158.926 141.401Z" fill="#231F20"/>
<path d="M158.918 141.733C147.787 141.733 139.07 139.157 139.07 135.828C139.07 132.5 147.787 129.968 158.918 129.968C170.049 129.968 178.773 132.544 178.773 135.828C178.773 139.113 170.056 141.733 158.918 141.733ZM158.918 130.662C147.433 130.662 139.727 133.356 139.727 135.873C139.727 138.39 147.44 141.091 158.918 141.091C170.396 141.091 178.109 138.397 178.109 135.873C178.109 133.348 170.388 130.654 158.918 130.654V130.662Z" fill="#231F20"/>
<path d="M179.135 125.022V133.097C179.135 136.161 170.396 138.641 159.612 138.641C148.828 138.641 140.081 136.161 140.081 133.097V125.022H179.135Z" fill="white"/>
<path d="M159.612 139.01C149.832 139.01 139.683 136.795 139.683 133.105V125.022C139.683 124.924 139.722 124.831 139.791 124.761C139.86 124.692 139.954 124.653 140.052 124.653H179.106C179.204 124.653 179.298 124.692 179.367 124.761C179.436 124.831 179.475 124.924 179.475 125.022V133.097C179.504 136.795 169.385 139.01 159.612 139.01ZM140.421 125.391V133.097C140.421 135.6 148.12 138.264 159.612 138.264C171.105 138.264 178.803 135.592 178.803 133.097V125.391H140.421Z" fill="#231F20"/>
<path d="M159.612 130.558C170.394 130.558 179.135 128.08 179.135 125.022C179.135 121.965 170.394 119.486 159.612 119.486C148.83 119.486 140.089 121.965 140.089 125.022C140.089 128.08 148.83 130.558 159.612 130.558Z" fill="#231F20"/>
<path d="M159.612 130.883C148.474 130.883 139.757 128.307 139.757 125.022C139.757 121.738 148.474 119.154 159.612 119.154C170.75 119.154 179.46 121.73 179.46 125.022C179.46 128.314 170.743 130.883 159.612 130.883ZM159.612 119.811C148.119 119.811 140.421 122.513 140.421 125.03C140.421 127.547 148.134 130.241 159.612 130.241C171.09 130.241 178.803 127.547 178.803 125.03C178.803 122.513 171.127 119.804 159.612 119.804V119.811Z" fill="#231F20"/>
<path d="M175.304 114.445V122.52C175.304 125.583 166.558 128.063 155.774 128.063C144.99 128.063 136.251 125.583 136.251 122.52V114.445H175.304Z" fill="white"/>
<path d="M155.774 128.432C145.993 128.432 135.881 126.218 135.881 122.527V114.445C135.881 114.347 135.92 114.253 135.989 114.184C136.059 114.115 136.152 114.076 136.25 114.076H175.304C175.402 114.076 175.496 114.115 175.565 114.184C175.634 114.253 175.673 114.347 175.673 114.445V122.52C175.673 126.218 165.554 128.432 155.774 128.432ZM136.619 114.814V122.52C136.619 125.022 144.318 127.687 155.774 127.687C167.229 127.687 174.965 125.015 174.965 122.52V114.814H136.619Z" fill="#231F20"/>
<path d="M155.774 119.981C166.556 119.981 175.297 117.502 175.297 114.445C175.297 111.388 166.556 108.909 155.774 108.909C144.992 108.909 136.251 111.388 136.251 114.445C136.251 117.502 144.992 119.981 155.774 119.981Z" fill="#231F20"/>
<path d="M155.774 120.306C144.643 120.306 135.926 117.73 135.926 114.445C135.926 111.16 144.643 108.54 155.774 108.54C166.905 108.54 175.629 111.116 175.629 114.445C175.629 117.774 166.905 120.306 155.774 120.306ZM155.774 109.234C144.289 109.234 136.583 111.935 136.583 114.452C136.583 116.969 144.296 119.663 155.774 119.663C167.252 119.663 174.965 116.969 174.965 114.452C174.965 111.935 167.259 109.226 155.774 109.226V109.234Z" fill="#231F20"/>
<path d="M180.457 103.595V111.64C180.457 114.703 171.717 117.183 160.934 117.183C150.15 117.183 141.403 114.703 141.403 111.64V103.595H180.457Z" fill="white"/>
<path d="M160.934 117.582C151.154 117.582 141.005 115.368 141.005 111.678V103.595C141.005 103.497 141.044 103.403 141.113 103.334C141.182 103.265 141.276 103.226 141.374 103.226H180.428C180.525 103.226 180.619 103.265 180.689 103.334C180.758 103.403 180.797 103.497 180.797 103.595V111.641C180.826 115.368 170.714 117.582 160.934 117.582ZM141.743 103.964V111.641C141.743 114.143 149.441 116.807 160.934 116.807C172.426 116.807 180.088 114.135 180.088 111.641V103.964H141.743Z" fill="#231F20"/>
<path d="M160.933 109.131C171.716 109.131 180.456 106.652 180.456 103.595C180.456 100.538 171.716 98.0591 160.933 98.0591C150.151 98.0591 141.41 100.538 141.41 103.595C141.41 106.652 150.151 109.131 160.933 109.131Z" fill="white"/>
<path d="M160.934 109.5C151.154 109.5 141.005 107.285 141.005 103.595C141.005 99.9043 151.124 97.6899 160.934 97.6899C170.743 97.6899 180.826 99.9043 180.826 103.595C180.826 107.285 170.714 109.5 160.934 109.5ZM160.934 98.4281C149.471 98.4281 141.743 101.107 141.743 103.595C141.743 106.082 149.441 108.762 160.934 108.762C172.426 108.762 180.088 106.09 180.088 103.595C180.088 101.1 172.389 98.4207 160.934 98.4207V98.4281Z" fill="#231F20"/>
<path d="M160.934 107.322C152.608 107.322 144.186 106.038 144.186 103.595C144.186 101.152 152.608 99.9043 160.934 99.9043C169.26 99.9043 177.682 101.181 177.682 103.595C177.682 106.009 169.252 107.322 160.934 107.322ZM160.934 100.606C151.013 100.606 144.924 102.347 144.924 103.558C144.924 104.768 151.013 106.547 160.934 106.547C170.854 106.547 176.944 104.805 176.944 103.558C176.944 102.311 170.854 100.606 160.934 100.606Z" fill="#D1D3D4"/>
<path d="M69.4064 77.178C69.4064 77.178 67.074 74.661 66.9263 73.7531C66.7787 72.8453 66.6016 69.7009 65.8339 70.2545C65.0663 70.8081 65.2508 73.0593 65.2508 73.0593C65.2508 73.0593 62.0695 69.2506 61.1321 70.1068C60.1947 70.9631 59.8109 71.7233 59.7519 73.3841C59.6928 75.0448 67.694 82.0053 67.694 82.0053" fill="white"/>
<path d="M67.6945 82.3371C67.6053 82.338 67.5187 82.3065 67.4509 82.2485C66.0928 81.0675 59.3316 75.0814 59.3833 73.3321C59.3395 72.6677 59.45 72.0022 59.7061 71.3875C59.9622 70.7729 60.357 70.2259 60.8595 69.7891C60.9516 69.7136 61.0577 69.6571 61.1717 69.6229C61.2857 69.5887 61.4054 69.5775 61.5238 69.5898C62.4834 69.6636 63.9522 71.103 64.838 72.0625C64.8749 71.3244 65.0373 70.3501 65.5761 69.9515C65.6638 69.8829 65.7683 69.8391 65.8787 69.8249C65.9891 69.8106 66.1013 69.8263 66.2035 69.8703C66.7423 70.1065 66.9416 71.0808 67.1778 73.0442C67.1778 73.3099 67.2295 73.5387 67.259 73.6937C67.3476 74.2473 68.7352 75.9081 69.6431 76.9267C69.7112 76.9969 69.7493 77.0909 69.7493 77.1887C69.7493 77.2865 69.7112 77.3805 69.6431 77.4508C69.6088 77.4853 69.568 77.5128 69.523 77.5315C69.478 77.5503 69.4298 77.5599 69.3811 77.5599C69.3324 77.5599 69.2841 77.5503 69.2392 77.5315C69.1942 77.5128 69.1534 77.4853 69.1191 77.4508C68.7205 77.0153 66.7054 74.8009 66.5504 73.834C66.5504 73.6716 66.4987 73.428 66.4618 73.1549C66.4035 72.2967 66.2399 71.4489 65.9747 70.6306C65.613 71.0218 65.5392 72.247 65.5982 73.0516C65.607 73.1289 65.59 73.2069 65.55 73.2736C65.51 73.3403 65.4491 73.392 65.3768 73.4206C65.304 73.4529 65.2226 73.4603 65.1452 73.4416C65.0678 73.423 64.9987 73.3793 64.9487 73.3173C64.0187 72.2027 62.2472 70.4091 61.4795 70.3648C61.391 70.3648 61.3762 70.3648 61.3614 70.3648C60.4683 71.1472 60.1583 71.878 60.1066 73.3764C60.0697 74.3064 64.0482 78.3365 67.9233 81.7097C67.9577 81.7434 67.985 81.7836 68.0036 81.8279C68.0223 81.8723 68.0319 81.9199 68.0319 81.968C68.0319 82.0162 68.0223 82.0638 68.0036 82.1081C67.985 82.1525 67.9577 82.1927 67.9233 82.2264C67.8647 82.2922 67.7824 82.332 67.6945 82.3371Z" fill="#231F20"/>
<path d="M65.03 76.6385C64.9577 76.6398 64.8868 76.6193 64.8263 76.5799C64.7657 76.5404 64.7184 76.4837 64.6904 76.4171C64.4314 75.8475 64.3193 75.2221 64.3644 74.5979C64.4096 73.9738 64.6105 73.371 64.9488 72.8446C65.0076 72.7671 65.0937 72.7148 65.1896 72.6984C65.2855 72.6819 65.3841 72.7026 65.4654 72.7561C65.5433 72.8149 65.5953 72.9016 65.6104 72.998C65.6256 73.0944 65.6027 73.1929 65.5466 73.2727C65.2845 73.6947 65.1304 74.1748 65.0982 74.6705C65.0661 75.1662 65.1567 75.6622 65.3621 76.1145C65.3829 76.1584 65.3946 76.2061 65.3966 76.2547C65.3985 76.3033 65.3906 76.3518 65.3734 76.3973C65.3562 76.4428 65.33 76.4843 65.2963 76.5194C65.2627 76.5545 65.2223 76.5825 65.1776 76.6016C65.1313 76.6235 65.0811 76.636 65.03 76.6385Z" fill="#231F20"/>
<path d="M106.911 150.65C106.851 151.593 106.851 152.54 106.911 153.484C107.029 153.846 107.752 155.647 107.649 156.193C107.545 156.739 101.522 166.298 100.017 164.784C98.5107 163.271 102.364 156.296 102.364 155.573C102.364 154.849 101.884 150.635 101.884 150.635L106.911 150.65Z" fill="white"/>
<path d="M100.415 165.323C100.294 165.325 100.173 165.303 100.06 165.257C99.9472 165.211 99.8447 165.143 99.7586 165.057C98.585 163.884 99.8398 160.68 101.338 157.219C101.594 156.688 101.813 156.14 101.995 155.58C101.995 155.034 101.685 152.148 101.515 150.694C101.51 150.642 101.516 150.589 101.532 150.54C101.548 150.49 101.574 150.445 101.609 150.406C101.644 150.367 101.686 150.336 101.734 150.314C101.781 150.293 101.832 150.281 101.884 150.28H106.911C106.961 150.28 107.011 150.29 107.056 150.311C107.102 150.331 107.143 150.361 107.177 150.398C107.213 150.434 107.241 150.476 107.258 150.524C107.276 150.571 107.284 150.621 107.28 150.671C107.216 151.568 107.216 152.469 107.28 153.366C107.28 153.417 107.332 153.513 107.369 153.631C107.826 154.879 108.107 155.801 108.011 156.266C107.856 156.945 103.043 164.607 100.755 165.271C100.645 165.303 100.53 165.321 100.415 165.323ZM102.298 151.018C102.423 152.111 102.733 154.982 102.733 155.587C102.576 156.26 102.328 156.908 101.995 157.514C101.139 159.499 99.3452 163.625 100.261 164.533C100.261 164.533 100.334 164.607 100.497 164.57C102.364 164.142 107.066 156.724 107.287 156.089C107.197 155.324 106.99 154.578 106.675 153.875C106.633 153.782 106.599 153.685 106.571 153.587C106.492 152.73 106.492 151.868 106.571 151.011L102.298 151.018Z" fill="#231F20"/>
<path d="M93.6246 151.299C93.6246 151.299 93.3811 155.329 93.6246 156.23C93.8682 157.13 94.2889 158.156 94.1635 158.702C94.038 159.249 86.6421 165.744 86.2804 164.607C85.9187 163.471 88.9302 158.843 88.9893 158.023C89.0483 157.204 88.0297 150.886 88.0297 150.886L93.6246 151.299Z" fill="white"/>
<path d="M86.5164 165.102C86.3917 165.109 86.268 165.075 86.165 165.004C86.0621 164.933 85.9857 164.83 85.9481 164.711C85.6971 163.921 86.5017 162.275 87.6679 160.046C88.0483 159.388 88.3717 158.699 88.6349 157.986C88.6791 157.418 88.0886 153.462 87.6753 150.937C87.6682 150.882 87.6731 150.826 87.6896 150.772C87.7062 150.719 87.734 150.669 87.7713 150.627C87.8089 150.587 87.8548 150.556 87.9058 150.536C87.9568 150.515 88.0116 150.506 88.0665 150.509L93.6688 150.93C93.7654 150.938 93.8552 150.983 93.9187 151.056C93.9823 151.129 94.0145 151.225 94.0083 151.321C93.883 152.925 93.883 154.537 94.0083 156.141C94.0748 156.377 94.1486 156.621 94.2224 156.879C94.4786 157.485 94.5922 158.142 94.5545 158.798C94.4143 159.433 88.037 165.05 86.5681 165.117L86.5164 165.102ZM88.4577 151.277C88.7087 152.827 89.4025 157.307 89.3508 158.046C89.1101 158.872 88.7575 159.662 88.3027 160.393C87.6531 161.625 86.605 163.633 86.605 164.349C87.8451 164.069 93.4547 159.227 93.8164 158.57C93.7812 158.064 93.6692 157.566 93.4843 157.093C93.4006 156.842 93.3268 156.596 93.2628 156.355C93.1287 154.796 93.1287 153.228 93.2628 151.668L88.4577 151.277Z" fill="#231F20"/>
<path d="M141.882 79.9011C141.882 79.9011 144.303 77.4727 144.488 76.5722C144.673 75.6717 144.975 72.5347 145.721 73.1178C146.466 73.7009 146.193 75.9448 146.193 75.9448C146.193 75.9448 149.522 72.2542 150.415 73.1178C151.308 73.9814 151.677 74.7859 151.677 76.4393C151.677 78.0927 143.41 84.7505 143.41 84.7505" fill="white"/>
<path d="M143.41 85.0681C143.355 85.0688 143.301 85.0572 143.251 85.0342C143.201 85.0112 143.157 84.9774 143.122 84.9353C143.061 84.8585 143.032 84.7607 143.041 84.6627C143.051 84.5647 143.099 84.4745 143.174 84.4112C147.175 81.2004 151.293 77.3179 151.293 76.3879C151.293 74.9116 151.013 74.1735 150.149 73.3321C150.149 73.3321 150.149 73.3321 150.038 73.3321C149.263 73.3321 147.433 75.0888 146.451 76.1664C146.399 76.2259 146.329 76.2667 146.252 76.2827C146.175 76.2987 146.094 76.289 146.023 76.255C145.953 76.2219 145.895 76.168 145.857 76.1007C145.818 76.0333 145.802 75.9557 145.809 75.8786C145.905 75.074 145.883 73.834 145.536 73.4428C145.24 74.2502 145.041 75.0903 144.945 75.945C144.901 76.2255 144.864 76.4617 144.835 76.6241C144.643 77.5836 142.547 79.7168 142.126 80.1375C142.092 80.1721 142.051 80.1996 142.006 80.2183C141.961 80.237 141.913 80.2467 141.864 80.2467C141.815 80.2467 141.767 80.237 141.722 80.2183C141.677 80.1996 141.636 80.1721 141.602 80.1375C141.534 80.0673 141.496 79.9733 141.496 79.8755C141.496 79.7777 141.534 79.6837 141.602 79.6134C142.576 78.6391 144.001 77.0227 144.111 76.4764C144.111 76.3214 144.178 76.1 144.215 75.8343C144.525 73.8783 144.761 72.8818 145.307 72.6973C145.411 72.6546 145.525 72.6417 145.635 72.6599C145.746 72.6782 145.85 72.7269 145.935 72.8006C146.466 73.2214 146.591 74.1809 146.599 74.9412C147.521 74.0185 149.049 72.6309 150.009 72.594C150.127 72.5846 150.246 72.6001 150.358 72.6395C150.47 72.6789 150.572 72.7414 150.658 72.8228C151.15 73.275 151.529 73.835 151.767 74.4587C152.006 75.0824 152.096 75.7529 152.031 76.4174C152.031 78.1667 145.027 83.8871 143.624 85.0165C143.561 85.0575 143.485 85.0757 143.41 85.0681Z" fill="#231F20"/>
<path d="M97.2114 105.647L120.831 106.88C120.831 106.88 122.307 113.346 118.263 116.556C114.218 119.767 106.069 123.089 105.582 125.414C105.095 127.739 108.025 148.089 107.707 152.901L100.452 154.621C100.452 154.621 94.1925 130.33 94.3475 126.322C94.5025 122.314 96.5988 120.417 96.5988 120.417C96.5988 120.417 90.8193 125.369 90.657 126.491C90.4946 127.613 94.8052 153.388 94.8052 153.388C94.8052 153.388 87.1435 153.691 86.9885 153.204C86.8335 152.717 79.7476 128.905 81.5117 123.768C83.2758 118.63 97.2114 105.647 97.2114 105.647Z" fill="#231F20"/>
<path d="M100.422 154.975C100.35 154.976 100.279 154.952 100.222 154.908C100.164 154.864 100.123 154.802 100.105 154.731C99.8538 153.742 93.8382 130.374 93.9932 126.336C94.0376 124.953 94.351 123.592 94.9158 122.328C92.8122 124.24 91.0186 126.07 90.9521 126.558C90.8562 127.428 93.3805 143.054 95.1004 153.344C95.1069 153.391 95.1037 153.439 95.091 153.484C95.0783 153.53 95.0564 153.573 95.0265 153.609C94.9655 153.677 94.8812 153.719 94.7903 153.728C86.8851 154.038 86.7301 153.573 86.6711 153.322C86.612 153.071 79.3637 128.964 81.1942 123.671C82.9657 118.505 96.4363 105.957 97.0121 105.403C97.0437 105.374 97.081 105.352 97.1216 105.338C97.1623 105.324 97.2054 105.318 97.2483 105.322L120.868 106.555C120.939 106.56 121.007 106.588 121.061 106.635C121.115 106.681 121.154 106.743 121.171 106.813C121.23 107.086 122.61 113.515 118.491 116.814C116.56 118.238 114.53 119.523 112.417 120.66C109.353 122.417 106.187 124.232 105.929 125.502C105.7 126.594 106.298 132.219 106.873 137.651C107.53 143.94 108.217 150.443 108.054 152.953C108.05 153.022 108.023 153.089 107.978 153.142C107.932 153.195 107.871 153.232 107.803 153.248L100.548 154.968L100.422 154.975ZM96.5766 120.106C96.6227 120.106 96.6683 120.116 96.7103 120.135C96.7523 120.155 96.7898 120.182 96.8202 120.217C96.8788 120.279 96.9116 120.361 96.9116 120.446C96.9116 120.531 96.8788 120.613 96.8202 120.675C96.8202 120.675 94.8273 122.55 94.6722 126.358C94.532 130.049 99.9646 151.454 100.688 154.259L107.39 152.672C107.501 150.037 106.814 143.505 106.202 137.718C105.567 131.732 105.021 126.565 105.264 125.377C105.589 123.812 108.593 122.092 112.077 120.092C114.159 118.971 116.159 117.706 118.063 116.305C121.444 113.596 120.765 108.378 120.558 107.197L97.3147 105.979C96.0525 107.16 83.416 119.11 81.7773 123.886C80.0944 128.772 86.7006 151.299 87.2173 153.019C87.8521 153.204 91.2179 153.204 94.377 153.093C93.7275 149.166 90.1328 127.561 90.2952 126.462C90.4576 125.362 95.3587 121.029 96.3404 120.188C96.4059 120.131 96.4904 120.102 96.5766 120.106Z" fill="#231F20"/>
<path d="M121.88 107.47C121.88 107.47 120.477 97.254 119.149 91.9691C119.149 91.9691 123.075 98.8188 127.77 99.2027C132.464 99.5865 146.289 83.6579 146.289 83.6579L142.421 78.1663C142.421 78.1663 132.745 85.8058 127.165 88.2195C125.688 84.8463 117.148 72.719 112.218 70.2906C107.287 67.8622 100.984 69.7739 97.6104 72.505C95.9792 73.8483 91.7055 76.3063 84.3243 83.0896C79.0073 81.2106 73.9769 78.6022 69.3774 75.3394L65.5761 80.7202C65.5761 80.7202 81.0766 95.0397 85.3355 92.9065L95.1968 87.9538L94.6727 107.248L121.88 107.47Z" fill="#48A4FE"/>
<path d="M101.833 54.7019C101.833 54.7019 97.8323 66.1501 96.046 68.5416L106.431 72.4314L108.38 53.9785L101.833 54.7019Z" fill="white"/>
<path d="M106.431 72.8004C106.387 72.8075 106.342 72.8075 106.298 72.8004L95.9124 68.9106C95.8597 68.8889 95.8125 68.8558 95.7742 68.8137C95.7359 68.7716 95.7074 68.7215 95.6909 68.667C95.6723 68.6123 95.668 68.5538 95.6783 68.4969C95.6886 68.4401 95.7133 68.3868 95.75 68.3422C97.4772 66.0245 101.441 54.7166 101.485 54.5985C101.507 54.5333 101.547 54.4757 101.601 54.4326C101.655 54.3894 101.719 54.3625 101.788 54.3549L108.342 53.6168C108.397 53.6096 108.453 53.6153 108.506 53.6332C108.558 53.6511 108.606 53.6808 108.645 53.7201C108.684 53.7596 108.713 53.8073 108.731 53.8596C108.749 53.912 108.755 53.9678 108.748 54.0227L106.792 72.4757C106.788 72.5315 106.77 72.5855 106.741 72.6331C106.711 72.6806 106.671 72.7203 106.622 72.7488C106.564 72.7832 106.498 72.8011 106.431 72.8004ZM96.6136 68.3717L106.113 71.9294L107.966 54.3918L102.105 55.0561C101.552 56.6061 98.3703 65.53 96.6136 68.357V68.3717Z" fill="#231F20"/>
<path d="M103.855 68.7185L102.681 73.8336C102.681 73.8336 102.061 77.0444 105.479 76.7492C106.488 76.6518 107.462 76.331 108.332 75.8101C109.201 75.2892 109.944 74.5813 110.505 73.7377L111.878 64.4374C111.937 64.0462 112.498 60.2006 113.2 56.8274C109.273 56.0155 105.818 55.019 105.818 55.019C106.136 55.4767 104.719 55.27 104.719 55.2774C104.09 55.149 103.444 55.1241 102.807 55.2036C102.15 57.4179 101.08 59.7947 100.703 62.0533C100.457 63.4049 100.336 64.7761 100.342 66.1498C100.386 68.7554 103.855 68.7185 103.855 68.7185Z" fill="white"/>
<path d="M105.051 77.1037C104.662 77.1304 104.272 77.0729 103.908 76.9354C103.544 76.7978 103.214 76.5833 102.94 76.3065C102.671 75.9488 102.479 75.5389 102.377 75.1029C102.276 74.667 102.266 74.2146 102.349 73.7748L103.434 69.0435C102.069 68.9401 100.039 68.2537 100.002 66.15C99.9922 64.759 100.113 63.3702 100.364 62.0018C100.668 60.4708 101.105 58.9692 101.67 57.5141C101.951 56.7169 102.238 55.8976 102.475 55.1078C102.493 55.0463 102.528 54.9913 102.576 54.9494C102.625 54.9074 102.684 54.8804 102.748 54.8716C103.421 54.7873 104.104 54.8098 104.77 54.938C105.016 54.9627 105.263 54.9627 105.508 54.938C105.517 54.8851 105.537 54.8347 105.567 54.7904C105.607 54.7356 105.661 54.6937 105.724 54.6701C105.787 54.6464 105.856 54.642 105.922 54.6576C105.959 54.6576 109.413 55.6614 113.303 56.4586C113.347 56.4652 113.39 56.4819 113.427 56.5075C113.464 56.5331 113.495 56.5669 113.517 56.6062C113.542 56.6425 113.559 56.6834 113.568 56.7265C113.577 56.7696 113.577 56.814 113.569 56.8571C112.956 59.8096 112.454 63.1016 112.262 64.3933C112.262 64.3933 112.262 64.3933 110.874 73.7526C110.871 73.7954 110.856 73.8363 110.83 73.8707C110.246 74.7641 109.467 75.5136 108.551 76.0632C107.636 76.6129 106.608 76.9484 105.545 77.0446L105.051 77.1037ZM103.006 73.915C102.948 74.2518 102.957 74.5968 103.033 74.93C103.109 75.2632 103.25 75.5781 103.449 75.8563C103.715 76.0997 104.035 76.2767 104.383 76.3729C104.73 76.4691 105.096 76.4818 105.449 76.4099C106.393 76.3167 107.306 76.0188 108.123 75.5369C108.94 75.0551 109.642 74.4008 110.181 73.6198C110.313 72.7636 111.531 64.4819 111.546 64.3933C111.738 63.0795 112.218 59.9646 112.801 57.086C109.76 56.4512 107.029 55.7131 106.077 55.4473C105.959 55.5728 105.663 55.7426 104.667 55.6097C104.138 55.5025 103.596 55.4702 103.058 55.5138C102.829 56.2519 102.563 56.99 102.32 57.7281C101.759 59.1499 101.319 60.6166 101.006 62.1125C100.762 63.4418 100.643 64.7911 100.651 66.1427C100.696 68.357 103.7 68.357 103.833 68.357C103.884 68.355 103.935 68.3653 103.981 68.3871C104.027 68.409 104.068 68.4417 104.098 68.4825C104.13 68.5227 104.151 68.5696 104.162 68.6195C104.172 68.6694 104.17 68.721 104.158 68.7703L102.984 73.8855L103.006 73.915Z" fill="#231F20"/>
<path d="M105.789 60.7842C105.789 60.7842 103.574 62.9985 103.914 63.5447C104.253 64.0909 105.434 63.9876 105.434 63.9876" fill="white"/>
<path d="M105.235 64.4007C104.799 64.4007 103.943 64.3269 103.604 63.7733C103.264 63.2197 103.936 62.1863 105.523 60.5625C105.557 60.5276 105.597 60.4997 105.642 60.4804C105.686 60.4612 105.735 60.4509 105.783 60.4502C105.832 60.4495 105.88 60.4585 105.925 60.4764C105.971 60.4944 106.012 60.5212 106.047 60.5551C106.082 60.589 106.11 60.6295 106.129 60.6742C106.148 60.7189 106.158 60.7669 106.159 60.8156C106.16 60.8642 106.151 60.9126 106.133 60.9578C106.115 61.003 106.088 61.0442 106.054 61.0791C105.31 61.7486 104.699 62.5525 104.253 63.4485C104.364 63.6035 104.991 63.6773 105.412 63.6552C105.508 63.6509 105.602 63.6838 105.675 63.747C105.748 63.8101 105.794 63.8988 105.803 63.9947C105.807 64.0438 105.801 64.0932 105.786 64.1399C105.771 64.1867 105.746 64.23 105.714 64.2671C105.681 64.3043 105.642 64.3346 105.598 64.3562C105.554 64.3779 105.505 64.3905 105.456 64.3933L105.235 64.4007Z" fill="#231F20"/>
<path d="M104.155 59.8886C104.225 59.5867 104.149 59.3115 103.986 59.2741C103.823 59.2367 103.635 59.4511 103.565 59.7531C103.496 60.055 103.572 60.3301 103.735 60.3676C103.898 60.405 104.086 60.1906 104.155 59.8886Z" fill="#231F20"/>
<path d="M108.338 61.0712C108.407 60.7693 108.331 60.4942 108.168 60.4567C108.006 60.4193 107.817 60.6338 107.748 60.9357C107.678 61.2376 107.754 61.5128 107.917 61.5502C108.08 61.5876 108.268 61.3732 108.338 61.0712Z" fill="#231F20"/>
<path d="M104.814 58.4957L105.368 57.4329L105.759 58.6877L109.058 59.6693L109.974 58.3038L109.878 60.1491L111.612 60.3263C111.612 60.3263 108.342 68.4456 108.468 73.5386C108.468 73.5386 118.27 76.2474 120.809 74.4981C120.809 74.4981 118.026 64.4671 118.152 60.4739C118.277 56.4807 118.041 53.0484 113.273 51.2031C108.505 49.3579 105.065 49.941 102.563 52.1184C101.82 52.796 101.223 53.6182 100.81 54.5346C100.396 55.451 100.174 56.4423 100.157 57.4476C100.157 57.4476 103.818 58.4293 104.814 58.4957Z" fill="white"/>
<path d="M117.872 75.4724C114.041 75.4724 108.668 73.9962 108.372 73.9224C108.294 73.9052 108.223 73.8613 108.173 73.798C108.124 73.7347 108.097 73.656 108.099 73.5754C107.988 69.1467 110.402 62.5037 111.052 60.6732L109.797 60.5477C109.704 60.5383 109.617 60.493 109.557 60.4214C109.496 60.3498 109.466 60.2575 109.472 60.1639V59.6472L109.302 59.9055C109.26 59.9705 109.197 60.02 109.124 60.0466C109.051 60.0732 108.971 60.0755 108.896 60.0531L105.597 59.0714C105.539 59.0542 105.485 59.023 105.442 58.9806C105.398 58.9381 105.365 58.8857 105.346 58.8279L105.221 58.4293L105.08 58.695C105.048 58.7612 104.995 58.8157 104.931 58.8513C104.866 58.887 104.792 58.902 104.719 58.8943C103.707 58.7983 100.15 57.8536 100.002 57.8093C99.9246 57.7897 99.8559 57.7451 99.8064 57.6823C99.757 57.6196 99.7298 57.5422 99.729 57.4623C99.7406 56.4014 99.9723 55.3543 100.409 54.3875C100.846 53.4206 101.479 52.555 102.268 51.8453C105.043 49.4243 108.771 49.0921 113.34 50.8636C118.293 52.7827 118.588 56.3626 118.455 60.4591C118.33 64.3785 121.075 74.2988 121.105 74.3947C121.123 74.4694 121.118 74.5478 121.092 74.62C121.066 74.6922 121.019 74.755 120.957 74.8007C120.009 75.3005 118.942 75.5327 117.872 75.4724ZM108.83 73.2581C111.605 73.9962 118.211 75.3986 120.381 74.3209C119.924 72.6528 117.665 64.1423 117.783 60.437C117.909 56.4585 117.643 53.2698 113.141 51.5279C108.778 49.8376 105.398 50.1107 102.807 52.3767C101.458 53.6104 100.643 55.3206 100.534 57.145C101.331 57.3516 103.611 57.9421 104.608 58.0971L105.043 57.2631C105.076 57.1982 105.127 57.1445 105.19 57.1089C105.253 57.0734 105.325 57.0577 105.398 57.0638C105.471 57.0703 105.541 57.0982 105.599 57.1441C105.657 57.1901 105.7 57.252 105.722 57.3221L106.055 58.3924L108.904 59.2338L109.642 58.0971C109.686 58.03 109.751 57.9793 109.827 57.9526C109.903 57.926 109.986 57.9249 110.063 57.9495C110.14 57.9739 110.208 58.0233 110.255 58.09C110.301 58.1568 110.325 58.2372 110.321 58.3186L110.24 59.7948L111.627 59.935C111.683 59.9428 111.736 59.9626 111.784 59.9932C111.831 60.0238 111.871 60.0645 111.901 60.1122C111.928 60.1633 111.942 60.2204 111.942 60.2783C111.942 60.3362 111.928 60.3932 111.901 60.4443C111.923 60.5698 108.83 68.3422 108.83 73.2581Z" fill="#231F20"/>
<path d="M102.112 64.5113C102.112 64.5113 104.615 67.5155 107.087 64.3711L102.112 64.5113Z" fill="white"/>
<path d="M104.63 66.1795C104.092 66.1387 103.567 65.9911 103.087 65.7452C102.607 65.4993 102.18 65.1602 101.832 64.7476C101.795 64.7118 101.765 64.6685 101.745 64.6205C101.725 64.5724 101.716 64.5208 101.717 64.4688C101.719 64.4168 101.731 64.3658 101.754 64.3189C101.776 64.2721 101.809 64.2306 101.848 64.1971C101.888 64.1636 101.935 64.1389 101.984 64.1246C102.034 64.1103 102.087 64.1067 102.138 64.1141C102.19 64.1215 102.239 64.1396 102.283 64.1674C102.327 64.1951 102.365 64.2319 102.393 64.2752C102.958 64.9299 103.749 65.3466 104.608 65.4414H104.696C105.126 65.3995 105.54 65.2608 105.908 65.0358C106.277 64.8108 106.589 64.5053 106.822 64.1423C106.883 64.065 106.972 64.0149 107.069 64.0032C107.167 63.9914 107.265 64.0189 107.343 64.0796C107.42 64.1402 107.47 64.2292 107.482 64.3268C107.493 64.4243 107.466 64.5226 107.405 64.5999C107.105 65.0513 106.705 65.4283 106.237 65.702C105.769 65.9757 105.245 66.139 104.704 66.1795H104.63Z" fill="#231F20"/>
<path d="M103.855 68.7189C103.855 68.7189 106.593 68.6525 107.759 67.9365C107.759 67.9365 106.077 71.5164 102.954 72.6383L103.855 68.7189Z" fill="#231F20"/>
<path d="M102.954 73.007C102.865 73.0079 102.779 72.9764 102.711 72.9184C102.66 72.8745 102.622 72.8177 102.601 72.754C102.581 72.6902 102.578 72.6221 102.593 72.5567L103.493 68.6373C103.512 68.5573 103.557 68.4859 103.621 68.435C103.685 68.384 103.765 68.3564 103.847 68.3569C103.847 68.3569 106.497 68.2757 107.538 67.6187C107.606 67.5782 107.685 67.5605 107.763 67.5682C107.842 67.5758 107.916 67.6085 107.975 67.6613C108.033 67.7142 108.073 67.7845 108.089 67.8618C108.105 67.9392 108.095 68.0196 108.062 68.0911C107.996 68.2388 106.283 71.7817 103.05 72.9775C103.02 72.9915 102.987 73.0015 102.954 73.007ZM104.15 69.0802L103.471 72.0327C104.893 71.2363 106.083 70.084 106.925 68.689C106.015 68.9097 105.086 69.0407 104.15 69.0802Z" fill="#231F20"/>
<path d="M146.289 79.4953C146.236 79.509 146.18 79.509 146.127 79.4953C146.083 79.474 146.044 79.4443 146.012 79.408C145.98 79.3716 145.955 79.3292 145.939 79.2832C145.923 79.2373 145.917 79.1887 145.92 79.1402C145.923 79.0917 145.935 79.0443 145.957 79.0007C146.182 78.557 146.293 78.0642 146.28 77.5668C146.267 77.0694 146.131 76.583 145.883 76.1516C145.83 76.0693 145.812 75.9695 145.833 75.8741C145.854 75.7786 145.912 75.6952 145.994 75.6423C146.034 75.6152 146.08 75.5966 146.127 75.5874C146.175 75.5783 146.224 75.579 146.272 75.5893C146.32 75.5996 146.365 75.6195 146.404 75.6476C146.444 75.6757 146.478 75.7116 146.503 75.753C146.824 76.2897 147.003 76.8991 147.023 77.524C147.044 78.1489 146.906 78.7688 146.621 79.3255C146.586 79.3813 146.537 79.4266 146.479 79.4565C146.42 79.4864 146.355 79.4998 146.289 79.4953Z" fill="#231F20"/>
<path d="M120.588 93.8738C120.588 93.8738 116.159 88.2272 113.34 84.7212L120.588 93.8738Z" fill="white"/>
<path d="M120.588 94.243C120.531 94.2439 120.475 94.2317 120.424 94.2074C120.373 94.1831 120.328 94.1473 120.293 94.1028C120.248 94.0511 115.864 88.4193 113.052 84.9575C112.99 84.8812 112.961 84.7835 112.972 84.6859C112.982 84.5883 113.031 84.4988 113.107 84.4372C113.184 84.3755 113.281 84.3467 113.379 84.3571C113.476 84.3674 113.566 84.4162 113.628 84.4925C116.425 87.9617 120.832 93.5935 120.876 93.6525C120.935 93.7299 120.962 93.8278 120.949 93.9246C120.937 94.0215 120.887 94.1094 120.809 94.1692C120.746 94.2176 120.668 94.2436 120.588 94.243Z" fill="#231F20"/>
<path d="M94.7466 105.233C94.6981 105.231 94.6505 105.22 94.6064 105.199C94.5624 105.179 94.5228 105.15 94.4898 105.115C94.4569 105.079 94.4314 105.037 94.4146 104.992C94.3979 104.946 94.3903 104.898 94.3923 104.849L94.9828 81.3402C94.9828 81.2424 95.0217 81.1485 95.0909 81.0793C95.1601 81.0101 95.2539 80.9712 95.3518 80.9712C95.4497 80.9712 95.5436 81.0101 95.6128 81.0793C95.682 81.1485 95.7209 81.2424 95.7209 81.3402L95.1304 104.849C95.1314 104.9 95.1222 104.95 95.1032 104.997C95.0843 105.044 95.0561 105.087 95.0202 105.123C94.9844 105.159 94.9417 105.187 94.8946 105.206C94.8476 105.225 94.7973 105.234 94.7466 105.233Z" fill="#231F20"/>
<path d="M139.203 51.6534C153.467 51.6534 165.03 40.0904 165.03 25.8267C165.03 11.563 153.467 0 139.203 0C124.94 0 113.377 11.563 113.377 25.8267C113.377 40.0904 124.94 51.6534 139.203 51.6534Z" fill="#48A4FE"/>
<path d="M139.298 48.0772C134.904 48.0772 130.608 46.7742 126.955 44.3329C123.301 41.8917 120.454 38.4218 118.772 34.3621C117.09 30.3024 116.65 25.8353 117.508 21.5255C118.365 17.2158 120.481 13.257 123.588 10.1499C126.695 7.04274 130.654 4.92675 134.964 4.06949C139.273 3.21223 143.741 3.6522 147.8 5.33378C151.86 7.01536 155.33 9.86301 157.771 13.5166C160.212 17.1702 161.515 21.4657 161.515 25.8599C161.506 31.7493 159.162 37.3947 154.997 41.5591C150.833 45.7236 145.188 48.0675 139.298 48.0772ZM139.298 4.3807C135.05 4.3807 130.897 5.64044 127.365 8.0006C123.833 10.3608 121.08 13.7154 119.454 17.6402C117.828 21.565 117.403 25.8837 118.232 30.0503C119.06 34.2168 121.106 38.0441 124.11 41.048C127.114 44.0519 130.941 46.0976 135.108 46.9264C139.274 47.7552 143.593 47.3298 147.518 45.7041C151.443 44.0784 154.797 41.3253 157.157 37.7931C159.518 34.2609 160.777 30.1081 160.777 25.8599C160.77 20.1657 158.504 14.7069 154.478 10.6804C150.451 6.654 144.992 4.38851 139.298 4.3807Z" fill="white"/>
<path d="M73.1423 51.6534C87.406 51.6534 98.969 40.0904 98.969 25.8267C98.969 11.563 87.406 0 73.1423 0C58.8786 0 47.3156 11.563 47.3156 25.8267C47.3156 40.0904 58.8786 51.6534 73.1423 51.6534Z" fill="#48A4FE"/>
<path d="M73.1142 48.0772C68.7204 48.0758 64.4256 46.7715 60.7729 44.3293C57.1203 41.8872 54.2738 38.4168 52.5933 34.357C50.9129 30.2972 50.474 25.8302 51.3321 21.521C52.1902 17.2117 54.3067 13.2537 57.4142 10.1473C60.5216 7.04087 64.4804 4.92561 68.7899 4.06895C73.0995 3.21229 77.5662 3.65269 81.6255 5.33449C85.6848 7.01628 89.1542 9.86393 91.5951 13.5174C94.0361 17.1709 95.3389 21.466 95.3389 25.8599C95.3311 31.7512 92.9868 37.3988 88.8204 41.5639C84.6539 45.729 79.0055 48.0714 73.1142 48.0772ZM73.1142 4.3807C68.8663 4.38216 64.7143 5.64314 61.183 8.00419C57.6518 10.3652 54.8999 13.7203 53.2753 17.6453C51.6507 21.5702 51.2264 25.8887 52.056 30.0548C52.8856 34.2209 54.9319 38.0474 57.9361 41.0506C60.9403 44.0538 64.7676 46.0987 68.9339 46.9269C73.1003 47.7551 77.4186 47.3293 81.343 45.7034C85.2674 44.0775 88.6216 41.3244 90.9814 37.7923C93.3413 34.2603 94.6008 30.1078 94.6008 25.8599C94.5949 20.1638 92.3291 14.7028 88.3006 10.6757C84.2721 6.64861 78.8103 4.38461 73.1142 4.3807Z" fill="white"/>
<path d="M25.8267 93.1104C40.0904 93.1104 51.6534 81.5474 51.6534 67.2837C51.6534 53.02 40.0904 41.457 25.8267 41.457C11.563 41.457 0 53.02 0 67.2837C0 81.5474 11.563 93.1104 25.8267 93.1104Z" fill="#48A4FE"/>
<path d="M20.2113 79.9997H23.0198V75.5081H31.4454V72.5137H23.0198V69.5193H29.339C33.2106 69.5193 36.3603 66.1611 36.3603 62.0333C36.3603 57.9056 33.2106 54.5474 29.339 54.5474H21.6156C21.2431 54.5474 20.886 54.7051 20.6226 54.9859C20.3592 55.2667 20.2113 55.6475 20.2113 56.0446V66.5249H15.9985V69.5193H20.2113V72.5137H15.9985V75.5081H20.2113V79.9997ZM23.0198 57.5418H29.339C31.6617 57.5418 33.5518 59.557 33.5518 62.0333C33.5518 64.5097 31.6617 66.5249 29.339 66.5249H23.0198V57.5418Z" fill="white"/>
<path d="M67.48 38.5485H70.2885V34.0569H78.7141V31.0625H70.2885V28.0681H76.6077C80.4793 28.0681 83.6291 24.7099 83.6291 20.5822C83.6291 16.4544 80.4793 13.0962 76.6077 13.0962H68.8843C68.5118 13.0962 68.1547 13.2539 67.8913 13.5347C67.628 13.8155 67.48 14.1963 67.48 14.5934V25.0737H63.2672V28.0681H67.48V31.0625H63.2672V34.0569H67.48V38.5485ZM70.2885 16.0906H76.6077C78.9304 16.0906 80.8205 18.1058 80.8205 20.5822C80.8205 23.0585 78.9304 25.0737 76.6077 25.0737H70.2885V16.0906Z" fill="white"/>
<path d="M132.929 38.5485H135.738V34.0569H144.163V31.0625H135.738V28.0681H142.057C145.928 28.0681 149.078 24.7099 149.078 20.5822C149.078 16.4544 145.928 13.0962 142.057 13.0962H134.333C133.961 13.0962 133.604 13.2539 133.34 13.5347C133.077 13.8155 132.929 14.1963 132.929 14.5934V25.0737H128.716V28.0681H132.929V31.0625H128.716V34.0569H132.929V38.5485ZM135.738 16.0906H142.057C144.379 16.0906 146.27 18.1058 146.27 20.5822C146.27 23.0585 144.379 25.0737 142.057 25.0737H135.738V16.0906Z" fill="white"/>
<path d="M26.1019 89.297C21.7077 89.297 17.4122 87.9939 13.7586 85.5527C10.105 83.1114 7.25732 79.6415 5.57574 75.5818C3.89416 71.5222 3.45419 67.055 4.31145 62.7453C5.16871 58.4355 7.2847 54.4768 10.3918 51.3696C13.499 48.2625 17.4577 46.1465 21.7675 45.2892C26.0772 44.432 30.5444 44.8719 34.6041 46.5535C38.6637 48.2351 42.1336 51.0827 44.5749 54.7364C47.0162 58.39 48.3192 62.6855 48.3192 67.0796C48.3114 72.9696 45.9681 78.6162 41.8033 82.781C37.6384 86.9459 31.9919 89.2891 26.1019 89.297ZM26.1019 45.6004C21.8537 45.6004 17.7009 46.8602 14.1687 49.2203C10.6364 51.5805 7.88338 54.9351 6.25767 58.8599C4.63196 62.7847 4.2066 67.1035 5.03538 71.27C5.86416 75.4366 7.90985 79.2638 10.9138 82.2677C13.9177 85.2716 17.7449 87.3173 21.9115 88.1461C26.078 88.9749 30.3968 88.5495 34.3216 86.9238C38.2464 85.2981 41.601 82.5451 43.9612 79.0128C46.3213 75.4806 47.5811 71.3278 47.5811 67.0796C47.5752 61.3848 45.3103 55.9249 41.2835 51.898C37.2566 47.8712 31.7967 45.6063 26.1019 45.6004Z" fill="white"/>
<path d="M186.54 93.1104C200.803 93.1104 212.366 81.5474 212.366 67.2837C212.366 53.02 200.803 41.457 186.54 41.457C172.276 41.457 160.713 53.02 160.713 67.2837C160.713 81.5474 172.276 93.1104 186.54 93.1104Z" fill="#48A4FE"/>
<path d="M186.244 89.297C181.85 89.297 177.554 87.9939 173.9 85.5527C170.247 83.1114 167.399 79.6415 165.718 75.5818C164.036 71.5222 163.596 67.055 164.453 62.7453C165.311 58.4355 167.427 54.4768 170.534 51.3696C173.641 48.2625 177.6 46.1465 181.909 45.2892C186.219 44.432 190.686 44.8719 194.746 46.5535C198.806 48.2351 202.276 51.0827 204.717 54.7364C207.158 58.39 208.461 62.6855 208.461 67.0796C208.453 72.9696 206.11 78.6162 201.945 82.781C197.78 86.9459 192.134 89.2891 186.244 89.297ZM186.244 45.6004C181.996 45.6004 177.843 46.8602 174.311 49.2203C170.778 51.5805 168.025 54.9351 166.4 58.8599C164.774 62.7847 164.349 67.1035 165.177 71.27C166.006 75.4366 168.052 79.2638 171.056 82.2677C174.06 85.2716 177.887 87.3173 182.053 88.1461C186.22 88.9749 190.539 88.5495 194.464 86.9238C198.388 85.2981 201.743 82.5451 204.103 79.0128C206.463 75.4806 207.723 71.3278 207.723 67.0796C207.717 61.3848 205.452 55.9249 201.425 51.898C197.399 47.8712 191.939 45.6063 186.244 45.6004Z" fill="white"/>
<path d="M180.197 79.9997H183.006V75.5081H191.432V72.5137H183.006V69.5193H189.325C193.197 69.5193 196.346 66.1611 196.346 62.0333C196.346 57.9056 193.197 54.5474 189.325 54.5474H181.602C181.229 54.5474 180.872 54.7051 180.609 54.9859C180.345 55.2667 180.197 55.6475 180.197 56.0446V66.5249H175.985V69.5193H180.197V72.5137H175.985V75.5081H180.197V79.9997ZM183.006 57.5418H189.325C191.648 57.5418 193.538 59.557 193.538 62.0333C193.538 64.5097 191.648 66.5249 189.325 66.5249H183.006V57.5418Z" fill="white"/>
</svg>
