<svg width="141" height="100" viewBox="0 0 141 100" fill="none" xmlns="http://www.w3.org/2000/svg">
<path d="M117.338 14.0982C121.168 14.0982 124.273 10.9932 124.273 7.163C124.273 3.33279 121.168 0.227783 117.338 0.227783C113.507 0.227783 110.402 3.33279 110.402 7.163C110.402 10.9932 113.507 14.0982 117.338 14.0982Z" fill="white"/>
<path d="M117.344 14.3306C115.83 14.3305 114.355 13.8516 113.131 12.9624C111.906 12.0732 110.994 10.8193 110.525 9.3802C109.937 7.57292 110.092 5.6063 110.954 3.91298C111.817 2.21967 113.317 0.938359 115.124 0.35093C116.932 -0.236498 118.898 -0.0819252 120.591 0.780642C122.285 1.64321 123.566 3.14311 124.153 4.95039C124.505 6.02549 124.596 7.16846 124.42 8.28564C124.244 9.40283 123.806 10.4624 123.142 11.3776C122.477 12.2929 121.605 13.0376 120.598 13.5509C119.59 14.0642 118.475 14.3314 117.344 14.3306ZM117.344 0.460165C116.638 0.461878 115.937 0.573215 115.266 0.790192C114.004 1.19931 112.891 1.97367 112.069 3.0153C111.247 4.05693 110.752 5.31901 110.647 6.64187C110.543 7.96472 110.833 9.2889 111.481 10.4469C112.129 11.6048 113.106 12.5445 114.288 13.147C115.471 13.7496 116.805 13.9879 118.123 13.8318C119.441 13.6757 120.683 13.1323 121.691 12.2702C122.7 11.4082 123.431 10.2662 123.79 8.98891C124.15 7.7116 124.123 6.35629 123.712 5.09449C123.276 3.74737 122.425 2.57251 121.282 1.73771C120.138 0.90292 118.76 0.4509 117.344 0.446221V0.460165Z" fill="#231F20"/>
<path d="M117.342 12.9409C116.354 12.942 115.382 12.6894 114.519 12.2071C113.656 11.7249 112.932 11.0292 112.415 10.1867C111.898 9.34421 111.606 8.38311 111.567 7.39547C111.528 6.40782 111.743 5.4267 112.192 4.54607C112.623 3.70035 113.256 2.97397 114.035 2.43124C114.814 1.88851 115.714 1.54619 116.657 1.43458C117.6 1.32297 118.555 1.44552 119.439 1.79138C120.323 2.13724 121.108 2.69573 121.725 3.41741C122.341 4.13908 122.771 5.00167 122.974 5.9288C123.178 6.85592 123.15 7.81896 122.893 8.73266C122.635 9.64635 122.157 10.4825 121.499 11.1671C120.842 11.8516 120.025 12.3635 119.123 12.6573C118.548 12.8442 117.947 12.9398 117.342 12.9409ZM117.342 1.85008C116.04 1.84668 114.781 2.32148 113.806 3.1844C112.83 4.04732 112.205 5.23834 112.049 6.53153C111.893 7.82472 112.217 9.13013 112.96 10.2001C113.703 11.2701 114.813 12.0303 116.079 12.3364C117.345 12.6425 118.679 12.4733 119.829 11.8608C120.978 11.2483 121.863 10.2353 122.315 9.01372C122.768 7.79218 122.756 6.44717 122.282 5.23381C121.808 4.02045 120.906 3.02316 119.746 2.43111C119.002 2.04982 118.178 1.85067 117.342 1.85008Z" fill="#D1D3D4"/>
<path d="M118.488 9.78464L118.725 10.5051L118.148 10.6911L117.906 9.93804C116.721 10.1844 115.708 9.84042 115.169 8.78062L116.326 8.16705C116.432 8.39804 116.608 8.58958 116.829 8.71404C117.05 8.83851 117.306 8.88949 117.558 8.85964L117.14 7.64179C116.098 7.71616 114.941 7.7487 114.611 6.71214C114.313 5.78248 114.908 4.9272 116.117 4.48561L115.908 3.83486L116.479 3.64893L116.698 4.31828C117.795 4.10446 118.729 4.44843 119.208 5.24793L118.074 5.91263C117.963 5.74615 117.81 5.61252 117.63 5.52581C117.45 5.4391 117.25 5.40252 117.051 5.41992L117.391 6.46113C118.46 6.36352 119.77 6.29844 120.152 7.47445C120.458 8.40411 119.831 9.31517 118.488 9.78464ZM116.791 6.53085L116.479 5.57331C116.015 5.7453 115.801 6.01489 115.898 6.30309C115.996 6.59128 116.307 6.5448 116.772 6.51691L116.791 6.53085ZM118.906 7.92533C118.804 7.60925 118.348 7.58136 117.776 7.6139L118.144 8.74808C118.739 8.51102 118.985 8.19958 118.887 7.90209L118.906 7.92533Z" fill="#48A4FE"/>
<path d="M122.992 17.6168C126.822 17.6168 129.927 14.5118 129.927 10.6816C129.927 6.85134 126.822 3.74634 122.992 3.74634C119.162 3.74634 116.057 6.85134 116.057 10.6816C116.057 14.5118 119.162 17.6168 122.992 17.6168Z" fill="white"/>
<path d="M122.987 17.8679C122.028 17.869 121.08 17.6761 120.198 17.3009C118.892 16.7505 117.778 15.8249 116.998 14.6414C116.218 13.4579 115.807 12.0696 115.817 10.6522C115.826 9.23483 116.256 7.85214 117.051 6.67912C117.847 5.5061 118.973 4.5955 120.286 4.06258C121.265 3.66745 122.32 3.49362 123.374 3.55354C124.428 3.61345 125.455 3.90563 126.383 4.40916C127.311 4.91269 128.116 5.61513 128.741 6.46619C129.366 7.31725 129.795 8.29589 129.997 9.33208C130.2 10.3683 130.17 11.4364 129.912 12.46C129.653 13.4835 129.171 14.4373 128.501 15.2529C127.831 16.0686 126.988 16.726 126.034 17.1781C125.08 17.6301 124.038 17.8657 122.982 17.8679H122.987ZM122.987 3.99751C121.774 3.99443 120.582 4.32068 119.54 4.94147C118.498 5.56227 117.643 6.45432 117.068 7.52252C116.493 8.59071 116.219 9.79498 116.274 11.0069C116.33 12.2188 116.713 13.393 117.383 14.4041C118.054 15.4153 118.986 16.2255 120.081 16.7485C121.175 17.2714 122.392 17.4874 123.599 17.3735C124.807 17.2595 125.961 16.8199 126.939 16.1015C127.917 15.383 128.681 14.4127 129.15 13.294C129.576 12.2765 129.745 11.1696 129.64 10.0715C129.536 8.97334 129.163 7.91785 128.553 6.99849C127.944 6.07914 127.117 5.3243 126.146 4.80084C125.175 4.27738 124.09 4.00145 122.987 3.99751Z" fill="#231F20"/>
<path d="M122.986 16.4736C121.548 16.4756 120.16 15.9418 119.094 14.9763C118.028 14.0108 117.359 12.6828 117.219 11.2512C117.079 9.81967 117.476 8.38713 118.335 7.23293C119.193 6.07872 120.451 5.28557 121.862 5.00811C123.274 4.73065 124.738 4.98877 125.969 5.73215C127.201 6.47553 128.111 7.65088 128.523 9.02905C128.935 10.4072 128.819 11.8894 128.198 13.1867C127.576 14.484 126.494 15.5033 125.162 16.046C124.471 16.3281 123.732 16.4733 122.986 16.4736ZM122.986 5.38284C122.025 5.38229 121.082 5.64242 120.257 6.13554C119.432 6.62866 118.757 7.33629 118.302 8.18306C117.848 9.02983 117.631 9.98404 117.676 10.944C117.721 11.904 118.026 12.8339 118.557 13.6345C119.089 14.4352 119.828 15.0767 120.695 15.4906C121.562 15.9046 122.526 16.0756 123.482 15.9853C124.439 15.895 125.354 15.547 126.128 14.9781C126.903 14.4092 127.509 13.6409 127.881 12.755C128.154 12.1117 128.298 11.4209 128.304 10.7221C128.309 10.0232 128.177 9.3301 127.915 8.68241C127.652 8.03473 127.264 7.4452 126.774 6.9476C126.283 6.45 125.699 6.05411 125.055 5.7826C124.401 5.50904 123.7 5.3684 122.991 5.3689L122.986 5.38284Z" fill="#D1D3D4"/>
<path d="M120.605 13.123L121.305 13.4245L121.801 12.2726L123.902 13.1774L124.232 12.4094L122.132 11.5047L122.462 10.7367L124.038 11.4153C125.003 11.831 126.16 11.308 126.615 10.2494C127.071 9.19075 126.657 7.99128 125.692 7.57556L123.766 6.74622C123.673 6.70623 123.566 6.70833 123.47 6.75206C123.373 6.79579 123.294 6.87757 123.25 6.97941L122.093 9.66721L121.042 9.21485L120.712 9.98279L121.762 10.4352L121.431 11.2031L120.381 10.7507L120.05 11.5187L121.101 11.9711L120.605 13.123ZM123.785 7.66496L125.361 8.3435C125.94 8.59291 126.189 9.3127 125.915 9.94779C125.642 10.5829 124.948 10.8967 124.369 10.6473L122.793 9.96879L123.785 7.66496Z" fill="#D1D3D4"/>
<path d="M114.541 17.6077C118.371 17.6077 121.476 14.5027 121.476 10.6725C121.476 6.84231 118.371 3.7373 114.541 3.7373C110.71 3.7373 107.605 6.84231 107.605 10.6725C107.605 14.5027 110.71 17.6077 114.541 17.6077Z" fill="white"/>
<path d="M114.545 17.8352C113.224 17.8355 111.929 17.4705 110.803 16.7806C109.676 16.0907 108.763 15.1028 108.163 13.926C107.563 12.7493 107.3 11.4295 107.403 10.1126C107.506 8.79578 107.971 7.53309 108.747 6.46416C109.523 5.39522 110.58 4.56169 111.8 4.05568C113.02 3.54968 114.356 3.39092 115.661 3.59695C116.966 3.80298 118.188 4.36578 119.193 5.22314C120.198 6.08049 120.946 7.199 121.355 8.45504C121.705 9.53011 121.796 10.6728 121.619 11.7895C121.443 12.9063 121.005 13.9654 120.34 14.8804C119.676 15.7953 118.805 16.54 117.798 17.0536C116.79 17.5672 115.676 17.835 114.545 17.8352ZM114.545 3.96481C113.84 3.96652 113.139 4.07786 112.468 4.29484C110.874 4.81583 109.535 5.91816 108.718 7.38212C107.901 8.84607 107.666 10.5641 108.059 12.1939C108.453 13.8236 109.445 15.2453 110.84 16.1756C112.235 17.1059 113.929 17.4765 115.585 17.2135C117.24 16.9505 118.736 16.0733 119.774 14.7566C120.812 13.4399 121.315 11.7805 121.184 10.1091C121.053 8.43779 120.297 6.8772 119.067 5.73845C117.836 4.5997 116.222 3.96641 114.545 3.96481Z" fill="#231F20"/>
<path d="M114.54 16.4455C113.087 16.4462 111.686 15.8988 110.618 14.9124C109.55 13.926 108.893 12.5731 108.778 11.1238C108.663 9.67439 109.099 8.23503 109.999 7.09283C110.898 5.95063 112.195 5.18956 113.631 4.96146C115.067 4.73336 116.536 5.055 117.745 5.8622C118.955 6.66941 119.815 7.90284 120.155 9.31643C120.495 10.73 120.29 12.2198 119.58 13.4887C118.87 14.7575 117.708 15.7121 116.325 16.162C115.749 16.3494 115.147 16.4451 114.54 16.4455ZM114.54 5.35938C113.418 5.35796 112.325 5.7118 111.416 6.37017C110.508 7.02855 109.831 7.95767 109.483 9.02435C109.135 10.091 109.133 11.2405 109.479 12.308C109.824 13.3756 110.499 14.3063 111.406 14.9669C112.313 15.6275 113.405 15.984 114.527 15.9853C115.649 15.9866 116.743 15.6327 117.652 14.9742C118.56 14.3158 119.237 13.3866 119.585 12.3199C119.933 11.2531 119.934 10.1037 119.588 9.03617C119.24 7.9721 118.566 7.04489 117.66 6.38645C116.755 5.728 115.665 5.37186 114.545 5.36868L114.54 5.35938Z" fill="#D1D3D4"/>
<path d="M115.609 14.1741L116.215 13.7953L115.537 12.7096L117.355 11.5733L116.903 10.8494L115.085 11.9857L114.632 11.2619L115.996 10.4097C116.832 9.88755 117.004 8.65099 116.381 7.65318C115.757 6.65537 114.57 6.26836 113.735 6.79049L112.068 7.83208C111.987 7.88231 111.934 7.96861 111.92 8.07199C111.905 8.17538 111.931 8.28739 111.991 8.38338L113.574 10.9168L112.665 11.4849L113.117 12.2088L114.026 11.6406L114.478 12.3645L113.569 12.9326L114.021 13.6565L114.931 13.0883L115.609 14.1741ZM112.823 8.36654L114.187 7.51432C114.688 7.20109 115.401 7.43333 115.775 8.03194C116.149 8.63055 116.045 9.3726 115.544 9.68584L114.18 10.538L112.823 8.36654Z" fill="#D1D3D4"/>
<path d="M53.7402 75.9717L52.3457 80.6199L65.6351 80.4015C64.9193 77.3011 58.8114 75.9763 58.8114 75.9763L53.7402 75.9717Z" fill="white"/>
<path d="M52.3698 80.8333C52.3338 80.833 52.2983 80.8244 52.2661 80.8083C52.2339 80.7922 52.2058 80.769 52.1839 80.7404C52.1631 80.711 52.1491 80.6776 52.1426 80.6422C52.1362 80.6069 52.1376 80.5706 52.1467 80.5359L53.5179 75.8876C53.5313 75.8389 53.5605 75.7961 53.6009 75.7658C53.6413 75.7355 53.6906 75.7195 53.741 75.7202H58.882C59.1377 75.776 65.1479 77.1147 65.887 80.3174C65.8946 80.3513 65.8944 80.3865 65.8864 80.4204C65.8783 80.4542 65.8626 80.4858 65.8405 80.5126C65.8196 80.54 65.7929 80.5625 65.7624 80.5786C65.7319 80.5946 65.6983 80.6039 65.6639 80.6056L52.3744 80.824L52.3698 80.8333ZM53.913 76.1851L52.6812 80.3685L65.3524 80.1593C64.4228 77.5238 59.2074 76.2827 58.8077 76.1944L53.913 76.1851Z" fill="#231F20"/>
<path d="M67.7598 36.861C67.8992 36.861 70.6138 35.9592 70.6138 35.9592C70.6138 35.9592 72.157 33.1051 72.58 33.5746C72.8213 33.8237 72.9548 34.1576 72.9519 34.5043C72.9519 34.5043 74.0256 33.2911 74.4486 33.8489C74.8716 34.4067 75.8431 37.3583 74.9646 37.9161C74.0861 38.4739 68.0898 40.8724 68.0898 40.8724L67.7598 36.861Z" fill="white"/>
<path d="M68.0905 41.1094C68.0326 41.1075 67.9772 41.0849 67.9345 41.0457C67.8919 41.0064 67.8647 40.9532 67.8581 40.8956L67.5327 36.8795C67.5292 36.8496 67.532 36.8192 67.5408 36.7905C67.5496 36.7617 67.5642 36.735 67.5838 36.7121C67.602 36.6896 67.6245 36.6709 67.6501 36.6574C67.6757 36.6438 67.7037 36.6355 67.7326 36.6331C67.9046 36.5959 69.4524 36.0939 70.4565 35.7685C70.8841 34.983 71.8509 33.3607 72.4134 33.2956C72.476 33.286 72.54 33.2924 72.5993 33.3144C72.6587 33.3363 72.7115 33.3731 72.7527 33.4211C72.9124 33.5957 73.0343 33.8015 73.1106 34.0254C73.3934 33.7252 73.7709 33.5315 74.1797 33.4769C74.2705 33.4767 74.3599 33.4981 74.4408 33.5393C74.5216 33.5806 74.5914 33.6404 74.6446 33.714C75.0071 34.1788 75.7369 36.2519 75.5277 37.3861C75.5107 37.5319 75.4635 37.6725 75.389 37.7989C75.3146 37.9254 75.2146 38.0349 75.0954 38.1206C74.1983 38.683 68.4298 40.9932 68.1881 41.0908C68.1577 41.1051 68.1241 41.1115 68.0905 41.1094ZM68.0115 37.0375L68.295 40.5423C69.5082 40.0542 74.0914 38.2182 74.8398 37.7254C74.903 37.6731 74.9553 37.6088 74.9936 37.5362C75.0318 37.4636 75.0554 37.3842 75.0629 37.3025C75.2442 36.3217 74.5702 34.4066 74.2634 33.9929C74.2526 33.9759 74.2373 33.9622 74.2193 33.9532C74.2013 33.9442 74.1812 33.9403 74.1611 33.9418C73.9101 33.9418 73.3988 34.3555 73.1292 34.6622C73.0962 34.6992 73.0525 34.7249 73.0041 34.7358C72.9558 34.7466 72.9052 34.742 72.8596 34.7227C72.8142 34.7031 72.7761 34.6696 72.7511 34.627C72.726 34.5843 72.7152 34.5348 72.7202 34.4856C72.7194 34.2184 72.6182 33.9612 72.4366 33.7651C72.167 33.8906 71.4465 34.9132 70.819 36.0893C70.7909 36.1402 70.7443 36.1785 70.6889 36.1962C69.6802 36.5076 68.5042 36.8934 68.0115 37.0375Z" fill="#231F20"/>
<path d="M18.7244 89.9766C18.7244 89.9766 16.2701 95.587 16.4003 96.5678C16.5304 97.5486 22.364 99.4776 22.364 99.4776L29.0436 99.6543C28.6036 98.8559 28.0114 98.1516 27.3005 97.5811C25.7758 96.4191 24.3906 95.5034 24.2512 95.0943C24.0325 94.0517 23.8696 92.9981 23.7631 91.9381L18.7244 89.9766Z" fill="white"/>
<path d="M29.0525 99.8868L22.3729 99.7102H22.3032C20.9087 99.2453 16.3302 97.6556 16.1814 96.6098C16.0327 95.5639 18.2592 90.474 18.5056 89.893C18.5301 89.8385 18.5747 89.7955 18.6301 89.7729C18.6855 89.7504 18.7475 89.7502 18.8031 89.7722L23.8511 91.7291C23.8899 91.7457 23.9239 91.772 23.9499 91.8053C23.9759 91.8386 23.9931 91.8779 23.9998 91.9197C24.0992 92.9653 24.2544 94.0049 24.4647 95.034C24.5437 95.2664 25.4315 95.9218 26.2961 96.5586C26.6493 96.8189 27.0352 97.1025 27.4303 97.4046C28.1872 98.0057 28.8108 98.7576 29.2617 99.6125C29.2694 99.6472 29.2692 99.6832 29.2612 99.7178C29.2531 99.7524 29.2374 99.7847 29.2152 99.8124C29.1722 99.8567 29.1141 99.8833 29.0525 99.8868ZM22.4148 99.2453L28.6574 99.408C28.243 98.7924 27.742 98.2398 27.17 97.7672C26.7748 97.465 26.3937 97.1861 26.0358 96.9212C24.7714 95.9915 24.1765 95.5267 24.0417 95.1688C23.8252 94.158 23.67 93.1351 23.5768 92.1056L18.8635 90.2742C17.9338 92.4403 16.5394 95.8893 16.6556 96.5354C16.7113 97.0513 19.6862 98.3436 22.4148 99.2453Z" fill="#231F20"/>
<path d="M50.5625 25.4028C50.5625 25.4028 58.1345 39.2779 59.2548 38.999C60.375 38.7201 68.4212 36.0567 68.4212 36.0567L69.8435 40.8769C69.8435 40.8769 60.0171 48.9649 57.3862 47.2822C53.2446 44.6327 50.5625 37.2234 50.5625 37.2234V25.4028Z" fill="#48A4FE"/>
<path d="M23.1572 63.3243L6.38779 57.3331C5.44255 56.9954 4.40251 57.488 4.0648 58.4332L0.610248 68.1027C0.272544 69.0479 0.765056 70.088 1.71031 70.4257L18.4798 76.4168C19.425 76.7545 20.465 76.262 20.8027 75.3167L24.2573 65.6473C24.595 64.702 24.1025 63.662 23.1572 63.3243Z" fill="white"/>
<path d="M19.0959 76.7567C18.8597 76.7578 18.6252 76.7168 18.4033 76.6358L1.63699 70.6489C1.12431 70.4645 0.705048 70.0854 0.47028 69.5937C0.354943 69.3505 0.288983 69.0868 0.276217 68.8179C0.263451 68.5491 0.304133 68.2803 0.395908 68.0273L3.84957 58.3542C4.03248 57.844 4.41 57.427 4.89955 57.1944C5.38911 56.9619 5.95085 56.9326 6.4619 57.1131L23.2329 63.1047C23.7445 63.2886 24.1624 63.6677 24.395 64.1591C24.6277 64.6505 24.656 65.2141 24.4739 65.7264L21.0203 75.3994C20.8776 75.7968 20.6158 76.1404 20.2705 76.3833C19.9253 76.6262 19.5134 76.7566 19.0912 76.7567H19.0959ZM18.5474 76.1989C18.9431 76.3407 19.379 76.3194 19.759 76.1398C20.1391 75.9603 20.4323 75.6371 20.574 75.2414L24.0277 65.5683C24.1682 65.1725 24.1463 64.7372 23.9669 64.3575C23.7875 63.9778 23.4651 63.6845 23.0702 63.5417L6.31316 57.5547C5.91743 57.413 5.4816 57.4342 5.10154 57.6138C4.72147 57.7934 4.4283 58.1165 4.28651 58.5122L0.832844 68.1853C0.763926 68.3824 0.734643 68.5912 0.746675 68.7997C0.758708 69.0082 0.81182 69.2123 0.902959 69.4002C0.994099 69.5881 1.12147 69.7561 1.27775 69.8946C1.43404 70.0331 1.61615 70.1394 1.81363 70.2073L18.5474 76.1989Z" fill="#231F20"/>
<path d="M21.4986 66.9494C21.4725 66.9542 21.4457 66.9542 21.4196 66.9494L5.45281 61.232C5.42372 61.2221 5.39688 61.2065 5.37385 61.1861C5.35082 61.1658 5.33206 61.141 5.31866 61.1133C5.30525 61.0857 5.29747 61.0556 5.29577 61.0249C5.29406 60.9942 5.29846 60.9635 5.30872 60.9345C5.3297 60.8766 5.37282 60.8294 5.4286 60.8032C5.48438 60.7771 5.54826 60.7741 5.60621 60.7951L21.573 66.4985C21.631 66.5196 21.6786 66.5624 21.7055 66.618C21.7324 66.6735 21.7366 66.7374 21.7171 66.796C21.6998 66.8402 21.6698 66.8783 21.631 66.9056C21.5921 66.9329 21.5461 66.9481 21.4986 66.9494Z" fill="#D1D3D4"/>
<path d="M18.5062 61.8964C18.4801 61.9008 18.4534 61.9008 18.4272 61.8964L10.99 59.2282C10.9613 59.2191 10.9349 59.204 10.9125 59.184C10.8901 59.164 10.8721 59.1395 10.8598 59.112C10.8471 59.0835 10.8406 59.0526 10.8406 59.0214C10.8406 58.9902 10.8471 58.9593 10.8598 58.9308L11.3711 57.5037C11.4414 57.305 11.5502 57.122 11.6915 56.9655C11.8327 56.8089 12.0035 56.6818 12.194 56.5916C12.3845 56.5013 12.591 56.4495 12.8016 56.4394C13.0122 56.4292 13.2227 56.4607 13.421 56.5322L18.2971 58.2753C18.4958 58.3456 18.6788 58.4545 18.8353 58.5957C18.9919 58.7369 19.1189 58.9077 19.2092 59.0982C19.2995 59.2887 19.3512 59.4952 19.3614 59.7058C19.3716 59.9164 19.34 60.1269 19.2685 60.3252L18.7572 61.7523C18.7412 61.7977 18.7117 61.8371 18.6727 61.8654C18.6336 61.8936 18.5869 61.9093 18.5388 61.9103L18.5062 61.8964ZM11.3432 58.8564L18.3668 61.3664L18.7991 60.1579C18.8992 59.8724 18.8826 59.559 18.7529 59.2857C18.6232 59.0124 18.3909 58.8013 18.1065 58.6983L13.2351 56.9552C12.9496 56.8551 12.6362 56.8717 12.3629 57.0014C12.0896 57.1311 11.8785 57.3634 11.7755 57.6478L11.3432 58.8564Z" fill="#231F20"/>
<path d="M19.8858 53.0552C19.8858 53.0552 19.3698 54.4497 19.1142 55.4584C18.9472 56.4141 18.8833 57.3849 18.9236 58.3542C18.6494 58.0846 18.245 58.0475 17.9614 57.815C17.9717 58.233 17.9104 58.6496 17.7801 59.0468C17.7138 59.2453 17.5985 59.4239 17.445 59.566C17.2915 59.7082 17.1046 59.8094 16.9016 59.8603C16.6823 59.8912 16.459 59.8753 16.2462 59.8138C15.4653 59.6418 14.1684 59.3025 13.9221 58.4193C13.8578 58.0661 13.8949 57.7019 14.029 57.3688C14.4938 55.9743 16.7389 52.2185 17.1108 51.6143" fill="white"/>
<path d="M16.7107 60.1114C16.5366 60.1075 16.3636 60.0841 16.1947 60.0416C15.5347 59.8929 13.9914 59.5489 13.694 58.4659C13.6165 58.0698 13.6552 57.6598 13.8055 57.2852C14.3075 55.728 16.8827 51.5167 16.9106 51.4749C16.9432 51.4225 16.9954 51.3852 17.0555 51.3713C17.1157 51.3573 17.1789 51.3678 17.2313 51.4005C17.2837 51.4332 17.321 51.4853 17.3349 51.5454C17.3488 51.6056 17.3383 51.6688 17.3057 51.7212C16.641 52.7996 14.6515 56.165 14.2471 57.4247C14.1261 57.7187 14.0906 58.041 14.1448 58.3543C14.3401 59.0748 15.3999 59.3955 16.297 59.5954C16.4791 59.6503 16.6708 59.6661 16.8594 59.6419C17.0228 59.5963 17.1726 59.5115 17.2957 59.3948C17.4189 59.2782 17.5116 59.1332 17.566 58.9725C17.6816 58.5979 17.7366 58.2071 17.7286 57.8151C17.7303 57.7713 17.7442 57.7289 17.7689 57.6927C17.7936 57.6565 17.8279 57.6281 17.8681 57.6106C17.9076 57.5936 17.9509 57.5876 17.9935 57.5934C18.036 57.5991 18.0762 57.6163 18.1098 57.6431C18.2288 57.732 18.3604 57.8025 18.5003 57.8523L18.6769 57.9267C18.6749 57.084 18.7448 56.2427 18.8861 55.4119C19.1417 54.3893 19.6484 53.0413 19.667 52.9856C19.6773 52.9569 19.6933 52.9306 19.7139 52.9082C19.7346 52.8859 19.7595 52.8679 19.7872 52.8553C19.815 52.8427 19.845 52.8359 19.8754 52.8351C19.9058 52.8343 19.9361 52.8396 19.9645 52.8507C20.0224 52.8717 20.0696 52.9148 20.0958 52.9706C20.1219 53.0264 20.1248 53.0903 20.1039 53.1482C20.1039 53.1482 19.588 54.5427 19.337 55.5235C19.1799 56.4584 19.1191 57.407 19.1557 58.3543C19.1582 58.3845 19.1546 58.4149 19.145 58.4437C19.1354 58.4725 19.1201 58.499 19.0999 58.5216C19.0608 58.564 19.0076 58.5907 18.9503 58.5966C18.893 58.6026 18.8355 58.5875 18.7885 58.5542H18.7606C18.6312 58.4424 18.4812 58.3571 18.319 58.3032L18.1795 58.2427C18.1655 58.5599 18.1044 58.8732 17.9983 59.1724C17.9166 59.4068 17.7778 59.6171 17.5943 59.7843C17.4109 59.9515 17.1887 60.0703 16.9477 60.1299C16.8683 60.1329 16.7887 60.1267 16.7107 60.1114Z" fill="#231F20"/>
<path d="M36.7234 34.0347C36.3283 34.2531 22.0209 51.3541 20.0826 54.7892L15.4343 52.4976C15.4343 52.4976 20.2034 41.9646 31.2152 28.4428C35.975 25.3842 36.7234 34.0347 36.7234 34.0347Z" fill="#48A4FE"/>
<path d="M49.9276 47.2822C49.9276 47.2822 64.8021 53.4226 65.174 56.4904C65.5458 59.5583 60.2003 75.9714 60.2003 75.9714H52.4145C52.4145 75.9714 55.5335 62.7889 54.7061 62.1474C53.8787 61.5059 41.8304 58.3637 41.8304 58.3637L24.5574 92.984L17.3386 91.0364L29.889 49.2299L49.9276 47.2822Z" fill="#231F20"/>
<path d="M24.5578 93.2022H24.4974L17.2786 91.2685C17.2189 91.2501 17.1687 91.2094 17.1383 91.1548C17.108 91.1002 17.1 91.036 17.1159 90.9756L29.6663 49.1691C29.6803 49.1256 29.7067 49.0871 29.7422 49.0582C29.7776 49.0294 29.8207 49.0114 29.8661 49.0064L49.8862 47.0634C49.9229 47.0544 49.9612 47.0544 49.9978 47.0634C50.6114 47.3144 65.0164 53.2921 65.3836 56.4576C65.7415 59.5394 60.6191 75.3528 60.4006 76.0222C60.3871 76.0691 60.3583 76.1103 60.3187 76.1389C60.2791 76.1676 60.231 76.1821 60.1822 76.1802H52.4149C52.3803 76.1813 52.3459 76.1743 52.3144 76.1598C52.2829 76.1452 52.2553 76.1236 52.2336 76.0965C52.2122 76.0684 52.1973 76.0359 52.1901 76.0013C52.1828 75.9667 52.1834 75.931 52.1918 75.8967C53.6653 69.668 54.9529 62.8815 54.5531 62.2958C53.9953 61.8635 46.7812 59.8787 41.9517 58.619L24.753 93.0674C24.736 93.1056 24.7088 93.1384 24.6744 93.1622C24.6399 93.186 24.5996 93.1998 24.5578 93.2022ZM17.6273 90.878L24.437 92.7048L41.6356 58.2518C41.6594 58.2045 41.6986 58.1667 41.7468 58.1448C41.7949 58.1228 41.8492 58.1179 41.9005 58.131C43.1416 58.4563 54.0232 61.3011 54.8645 61.9518C55.7059 62.6026 53.6978 71.5784 52.7217 75.7293H60.0474C60.5959 74.028 65.2813 59.3442 64.9559 56.518C64.6817 54.1242 54.0511 49.2342 49.9048 47.5236L30.0986 49.448L17.6273 90.878Z" fill="#231F20"/>
<path d="M49.9285 47.2823L33.0273 50.4059L37.2108 25.4401C37.2108 25.4401 39.7627 23.6087 41.8312 23.618C44.2994 23.618 46.4051 25.5237 47.2325 25.9979C48.7617 26.8903 49.9285 47.2823 49.9285 47.2823Z" fill="white"/>
<path d="M33.0288 50.6568C32.966 50.6567 32.9058 50.6316 32.8615 50.5871C32.835 50.5608 32.8152 50.5284 32.8039 50.4928C32.7926 50.4572 32.79 50.4194 32.7964 50.3826L36.9798 25.4214C36.9847 25.3917 36.9955 25.3632 37.0114 25.3377C37.0274 25.3122 37.0482 25.2901 37.0728 25.2726C37.1797 25.1936 39.6944 23.4133 41.8094 23.4133C43.8593 23.4133 45.6442 24.673 46.7133 25.4167C46.955 25.5887 47.1781 25.7375 47.3222 25.8258C48.8701 26.7183 49.9253 43.8518 50.1112 47.2776C50.1144 47.3342 50.0968 47.39 50.0617 47.4345C50.0266 47.479 49.9764 47.5091 49.9206 47.5193L33.0195 50.6615L33.0288 50.6568ZM37.44 25.5934L33.3124 50.1362L49.6929 47.0916C49.228 39.2407 48.1589 26.8066 47.141 26.2209C46.969 26.1186 46.7505 25.9652 46.4948 25.7886C45.4769 25.0774 43.7663 23.8782 41.8466 23.8689C40.057 23.8689 37.877 25.3052 37.44 25.5934Z" fill="#231F20"/>
<path d="M40.0881 23.7339C39.8371 23.8966 40.553 27.5315 40.6134 27.8569C40.9946 30.9248 41.5152 34.0391 41.7894 37.0977C42.0544 40.04 40.9016 43.1776 40.3392 46.0642C39.6978 49.3721 38.6842 52.5968 37.3178 55.6768C36.8111 56.8156 36.2022 58.0009 35.147 58.647C34.3244 59.0964 33.4066 59.3433 32.4696 59.3675C30.8873 59.5008 29.2954 59.4712 27.7191 59.2792C27.1124 59.2319 26.522 59.0593 25.9853 58.7725C24.9069 58.1171 24.5164 56.6855 24.721 55.4397C25.0463 53.4921 26.32 51.6282 26.8964 49.7038C27.4747 47.6756 27.9035 45.6078 28.1793 43.5169C28.7975 39.2591 29.002 34.9595 29.5738 30.697C32.2326 25.4026 35.4492 25.6722 40.0881 23.7339Z" fill="#48A4FE"/>
<path d="M50.5625 25.4028C50.6648 25.4261 52.2963 31.6315 52.3289 32.0545C52.7379 36.8515 50.7578 41.0535 53.2027 45.6088C54.1324 47.3334 55.3177 48.9091 56.2474 50.6336C56.3762 50.8249 56.4353 51.0547 56.4147 51.2844C56.3673 51.4151 56.2938 51.5348 56.1987 51.6363C56.1036 51.7378 55.9889 51.8189 55.8616 51.8747C53.9418 53.0321 51.6502 54.1431 49.5492 53.3575C48.8986 53.0781 48.3122 52.6683 47.8262 52.1534C47.3401 51.6386 46.9647 51.0296 46.7231 50.364C46.2462 49.0327 45.9781 47.6357 45.9282 46.2224C45.4308 39.9287 46.0258 33.7093 45.4122 27.4481C45.4122 27.2854 44.9474 23.6458 44.873 23.6365C46.7144 24.39 48.6182 24.981 50.5625 25.4028Z" fill="#48A4FE"/>
<path d="M43.8208 26.3511L42.5379 27.6015L43.5791 28.3173C43.5791 28.3173 42.4821 36.4704 38.6287 37.6138C34.7753 38.7573 33.2832 38.3762 33.2832 38.3762L31.1589 41.1279C31.1589 41.1279 34.4592 42.0576 34.6963 42.1505C34.9333 42.2435 41.929 40.598 43.0306 36.2612C43.6874 33.7055 44.1182 31.0971 44.3182 28.466L45.0154 27.5922L43.8208 26.3511Z" fill="#231F20"/>
<path d="M39.2936 36.3496C39.2571 36.3494 39.2211 36.3404 39.1887 36.3235C39.1564 36.3065 39.1286 36.2819 39.1077 36.2519L35.8539 31.8268C35.8179 31.7847 35.7981 31.7311 35.7981 31.6757C35.7981 31.6203 35.8179 31.5668 35.8539 31.5247L37.8062 29.512L35.3705 28.8798C35.3318 28.8687 35.2966 28.848 35.2681 28.8195C35.2396 28.791 35.2189 28.7558 35.2078 28.7171C35.1969 28.6783 35.1964 28.6373 35.2062 28.5982C35.2159 28.559 35.2357 28.5231 35.2636 28.494L38.2617 25.3053C38.2828 25.283 38.308 25.2651 38.336 25.2525C38.364 25.24 38.3942 25.2331 38.4248 25.2323C38.4555 25.2314 38.486 25.2366 38.5146 25.2475C38.5433 25.2584 38.5695 25.2749 38.5917 25.296C38.614 25.317 38.6319 25.3423 38.6445 25.3703C38.657 25.3982 38.6639 25.4284 38.6647 25.4591C38.6656 25.4897 38.6604 25.5202 38.6495 25.5489C38.6386 25.5775 38.6221 25.6037 38.601 25.626L35.8865 28.5312L38.3268 29.168C38.366 29.1792 38.4017 29.1999 38.4309 29.2283C38.4602 29.2566 38.4819 29.2918 38.4941 29.3307C38.5044 29.3699 38.5042 29.4111 38.4936 29.4503C38.483 29.4894 38.4624 29.5251 38.4337 29.5538L36.3466 31.7152L39.4656 35.9963C39.5009 36.0466 39.5153 36.1086 39.5058 36.1693C39.4963 36.23 39.4635 36.2846 39.4145 36.3217C39.3777 36.3424 39.3358 36.3521 39.2936 36.3496Z" fill="#231F20"/>
<path d="M30.3027 51.8279C30.2573 51.828 30.2129 51.8149 30.1749 51.7901C30.1369 51.7653 30.107 51.73 30.0889 51.6884C30.0668 51.6309 30.0674 51.5671 30.0908 51.5101C30.1141 51.4531 30.1583 51.4071 30.2144 51.3816C32.148 50.5868 35.6575 49.0296 35.6947 49.0157C35.7227 49.0034 35.753 48.9967 35.7836 48.9961C35.8142 48.9956 35.8447 49.001 35.8732 49.0123C35.9017 49.0235 35.9277 49.0403 35.9498 49.0616C35.9718 49.0829 35.9893 49.1084 36.0015 49.1365C36.0137 49.1643 36.0203 49.1941 36.0208 49.2244C36.0213 49.2547 36.0158 49.2848 36.0045 49.313C35.9933 49.3411 35.9765 49.3667 35.9552 49.3883C35.934 49.4099 35.9086 49.427 35.8806 49.4387C35.8481 49.4387 32.3293 51.0144 30.391 51.8139C30.3625 51.8235 30.3327 51.8282 30.3027 51.8279Z" fill="#231F20"/>
<path d="M47.8337 34.9365C47.803 34.9426 47.7714 34.9426 47.7407 34.9365C47.6844 34.9102 47.6406 34.8628 47.6189 34.8045C47.5971 34.7463 47.5992 34.6818 47.6245 34.625L49.6279 30.1766L47.0993 28.8565C47.0714 28.8413 47.0467 28.8208 47.0268 28.796C47.0069 28.7713 46.992 28.7429 46.983 28.7124C46.9736 28.6813 46.9711 28.6485 46.976 28.6163C46.9808 28.5841 46.9927 28.5535 47.0109 28.5265L48.5588 26.0583L46.5043 25.6492C46.4745 25.6437 46.4462 25.6322 46.421 25.6156C46.3957 25.599 46.374 25.5775 46.3571 25.5524C46.3402 25.5273 46.3285 25.4991 46.3227 25.4695C46.3168 25.4398 46.3169 25.4092 46.323 25.3796C46.3354 25.319 46.371 25.2655 46.4222 25.2308C46.4735 25.196 46.5363 25.1827 46.5972 25.1937L48.9818 25.6585C49.0187 25.667 49.053 25.6841 49.0821 25.7083C49.1111 25.7325 49.1341 25.7632 49.1491 25.798C49.1663 25.831 49.1752 25.8677 49.1752 25.9049C49.1752 25.9421 49.1663 25.9787 49.1491 26.0118L47.5362 28.559L50.037 29.8652C50.0885 29.8938 50.1276 29.9406 50.1465 29.9965C50.1654 30.0524 50.1628 30.1133 50.1392 30.1673L48.0475 34.8156C48.0271 34.8541 47.9962 34.8859 47.9583 34.9073C47.9204 34.9287 47.8771 34.9389 47.8337 34.9365Z" fill="#231F20"/>
<path d="M40.7755 21.7956C39.639 22.1616 38.4293 22.2393 37.2552 22.0219C36.0812 21.8045 34.9796 21.2986 34.0495 20.5499C34.7302 20.1186 35.2837 19.5137 35.6531 18.7975C35.2845 19.042 34.852 19.1723 34.4097 19.1723C33.9674 19.1723 33.5349 19.042 33.1663 18.7975C32.4327 18.2987 31.8531 17.6048 31.4929 16.7941C33.2267 16.5524 34.6119 15.2276 35.6764 13.8239C36.7408 12.4201 37.6008 10.849 38.9302 9.72873C40.0428 8.84056 41.3931 8.30097 42.8114 8.17775C44.2297 8.05452 45.6528 8.35316 46.9019 9.03614C47.4737 9.36152 48.4731 9.96579 48.6962 10.6398C48.8867 11.2208 48.5102 11.602 48.5288 12.1737C48.5567 12.9267 48.9239 13.3033 48.7334 14.1213C48.5028 14.9274 48.1279 15.6849 47.6271 16.3572C47.0625 17.1118 46.441 17.8219 45.7678 18.4814C44.4149 19.9953 42.6959 21.1365 40.7755 21.7956Z" fill="white"/>
<path d="M38.563 22.3722C36.8757 22.3533 35.2418 21.7782 33.9148 20.736C33.8846 20.7134 33.8604 20.6839 33.8442 20.6499C33.828 20.6159 33.8203 20.5784 33.8218 20.5408C33.8217 20.5031 33.8315 20.4661 33.8502 20.4334C33.869 20.4008 33.8961 20.3737 33.9287 20.3549C34.3602 20.0817 34.7396 19.7339 35.0489 19.3276C34.3639 19.4793 33.6467 19.3576 33.0502 18.9883C32.2753 18.4695 31.6642 17.7407 31.2885 16.8872C31.2714 16.855 31.2625 16.8191 31.2625 16.7827C31.2625 16.7462 31.2714 16.7103 31.2885 16.6781C31.3048 16.6447 31.3289 16.6159 31.3589 16.594C31.3889 16.5721 31.4237 16.5579 31.4605 16.5526C32.8549 16.362 34.1704 15.4184 35.4766 13.6753C35.7601 13.2988 36.0297 12.9083 36.2993 12.5179C36.9883 11.4172 37.825 10.4162 38.7861 9.54297C39.9367 8.6262 41.3316 8.06817 42.7971 7.93841C44.2625 7.80864 45.7337 8.11287 47.0275 8.8132C47.7248 9.21295 48.687 9.82652 48.924 10.547C49.0224 10.8871 49.0044 11.2502 48.8729 11.5789C48.8067 11.7607 48.7721 11.9525 48.7706 12.146C48.7826 12.3893 48.8263 12.6299 48.9008 12.8618C49.0432 13.2778 49.0673 13.7252 48.9705 14.1541C48.7333 14.9894 48.3475 15.7751 47.8317 16.4735C47.3939 17.0807 46.9056 17.6498 46.3721 18.1748L45.9398 18.6396C44.5584 20.1959 42.7966 21.3668 40.8267 22.0375C40.0932 22.262 39.3301 22.3748 38.563 22.3722ZM34.454 20.5547C35.3379 21.2135 36.3668 21.6509 37.4545 21.8305C38.5422 22.01 39.6571 21.9264 40.7059 21.5866C42.5901 20.9411 44.276 19.8204 45.6005 18.3329L46.0374 17.868C46.5468 17.3605 47.0132 16.8117 47.4319 16.2272C47.9172 15.5773 48.281 14.8451 48.5057 14.0657C48.5835 13.7115 48.5593 13.3424 48.436 13.0013C48.3552 12.7354 48.3068 12.4607 48.2919 12.1832C48.2921 11.938 48.333 11.6946 48.4127 11.4627C48.5164 11.227 48.5361 10.9628 48.4685 10.7143C48.329 10.2913 47.762 9.78468 46.7812 9.23619C45.5707 8.58019 44.1939 8.29516 42.8225 8.41667C41.4511 8.53819 40.1459 9.06087 39.0697 9.91949C38.1425 10.7675 37.3341 11.7369 36.6665 12.8014C36.3923 13.1965 36.118 13.5916 35.8345 13.9728C34.5469 15.688 33.2361 16.6781 31.8323 16.9756C32.1585 17.6395 32.6559 18.2043 33.2733 18.6117C33.6037 18.8297 33.9908 18.9458 34.3866 18.9458C34.7823 18.9458 35.1694 18.8297 35.4998 18.6117C35.5418 18.5786 35.5939 18.5609 35.6474 18.5616C35.7009 18.5624 35.7525 18.5817 35.7935 18.6161C35.8345 18.6505 35.8623 18.698 35.8723 18.7506C35.8823 18.8031 35.8739 18.8575 35.8484 18.9046C35.5162 19.5543 35.0391 20.1188 34.454 20.5547Z" fill="#231F20"/>
<path d="M48.3769 16.7476C48.3769 16.7476 49.6877 19.2158 49.3066 19.662C48.9254 20.1083 47.9121 19.6946 47.9121 19.6946" fill="white"/>
<path d="M48.7621 20.1038C48.443 20.0952 48.1281 20.029 47.8325 19.9086C47.7814 19.8815 47.7423 19.8364 47.7227 19.782C47.7032 19.7277 47.7045 19.6679 47.7266 19.6145C47.7486 19.5611 47.7898 19.5179 47.842 19.4932C47.8943 19.4685 47.9538 19.4641 48.0091 19.4809C48.2927 19.5925 48.9388 19.7552 49.1293 19.5181C49.2502 19.3043 48.7947 18.0632 48.1579 16.8593C48.1431 16.8325 48.1339 16.803 48.1306 16.7725C48.1273 16.7421 48.13 16.7113 48.1387 16.682C48.1473 16.6526 48.1616 16.6252 48.1809 16.6014C48.2001 16.5776 48.2239 16.5578 48.2508 16.5432C48.2779 16.5287 48.3077 16.5197 48.3383 16.5167C48.3689 16.5137 48.3999 16.5169 48.4293 16.526C48.4587 16.5351 48.486 16.5499 48.5096 16.5696C48.5332 16.5893 48.5527 16.6135 48.5669 16.6408C49.0829 17.6123 49.8917 19.3136 49.4966 19.811C49.4046 19.9126 49.2907 19.9919 49.1633 20.0427C49.036 20.0934 48.8988 20.1143 48.7621 20.1038Z" fill="#231F20"/>
<path d="M48.3916 11.5975C49.2887 12.49 48.796 16.1993 48.6844 17.2916C48.5264 18.8302 48.3312 20.3688 48.0988 21.8981C47.9547 22.8695 45.426 22.6464 45.0076 22.3118L45.0309 26.207C45.0309 26.207 43.7898 26.4208 41.8375 25.2774C39.8853 24.1339 39.9317 23.6598 39.9317 23.6598L40.5267 19.2253C40.5267 19.2253 42.1954 19.3973 43.3715 17.5008C44.5475 15.6043 44.8031 12.5457 44.8031 12.5457C44.8031 12.5457 47.5131 10.7283 48.3916 11.5975Z" fill="white"/>
<path d="M44.7552 26.4533C43.6754 26.4029 42.6282 26.0677 41.7199 25.4818C39.8605 24.3894 39.6746 23.8316 39.6839 23.6457L40.2789 19.1927C40.2881 19.1331 40.3197 19.0792 40.3672 19.0421C40.4146 19.005 40.4745 18.9873 40.5345 18.9928C40.595 18.9928 42.0778 19.1183 43.1608 17.3798C44.295 15.5531 44.5553 12.5549 44.5553 12.527C44.5598 12.4923 44.5712 12.4588 44.5887 12.4285C44.6063 12.3982 44.6297 12.3716 44.6576 12.3504C44.955 12.1552 47.5674 10.4586 48.5528 11.4207C49.3523 12.2156 49.2036 14.6745 48.9479 16.9987L48.9154 17.2915C48.7527 18.8347 48.5575 20.3873 48.3297 21.9072C48.2962 22.0765 48.2163 22.2331 48.0989 22.3595C47.9815 22.4859 47.8313 22.5772 47.665 22.6231C46.8722 22.8506 46.0314 22.8506 45.2386 22.6231L45.2618 26.1604C45.2637 26.2157 45.2454 26.2697 45.2103 26.3125C45.1752 26.3553 45.1258 26.3838 45.0713 26.3928C44.9678 26.4221 44.8621 26.4423 44.7552 26.4533ZM40.1534 23.6643C40.1859 23.748 40.4369 24.2081 41.9569 25.096C42.805 25.6509 43.7849 25.9717 44.797 26.0256L44.7738 22.3488C44.7737 22.3053 44.7858 22.2626 44.8088 22.2256C44.8319 22.1886 44.8648 22.1588 44.9039 22.1397C44.9436 22.1211 44.9875 22.1139 45.031 22.1188C45.0745 22.1237 45.1158 22.1406 45.1503 22.1675C45.9031 22.4483 46.7267 22.4777 47.4976 22.2512C47.7208 22.1629 47.8463 22.0467 47.8695 21.8979C48.0973 20.3826 48.2925 18.8394 48.4505 17.3055L48.4831 17.008C48.6179 15.7901 48.9758 12.5456 48.2228 11.8019C47.7022 11.2813 46.0148 12.0669 45.0108 12.7316C44.9504 13.3126 44.6343 15.9389 43.5559 17.6773C43.2742 18.1964 42.8665 18.6362 42.3701 18.9563C41.8738 19.2763 41.3049 19.4663 40.7158 19.5087L40.1534 23.6643Z" fill="#231F20"/>
<path d="M48.1722 20.7452C47.7401 20.7905 47.306 20.6794 46.9487 20.4321C46.5914 20.1848 46.3345 19.8176 46.2246 19.3972" fill="white"/>
<path d="M48.0143 20.9868C47.5593 20.9909 47.1158 20.8445 46.7527 20.5705C46.3895 20.2964 46.1271 19.9101 46.0062 19.4715C45.9868 19.4129 45.9909 19.349 46.0179 19.2935C46.0448 19.2379 46.0923 19.1951 46.1503 19.174C46.2083 19.1547 46.2715 19.159 46.3263 19.186C46.3811 19.213 46.423 19.2604 46.4431 19.3181C46.5351 19.6879 46.7572 20.0122 47.0688 20.2316C47.3804 20.451 47.7606 20.5508 48.1398 20.5127C48.2008 20.5048 48.2624 20.5214 48.3112 20.5588C48.36 20.5963 48.392 20.6516 48.4001 20.7126C48.4047 20.7422 48.4034 20.7724 48.3963 20.8015C48.3893 20.8307 48.3765 20.8581 48.3588 20.8823C48.3411 20.9065 48.3188 20.9269 48.2932 20.9425C48.2675 20.958 48.2391 20.9683 48.2095 20.9729C48.1448 20.9824 48.0796 20.987 48.0143 20.9868Z" fill="#231F20"/>
<path d="M45.3286 17.4542C45.3255 17.0631 45.211 16.681 44.9986 16.3526C44.873 16.0794 44.7086 15.8258 44.5105 15.5996C44.4085 15.4883 44.283 15.4009 44.1432 15.3439C44.0033 15.2868 43.8526 15.2614 43.7017 15.2695C43.5696 15.2885 43.4431 15.3356 43.3308 15.4078C43.2185 15.48 43.1231 15.5755 43.051 15.6879C42.9089 15.9149 42.8184 16.1704 42.786 16.4363C42.7051 17.0127 42.7777 17.6003 42.9964 18.1398C43.2151 18.6792 43.5723 19.1514 44.0318 19.5088L43.9527 19.4112" fill="white"/>
<path d="M44.0302 19.7272C43.9793 19.7266 43.93 19.7085 43.8908 19.676C43.3998 19.2912 43.0183 18.7844 42.7843 18.2061C42.5502 17.6279 42.4717 16.9984 42.5567 16.3804C42.5933 16.0824 42.6966 15.7964 42.8588 15.5437C42.9501 15.4036 43.0704 15.2846 43.2115 15.1948C43.3526 15.105 43.5113 15.0465 43.6769 15.0231C43.8622 15.0105 44.0478 15.0399 44.2201 15.1091C44.3923 15.1783 44.5467 15.2856 44.6717 15.4229C44.8883 15.665 45.0684 15.9375 45.2062 16.2317C45.4362 16.5997 45.5586 17.0248 45.5595 17.4588C45.5567 17.4893 45.548 17.519 45.5338 17.5462C45.5196 17.5733 45.5002 17.5974 45.4766 17.617C45.4531 17.6367 45.4259 17.6515 45.3967 17.6606C45.3674 17.6698 45.3367 17.6731 45.3062 17.6703C45.2756 17.6676 45.246 17.6588 45.2188 17.6446C45.1917 17.6304 45.1676 17.611 45.1479 17.5874C45.1283 17.5639 45.1135 17.5368 45.1044 17.5075C45.0952 17.4783 45.0919 17.4475 45.0947 17.417C45.0862 17.0714 44.9816 16.7349 44.7925 16.4455C44.6728 16.1929 44.5161 15.9595 44.3277 15.7529C44.2518 15.6656 44.1573 15.5964 44.0511 15.5505C43.9449 15.5047 43.8297 15.4833 43.7141 15.4879C43.6185 15.5058 43.5276 15.5435 43.4475 15.5988C43.3675 15.654 43.2999 15.7256 43.2493 15.8087C43.1248 16.0037 43.0468 16.2248 43.0215 16.4548C42.9518 16.9529 43.0047 17.4605 43.1756 17.9336C43.3465 18.4066 43.6303 18.8308 44.0023 19.1694C44.0582 19.1803 44.108 19.2119 44.1418 19.2577L44.2208 19.3553C44.255 19.4005 44.2715 19.4566 44.2672 19.5131C44.2629 19.5696 44.2381 19.6226 44.1975 19.6621C44.1759 19.6842 44.1497 19.7014 44.1209 19.7126C44.092 19.7238 44.0611 19.7288 44.0302 19.7272Z" fill="#231F20"/>
<path d="M45.0074 22.3117C44.2788 21.9985 43.6559 21.4821 43.2131 20.8242C43.2131 20.8242 43.0737 23.1762 45.0167 24.0455L45.0074 22.3117Z" fill="#231F20"/>
<path d="M45.0165 24.2778C44.9859 24.2848 44.9542 24.2848 44.9236 24.2778C42.8551 23.3481 42.9713 20.931 42.9806 20.8288C42.9839 20.7792 43.003 20.732 43.0351 20.6941C43.0672 20.6561 43.1106 20.6295 43.159 20.6181C43.2073 20.6066 43.2581 20.611 43.3038 20.6305C43.3495 20.65 43.3877 20.6837 43.4129 20.7265C43.8309 21.3408 44.4143 21.8243 45.0955 22.121C45.138 22.1384 45.1743 22.168 45.2 22.2061C45.2256 22.2441 45.2394 22.2889 45.2396 22.3348V24.0686C45.2405 24.1077 45.231 24.1462 45.2123 24.1805C45.1935 24.2148 45.1661 24.2435 45.1327 24.2638C45.0958 24.2783 45.0558 24.2831 45.0165 24.2778ZM43.4965 21.5864C43.5493 22.0062 43.6916 22.4097 43.9137 22.7698C44.1358 23.1298 44.4327 23.438 44.7841 23.6735V22.4743C44.3109 22.2479 43.8763 21.9483 43.4965 21.5864Z" fill="#231F20"/>
<path d="M47.8138 15.6548C47.8933 15.3598 47.8633 15.0952 47.7468 15.0638C47.6303 15.0324 47.4714 15.2461 47.392 15.5411C47.3125 15.8361 47.3425 16.1006 47.459 16.132C47.5755 16.1634 47.7344 15.9497 47.8138 15.6548Z" fill="#231F20"/>
<path d="M48.1083 15.4414C48.0675 15.4399 48.0277 15.4288 47.9921 15.4088L46.9648 14.8092C46.9352 14.7958 46.9087 14.7763 46.8871 14.7521C46.8654 14.7278 46.8491 14.6992 46.8392 14.6683C46.8293 14.6373 46.826 14.6046 46.8295 14.5723C46.833 14.5399 46.8433 14.5087 46.8596 14.4806C46.876 14.4525 46.898 14.4281 46.9244 14.4091C46.9507 14.39 46.9808 14.3767 47.0126 14.37C47.0444 14.3633 47.0773 14.3633 47.1091 14.3701C47.1409 14.3769 47.1709 14.3903 47.1972 14.4094L48.2245 15.0044C48.2776 15.0363 48.3161 15.0878 48.3317 15.1477C48.3473 15.2077 48.3389 15.2714 48.3082 15.3252C48.2879 15.3603 48.2588 15.3895 48.2237 15.4099C48.1886 15.4303 48.1489 15.4411 48.1083 15.4414Z" fill="#231F20"/>
<path d="M26.0767 46.1154C26.0484 46.1159 26.0203 46.1109 25.994 46.1005C25.9676 46.0902 25.9436 46.0747 25.9233 46.0549C25.9001 46.0353 25.881 46.0113 25.8673 45.9842C25.8535 45.9571 25.8453 45.9275 25.8431 45.8971C25.8409 45.8668 25.8449 45.8364 25.8547 45.8076C25.8644 45.7788 25.8799 45.7523 25.9001 45.7296L33.5651 37.0698C33.5863 37.0482 33.6116 37.031 33.6396 37.0192C33.6675 37.0075 33.6975 37.0015 33.7278 37.0015C33.7581 37.0015 33.7881 37.0075 33.816 37.0192C33.844 37.031 33.8693 37.0482 33.8905 37.0698C33.9334 37.1141 33.9573 37.1732 33.9573 37.2348C33.9573 37.2964 33.9334 37.3556 33.8905 37.3999L26.2487 46.0363C26.227 46.0606 26.2005 46.0802 26.171 46.0938C26.1414 46.1074 26.1093 46.1147 26.0767 46.1154Z" fill="#231F20"/>
<path d="M109.214 31.5711C97.5698 27.6293 98.5924 15.5764 98.6064 15.4555L98.704 14.4236H105.802V16.7012H100.847C100.893 19.4112 101.8 26.6439 109.948 29.4096L109.214 31.5711Z" fill="white"/>
<path d="M109.215 31.8128C109.19 31.8176 109.165 31.8176 109.14 31.8128C97.315 27.7688 98.3608 15.5438 98.3748 15.4323L98.4724 14.4003C98.4782 14.3428 98.5052 14.2895 98.5482 14.2508C98.5911 14.2121 98.647 14.1909 98.7048 14.1912H105.803C105.864 14.1912 105.923 14.2157 105.967 14.2592C106.011 14.3028 106.035 14.3619 106.035 14.4236V16.7012C106.035 16.7629 106.011 16.822 105.967 16.8656C105.923 16.9092 105.864 16.9336 105.803 16.9336H101.085C101.182 19.9225 102.303 26.5695 110.023 29.1911C110.082 29.2109 110.13 29.2526 110.158 29.3073C110.179 29.366 110.179 29.43 110.158 29.4886L109.424 31.6454C109.411 31.6918 109.384 31.733 109.346 31.7631C109.309 31.7932 109.263 31.8105 109.215 31.8128ZM98.914 14.656L98.835 15.4787C98.835 15.5949 97.8495 27.3086 109.061 31.2829L109.642 29.563C101.647 26.6997 100.662 19.6389 100.615 16.7059C100.616 16.644 100.639 16.5844 100.68 16.5385C100.725 16.4949 100.785 16.4699 100.848 16.4688H105.57V14.656H98.914Z" fill="#231F20"/>
<path d="M125.459 31.5711L124.725 29.4096C132.868 26.6206 133.779 19.4158 133.826 16.7012H128.876V14.4236H135.973L136.071 15.4555C136.085 15.5764 137.08 27.6293 125.459 31.5711Z" fill="white"/>
<path d="M125.459 31.8127C125.425 31.8198 125.391 31.8198 125.357 31.8127C125.302 31.7846 125.26 31.7363 125.241 31.6779L124.529 29.4886C124.51 29.4307 124.514 29.3674 124.541 29.3126C124.568 29.2578 124.616 29.2159 124.674 29.1958C132.39 26.5741 133.505 19.9271 133.612 16.9383H128.876C128.814 16.9383 128.755 16.9138 128.711 16.8702C128.668 16.8266 128.643 16.7675 128.643 16.7059V14.4282C128.643 14.3666 128.668 14.3075 128.711 14.2639C128.755 14.2203 128.814 14.1958 128.876 14.1958H135.973C136.031 14.1965 136.086 14.2182 136.129 14.2566C136.172 14.2951 136.199 14.3478 136.206 14.405L136.304 15.4369C136.304 15.5624 137.322 27.792 125.538 31.7942C125.513 31.8055 125.486 31.8118 125.459 31.8127ZM125.018 29.563L125.603 31.2828C136.801 27.3225 135.829 15.6042 135.829 15.4787L135.755 14.6606H129.108V16.4735H133.826C133.888 16.4755 133.948 16.5003 133.993 16.5432C134.035 16.589 134.058 16.6486 134.058 16.7105C134.012 19.6389 133.031 26.6996 125.022 29.5537L125.018 29.563Z" fill="#231F20"/>
<path d="M129.391 12.29L105.289 12.0762C105.289 12.0762 105.076 22.4186 107.711 28.9773C109.905 34.4344 112.559 36.5819 114.814 37.4557C115.159 38.3062 115.317 39.2208 115.278 40.1378C115.122 41.7168 114.687 43.2558 113.996 44.6838H120.68C120.68 44.6838 119.285 42.3875 119.341 40.1936C119.377 39.2715 119.516 38.3564 119.755 37.465C122.307 36.2379 125.486 33.1189 127.192 28.6333C129.46 22.5534 129.391 12.29 129.391 12.29Z" fill="white"/>
<path d="M120.68 44.907H113.996C113.957 44.9068 113.918 44.897 113.883 44.8784C113.848 44.8598 113.818 44.8329 113.796 44.8001C113.777 44.7653 113.766 44.7261 113.766 44.6862C113.766 44.6463 113.777 44.6071 113.796 44.5723C114.474 43.1734 114.901 41.666 115.056 40.1192C115.095 39.2689 114.954 38.4199 114.642 37.6278C111.723 36.4518 109.32 33.5698 107.507 29.0564C104.881 22.5488 105.062 12.1692 105.067 12.0623C105.067 12.032 105.073 12.002 105.084 11.974C105.096 11.9461 105.113 11.9208 105.135 11.8996C105.157 11.8784 105.182 11.8617 105.211 11.8505C105.239 11.8393 105.269 11.8339 105.299 11.8345L129.405 12.0483C129.466 12.0507 129.523 12.0761 129.565 12.1193C129.607 12.1625 129.632 12.2203 129.633 12.2808C129.633 12.383 129.679 22.665 127.406 28.6938C125.621 33.4443 122.293 36.4518 119.969 37.6185C119.747 38.4584 119.619 39.3206 119.588 40.189C119.537 42.29 120.88 44.5351 120.894 44.5583C120.916 44.5933 120.928 44.6336 120.929 44.6748C120.93 44.7161 120.919 44.7568 120.899 44.7926C120.878 44.8284 120.848 44.8579 120.812 44.8781C120.776 44.8982 120.735 44.9082 120.694 44.907H120.68ZM114.359 44.4421H120.285C119.895 43.7031 119.067 41.9274 119.109 40.1797C119.144 39.237 119.286 38.3013 119.532 37.3907C119.54 37.3584 119.554 37.3282 119.575 37.3024C119.596 37.2766 119.623 37.2559 119.653 37.242C121.921 36.1496 125.198 33.2119 126.965 28.5265C129.015 23.074 129.149 14.0564 129.159 12.5085L105.518 12.2901C105.518 13.8472 105.555 22.9811 107.93 28.8704C109.71 33.3049 112.058 36.1171 114.902 37.2373C114.932 37.2492 114.958 37.2669 114.981 37.2892C115.003 37.3116 115.021 37.3382 115.033 37.3675C115.39 38.2518 115.549 39.2039 115.497 40.1564C115.366 41.6397 114.981 43.0894 114.359 44.4421Z" fill="#231F20"/>
<path d="M109.274 44.4609H125.404C125.697 44.4609 125.979 44.5775 126.186 44.785C126.393 44.9924 126.51 45.2738 126.51 45.5672V49.588H108.168V45.5672C108.168 45.2738 108.285 44.9924 108.492 44.785C108.699 44.5775 108.981 44.4609 109.274 44.4609Z" fill="white"/>
<path d="M126.51 49.825H108.168C108.106 49.825 108.047 49.8005 108.004 49.757C107.96 49.7134 107.936 49.6543 107.936 49.5926V45.5672C107.937 45.2125 108.078 44.8728 108.329 44.622C108.58 44.3712 108.92 44.2297 109.274 44.2285H125.404C125.758 44.2297 126.098 44.3712 126.349 44.622C126.6 44.8728 126.741 45.2125 126.742 45.5672V49.5926C126.742 49.6543 126.718 49.7134 126.674 49.757C126.631 49.8005 126.572 49.825 126.51 49.825ZM108.382 49.3602H126.259V45.5672C126.259 45.3354 126.167 45.1132 126.003 44.9493C125.839 44.7854 125.617 44.6933 125.385 44.6933H109.256C109.024 44.6933 108.802 44.7854 108.638 44.9493C108.474 45.1132 108.382 45.3354 108.382 45.5672V49.3602Z" fill="#231F20"/>
<path d="M128.341 49.3042H106.337C105.841 49.3042 105.439 49.7058 105.439 50.2013V50.8939C105.439 51.3894 105.841 51.791 106.337 51.791H128.341C128.837 51.791 129.239 51.3894 129.239 50.8939V50.2013C129.239 49.7058 128.837 49.3042 128.341 49.3042Z" fill="white"/>
<path d="M128.341 52.0234H106.337C106.188 52.0234 106.041 51.9941 105.903 51.937C105.766 51.88 105.641 51.7963 105.536 51.691C105.431 51.5856 105.348 51.4605 105.292 51.3229C105.235 51.1854 105.206 51.038 105.207 50.8892V50.2013C105.207 49.9017 105.326 49.6144 105.538 49.4026C105.75 49.1908 106.037 49.0718 106.337 49.0718H128.341C128.641 49.0718 128.928 49.1908 129.14 49.4026C129.352 49.6144 129.471 49.9017 129.471 50.2013V50.8707C129.474 51.0209 129.447 51.1703 129.392 51.31C129.336 51.4498 129.254 51.5771 129.149 51.6844C129.043 51.7918 128.918 51.8771 128.779 51.9353C128.641 51.9935 128.492 52.0235 128.341 52.0234ZM106.337 49.5366C106.16 49.5366 105.991 49.6066 105.867 49.7313C105.742 49.8559 105.672 50.025 105.672 50.2013V50.8707C105.672 51.0474 105.742 51.2169 105.866 51.3423C105.991 51.4677 106.16 51.5388 106.337 51.54H128.341C128.518 51.5388 128.687 51.4677 128.812 51.3423C128.936 51.2169 129.006 51.0474 129.006 50.8707V50.1827C129.006 50.0064 128.936 49.8374 128.811 49.7127C128.687 49.588 128.518 49.518 128.341 49.518L106.337 49.5366Z" fill="#231F20"/>
<path d="M31.2063 99.8866H0.481193C0.419553 99.8866 0.360437 99.8622 0.316851 99.8186C0.273265 99.775 0.248779 99.7159 0.248779 99.6542C0.248779 99.5926 0.273265 99.5335 0.316851 99.4899C0.360437 99.4463 0.419553 99.4218 0.481193 99.4218H30.9739V91.3106C30.9739 91.2489 30.9983 91.1898 31.0419 91.1462C31.0855 91.1027 31.1446 91.0782 31.2063 91.0782H51.7051V80.5127C51.7051 80.451 51.7296 80.3919 51.7732 80.3483C51.8168 80.3047 51.8759 80.2802 51.9375 80.2802H75.0906V63.9369C75.0906 63.8753 75.1151 63.8162 75.1587 63.7726C75.2022 63.729 75.2614 63.7045 75.323 63.7045H94.6459V51.8003C94.6459 51.7386 94.6703 51.6795 94.7139 51.6359C94.7575 51.5924 94.8166 51.5679 94.8783 51.5679H140.738C140.8 51.5679 140.859 51.5924 140.902 51.6359C140.946 51.6795 140.971 51.7386 140.971 51.8003C140.971 51.8619 140.946 51.921 140.902 51.9646C140.859 52.0082 140.8 52.0327 140.738 52.0327H95.1107V63.9462C95.1107 64.0079 95.0862 64.067 95.0426 64.1106C94.999 64.1541 94.9399 64.1786 94.8783 64.1786H75.5554V80.5219C75.5554 80.5836 75.5309 80.6427 75.4873 80.6863C75.4438 80.7299 75.3846 80.7544 75.323 80.7544H52.17V91.3106C52.1688 91.3718 52.1439 91.4303 52.1006 91.4736C52.0572 91.5169 51.9988 91.5418 51.9375 91.543H31.4387V99.6775C31.4329 99.735 31.4059 99.7883 31.3629 99.827C31.3199 99.8657 31.2641 99.8869 31.2063 99.8866Z" fill="#231F20"/>
<path d="M51.4593 41.1094H51.4082C51.3483 41.095 51.2963 41.0578 51.2634 41.0058C51.2304 40.9537 51.219 40.8908 51.2316 40.8305C51.2316 40.7561 52.9049 33.4769 51.8079 28.8891C51.8009 28.8586 51.8 28.827 51.8052 28.7961C51.8104 28.7652 51.8216 28.7357 51.8382 28.7091C51.8548 28.6826 51.8765 28.6596 51.902 28.6414C51.9275 28.6232 51.9564 28.6103 51.9869 28.6032C52.0174 28.5962 52.049 28.5953 52.0799 28.6005C52.1108 28.6057 52.1404 28.6169 52.1669 28.6335C52.1934 28.6501 52.2165 28.6718 52.2346 28.6973C52.2528 28.7228 52.2658 28.7517 52.2728 28.7822C53.393 33.4769 51.7708 40.6306 51.701 40.9328C51.6872 40.9855 51.6556 41.0319 51.6116 41.0641C51.5676 41.0962 51.5138 41.1123 51.4593 41.1094Z" fill="#231F20"/>
<path d="M71.455 38.1531C71.404 38.1513 71.3549 38.1328 71.3154 38.1004C71.2759 38.068 71.2482 38.0235 71.2366 37.9737C71.2249 37.924 71.23 37.8718 71.251 37.8253C71.272 37.7787 71.3078 37.7403 71.3527 37.7161C71.5066 37.6131 71.6339 37.4752 71.7244 37.3136C71.8148 37.1521 71.8659 36.9715 71.8733 36.7865C71.7981 36.53 71.7981 36.2574 71.8733 36.0009C71.8899 35.9512 71.9228 35.9085 71.9667 35.8798C72.0106 35.8511 72.0628 35.8381 72.1151 35.8429C72.1675 35.8494 72.2163 35.873 72.2541 35.9099C72.2919 35.9468 72.3165 35.9951 72.3242 36.0474C72.3445 36.2716 72.3445 36.4972 72.3242 36.7214L72.3568 36.7725C72.429 36.8516 72.5188 36.9125 72.6189 36.9504C72.719 36.9884 72.8267 37.0023 72.9331 36.991C72.976 36.9989 73.0203 36.9944 73.0607 36.9779C73.101 36.9614 73.1358 36.9337 73.1609 36.898C73.398 36.5448 73.0447 35.3548 72.6961 34.6297C72.6708 34.573 72.6691 34.5085 72.6913 34.4506C72.7136 34.3926 72.7579 34.3458 72.8146 34.3206C72.8713 34.2953 72.9358 34.2936 72.9937 34.3158C73.0517 34.338 73.0985 34.3824 73.1237 34.4391C73.2725 34.7691 73.9883 36.4611 73.5328 37.1537C73.4635 37.2543 73.3692 37.3351 73.2591 37.3881C73.1491 37.4411 73.0271 37.4644 72.9053 37.4558C72.6592 37.4599 72.4167 37.3973 72.2034 37.2745C72.1559 37.46 72.0707 37.6338 71.9532 37.7849C71.8356 37.9361 71.6882 38.0614 71.5201 38.1531C71.4985 38.1562 71.4766 38.1562 71.455 38.1531Z" fill="#231F20"/>
<path d="M117.5 16L119.816 20.6096L125 21.3455L121.25 24.9322L122.137 30L117.5 27.6073L112.863 30L113.75 24.9322L110 21.3455L115.184 20.6096L117.5 16Z" fill="#48A4FE"/>
<path d="M134.69 48.8623H124.938C124.699 48.8623 124.506 49.0559 124.506 49.2946V51.0145C124.506 51.2532 124.699 51.4467 124.938 51.4467H134.69C134.929 51.4467 135.123 51.2532 135.123 51.0145V49.2946C135.123 49.0559 134.929 48.8623 134.69 48.8623Z" fill="white"/>
<path d="M134.69 51.6796H124.928C124.752 51.6796 124.583 51.6096 124.458 51.485C124.334 51.3603 124.264 51.1912 124.264 51.0149V49.2904C124.265 49.1149 124.335 48.9471 124.46 48.8234C124.585 48.6998 124.753 48.6304 124.928 48.6304H134.69C134.865 48.6304 135.034 48.6998 135.158 48.8234C135.283 48.9471 135.353 49.1149 135.354 49.2904V51.0149C135.354 51.1912 135.284 51.3603 135.16 51.485C135.035 51.6096 134.866 51.6796 134.69 51.6796ZM124.928 49.0952C124.902 49.0946 124.876 49.0992 124.852 49.1087C124.828 49.1182 124.806 49.1325 124.787 49.1507C124.769 49.1689 124.754 49.1906 124.744 49.2146C124.734 49.2386 124.728 49.2644 124.728 49.2904V51.0149C124.728 51.0412 124.734 51.0672 124.744 51.0914C124.754 51.1157 124.768 51.1377 124.787 51.1563C124.806 51.1748 124.828 51.1896 124.852 51.1996C124.876 51.2096 124.902 51.2148 124.928 51.2148H134.69C134.716 51.2148 134.742 51.2096 134.766 51.1996C134.79 51.1896 134.813 51.1748 134.831 51.1563C134.85 51.1377 134.864 51.1157 134.874 51.0914C134.884 51.0672 134.89 51.0412 134.89 51.0149V49.2904C134.89 49.2644 134.884 49.2386 134.874 49.2146C134.864 49.1906 134.849 49.1689 134.831 49.1507C134.812 49.1325 134.79 49.1182 134.766 49.1087C134.742 49.0992 134.716 49.0946 134.69 49.0952H124.928Z" fill="#231F20"/>
<path d="M125.566 51.2102C125.505 51.2102 125.446 51.1857 125.402 51.1421C125.358 51.0985 125.334 51.0394 125.334 50.9777V49.3369C125.334 49.2753 125.358 49.2162 125.402 49.1726C125.446 49.129 125.505 49.1045 125.566 49.1045C125.628 49.1045 125.687 49.129 125.731 49.1726C125.774 49.2162 125.799 49.2753 125.799 49.3369V50.9777C125.799 51.0394 125.774 51.0985 125.731 51.1421C125.687 51.1857 125.628 51.2102 125.566 51.2102Z" fill="#D1D3D4"/>
<path d="M126.779 51.2102C126.718 51.2102 126.659 51.1857 126.615 51.1421C126.571 51.0985 126.547 51.0394 126.547 50.9777V49.3369C126.547 49.2753 126.571 49.2162 126.615 49.1726C126.659 49.129 126.718 49.1045 126.779 49.1045C126.841 49.1045 126.9 49.129 126.944 49.1726C126.987 49.2162 127.012 49.2753 127.012 49.3369V50.9777C127.012 51.0394 126.987 51.0985 126.944 51.1421C126.9 51.1857 126.841 51.2102 126.779 51.2102Z" fill="#D1D3D4"/>
<path d="M127.992 51.2102C127.931 51.2102 127.871 51.1857 127.828 51.1421C127.784 51.0985 127.76 51.0394 127.76 50.9777V49.3369C127.76 49.2753 127.784 49.2162 127.828 49.1726C127.871 49.129 127.931 49.1045 127.992 49.1045C128.054 49.1045 128.113 49.129 128.157 49.1726C128.2 49.2162 128.225 49.2753 128.225 49.3369V50.9777C128.225 51.0394 128.2 51.0985 128.157 51.1421C128.113 51.1857 128.054 51.2102 127.992 51.2102Z" fill="#D1D3D4"/>
<path d="M129.207 51.2102C129.145 51.2102 129.086 51.1857 129.043 51.1421C128.999 51.0985 128.975 51.0394 128.975 50.9777V49.3369C128.975 49.2753 128.999 49.2162 129.043 49.1726C129.086 49.129 129.145 49.1045 129.207 49.1045C129.269 49.1045 129.328 49.129 129.371 49.1726C129.415 49.2162 129.439 49.2753 129.439 49.3369V50.9777C129.439 51.0394 129.415 51.0985 129.371 51.1421C129.328 51.1857 129.269 51.2102 129.207 51.2102Z" fill="#D1D3D4"/>
<path d="M130.418 51.2102C130.356 51.2102 130.297 51.1857 130.254 51.1421C130.21 51.0985 130.186 51.0394 130.186 50.9777V49.3369C130.186 49.2753 130.21 49.2162 130.254 49.1726C130.297 49.129 130.356 49.1045 130.418 49.1045C130.48 49.1045 130.539 49.129 130.582 49.1726C130.626 49.2162 130.65 49.2753 130.65 49.3369V50.9777C130.65 51.0394 130.626 51.0985 130.582 51.1421C130.539 51.1857 130.48 51.2102 130.418 51.2102Z" fill="#D1D3D4"/>
<path d="M131.637 51.2102C131.575 51.2102 131.516 51.1857 131.472 51.1421C131.429 51.0985 131.404 51.0394 131.404 50.9777V49.3369C131.404 49.2753 131.429 49.2162 131.472 49.1726C131.516 49.129 131.575 49.1045 131.637 49.1045C131.698 49.1045 131.757 49.129 131.801 49.1726C131.845 49.2162 131.869 49.2753 131.869 49.3369V50.9777C131.869 51.0394 131.845 51.0985 131.801 51.1421C131.757 51.1857 131.698 51.2102 131.637 51.2102Z" fill="#D1D3D4"/>
<path d="M132.85 51.2102C132.788 51.2102 132.729 51.1857 132.685 51.1421C132.642 51.0985 132.617 51.0394 132.617 50.9777V49.3369C132.617 49.2753 132.642 49.2162 132.685 49.1726C132.729 49.129 132.788 49.1045 132.85 49.1045C132.911 49.1045 132.97 49.129 133.014 49.1726C133.058 49.2162 133.082 49.2753 133.082 49.3369V50.9777C133.082 51.0394 133.058 51.0985 133.014 51.1421C132.97 51.1857 132.911 51.2102 132.85 51.2102Z" fill="#D1D3D4"/>
<path d="M134.062 51.2102C134.001 51.2102 133.942 51.1857 133.898 51.1421C133.855 51.0985 133.83 51.0394 133.83 50.9777V49.3369C133.83 49.2753 133.855 49.2162 133.898 49.1726C133.942 49.129 134.001 49.1045 134.062 49.1045C134.124 49.1045 134.183 49.129 134.227 49.1726C134.27 49.2162 134.295 49.2753 134.295 49.3369V50.9777C134.295 51.0394 134.27 51.0985 134.227 51.1421C134.183 51.1857 134.124 51.2102 134.062 51.2102Z" fill="#D1D3D4"/>
<path d="M132.72 46.2734H122.967C122.729 46.2734 122.535 46.467 122.535 46.7057V48.4256C122.535 48.6643 122.729 48.8579 122.967 48.8579H132.72C132.958 48.8579 133.152 48.6643 133.152 48.4256V46.7057C133.152 46.467 132.958 46.2734 132.72 46.2734Z" fill="white"/>
<path d="M132.719 49.095H122.958C122.782 49.0937 122.613 49.0233 122.489 48.8989C122.365 48.7745 122.294 48.6062 122.293 48.4303V46.6872C122.293 46.5999 122.31 46.5134 122.344 46.4328C122.377 46.3521 122.426 46.2789 122.488 46.2171C122.549 46.1554 122.623 46.1065 122.703 46.0731C122.784 46.0396 122.87 46.0225 122.958 46.0225H132.719C132.806 46.0225 132.893 46.0396 132.973 46.0731C133.054 46.1065 133.127 46.1554 133.189 46.2171C133.251 46.2789 133.3 46.3521 133.333 46.4328C133.367 46.5134 133.384 46.5999 133.384 46.6872V48.4117C133.386 48.5003 133.37 48.5885 133.337 48.671C133.305 48.7535 133.256 48.8288 133.194 48.8924C133.132 48.9559 133.059 49.0066 132.977 49.0414C132.895 49.0762 132.808 49.0944 132.719 49.095ZM122.958 46.5059C122.931 46.5059 122.905 46.511 122.881 46.5211C122.857 46.5311 122.835 46.5459 122.816 46.5644C122.798 46.583 122.783 46.605 122.773 46.6293C122.763 46.6535 122.758 46.6795 122.758 46.7058V48.4303C122.758 48.4565 122.763 48.4825 122.773 48.5067C122.783 48.531 122.798 48.553 122.816 48.5716C122.835 48.5902 122.857 48.6049 122.881 48.6149C122.905 48.625 122.931 48.6301 122.958 48.6301H132.719C132.772 48.6301 132.823 48.6091 132.86 48.5716C132.898 48.5341 132.919 48.4833 132.919 48.4303V46.6872C132.919 46.6609 132.914 46.6349 132.904 46.6107C132.894 46.5864 132.879 46.5644 132.86 46.5458C132.842 46.5273 132.82 46.5125 132.796 46.5025C132.771 46.4925 132.745 46.4873 132.719 46.4873L122.958 46.5059Z" fill="#231F20"/>
<path d="M123.6 48.6254C123.538 48.6254 123.479 48.601 123.435 48.5574C123.392 48.5138 123.367 48.4547 123.367 48.393V46.7476C123.367 46.6859 123.392 46.6268 123.435 46.5832C123.479 46.5396 123.538 46.5151 123.6 46.5151C123.661 46.5151 123.72 46.5396 123.764 46.5832C123.808 46.6268 123.832 46.6859 123.832 46.7476V48.393C123.832 48.4547 123.808 48.5138 123.764 48.5574C123.72 48.601 123.661 48.6254 123.6 48.6254Z" fill="#D1D3D4"/>
<path d="M124.809 48.6254C124.747 48.6254 124.688 48.601 124.644 48.5574C124.601 48.5138 124.576 48.4547 124.576 48.393V46.7476C124.577 46.6863 124.602 46.6279 124.646 46.5845C124.689 46.5412 124.747 46.5163 124.809 46.5151C124.87 46.5151 124.929 46.5396 124.973 46.5832C125.017 46.6268 125.041 46.6859 125.041 46.7476V48.393C125.041 48.4547 125.017 48.5138 124.973 48.5574C124.929 48.601 124.87 48.6254 124.809 48.6254Z" fill="#D1D3D4"/>
<path d="M126.021 48.6254C125.96 48.6254 125.901 48.601 125.857 48.5574C125.814 48.5138 125.789 48.4547 125.789 48.393V46.7476C125.79 46.6863 125.815 46.6279 125.858 46.5845C125.902 46.5412 125.96 46.5163 126.021 46.5151C126.083 46.5151 126.142 46.5396 126.186 46.5832C126.229 46.6268 126.254 46.6859 126.254 46.7476V48.393C126.254 48.4547 126.229 48.5138 126.186 48.5574C126.142 48.601 126.083 48.6254 126.021 48.6254Z" fill="#D1D3D4"/>
<path d="M127.234 48.6254C127.173 48.6254 127.114 48.601 127.07 48.5574C127.026 48.5138 127.002 48.4547 127.002 48.393V46.7476C127.003 46.6863 127.028 46.6279 127.071 46.5845C127.115 46.5412 127.173 46.5163 127.234 46.5151C127.296 46.5151 127.355 46.5396 127.399 46.5832C127.442 46.6268 127.467 46.6859 127.467 46.7476V48.393C127.467 48.4547 127.442 48.5138 127.399 48.5574C127.355 48.601 127.296 48.6254 127.234 48.6254Z" fill="#D1D3D4"/>
<path d="M128.449 48.6254C128.388 48.6254 128.328 48.601 128.285 48.5574C128.241 48.5138 128.217 48.4547 128.217 48.393V46.7476C128.218 46.6863 128.243 46.6279 128.286 46.5845C128.33 46.5412 128.388 46.5163 128.449 46.5151C128.511 46.5151 128.57 46.5396 128.614 46.5832C128.657 46.6268 128.682 46.6859 128.682 46.7476V48.393C128.682 48.4547 128.657 48.5138 128.614 48.5574C128.57 48.601 128.511 48.6254 128.449 48.6254Z" fill="#D1D3D4"/>
<path d="M129.643 48.6254C129.581 48.6254 129.522 48.601 129.478 48.5574C129.435 48.5138 129.41 48.4547 129.41 48.393V46.7476C129.411 46.6863 129.436 46.6279 129.48 46.5845C129.523 46.5412 129.581 46.5163 129.643 46.5151C129.704 46.5151 129.763 46.5396 129.807 46.5832C129.85 46.6268 129.875 46.6859 129.875 46.7476V48.393C129.875 48.4547 129.85 48.5138 129.807 48.5574C129.763 48.601 129.704 48.6254 129.643 48.6254Z" fill="#D1D3D4"/>
<path d="M130.875 48.6254C130.813 48.6254 130.754 48.601 130.711 48.5574C130.667 48.5138 130.643 48.4547 130.643 48.393V46.7476C130.644 46.6863 130.669 46.6279 130.712 46.5845C130.755 46.5412 130.814 46.5163 130.875 46.5151C130.937 46.5151 130.996 46.5396 131.039 46.5832C131.083 46.6268 131.107 46.6859 131.107 46.7476V48.393C131.107 48.4547 131.083 48.5138 131.039 48.5574C130.996 48.601 130.937 48.6254 130.875 48.6254Z" fill="#D1D3D4"/>
<path d="M132.088 48.6254C132.026 48.6254 131.967 48.601 131.924 48.5574C131.88 48.5138 131.855 48.4547 131.855 48.393V46.7476C131.857 46.6863 131.882 46.6279 131.925 46.5845C131.968 46.5412 132.027 46.5163 132.088 46.5151C132.15 46.5151 132.209 46.5396 132.252 46.5832C132.296 46.6268 132.32 46.6859 132.32 46.7476V48.393C132.32 48.4547 132.296 48.5138 132.252 48.5574C132.209 48.601 132.15 48.6254 132.088 48.6254Z" fill="#D1D3D4"/>
<path d="M133.175 43.6895H123.423C123.184 43.6895 122.99 43.883 122.99 44.1217V45.8416C122.99 46.0803 123.184 46.2739 123.423 46.2739H133.175C133.413 46.2739 133.607 46.0803 133.607 45.8416V44.1217C133.607 43.883 133.413 43.6895 133.175 43.6895Z" fill="white"/>
<path d="M133.175 46.5058H123.414C123.239 46.5046 123.072 46.4347 122.949 46.3111C122.825 46.1876 122.755 46.0204 122.754 45.8458V44.1212C122.754 43.9458 122.823 43.7774 122.947 43.6529C123.071 43.5283 123.238 43.4578 123.414 43.4565H133.175C133.352 43.4565 133.521 43.5266 133.645 43.6512C133.77 43.7759 133.84 43.945 133.84 44.1212V45.8458C133.839 46.0212 133.768 46.1891 133.644 46.3128C133.519 46.4364 133.351 46.5058 133.175 46.5058ZM123.414 43.9214C123.362 43.9226 123.312 43.9442 123.276 43.9815C123.239 44.0189 123.219 44.069 123.219 44.1212V45.8458C123.219 45.8975 123.239 45.9472 123.276 45.9838C123.313 46.0204 123.362 46.041 123.414 46.041H133.175C133.228 46.041 133.278 46.0206 133.315 45.9841C133.352 45.9476 133.374 45.898 133.375 45.8458V44.1212C133.374 44.0686 133.353 44.0184 133.315 43.9812C133.278 43.944 133.228 43.9226 133.175 43.9214H123.414Z" fill="#231F20"/>
<path d="M124.064 46.041C124.003 46.041 123.944 46.0165 123.9 45.9729C123.857 45.9293 123.832 45.8702 123.832 45.8086V44.1631C123.832 44.1014 123.857 44.0423 123.9 43.9987C123.944 43.9551 124.003 43.9307 124.064 43.9307C124.126 43.9307 124.185 43.9551 124.229 43.9987C124.272 44.0423 124.297 44.1014 124.297 44.1631V45.8086C124.297 45.8702 124.272 45.9293 124.229 45.9729C124.185 46.0165 124.126 46.041 124.064 46.041Z" fill="#D1D3D4"/>
<path d="M125.264 46.041C125.202 46.041 125.143 46.0165 125.099 45.9729C125.056 45.9293 125.031 45.8702 125.031 45.8086V44.1631C125.031 44.1014 125.056 44.0423 125.099 43.9987C125.143 43.9551 125.202 43.9307 125.264 43.9307C125.325 43.9307 125.384 43.9551 125.428 43.9987C125.472 44.0423 125.496 44.1014 125.496 44.1631V45.8086C125.496 45.8702 125.472 45.9293 125.428 45.9729C125.384 46.0165 125.325 46.041 125.264 46.041Z" fill="#D1D3D4"/>
<path d="M126.477 46.041C126.415 46.0398 126.357 46.0149 126.314 45.9716C126.27 45.9283 126.245 45.8698 126.244 45.8086V44.1631C126.245 44.1018 126.27 44.0434 126.314 44.0001C126.357 43.9567 126.415 43.9319 126.477 43.9307C126.538 43.9307 126.597 43.9551 126.641 43.9987C126.684 44.0423 126.709 44.1014 126.709 44.1631V45.8086C126.709 45.8702 126.684 45.9293 126.641 45.9729C126.597 46.0165 126.538 46.041 126.477 46.041Z" fill="#D1D3D4"/>
<path d="M127.689 46.041C127.628 46.0398 127.57 46.0149 127.526 45.9716C127.483 45.9283 127.458 45.8698 127.457 45.8086V44.1631C127.458 44.1018 127.483 44.0434 127.526 44.0001C127.57 43.9567 127.628 43.9319 127.689 43.9307C127.751 43.9307 127.81 43.9551 127.854 43.9987C127.897 44.0423 127.922 44.1014 127.922 44.1631V45.8086C127.922 45.8702 127.897 45.9293 127.854 45.9729C127.81 46.0165 127.751 46.041 127.689 46.041Z" fill="#D1D3D4"/>
<path d="M128.904 46.041C128.843 46.0398 128.785 46.0149 128.741 45.9716C128.698 45.9283 128.673 45.8698 128.672 45.8086V44.1631C128.673 44.1018 128.698 44.0434 128.741 44.0001C128.785 43.9567 128.843 43.9319 128.904 43.9307C128.966 43.9307 129.025 43.9551 129.069 43.9987C129.112 44.0423 129.137 44.1014 129.137 44.1631V45.8086C129.137 45.8702 129.112 45.9293 129.069 45.9729C129.025 46.0165 128.966 46.041 128.904 46.041Z" fill="#D1D3D4"/>
<path d="M130.107 46.041C130.046 46.0398 129.988 46.0149 129.944 45.9716C129.901 45.9283 129.876 45.8698 129.875 45.8086V44.1631C129.876 44.1018 129.901 44.0434 129.944 44.0001C129.988 43.9567 130.046 43.9319 130.107 43.9307C130.169 43.9307 130.228 43.9551 130.272 43.9987C130.315 44.0423 130.34 44.1014 130.34 44.1631V45.8086C130.34 45.8702 130.315 45.9293 130.272 45.9729C130.228 46.0165 130.169 46.041 130.107 46.041Z" fill="#D1D3D4"/>
<path d="M131.33 46.041C131.269 46.0398 131.21 46.0149 131.167 45.9716C131.124 45.9283 131.099 45.8698 131.098 45.8086V44.1631C131.099 44.1018 131.124 44.0434 131.167 44.0001C131.21 43.9567 131.269 43.9319 131.33 43.9307C131.392 43.9307 131.451 43.9551 131.494 43.9987C131.538 44.0423 131.562 44.1014 131.562 44.1631V45.8086C131.562 45.8702 131.538 45.9293 131.494 45.9729C131.451 46.0165 131.392 46.041 131.33 46.041Z" fill="#D1D3D4"/>
<path d="M132.543 46.041C132.482 46.0398 132.423 46.0149 132.38 45.9716C132.337 45.9283 132.312 45.8698 132.311 45.8086V44.1631C132.312 44.1018 132.337 44.0434 132.38 44.0001C132.423 43.9567 132.482 43.9319 132.543 43.9307C132.605 43.9307 132.664 43.9551 132.707 43.9987C132.751 44.0423 132.775 44.1014 132.775 44.1631V45.8086C132.775 45.8702 132.751 45.9293 132.707 45.9729C132.664 46.0165 132.605 46.041 132.543 46.041Z" fill="#D1D3D4"/>
<path d="M131.655 41.1045H121.903C121.664 41.1045 121.471 41.298 121.471 41.5368V43.2566C121.471 43.4954 121.664 43.6889 121.903 43.6889H131.655C131.894 43.6889 132.087 43.4954 132.087 43.2566V41.5368C132.087 41.298 131.894 41.1045 131.655 41.1045Z" fill="white"/>
<path d="M131.66 43.9216H121.899C121.723 43.9216 121.554 43.8515 121.429 43.7269C121.304 43.6022 121.234 43.4332 121.234 43.2569V41.537C121.234 41.3607 121.304 41.1917 121.429 41.067C121.554 40.9423 121.723 40.8723 121.899 40.8723H131.66C131.836 40.8735 132.004 40.9441 132.127 41.0686C132.251 41.1932 132.321 41.3615 132.321 41.537V43.2569C132.321 43.4324 132.251 43.6007 132.127 43.7253C132.004 43.8498 131.836 43.9204 131.66 43.9216ZM121.899 41.3371C121.846 41.3371 121.795 41.3582 121.758 41.3957C121.72 41.4332 121.699 41.484 121.699 41.537V43.2569C121.699 43.3099 121.72 43.3607 121.758 43.3982C121.795 43.4357 121.846 43.4568 121.899 43.4568H131.66C131.686 43.4568 131.712 43.4516 131.736 43.4415C131.76 43.4314 131.782 43.4166 131.8 43.3979C131.818 43.3793 131.833 43.3572 131.842 43.333C131.852 43.3088 131.856 43.2829 131.856 43.2569V41.537C131.856 41.511 131.852 41.4851 131.842 41.4609C131.833 41.4366 131.818 41.4146 131.8 41.396C131.782 41.3773 131.76 41.3625 131.736 41.3524C131.712 41.3423 131.686 41.3371 131.66 41.3371H121.899Z" fill="#231F20"/>
<path d="M122.535 43.4568C122.474 43.4568 122.414 43.4323 122.371 43.3887C122.327 43.3451 122.303 43.286 122.303 43.2243V41.5742C122.303 41.5126 122.327 41.4535 122.371 41.4099C122.414 41.3663 122.474 41.3418 122.535 41.3418C122.596 41.343 122.655 41.3679 122.698 41.4112C122.742 41.4545 122.766 41.5129 122.768 41.5742V43.2197C122.768 43.2818 122.743 43.3414 122.7 43.3857C122.656 43.43 122.597 43.4555 122.535 43.4568Z" fill="#D1D3D4"/>
<path d="M123.75 43.4568C123.688 43.4568 123.629 43.4323 123.586 43.3887C123.542 43.3451 123.518 43.286 123.518 43.2243V41.5742C123.518 41.5126 123.542 41.4535 123.586 41.4099C123.629 41.3663 123.688 41.3418 123.75 41.3418C123.811 41.343 123.87 41.3679 123.913 41.4112C123.956 41.4545 123.981 41.5129 123.982 41.5742V43.2197C123.982 43.2818 123.958 43.3414 123.915 43.3857C123.871 43.43 123.812 43.4555 123.75 43.4568Z" fill="#D1D3D4"/>
<path d="M124.961 43.4568C124.899 43.4568 124.84 43.4323 124.797 43.3887C124.753 43.3451 124.729 43.286 124.729 43.2243V41.5742C124.729 41.5126 124.753 41.4535 124.797 41.4099C124.84 41.3663 124.899 41.3418 124.961 41.3418C125.022 41.343 125.081 41.3679 125.124 41.4112C125.167 41.4545 125.192 41.5129 125.193 41.5742V43.2197C125.193 43.2818 125.169 43.3414 125.126 43.3857C125.082 43.43 125.023 43.4555 124.961 43.4568Z" fill="#D1D3D4"/>
<path d="M126.174 43.4568C126.112 43.4568 126.053 43.4323 126.009 43.3887C125.966 43.3451 125.941 43.286 125.941 43.2243V41.5742C125.941 41.5126 125.966 41.4535 126.009 41.4099C126.053 41.3663 126.112 41.3418 126.174 41.3418C126.235 41.343 126.294 41.3679 126.337 41.4112C126.38 41.4545 126.405 41.5129 126.406 41.5742V43.2197C126.406 43.2818 126.382 43.3414 126.338 43.3857C126.295 43.43 126.236 43.4555 126.174 43.4568Z" fill="#D1D3D4"/>
<path d="M127.389 43.4568C127.327 43.4568 127.268 43.4323 127.224 43.3887C127.181 43.3451 127.156 43.286 127.156 43.2243V41.5742C127.156 41.5126 127.181 41.4535 127.224 41.4099C127.268 41.3663 127.327 41.3418 127.389 41.3418C127.45 41.343 127.508 41.3679 127.552 41.4112C127.595 41.4545 127.62 41.5129 127.621 41.5742V43.2197C127.621 43.2818 127.597 43.3414 127.553 43.3857C127.51 43.43 127.451 43.4555 127.389 43.4568Z" fill="#D1D3D4"/>
<path d="M128.602 43.4568C128.54 43.4568 128.481 43.4323 128.437 43.3887C128.394 43.3451 128.369 43.286 128.369 43.2243V41.5742C128.369 41.5126 128.394 41.4535 128.437 41.4099C128.481 41.3663 128.54 41.3418 128.602 41.3418C128.663 41.3418 128.722 41.3663 128.766 41.4099C128.809 41.4535 128.834 41.5126 128.834 41.5742V43.2197C128.835 43.2506 128.829 43.2813 128.818 43.3101C128.806 43.3388 128.789 43.365 128.768 43.3871C128.746 43.4091 128.72 43.4267 128.692 43.4386C128.663 43.4506 128.632 43.4568 128.602 43.4568Z" fill="#D1D3D4"/>
<path d="M129.814 43.4568C129.753 43.4568 129.694 43.4323 129.65 43.3887C129.607 43.3451 129.582 43.286 129.582 43.2243V41.5742C129.582 41.5126 129.607 41.4535 129.65 41.4099C129.694 41.3663 129.753 41.3418 129.814 41.3418C129.876 41.3418 129.935 41.3663 129.979 41.4099C130.022 41.4535 130.047 41.5126 130.047 41.5742V43.2197C130.047 43.2506 130.042 43.2813 130.031 43.3101C130.019 43.3388 130.002 43.365 129.98 43.3871C129.959 43.4091 129.933 43.4267 129.904 43.4386C129.876 43.4506 129.845 43.4568 129.814 43.4568Z" fill="#D1D3D4"/>
<path d="M131.037 43.4568C130.975 43.4568 130.916 43.4323 130.873 43.3887C130.829 43.3451 130.805 43.286 130.805 43.2243V41.5742C130.805 41.5126 130.829 41.4535 130.873 41.4099C130.916 41.3663 130.975 41.3418 131.037 41.3418C131.099 41.3418 131.158 41.3663 131.201 41.4099C131.245 41.4535 131.27 41.5126 131.27 41.5742V43.2197C131.27 43.2506 131.265 43.2813 131.253 43.3101C131.242 43.3388 131.225 43.365 131.203 43.3871C131.181 43.4091 131.156 43.4267 131.127 43.4386C131.099 43.4506 131.068 43.4568 131.037 43.4568Z" fill="#D1D3D4"/>
<path d="M133.175 38.52H123.423C123.184 38.52 122.99 38.7136 122.99 38.9523V40.6722C122.99 40.9109 123.184 41.1045 123.423 41.1045H133.175C133.413 41.1045 133.607 40.9109 133.607 40.6722V38.9523C133.607 38.7136 133.413 38.52 133.175 38.52Z" fill="white"/>
<path d="M133.175 41.3371H123.414C123.238 41.3359 123.071 41.2653 122.947 41.1408C122.823 41.0163 122.754 40.8479 122.754 40.6724V38.9525C122.754 38.7771 122.823 38.6087 122.947 38.4842C123.071 38.3596 123.238 38.2891 123.414 38.2878H133.175C133.352 38.2878 133.521 38.3579 133.645 38.4825C133.77 38.6072 133.84 38.7763 133.84 38.9525V40.6724C133.84 40.8487 133.77 41.0178 133.645 41.1424C133.521 41.2671 133.352 41.3371 133.175 41.3371ZM123.414 38.7527C123.388 38.7527 123.362 38.7579 123.338 38.768C123.314 38.7781 123.292 38.7929 123.274 38.8115C123.256 38.8301 123.242 38.8522 123.232 38.8764C123.223 38.9006 123.218 38.9265 123.219 38.9525V40.6724C123.218 40.6984 123.223 40.7243 123.232 40.7485C123.242 40.7728 123.256 40.7948 123.274 40.8135C123.292 40.8321 123.314 40.8469 123.338 40.857C123.362 40.8671 123.388 40.8723 123.414 40.8723H133.175C133.228 40.8723 133.279 40.8512 133.317 40.8137C133.354 40.7763 133.375 40.7254 133.375 40.6724V38.9525C133.375 38.8995 133.354 38.8487 133.317 38.8112C133.279 38.7737 133.228 38.7527 133.175 38.7527H123.414Z" fill="#231F20"/>
<path d="M124.064 40.872C124.003 40.872 123.944 40.8475 123.9 40.804C123.857 40.7604 123.832 40.7013 123.832 40.6396V38.9941C123.832 38.9325 123.857 38.8734 123.9 38.8298C123.944 38.7862 124.003 38.7617 124.064 38.7617C124.126 38.7617 124.185 38.7862 124.229 38.8298C124.272 38.8734 124.297 38.9325 124.297 38.9941V40.6443C124.296 40.7051 124.271 40.763 124.227 40.8056C124.184 40.8482 124.125 40.872 124.064 40.872Z" fill="#D1D3D4"/>
<path d="M125.264 40.872C125.202 40.872 125.143 40.8475 125.099 40.804C125.056 40.7604 125.031 40.7013 125.031 40.6396V38.9941C125.031 38.9325 125.056 38.8734 125.099 38.8298C125.143 38.7862 125.202 38.7617 125.264 38.7617C125.325 38.7617 125.384 38.7862 125.428 38.8298C125.472 38.8734 125.496 38.9325 125.496 38.9941V40.6443C125.495 40.7051 125.47 40.763 125.426 40.8056C125.383 40.8482 125.325 40.872 125.264 40.872Z" fill="#D1D3D4"/>
<path d="M126.477 40.872C126.415 40.8708 126.357 40.846 126.314 40.8026C126.27 40.7593 126.245 40.7009 126.244 40.6396V38.9941C126.245 38.9329 126.27 38.8744 126.314 38.8311C126.357 38.7878 126.415 38.7629 126.477 38.7617C126.538 38.7617 126.597 38.7862 126.641 38.8298C126.684 38.8734 126.709 38.9325 126.709 38.9941V40.6443C126.708 40.7051 126.683 40.763 126.639 40.8056C126.596 40.8482 126.537 40.872 126.477 40.872Z" fill="#D1D3D4"/>
<path d="M127.689 40.872C127.628 40.8708 127.57 40.846 127.526 40.8026C127.483 40.7593 127.458 40.7009 127.457 40.6396V38.9941C127.458 38.9329 127.483 38.8744 127.526 38.8311C127.57 38.7878 127.628 38.7629 127.689 38.7617C127.751 38.7617 127.81 38.7862 127.854 38.8298C127.897 38.8734 127.922 38.9325 127.922 38.9941V40.6443C127.921 40.7051 127.896 40.763 127.852 40.8056C127.809 40.8482 127.75 40.872 127.689 40.872Z" fill="#D1D3D4"/>
<path d="M128.904 40.872C128.843 40.8708 128.785 40.846 128.741 40.8026C128.698 40.7593 128.673 40.7009 128.672 40.6396V38.9941C128.673 38.9329 128.698 38.8744 128.741 38.8311C128.785 38.7878 128.843 38.7629 128.904 38.7617C128.966 38.7617 129.025 38.7862 129.069 38.8298C129.112 38.8734 129.137 38.9325 129.137 38.9941V40.6443C129.135 40.7051 129.11 40.763 129.067 40.8056C129.024 40.8482 128.965 40.872 128.904 40.872Z" fill="#D1D3D4"/>
<path d="M130.107 40.872C130.046 40.8708 129.988 40.846 129.944 40.8026C129.901 40.7593 129.876 40.7009 129.875 40.6396V38.9941C129.876 38.9329 129.901 38.8744 129.944 38.8311C129.988 38.7878 130.046 38.7629 130.107 38.7617C130.169 38.7617 130.228 38.7862 130.272 38.8298C130.315 38.8734 130.34 38.9325 130.34 38.9941V40.6443C130.339 40.7051 130.314 40.763 130.27 40.8056C130.227 40.8482 130.168 40.872 130.107 40.872Z" fill="#D1D3D4"/>
<path d="M131.33 40.872C131.269 40.8708 131.21 40.846 131.167 40.8026C131.124 40.7593 131.099 40.7009 131.098 40.6396V38.9941C131.099 38.9329 131.124 38.8744 131.167 38.8311C131.21 38.7878 131.269 38.7629 131.33 38.7617C131.392 38.7617 131.451 38.7862 131.494 38.8298C131.538 38.8734 131.562 38.9325 131.562 38.9941V40.6443C131.561 40.7051 131.536 40.763 131.493 40.8056C131.449 40.8482 131.391 40.872 131.33 40.872Z" fill="#D1D3D4"/>
<path d="M132.543 40.872C132.482 40.8708 132.423 40.846 132.38 40.8026C132.337 40.7593 132.312 40.7009 132.311 40.6396V38.9941C132.312 38.9329 132.337 38.8744 132.38 38.8311C132.423 38.7878 132.482 38.7629 132.543 38.7617C132.605 38.7617 132.664 38.7862 132.707 38.8298C132.751 38.8734 132.775 38.9325 132.775 38.9941V40.6443C132.774 40.7051 132.749 40.763 132.706 40.8056C132.662 40.8482 132.604 40.872 132.543 40.872Z" fill="#D1D3D4"/>
<path d="M99.1965 51.4424H108.949C109.187 51.4424 109.381 51.2488 109.381 51.0101V49.2902C109.381 49.0515 109.187 48.8579 108.949 48.8579H99.1965C98.9578 48.8579 98.7642 49.0515 98.7642 49.2902V51.0101C98.7642 51.2488 98.9578 51.4424 99.1965 51.4424Z" fill="white"/>
<path d="M108.948 51.6796H99.1862C99.0099 51.6796 98.8408 51.6096 98.7162 51.485C98.5915 51.3603 98.5215 51.1912 98.5215 51.0149V49.2904C98.5227 49.1149 98.5933 48.9471 98.7178 48.8234C98.8423 48.6998 99.0107 48.6304 99.1862 48.6304H108.948C109.123 48.6304 109.291 48.6998 109.416 48.8234C109.54 48.9471 109.611 49.1149 109.612 49.2904V51.0149C109.611 51.1909 109.541 51.3592 109.416 51.4836C109.292 51.608 109.123 51.6784 108.948 51.6796ZM99.1862 49.0952C99.134 49.0952 99.0838 49.1156 99.0465 49.1521C99.0091 49.1886 98.9875 49.2382 98.9863 49.2904V51.0149C98.9875 51.0676 99.0089 51.1177 99.0462 51.155C99.0834 51.1922 99.1336 51.2136 99.1862 51.2148H108.948C109 51.2136 109.05 51.1922 109.088 51.155C109.125 51.1177 109.146 51.0676 109.147 51.0149V49.2904C109.146 49.2382 109.125 49.1886 109.087 49.1521C109.05 49.1156 109 49.0952 108.948 49.0952H99.1862Z" fill="#231F20"/>
<path d="M108.316 51.2102C108.255 51.2102 108.196 51.1857 108.152 51.1421C108.108 51.0985 108.084 51.0394 108.084 50.9777V49.3369C108.084 49.2753 108.108 49.2162 108.152 49.1726C108.196 49.129 108.255 49.1045 108.316 49.1045C108.378 49.1045 108.437 49.129 108.481 49.1726C108.524 49.2162 108.549 49.2753 108.549 49.3369V50.9777C108.549 51.0394 108.524 51.0985 108.481 51.1421C108.437 51.1857 108.378 51.2102 108.316 51.2102Z" fill="#D1D3D4"/>
<path d="M107.104 51.2102C107.042 51.2102 106.983 51.1857 106.939 51.1421C106.896 51.0985 106.871 51.0394 106.871 50.9777V49.3369C106.871 49.2753 106.896 49.2162 106.939 49.1726C106.983 49.129 107.042 49.1045 107.104 49.1045C107.165 49.1045 107.224 49.129 107.268 49.1726C107.311 49.2162 107.336 49.2753 107.336 49.3369V50.9777C107.336 51.0394 107.311 51.0985 107.268 51.1421C107.224 51.1857 107.165 51.2102 107.104 51.2102Z" fill="#D1D3D4"/>
<path d="M105.889 51.2102C105.827 51.2102 105.768 51.1857 105.724 51.1421C105.681 51.0985 105.656 51.0394 105.656 50.9777V49.3369C105.656 49.2753 105.681 49.2162 105.724 49.1726C105.768 49.129 105.827 49.1045 105.889 49.1045C105.95 49.1045 106.009 49.129 106.053 49.1726C106.097 49.2162 106.121 49.2753 106.121 49.3369V50.9777C106.121 51.0394 106.097 51.0985 106.053 51.1421C106.009 51.1857 105.95 51.2102 105.889 51.2102Z" fill="#D1D3D4"/>
<path d="M104.676 51.2102C104.614 51.2102 104.555 51.1857 104.511 51.1421C104.468 51.0985 104.443 51.0394 104.443 50.9777V49.3369C104.443 49.2753 104.468 49.2162 104.511 49.1726C104.555 49.129 104.614 49.1045 104.676 49.1045C104.737 49.1045 104.797 49.129 104.84 49.1726C104.884 49.2162 104.908 49.2753 104.908 49.3369V50.9777C104.908 51.0394 104.884 51.0985 104.84 51.1421C104.797 51.1857 104.737 51.2102 104.676 51.2102Z" fill="#D1D3D4"/>
<path d="M103.463 51.2102C103.401 51.2102 103.342 51.1857 103.299 51.1421C103.255 51.0985 103.23 51.0394 103.23 50.9777V49.3369C103.23 49.2753 103.255 49.2162 103.299 49.1726C103.342 49.129 103.401 49.1045 103.463 49.1045C103.525 49.1045 103.584 49.129 103.627 49.1726C103.671 49.2162 103.695 49.2753 103.695 49.3369V50.9777C103.695 51.0394 103.671 51.0985 103.627 51.1421C103.584 51.1857 103.525 51.2102 103.463 51.2102Z" fill="#D1D3D4"/>
<path d="M102.25 51.2102C102.188 51.2102 102.129 51.1857 102.086 51.1421C102.042 51.0985 102.018 51.0394 102.018 50.9777V49.3369C102.018 49.2753 102.042 49.2162 102.086 49.1726C102.129 49.129 102.188 49.1045 102.25 49.1045C102.312 49.1045 102.371 49.129 102.414 49.1726C102.458 49.2162 102.482 49.2753 102.482 49.3369V50.9777C102.482 51.0394 102.458 51.0985 102.414 51.1421C102.371 51.1857 102.312 51.2102 102.25 51.2102Z" fill="#D1D3D4"/>
<path d="M101.037 51.2102C100.975 51.2102 100.916 51.1857 100.873 51.1421C100.829 51.0985 100.805 51.0394 100.805 50.9777V49.3369C100.805 49.2753 100.829 49.2162 100.873 49.1726C100.916 49.129 100.975 49.1045 101.037 49.1045C101.099 49.1045 101.158 49.129 101.201 49.1726C101.245 49.2162 101.27 49.2753 101.27 49.3369V50.9777C101.27 51.0394 101.245 51.0985 101.201 51.1421C101.158 51.1857 101.099 51.2102 101.037 51.2102Z" fill="#D1D3D4"/>
<path d="M99.8242 51.2102C99.7626 51.2102 99.7035 51.1857 99.6599 51.1421C99.6163 51.0985 99.5918 51.0394 99.5918 50.9777V49.3369C99.5918 49.2753 99.6163 49.2162 99.6599 49.1726C99.7035 49.129 99.7626 49.1045 99.8242 49.1045C99.8859 49.1045 99.945 49.129 99.9885 49.1726C100.032 49.2162 100.057 49.2753 100.057 49.3369V50.9777C100.057 51.0394 100.032 51.0985 99.9885 51.1421C99.945 51.1857 99.8859 51.2102 99.8242 51.2102Z" fill="#D1D3D4"/>
<path d="M101.163 48.8623H110.915C111.154 48.8623 111.348 48.6688 111.348 48.43V46.7102C111.348 46.4714 111.154 46.2779 110.915 46.2779H101.163C100.925 46.2779 100.731 46.4714 100.731 46.7102V48.43C100.731 48.6688 100.925 48.8623 101.163 48.8623Z" fill="white"/>
<path d="M110.919 49.095H101.158C100.983 49.0937 100.815 49.0232 100.691 48.8986C100.567 48.7741 100.498 48.6057 100.498 48.4303V46.6872C100.498 46.5117 100.567 46.3433 100.691 46.2188C100.815 46.0943 100.983 46.0237 101.158 46.0225H110.919C111.007 46.0225 111.093 46.0396 111.174 46.0731C111.254 46.1065 111.328 46.1554 111.389 46.2171C111.451 46.2789 111.5 46.3521 111.534 46.4328C111.567 46.5134 111.584 46.5999 111.584 46.6872V48.4117C111.586 48.5003 111.57 48.5885 111.538 48.671C111.505 48.7535 111.457 48.8288 111.395 48.8924C111.333 48.9559 111.259 49.0066 111.177 49.0414C111.096 49.0762 111.008 49.0944 110.919 49.095ZM101.158 46.5059C101.106 46.5071 101.056 46.5287 101.02 46.566C100.983 46.6034 100.963 46.6535 100.963 46.7058V48.4303C100.963 48.4825 100.983 48.5326 101.02 48.57C101.056 48.6073 101.106 48.6289 101.158 48.6301H110.919C110.972 48.6301 111.023 48.6091 111.061 48.5716C111.098 48.5341 111.119 48.4833 111.119 48.4303V46.6872C111.119 46.6609 111.114 46.6349 111.104 46.6107C111.094 46.5864 111.079 46.5644 111.061 46.5458C111.042 46.5273 111.02 46.5125 110.996 46.5025C110.972 46.4925 110.946 46.4873 110.919 46.4873L101.158 46.5059Z" fill="#231F20"/>
<path d="M110.287 48.6254C110.225 48.6254 110.166 48.601 110.123 48.5574C110.079 48.5138 110.055 48.4547 110.055 48.393V46.7476C110.056 46.6863 110.081 46.6279 110.124 46.5845C110.167 46.5412 110.226 46.5163 110.287 46.5151C110.349 46.5151 110.408 46.5396 110.451 46.5832C110.495 46.6268 110.52 46.6859 110.52 46.7476V48.393C110.52 48.4547 110.495 48.5138 110.451 48.5574C110.408 48.601 110.349 48.6254 110.287 48.6254Z" fill="#D1D3D4"/>
<path d="M109.074 48.6254C109.013 48.6254 108.953 48.601 108.91 48.5574C108.866 48.5138 108.842 48.4547 108.842 48.393V46.7476C108.843 46.6863 108.868 46.6279 108.911 46.5845C108.955 46.5412 109.013 46.5163 109.074 46.5151C109.136 46.5151 109.195 46.5396 109.239 46.5832C109.282 46.6268 109.307 46.6859 109.307 46.7476V48.393C109.307 48.4547 109.282 48.5138 109.239 48.5574C109.195 48.601 109.136 48.6254 109.074 48.6254Z" fill="#D1D3D4"/>
<path d="M107.861 48.6254C107.8 48.6254 107.741 48.601 107.697 48.5574C107.653 48.5138 107.629 48.4547 107.629 48.393V46.7476C107.63 46.6863 107.655 46.6279 107.698 46.5845C107.742 46.5412 107.8 46.5163 107.861 46.5151C107.923 46.5151 107.982 46.5396 108.026 46.5832C108.069 46.6268 108.094 46.6859 108.094 46.7476V48.393C108.094 48.4547 108.069 48.5138 108.026 48.5574C107.982 48.601 107.923 48.6254 107.861 48.6254Z" fill="#D1D3D4"/>
<path d="M106.648 48.6254C106.587 48.6254 106.528 48.601 106.484 48.5574C106.441 48.5138 106.416 48.4547 106.416 48.393V46.7476C106.416 46.6859 106.441 46.6268 106.484 46.5832C106.528 46.5396 106.587 46.5151 106.648 46.5151C106.71 46.5151 106.769 46.5396 106.813 46.5832C106.856 46.6268 106.881 46.6859 106.881 46.7476V48.393C106.881 48.4547 106.856 48.5138 106.813 48.5574C106.769 48.601 106.71 48.6254 106.648 48.6254Z" fill="#D1D3D4"/>
<path d="M105.434 48.6254C105.372 48.6254 105.313 48.601 105.269 48.5574C105.226 48.5138 105.201 48.4547 105.201 48.393V46.7476C105.201 46.6859 105.226 46.6268 105.269 46.5832C105.313 46.5396 105.372 46.5151 105.434 46.5151C105.495 46.5151 105.554 46.5396 105.598 46.5832C105.642 46.6268 105.666 46.6859 105.666 46.7476V48.393C105.666 48.4547 105.642 48.5138 105.598 48.5574C105.554 48.601 105.495 48.6254 105.434 48.6254Z" fill="#D1D3D4"/>
<path d="M104.221 48.6254C104.159 48.6254 104.1 48.601 104.056 48.5574C104.013 48.5138 103.988 48.4547 103.988 48.393V46.7476C103.988 46.6859 104.013 46.6268 104.056 46.5832C104.1 46.5396 104.159 46.5151 104.221 46.5151C104.282 46.5151 104.341 46.5396 104.385 46.5832C104.429 46.6268 104.453 46.6859 104.453 46.7476V48.393C104.453 48.4547 104.429 48.5138 104.385 48.5574C104.341 48.601 104.282 48.6254 104.221 48.6254Z" fill="#D1D3D4"/>
<path d="M103.008 48.6254C102.946 48.6254 102.887 48.601 102.843 48.5574C102.8 48.5138 102.775 48.4547 102.775 48.393V46.7476C102.775 46.6859 102.8 46.6268 102.843 46.5832C102.887 46.5396 102.946 46.5151 103.008 46.5151C103.069 46.5151 103.129 46.5396 103.172 46.5832C103.216 46.6268 103.24 46.6859 103.24 46.7476V48.393C103.24 48.4547 103.216 48.5138 103.172 48.5574C103.129 48.601 103.069 48.6254 103.008 48.6254Z" fill="#D1D3D4"/>
<path d="M101.795 48.6254C101.733 48.6254 101.674 48.601 101.631 48.5574C101.587 48.5138 101.562 48.4547 101.562 48.393V46.7476C101.562 46.6859 101.587 46.6268 101.631 46.5832C101.674 46.5396 101.733 46.5151 101.795 46.5151C101.857 46.5151 101.916 46.5396 101.959 46.5832C102.003 46.6268 102.027 46.6859 102.027 46.7476V48.393C102.027 48.4547 102.003 48.5138 101.959 48.5574C101.916 48.601 101.857 48.6254 101.795 48.6254Z" fill="#D1D3D4"/>
</svg>
