<svg width="30" height="68" viewBox="0 0 30 68" fill="none" xmlns="http://www.w3.org/2000/svg">
<path d="M16 2.92138C16 2.3691 15.5523 1.92139 15 1.92139C14.4477 1.92138 14 2.3691 14 2.92138L16 2.92138ZM14.2929 66.6285C14.6834 67.019 15.3166 67.019 15.7071 66.6285L22.0711 60.2645C22.4616 59.874 22.4616 59.2408 22.0711 58.8503C21.6805 58.4598 21.0474 58.4598 20.6569 58.8503L15 64.5072L9.34315 58.8503C8.95262 58.4598 8.31946 58.4598 7.92893 58.8503C7.53841 59.2408 7.53841 59.874 7.92893 60.2645L14.2929 66.6285ZM14 4.3532C14 4.90549 14.4477 5.3532 15 5.3532C15.5523 5.3532 16 4.90549 16 4.3532L14 4.3532ZM16 11.9896C16 11.4373 15.5523 10.9896 15 10.9896C14.4477 10.9896 14 11.4373 14 11.9896L16 11.9896ZM14 14.8532C14 15.4055 14.4477 15.8532 15 15.8532C15.5523 15.8532 16 15.4055 16 14.8532L14 14.8532ZM16 22.4896C16 21.9373 15.5523 21.4896 15 21.4896C14.4477 21.4896 14 21.9373 14 22.4896L16 22.4896ZM14 25.3532C14 25.9055 14.4477 26.3532 15 26.3532C15.5523 26.3532 16 25.9055 16 25.3532L14 25.3532ZM16 32.9896C16 32.4373 15.5523 31.9896 15 31.9896C14.4477 31.9896 14 32.4373 14 32.9896L16 32.9896ZM14 35.8532C14 36.4055 14.4477 36.8532 15 36.8532C15.5523 36.8532 16 36.4055 16 35.8532L14 35.8532ZM16 43.4896C16 42.9373 15.5523 42.4896 15 42.4896C14.4477 42.4896 14 42.9373 14 43.4896L16 43.4896ZM14 46.3532C14 46.9055 14.4477 47.3532 15 47.3532C15.5523 47.3532 16 46.9055 16 46.3532L14 46.3532ZM16 53.9896C16 53.4373 15.5523 52.9896 15 52.9896C14.4477 52.9896 14 53.4373 14 53.9896L16 53.9896ZM14 56.8532C14 57.4055 14.4477 57.8532 15 57.8532C15.5523 57.8532 16 57.4055 16 56.8532L14 56.8532ZM16 64.4896C16 63.9373 15.5523 63.4896 15 63.4896C14.4477 63.4896 14 63.9373 14 64.4896L16 64.4896ZM14 2.92138L14 4.3532L16 4.3532L16 2.92138L14 2.92138ZM14 11.9896L14 14.8532L16 14.8532L16 11.9896L14 11.9896ZM14 22.4896L14 25.3532L16 25.3532L16 22.4896L14 22.4896ZM14 32.9896L14 35.8532L16 35.8532L16 32.9896L14 32.9896ZM14 43.4896L14 46.3532L16 46.3532L16 43.4896L14 43.4896ZM14 53.9896L14 56.8532L16 56.8532L16 53.9896L14 53.9896ZM14 64.4896L14 65.9214L16 65.9214L16 64.4896L14 64.4896ZM17 2.92138C17 1.81681 16.1046 0.921387 15 0.921387C13.8954 0.921379 13 1.81681 13 2.92138L17 2.92138ZM13.5858 67.3356C14.3668 68.1166 15.6332 68.1166 16.4142 67.3356L29.1421 54.6077C29.9232 53.8266 29.9232 52.5603 29.1421 51.7793C28.3611 50.9982 27.0948 50.9982 26.3137 51.7793L15 63.093L3.68629 51.7793C2.90524 50.9982 1.63891 50.9982 0.857865 51.7793C0.076816 52.5603 0.076816 53.8266 0.857865 54.6077L13.5858 67.3356ZM13 4.3532C13 5.45777 13.8954 6.3532 15 6.3532C16.1046 6.3532 17 5.45777 17 4.3532L13 4.3532ZM17 11.9896C17 10.885 16.1046 9.98957 15 9.98957C13.8954 9.98957 13 10.885 13 11.9896L17 11.9896ZM13 14.8532C13 15.9578 13.8954 16.8532 15 16.8532C16.1046 16.8532 17 15.9578 17 14.8532L13 14.8532ZM17 22.4896C17 21.385 16.1046 20.4896 15 20.4896C13.8954 20.4896 13 21.385 13 22.4896L17 22.4896ZM13 25.3532C13 26.4578 13.8954 27.3532 15 27.3532C16.1046 27.3532 17 26.4578 17 25.3532L13 25.3532ZM17 32.9896C17 31.885 16.1046 30.9896 15 30.9896C13.8954 30.9896 13 31.885 13 32.9896L17 32.9896ZM13 35.8532C13 36.9578 13.8954 37.8532 15 37.8532C16.1046 37.8532 17 36.9578 17 35.8532L13 35.8532ZM17 43.4896C17 42.385 16.1046 41.4896 15 41.4896C13.8954 41.4896 13 42.385 13 43.4896L17 43.4896ZM13 46.3532C13 47.4578 13.8954 48.3532 15 48.3532C16.1046 48.3532 17 47.4578 17 46.3532L13 46.3532ZM17 53.9896C17 52.885 16.1046 51.9896 15 51.9896C13.8954 51.9896 13 52.885 13 53.9896L17 53.9896ZM13 56.8532C13 57.9578 13.8954 58.8532 15 58.8532C16.1046 58.8532 17 57.9578 17 56.8532L13 56.8532ZM17 64.4896C17 63.385 16.1046 62.4896 15 62.4896C13.8954 62.4896 13 63.385 13 64.4896L17 64.4896ZM13 2.92138L13 4.3532L17 4.3532L17 2.92138L13 2.92138ZM13 11.9896L13 14.8532L17 14.8532L17 11.9896L13 11.9896ZM13 22.4896L13 25.3532L17 25.3532L17 22.4896L13 22.4896ZM13 32.9896L13 35.8532L17 35.8532L17 32.9896L13 32.9896ZM13 43.4896L13 46.3532L17 46.3532L17 43.4896L13 43.4896ZM13 53.9896L13 56.8532L17 56.8532L17 53.9896L13 53.9896ZM13 64.4896L13 65.9214L17 65.9214L17 64.4896L13 64.4896Z" fill="#48A4FE"/>
</svg>
