<svg width="344" height="132" viewBox="0 0 344 132" fill="none" xmlns="http://www.w3.org/2000/svg">
<path d="M100 128.151L100.175 127.167L100.124 127.158L100.072 127.154L100 128.151ZM261 95.1515L261.565 95.9768L261 95.1515ZM337.965 2.38886C337.819 1.85603 337.27 1.54189 336.737 1.68721L328.054 4.05523C327.521 4.20055 327.207 4.75029 327.352 5.28311C327.498 5.81594 328.047 6.13008 328.58 5.98477L336.298 3.87985L338.403 11.598C338.549 12.1308 339.098 12.4449 339.631 12.2996C340.164 12.1543 340.478 11.6046 340.333 11.0717L337.965 2.38886ZM2.11156 108.096C2.6341 108.275 3.20265 107.996 3.38145 107.474C3.56025 106.951 3.28159 106.383 2.75905 106.204L2.11156 108.096ZM10.5327 108.75C10.006 108.584 9.44431 108.876 9.27808 109.403C9.11185 109.929 9.40405 110.491 9.93073 110.657L10.5327 108.75ZM12.8723 111.574C13.4001 111.737 13.9598 111.441 14.1224 110.913C14.285 110.385 13.9889 109.826 13.4611 109.663L12.8723 111.574ZM21.3117 112.007C20.7812 111.854 20.2267 112.159 20.0731 112.69C19.9196 113.22 20.2252 113.775 20.7557 113.928L21.3117 112.007ZM23.7218 114.777C24.2533 114.927 24.8059 114.618 24.9562 114.087C25.1064 113.555 24.7974 113.002 24.2659 112.852L23.7218 114.777ZM32.1786 115.019C31.6448 114.878 31.0973 115.196 30.9558 115.73C30.8143 116.264 31.1323 116.811 31.6662 116.953L32.1786 115.019ZM34.6435 117.732C35.1782 117.87 35.7237 117.549 35.8619 117.014C36.0001 116.479 35.6787 115.934 35.1439 115.796L34.6435 117.732ZM43.0964 117.78C42.5595 117.651 42.0195 117.981 41.8903 118.518C41.7612 119.055 42.0918 119.595 42.6288 119.724L43.0964 117.78ZM45.6247 120.435C46.1625 120.56 46.7004 120.226 46.826 119.688C46.9516 119.15 46.6175 118.613 46.0796 118.487L45.6247 120.435ZM54.0722 120.278C53.5322 120.163 53.0006 120.506 52.8847 121.046C52.7689 121.586 53.1127 122.118 53.6527 122.234L54.0722 120.278ZM56.6731 122.871C57.2139 122.983 57.7431 122.635 57.8551 122.094C57.9671 121.553 57.6195 121.024 57.0786 120.912L56.6731 122.871ZM65.1149 122.494C64.572 122.393 64.0498 122.751 63.9487 123.294C63.8475 123.837 64.2056 124.359 64.7485 124.46L65.1149 122.494ZM67.7858 125.014C68.3295 125.111 68.8488 124.748 68.9457 124.205C69.0426 123.661 68.6803 123.142 68.1366 123.045L67.7858 125.014ZM76.2086 124.391C75.6629 124.306 75.1518 124.68 75.0672 125.226C74.9826 125.772 75.3564 126.283 75.9022 126.367L76.2086 124.391ZM78.9548 126.827C79.5013 126.907 80.009 126.528 80.0887 125.982C80.1684 125.435 79.79 124.927 79.2435 124.848L78.9548 126.827ZM87.3554 125.926C86.807 125.86 86.3094 126.252 86.2438 126.8C86.1782 127.349 86.5696 127.846 87.118 127.912L87.3554 125.926ZM90.1863 128.263C90.7354 128.322 91.2289 127.926 91.2888 127.377C91.3486 126.828 90.952 126.334 90.403 126.274L90.1863 128.263ZM98.5452 127.039C97.9946 126.996 97.5133 127.407 97.4701 127.958C97.427 128.509 97.8384 128.99 98.389 129.033L98.5452 127.039ZM101.307 129.383C101.853 129.469 102.364 129.095 102.449 128.55C102.534 128.004 102.161 127.493 101.616 127.407L101.307 129.383ZM109.576 128.28C109.025 128.241 108.547 128.656 108.507 129.206C108.468 129.757 108.883 130.236 109.434 130.275L109.576 128.28ZM112.487 130.456C113.038 130.483 113.507 130.058 113.534 129.506C113.561 128.954 113.135 128.486 112.584 128.459L112.487 130.456ZM120.634 128.648C120.082 128.647 119.633 129.095 119.633 129.647C119.632 130.199 120.08 130.647 120.632 130.648L120.634 128.648ZM123.683 130.628C124.235 130.621 124.677 130.167 124.669 129.615C124.662 129.063 124.208 128.621 123.656 128.629L123.683 130.628ZM131.699 128.382C131.147 128.408 130.721 128.876 130.747 129.427C130.773 129.979 131.241 130.405 131.792 130.38L131.699 128.382ZM134.849 130.22C135.4 130.188 135.821 129.715 135.789 129.163C135.757 128.612 135.285 128.191 134.733 128.223L134.849 130.22ZM142.764 127.649C142.214 127.696 141.806 128.179 141.852 128.73C141.899 129.28 142.382 129.689 142.933 129.642L142.764 127.649ZM145.971 129.371C146.521 129.32 146.925 128.832 146.874 128.282C146.822 127.732 146.335 127.328 145.785 127.38L145.971 129.371ZM153.802 126.534C153.254 126.598 152.861 127.095 152.925 127.643C152.989 128.192 153.486 128.585 154.035 128.521L153.802 126.534ZM157.061 128.154C157.609 128.085 157.997 127.585 157.929 127.037C157.86 126.489 157.36 126.101 156.812 126.169L157.061 128.154ZM164.803 125.081C164.256 125.161 163.879 125.669 163.959 126.216C164.039 126.762 164.547 127.14 165.094 127.059L164.803 125.081ZM168.108 126.604C168.653 126.52 169.027 126.009 168.943 125.463C168.858 124.917 168.347 124.543 167.801 124.628L168.108 126.604ZM175.759 123.31C175.215 123.406 174.851 123.925 174.947 124.469C175.043 125.013 175.562 125.376 176.106 125.28L175.759 123.31ZM179.102 124.74C179.645 124.64 180.005 124.118 179.905 123.575C179.805 123.032 179.283 122.673 178.74 122.773L179.102 124.74ZM186.659 121.228C186.118 121.34 185.77 121.868 185.881 122.409C185.993 122.95 186.522 123.298 187.063 123.187L186.659 121.228ZM190.039 122.561C190.579 122.445 190.923 121.914 190.807 121.374C190.692 120.834 190.16 120.49 189.62 120.606L190.039 122.561ZM197.491 118.827C196.953 118.955 196.621 119.494 196.749 120.032C196.877 120.569 197.416 120.901 197.953 120.773L197.491 118.827ZM200.911 120.056C201.447 119.924 201.774 119.382 201.642 118.846C201.51 118.31 200.968 117.982 200.432 118.115L200.911 120.056ZM208.235 116.088C207.703 116.234 207.388 116.783 207.534 117.316C207.679 117.849 208.229 118.163 208.762 118.018L208.235 116.088ZM211.7 117.201C212.231 117.05 212.54 116.497 212.389 115.966C212.239 115.434 211.686 115.126 211.155 115.276L211.7 117.201ZM218.872 112.975C218.345 113.14 218.052 113.702 218.218 114.229C218.383 114.756 218.944 115.049 219.471 114.884L218.872 112.975ZM222.382 113.952C222.907 113.781 223.194 113.217 223.023 112.692C222.851 112.167 222.287 111.88 221.762 112.051L222.382 113.952ZM229.369 109.433C228.85 109.622 228.582 110.195 228.771 110.714C228.959 111.233 229.533 111.501 230.052 111.313L229.369 109.433ZM232.922 110.248C233.439 110.052 233.699 109.475 233.503 108.958C233.307 108.442 232.73 108.182 232.214 108.378L232.922 110.248ZM239.667 105.38C239.159 105.597 238.923 106.185 239.14 106.693C239.357 107.2 239.945 107.436 240.453 107.219L239.667 105.38ZM243.262 105.989C243.766 105.763 243.992 105.171 243.766 104.667C243.539 104.163 242.948 103.938 242.444 104.164L243.262 105.989ZM249.681 100.683C249.19 100.936 248.998 101.54 249.252 102.03C249.506 102.521 250.109 102.713 250.6 102.459L249.681 100.683ZM253.292 101.025C253.777 100.76 253.954 100.152 253.688 99.6677C253.423 99.1835 252.815 99.0063 252.33 99.272L253.292 101.025ZM259.209 95.1489C258.748 95.4526 258.62 96.0728 258.924 96.5341C259.228 96.9953 259.848 97.1231 260.309 96.8194L259.209 95.1489ZM262.792 95.1235C263.243 94.8048 263.35 94.1808 263.031 93.7297C262.712 93.2787 262.088 93.1715 261.637 93.4902L262.792 95.1235ZM267.922 88.6962C267.495 89.0456 267.431 89.6756 267.781 90.1033C268.13 90.531 268.76 90.5945 269.188 90.2451L267.922 88.6962ZM271.495 88.3176C271.914 87.959 271.964 87.3278 271.606 86.9078C271.247 86.4878 270.616 86.4381 270.196 86.7968L271.495 88.3176ZM276.079 81.5015C275.678 81.8807 275.66 82.5136 276.039 82.9151C276.418 83.3166 277.051 83.3346 277.453 82.9553L276.079 81.5015ZM279.625 80.8693C280.02 80.4836 280.028 79.8504 279.642 79.4552C279.256 79.06 278.623 79.0522 278.228 79.438L279.625 80.8693ZM283.791 73.792C283.41 74.1925 283.427 74.8254 283.827 75.2057C284.228 75.586 284.861 75.5696 285.241 75.1691L283.791 73.792ZM287.294 72.9791C287.669 72.5738 287.645 71.9411 287.239 71.5659C286.834 71.1907 286.201 71.2151 285.826 71.6204L287.294 72.9791ZM291.129 65.7113C290.766 66.1277 290.81 66.7594 291.226 67.1222C291.642 67.4849 292.274 67.4414 292.637 67.025L291.129 65.7113ZM294.595 64.7536C294.953 64.3335 294.903 63.7023 294.483 63.3438C294.063 62.9853 293.432 63.0353 293.073 63.4554L294.595 64.7536ZM298.152 57.348C297.804 57.777 297.87 58.4067 298.299 58.7546C298.728 59.1026 299.357 59.0369 299.705 58.608L298.152 57.348ZM301.584 56.2707C301.929 55.8388 301.858 55.2096 301.426 54.8654C300.994 54.5212 300.365 54.5922 300.02 55.0241L301.584 56.2707ZM304.908 48.7546C304.573 49.1936 304.657 49.8211 305.096 50.1562C305.535 50.4912 306.163 50.4068 306.498 49.9678L304.908 48.7546ZM308.302 47.5847C308.634 47.1432 308.545 46.5163 308.104 46.1845C307.662 45.8527 307.035 45.9417 306.704 46.3832L308.302 47.5847ZM311.425 39.9752C311.102 40.4228 311.202 41.0479 311.65 41.3714C312.097 41.695 312.722 41.5944 313.046 41.1468L311.425 39.9752ZM314.792 38.7147C315.112 38.265 315.008 37.6406 314.558 37.32C314.108 36.9994 313.484 37.1041 313.163 37.5538L314.792 38.7147ZM317.719 31.0475C317.406 31.5025 317.521 32.1252 317.976 32.4382C318.431 32.7512 319.054 32.6361 319.367 32.1811L317.719 31.0475ZM321.061 29.7021C321.371 29.2452 321.252 28.6233 320.795 28.313C320.339 28.0028 319.717 28.1216 319.406 28.5785L321.061 29.7021ZM323.822 21.9634C323.519 22.4251 323.648 23.045 324.11 23.3481C324.571 23.6511 325.191 23.5224 325.494 23.0607L323.822 21.9634ZM327.135 20.5444C327.435 20.0809 327.303 19.4617 326.839 19.1615C326.376 18.8612 325.757 18.9935 325.456 19.457L327.135 20.5444ZM329.716 12.7665C329.423 13.2348 329.565 13.8518 330.034 14.1446C330.502 14.4375 331.119 14.2952 331.412 13.827L329.716 12.7665ZM332.997 11.2738C333.287 10.8037 333.141 10.1876 332.671 9.89778C332.2 9.60797 331.584 9.75414 331.295 10.2243L332.997 11.2738ZM335.411 3.39599C335.132 3.87238 335.291 4.48508 335.768 4.76448C336.244 5.04389 336.857 4.8842 337.136 4.4078L335.411 3.39599ZM1 106.652C0.664263 107.594 0.664275 107.594 0.66429 107.594C0.664298 107.594 0.664314 107.594 0.664329 107.594C0.664359 107.594 0.664397 107.594 0.664442 107.594C0.664531 107.594 0.664652 107.594 0.664802 107.594C0.665103 107.594 0.665524 107.594 0.666066 107.595C0.66715 107.595 0.668717 107.596 0.670765 107.596C0.67486 107.598 0.680879 107.6 0.688809 107.603C0.70467 107.608 0.728176 107.617 0.759227 107.628C0.821329 107.649 0.913614 107.682 1.03528 107.724C1.27862 107.81 1.63951 107.935 2.11156 108.096L2.75905 106.204C2.29124 106.044 1.93447 105.92 1.69512 105.836C1.57545 105.795 1.48513 105.763 1.42497 105.742C1.39489 105.731 1.37234 105.723 1.35744 105.718C1.34999 105.715 1.34444 105.713 1.34082 105.712C1.33901 105.711 1.33768 105.711 1.33683 105.71C1.33641 105.71 1.33611 105.71 1.33592 105.71C1.33583 105.71 1.33577 105.71 1.33574 105.71C1.33572 105.71 1.33572 105.71 1.33572 105.71C1.33572 105.71 1.33572 105.71 1.33572 105.71C1.33573 105.71 1.33574 105.71 1 106.652ZM9.93073 110.657C10.8515 110.948 11.8332 111.254 12.8723 111.574L13.4611 109.663C12.4265 109.344 11.4492 109.039 10.5327 108.75L9.93073 110.657ZM20.7557 113.928C21.717 114.206 22.7062 114.49 23.7218 114.777L24.2659 112.852C23.2544 112.566 22.2692 112.284 21.3117 112.007L20.7557 113.928ZM31.6662 116.953C32.6421 117.211 33.6349 117.471 34.6435 117.732L35.1439 115.796C34.1394 115.536 33.1507 115.277 32.1786 115.019L31.6662 116.953ZM42.6288 119.724C43.6165 119.962 44.6154 120.199 45.6247 120.435L46.0796 118.487C45.0746 118.252 44.08 118.016 43.0964 117.78L42.6288 119.724ZM53.6527 122.234C54.652 122.448 55.659 122.661 56.6731 122.871L57.0786 120.912C56.0693 120.703 55.067 120.492 54.0722 120.278L53.6527 122.234ZM64.7485 124.46C65.756 124.648 66.7686 124.833 67.7858 125.014L68.1366 123.045C67.1247 122.865 66.1173 122.681 65.1149 122.494L64.7485 124.46ZM75.9022 126.367C76.9168 126.525 77.9346 126.678 78.9548 126.827L79.2435 124.848C78.2293 124.7 77.2175 124.547 76.2086 124.391L75.9022 126.367ZM87.118 127.912C88.1397 128.034 89.1627 128.151 90.1863 128.263L90.403 126.274C89.3864 126.164 88.3704 126.047 87.3554 125.926L87.118 127.912ZM98.389 129.033C98.9022 129.073 99.4152 129.112 99.928 129.149L100.072 127.154C99.5633 127.117 99.0543 127.079 98.5452 127.039L98.389 129.033ZM99.8246 129.136C100.309 129.222 100.803 129.305 101.307 129.383L101.616 127.407C101.125 127.331 100.645 127.251 100.175 127.167L99.8246 129.136ZM109.434 130.275C110.428 130.345 111.446 130.406 112.487 130.456L112.584 128.459C111.557 128.409 110.554 128.349 109.576 128.28L109.434 130.275ZM120.632 130.648C121.634 130.649 122.651 130.642 123.683 130.628L123.656 128.629C122.634 128.642 121.626 128.649 120.634 128.648L120.632 130.648ZM131.792 130.38C132.801 130.332 133.82 130.279 134.849 130.22L134.733 128.223C133.712 128.282 132.7 128.335 131.699 128.382L131.792 130.38ZM142.933 129.642C143.939 129.557 144.952 129.467 145.971 129.371L145.785 127.38C144.771 127.475 143.764 127.565 142.764 127.649L142.933 129.642ZM154.035 128.521C155.039 128.403 156.048 128.281 157.061 128.154L156.812 126.169C155.805 126.296 154.801 126.417 153.802 126.534L154.035 128.521ZM165.094 127.059C166.096 126.912 167.101 126.76 168.108 126.604L167.801 124.628C166.8 124.783 165.8 124.934 164.803 125.081L165.094 127.059ZM176.106 125.28C177.104 125.104 178.103 124.924 179.102 124.74L178.74 122.773C177.746 122.956 176.752 123.135 175.759 123.31L176.106 125.28ZM187.063 123.187C188.056 122.982 189.048 122.774 190.039 122.561L189.62 120.606C188.634 120.817 187.647 121.025 186.659 121.228L187.063 123.187ZM197.953 120.773C198.941 120.538 199.927 120.299 200.911 120.056L200.432 118.115C199.454 118.356 198.473 118.594 197.491 118.827L197.953 120.773ZM208.762 118.018C209.745 117.749 210.725 117.477 211.7 117.201L211.155 115.276C210.186 115.551 209.212 115.822 208.235 116.088L208.762 118.018ZM219.471 114.884C220.447 114.577 221.418 114.267 222.382 113.952L221.762 112.051C220.805 112.363 219.842 112.671 218.872 112.975L219.471 114.884ZM230.052 111.313C231.017 110.962 231.974 110.607 232.922 110.248L232.214 108.378C231.274 108.734 230.326 109.086 229.369 109.433L230.052 111.313ZM240.453 107.219C241.401 106.814 242.338 106.404 243.262 105.989L242.444 104.164C241.53 104.574 240.604 104.979 239.667 105.38L240.453 107.219ZM250.6 102.459C251.514 101.987 252.411 101.509 253.292 101.025L252.33 99.272C251.464 99.7472 250.581 100.218 249.681 100.683L250.6 102.459ZM260.309 96.8194C260.733 96.5401 261.152 96.2593 261.565 95.9768L260.435 94.3262C260.032 94.6018 259.624 94.876 259.209 95.1489L260.309 96.8194ZM261.565 95.9768C261.974 95.6969 262.383 95.4124 262.792 95.1235L261.637 93.4902C261.237 93.7734 260.836 94.0521 260.435 94.3262L261.565 95.9768ZM269.188 90.2451C269.958 89.6159 270.727 88.9731 271.495 88.3176L270.196 86.7968C269.439 87.4431 268.681 88.0765 267.922 88.6962L269.188 90.2451ZM277.453 82.9553C278.179 82.2693 278.903 81.5737 279.625 80.8693L278.228 79.438C277.514 80.135 276.798 80.8231 276.079 81.5015L277.453 82.9553ZM285.241 75.1691C285.928 74.4452 286.613 73.7149 287.294 72.9791L285.826 71.6204C285.151 72.3503 284.472 73.0743 283.791 73.792L285.241 75.1691ZM292.637 67.025C293.293 66.2713 293.946 65.514 294.595 64.7536L293.073 63.4554C292.429 64.2107 291.781 64.9629 291.129 65.7113L292.637 67.025ZM299.705 58.608C300.336 57.8298 300.963 57.0505 301.584 56.2707L300.02 55.0241C299.402 55.7995 298.779 56.5744 298.152 57.348L299.705 58.608ZM306.498 49.9678C307.106 49.1716 307.707 48.377 308.302 47.5847L306.704 46.3832C306.111 47.1717 305.512 47.9624 304.908 48.7546L306.498 49.9678ZM313.046 41.1468C313.636 40.3309 314.218 39.5199 314.792 38.7147L313.163 37.5538C312.592 38.3555 312.012 39.1629 311.425 39.9752L313.046 41.1468ZM319.367 32.1811C319.942 31.3445 320.507 30.5178 321.061 29.7021L319.406 28.5785C318.855 29.391 318.292 30.2144 317.719 31.0475L319.367 32.1811ZM325.494 23.0607C326.058 22.2022 326.605 21.3629 327.135 20.5444L325.456 19.457C324.928 20.2722 324.383 21.1083 323.822 21.9634L325.494 23.0607ZM331.412 13.827C331.974 12.9284 332.503 12.076 332.997 11.2738L331.295 10.2243C330.802 11.0229 330.276 11.8717 329.716 12.7665L331.412 13.827ZM337.136 4.4078C337.376 3.99889 337.559 3.68474 337.681 3.47243C337.743 3.36627 337.789 3.28558 337.821 3.23123C337.836 3.20405 337.848 3.18347 337.856 3.16957C337.86 3.16264 337.863 3.15736 337.865 3.15378C337.866 3.15199 337.867 3.15062 337.867 3.14968C337.868 3.14921 337.868 3.14884 337.868 3.14857C337.868 3.14845 337.868 3.14834 337.868 3.14827C337.868 3.14823 337.868 3.14819 337.868 3.14817C337.868 3.14816 337.868 3.14815 337.868 3.14813C337.868 3.14812 337.868 3.14812 337 2.65197C336.132 2.15583 336.132 2.15582 336.132 2.15582C336.132 2.15582 336.132 2.15581 336.132 2.15581C336.132 2.15582 336.132 2.15582 336.132 2.15584C336.132 2.15586 336.132 2.15592 336.132 2.156C336.132 2.15617 336.131 2.15644 336.131 2.15681C336.131 2.15757 336.13 2.15875 336.129 2.16034C336.127 2.16354 336.125 2.16842 336.121 2.17497C336.113 2.18808 336.102 2.20789 336.087 2.23427C336.056 2.28704 336.011 2.36613 335.95 2.47066C335.829 2.67971 335.649 2.99053 335.411 3.39599L337.136 4.4078ZM100 128.151L100.351 126.183L100.248 126.164L100.144 126.157L100 128.151ZM261 95.1515L262.129 96.8021L261 95.1515ZM338.93 2.12575C338.639 1.06009 337.539 0.431818 336.474 0.722439L319.108 5.4585C318.042 5.74913 317.414 6.8486 317.705 7.91426C317.995 8.97991 319.095 9.60818 320.16 9.31755L335.597 5.10773L339.807 20.544C340.097 21.6096 341.197 22.2379 342.262 21.9473C343.328 21.6566 343.956 20.5572 343.666 19.4915L338.93 2.12575ZM1.78782 109.042C2.8329 109.4 3.97 108.843 4.32759 107.798C4.68519 106.753 4.12787 105.615 3.08279 105.258L1.78782 109.042ZM10.8337 107.796C9.78034 107.464 8.65692 108.048 8.32446 109.102C7.992 110.155 8.57639 111.278 9.62974 111.611L10.8337 107.796ZM12.5779 112.53C13.6335 112.855 14.7529 112.263 15.0781 111.207C15.4032 110.152 14.8111 109.033 13.7555 108.707L12.5779 112.53ZM21.5897 111.047C20.5287 110.739 19.4196 111.351 19.1126 112.412C18.8055 113.473 19.4167 114.582 20.4777 114.889L21.5897 111.047ZM23.4498 115.739C24.5127 116.04 25.6179 115.422 25.9184 114.359C26.219 113.296 25.6009 112.19 24.538 111.89L23.4498 115.739ZM32.4349 114.053C31.3672 113.77 30.2722 114.406 29.9892 115.474C29.7062 116.541 30.3423 117.636 31.41 117.919L32.4349 114.053ZM34.3932 118.7C35.4627 118.977 36.5537 118.334 36.8301 117.264C37.1065 116.195 36.4636 115.104 35.3942 114.827L34.3932 118.7ZM43.3303 116.808C42.2563 116.549 41.1763 117.211 40.9181 118.284C40.6598 119.358 41.3211 120.438 42.395 120.697L43.3303 116.808ZM45.3973 121.408C46.4729 121.66 47.5485 120.991 47.7998 119.916C48.051 118.84 47.3827 117.764 46.3071 117.513L45.3973 121.408ZM54.282 119.301C53.202 119.069 52.1387 119.757 51.907 120.837C51.6753 121.917 52.363 122.98 53.443 123.212L54.282 119.301ZM56.4703 123.85C57.5519 124.074 58.6103 123.379 58.8343 122.297C59.0583 121.215 58.3631 120.157 57.2814 119.933L56.4703 123.85ZM65.2981 121.511C64.2122 121.309 63.1679 122.025 62.9656 123.111C62.7632 124.197 63.4795 125.241 64.5653 125.443L65.2981 121.511ZM67.6104 125.998C68.6978 126.192 69.7364 125.468 69.9302 124.38C70.1239 123.293 69.3995 122.254 68.312 122.06L67.6104 125.998ZM76.3619 123.403C75.2704 123.234 74.2483 123.981 74.079 125.073C73.9098 126.164 74.6574 127.186 75.7489 127.356L76.3619 123.403ZM78.8105 127.816C79.9035 127.976 80.9188 127.219 81.0782 126.126C81.2377 125.033 80.4808 124.018 79.3878 123.858L78.8105 127.816ZM87.4741 124.933C86.3774 124.802 85.382 125.585 85.2509 126.682C85.1197 127.778 85.9025 128.774 86.9993 128.905L87.4741 124.933ZM90.078 129.257C91.1761 129.376 92.1632 128.583 92.2829 127.485C92.4025 126.387 91.6093 125.4 90.5113 125.28L90.078 129.257ZM98.6233 126.042C97.5221 125.956 96.5595 126.779 96.4732 127.88C96.3869 128.981 97.2097 129.944 98.3109 130.03L98.6233 126.042ZM101.153 130.371C102.244 130.542 103.267 129.795 103.437 128.704C103.608 127.613 102.861 126.59 101.77 126.419L101.153 130.371ZM109.647 127.282C108.545 127.204 107.588 128.034 107.51 129.136C107.432 130.237 108.261 131.194 109.363 131.272L109.647 127.282ZM112.438 131.455C113.542 131.509 114.479 130.658 114.533 129.554C114.586 128.451 113.735 127.513 112.632 127.46L112.438 131.455ZM120.635 127.648C119.53 127.647 118.634 128.541 118.633 129.646C118.632 130.75 119.526 131.647 120.631 131.648L120.635 127.648ZM123.696 131.628C124.801 131.613 125.684 130.706 125.669 129.602C125.654 128.497 124.747 127.614 123.642 127.629L123.696 131.628ZM131.652 127.383C130.549 127.434 129.696 128.371 129.748 129.474C129.8 130.577 130.736 131.43 131.839 131.378L131.652 127.383ZM134.906 131.218C136.009 131.154 136.851 130.208 136.788 129.106C136.724 128.003 135.778 127.161 134.675 127.225L134.906 131.218ZM142.68 126.653C141.579 126.746 140.763 127.713 140.856 128.814C140.949 129.915 141.916 130.731 143.017 130.639L142.68 126.653ZM146.065 130.367C147.164 130.264 147.972 129.289 147.869 128.189C147.766 127.089 146.791 126.281 145.691 126.384L146.065 130.367ZM153.686 125.541C152.589 125.669 151.804 126.663 151.932 127.76C152.06 128.857 153.054 129.642 154.151 129.514L153.686 125.541ZM157.185 129.146C158.281 129.009 159.058 128.009 158.921 126.913C158.783 125.817 157.784 125.04 156.688 125.177L157.185 129.146ZM164.657 124.091C163.565 124.252 162.809 125.268 162.97 126.361C163.13 127.454 164.146 128.209 165.239 128.049L164.657 124.091ZM168.261 127.593C169.352 127.423 170.1 126.401 169.931 125.31C169.762 124.218 168.74 123.471 167.648 123.64L168.261 127.593ZM175.585 122.325C174.497 122.517 173.771 123.554 173.963 124.642C174.154 125.73 175.191 126.456 176.279 126.265L175.585 122.325ZM179.284 125.723C180.37 125.523 181.088 124.48 180.888 123.394C180.688 122.308 179.645 121.589 178.559 121.789L179.284 125.723ZM186.457 120.249C185.375 120.472 184.679 121.529 184.902 122.611C185.125 123.693 186.183 124.389 187.264 124.166L186.457 120.249ZM190.249 123.539C191.329 123.307 192.017 122.244 191.785 121.164C191.554 120.084 190.49 119.396 189.41 119.628L190.249 123.539ZM197.259 117.855C196.185 118.11 195.521 119.188 195.776 120.263C196.032 121.337 197.11 122.002 198.184 121.746L197.259 117.855ZM201.151 121.027C202.223 120.763 202.878 119.679 202.613 118.606C202.348 117.534 201.264 116.879 200.192 117.144L201.151 121.027ZM207.972 115.124C206.906 115.414 206.278 116.514 206.569 117.579C206.86 118.645 207.96 119.273 209.025 118.982L207.972 115.124ZM211.973 118.163C213.035 117.862 213.653 116.756 213.351 115.693C213.05 114.63 211.945 114.013 210.882 114.314L211.973 118.163ZM218.573 112.021C217.519 112.352 216.933 113.474 217.263 114.528C217.594 115.582 218.716 116.168 219.77 115.838L218.573 112.021ZM222.692 114.903C223.742 114.561 224.316 113.432 223.973 112.382C223.631 111.331 222.502 110.758 221.452 111.1L222.692 114.903ZM229.028 108.493C227.99 108.87 227.454 110.018 227.831 111.056C228.208 112.094 229.355 112.63 230.394 112.253L229.028 108.493ZM233.277 111.183C234.31 110.792 234.83 109.637 234.438 108.604C234.047 107.571 232.892 107.051 231.859 107.443L233.277 111.183ZM239.274 104.46C238.258 104.894 237.787 106.07 238.221 107.085C238.655 108.101 239.83 108.573 240.846 108.139L239.274 104.46ZM243.672 106.901C244.68 106.449 245.13 105.266 244.678 104.258C244.226 103.25 243.042 102.8 242.034 103.252L243.672 106.901ZM249.222 99.7945C248.241 100.302 247.856 101.509 248.364 102.49C248.871 103.471 250.078 103.855 251.059 103.348L249.222 99.7945ZM253.774 101.902C254.742 101.371 255.096 100.155 254.565 99.1867C254.034 98.2183 252.818 97.864 251.849 98.3953L253.774 101.902ZM258.659 94.3137C257.737 94.9211 257.481 96.1614 258.089 97.0839C258.696 98.0065 259.936 98.262 260.859 97.6546L258.659 94.3137ZM263.369 95.9402C264.271 95.3027 264.485 94.0547 263.848 93.1526C263.21 92.2506 261.962 92.0361 261.06 92.6735L263.369 95.9402ZM267.29 87.9218C266.434 88.6206 266.307 89.8805 267.006 90.7359C267.705 91.5914 268.965 91.7184 269.82 91.0196L267.29 87.9218ZM272.144 89.0781C272.984 88.3607 273.083 87.0983 272.366 86.2584C271.649 85.4184 270.386 85.3191 269.546 86.0364L272.144 89.0781ZM275.393 80.7745C274.59 81.5331 274.554 82.7989 275.312 83.6018C276.071 84.4048 277.337 84.4408 278.14 83.6823L275.393 80.7745ZM280.323 81.585C281.114 80.8135 281.129 79.5472 280.358 78.7567C279.586 77.9663 278.32 77.9508 277.53 78.7223L280.323 81.585ZM283.065 73.1034C282.305 73.9044 282.338 75.1703 283.139 75.9309C283.94 76.6914 285.206 76.6586 285.966 75.8576L283.065 73.1034ZM288.028 73.6584C288.778 72.8478 288.729 71.5824 287.919 70.8321C287.108 70.0817 285.843 70.1305 285.092 70.941L288.028 73.6584ZM290.375 65.0545C289.649 65.8874 289.736 67.1507 290.569 67.8762C291.402 68.6017 292.665 68.5147 293.391 67.6818L290.375 65.0545ZM295.356 65.4027C296.073 64.5624 295.973 63.3001 295.132 62.5831C294.292 61.8661 293.03 61.9661 292.313 62.8063L295.356 65.4027ZM297.375 56.7181C296.68 57.5759 296.811 58.8354 297.669 59.5313C298.527 60.2271 299.786 60.0958 300.482 59.2379L297.375 56.7181ZM302.366 56.8939C303.055 56.0302 302.913 54.7718 302.049 54.0834C301.185 53.3949 299.927 53.5371 299.238 54.4008L302.366 56.8939ZM304.113 48.148C303.443 49.0261 303.612 50.2811 304.49 50.9512C305.368 51.6212 306.623 51.4525 307.293 50.5744L304.113 48.148ZM309.102 48.1854C309.765 47.3024 309.587 46.0486 308.704 45.3851C307.821 44.7215 306.568 44.8995 305.904 45.7825L309.102 48.1854ZM310.615 39.3894C309.968 40.2846 310.169 41.5348 311.064 42.1819C311.959 42.829 313.209 42.6278 313.856 41.7326L310.615 39.3894ZM315.606 39.2952C316.247 38.3958 316.038 37.1469 315.138 36.5057C314.239 35.8645 312.99 36.0739 312.349 36.9733L315.606 39.2952ZM316.895 30.4808C316.269 31.3908 316.499 32.636 317.409 33.2621C318.319 33.8881 319.564 33.6579 320.19 32.7479L316.895 30.4808ZM321.888 30.2639C322.509 29.35 322.271 28.1062 321.357 27.4857C320.443 26.8652 319.2 27.103 318.579 28.0168L321.888 30.2639ZM322.986 21.4147C322.38 22.3382 322.638 23.5781 323.561 24.1841C324.485 24.7901 325.724 24.5328 326.33 23.6093L322.986 21.4147ZM327.974 21.0882C328.575 20.1611 328.31 18.9228 327.383 18.3222C326.456 17.7216 325.218 17.9863 324.617 18.9133L327.974 21.0882ZM328.868 12.2363C328.282 13.1728 328.567 14.4068 329.503 14.9925C330.44 15.5781 331.674 15.2937 332.26 14.3572L328.868 12.2363ZM333.848 11.7985C334.428 10.8583 334.136 9.62616 333.195 9.04653C332.255 8.4669 331.023 8.75926 330.443 9.69953L333.848 11.7985ZM334.548 2.89009C333.99 3.84288 334.309 5.06827 335.262 5.62707C336.214 6.18588 337.44 5.8665 337.999 4.91371L334.548 2.89009ZM1 106.652C0.328525 108.536 0.328549 108.536 0.328575 108.536C0.328586 108.536 0.328614 108.536 0.328636 108.536C0.328681 108.536 0.328733 108.536 0.328792 108.536C0.328912 108.536 0.329061 108.536 0.329241 108.536C0.329601 108.536 0.330081 108.536 0.330683 108.537C0.331885 108.537 0.33357 108.538 0.335736 108.538C0.340069 108.54 0.346326 108.542 0.354495 108.545C0.370833 108.551 0.39482 108.559 0.426356 108.571C0.489428 108.593 0.582696 108.626 0.705365 108.668C0.950699 108.754 1.31364 108.88 1.78782 109.042L3.08279 105.258C2.6171 105.099 2.26239 104.975 2.02504 104.892C1.90637 104.851 1.81703 104.82 1.75784 104.799C1.72824 104.788 1.70618 104.78 1.69175 104.775C1.68454 104.773 1.67923 104.771 1.67585 104.77C1.67416 104.769 1.67295 104.769 1.67222 104.768C1.67185 104.768 1.67161 104.768 1.67148 104.768C1.67142 104.768 1.67139 104.768 1.67139 104.768C1.67139 104.768 1.67139 104.768 1.67141 104.768C1.67142 104.768 1.67143 104.768 1.67144 104.768C1.67145 104.768 1.67147 104.768 1 106.652ZM9.62974 111.611C10.5526 111.902 11.5365 112.209 12.5779 112.53L13.7555 108.707C12.7231 108.389 11.748 108.085 10.8337 107.796L9.62974 111.611ZM20.4777 114.889C21.4409 115.168 22.4321 115.451 23.4498 115.739L24.538 111.89C23.5285 111.605 22.5452 111.323 21.5897 111.047L20.4777 114.889ZM31.41 117.919C32.3879 118.178 33.3826 118.439 34.3932 118.7L35.3942 114.827C34.3917 114.568 33.405 114.31 32.4349 114.053L31.41 117.919ZM42.395 120.697C43.3848 120.935 44.3858 121.172 45.3973 121.408L46.3071 117.513C45.3042 117.279 44.3117 117.044 43.3303 116.808L42.395 120.697ZM53.443 123.212C54.4445 123.426 55.4538 123.639 56.4703 123.85L57.2814 119.933C56.2745 119.724 55.2745 119.514 54.282 119.301L53.443 123.212ZM64.5653 125.443C65.5753 125.632 66.5905 125.817 67.6104 125.998L68.312 122.06C67.3028 121.881 66.298 121.697 65.2981 121.511L64.5653 125.443ZM75.7489 127.356C76.7665 127.513 77.7872 127.667 78.8105 127.816L79.3878 123.858C78.3766 123.711 77.3678 123.559 76.3619 123.403L75.7489 127.356ZM86.9993 128.905C88.0244 129.027 89.0508 129.145 90.078 129.257L90.5113 125.28C89.4982 125.17 88.4857 125.054 87.4741 124.933L86.9993 128.905ZM98.3109 130.03C98.8261 130.07 99.3412 130.109 99.856 130.146L100.144 126.157C99.6373 126.12 99.1304 126.082 98.6233 126.042L98.3109 130.03ZM99.6491 130.12C100.141 130.208 100.642 130.292 101.153 130.371L101.77 126.419C101.286 126.344 100.813 126.265 100.351 126.183L99.6491 130.12ZM109.363 131.272C110.365 131.344 111.391 131.404 112.438 131.455L112.632 127.46C111.613 127.411 110.617 127.351 109.647 127.282L109.363 131.272ZM120.631 131.648C121.638 131.649 122.66 131.642 123.696 131.628L123.642 127.629C122.625 127.642 121.622 127.649 120.635 127.648L120.631 131.648ZM131.839 131.378C132.852 131.331 133.874 131.278 134.906 131.218L134.675 127.225C133.658 127.283 132.65 127.336 131.652 127.383L131.839 131.378ZM143.017 130.639C144.026 130.553 145.042 130.463 146.065 130.367L145.691 126.384C144.681 126.479 143.677 126.568 142.68 126.653L143.017 130.639ZM154.151 129.514C155.158 129.396 156.17 129.273 157.185 129.146L156.688 125.177C155.683 125.303 154.682 125.424 153.686 125.541L154.151 129.514ZM165.239 128.049C166.244 127.901 167.251 127.749 168.261 127.593L167.648 123.64C166.649 123.795 165.652 123.945 164.657 124.091L165.239 128.049ZM176.279 126.265C177.28 126.088 178.281 125.908 179.284 125.723L178.559 121.789C177.567 121.972 176.576 122.151 175.585 122.325L176.279 126.265ZM187.264 124.166C188.26 123.961 189.255 123.752 190.249 123.539L189.41 119.628C188.427 119.839 187.442 120.046 186.457 120.249L187.264 124.166ZM198.184 121.746C199.175 121.51 200.164 121.271 201.151 121.027L200.192 117.144C199.217 117.385 198.239 117.622 197.259 117.855L198.184 121.746ZM209.025 118.982C210.012 118.713 210.994 118.44 211.973 118.163L210.882 114.314C209.916 114.588 208.946 114.858 207.972 115.124L209.025 118.982ZM219.77 115.838C220.75 115.53 221.724 115.219 222.692 114.903L221.452 111.1C220.499 111.411 219.539 111.718 218.573 112.021L219.77 115.838ZM230.394 112.253C231.363 111.901 232.324 111.544 233.277 111.183L231.859 107.443C230.924 107.797 229.98 108.147 229.028 108.493L230.394 112.253ZM240.846 108.139C241.799 107.731 242.742 107.319 243.672 106.901L242.034 103.252C241.127 103.659 240.206 104.062 239.274 104.46L240.846 108.139ZM251.059 103.348C251.98 102.871 252.885 102.39 253.774 101.902L251.849 98.3953C250.991 98.8664 250.115 99.3329 249.222 99.7945L251.059 103.348ZM260.859 97.6546C261.288 97.3722 261.711 97.088 262.129 96.8021L259.871 93.5009C259.473 93.7731 259.069 94.044 258.659 94.3137L260.859 97.6546ZM262.129 96.8021C262.543 96.5193 262.956 96.2319 263.369 95.9402L261.06 92.6735C260.663 92.9539 260.267 93.2297 259.871 93.5009L262.129 96.8021ZM269.82 91.0196C270.597 90.3855 271.371 89.7381 272.144 89.0781L269.546 86.0364C268.795 86.6781 268.043 87.3069 267.29 87.9218L269.82 91.0196ZM278.14 83.6823C278.87 82.9924 279.598 82.293 280.323 81.585L277.53 78.7223C276.819 79.4157 276.107 80.1 275.393 80.7745L278.14 83.6823ZM285.966 75.8576C286.656 75.1306 287.344 74.3973 288.028 73.6584L285.092 70.941C284.42 71.6679 283.744 72.3889 283.065 73.1034L285.966 75.8576ZM293.391 67.6818C294.05 66.9255 294.705 66.1656 295.356 65.4027L292.313 62.8063C291.67 63.5591 291.024 64.3087 290.375 65.0545L293.391 67.6818ZM300.482 59.2379C301.115 58.4575 301.743 57.6759 302.366 56.8939L299.238 54.4008C298.622 55.1741 298.001 55.9467 297.375 56.7181L300.482 59.2379ZM307.293 50.5744C307.902 49.7762 308.505 48.9796 309.102 48.1854L305.904 45.7825C305.313 46.5691 304.716 47.3578 304.113 48.148L307.293 50.5744ZM313.856 41.7326C314.447 40.9149 315.031 40.1022 315.606 39.2952L312.349 36.9733C311.779 37.7733 311.2 38.5789 310.615 39.3894L313.856 41.7326ZM320.19 32.7479C320.767 31.9096 321.333 31.0812 321.888 30.2639L318.579 28.0168C318.028 28.8276 317.467 29.6493 316.895 30.4808L320.19 32.7479ZM326.33 23.6093C326.895 22.7492 327.443 21.9082 327.974 21.0882L324.617 18.9133C324.09 19.7269 323.546 20.5613 322.986 21.4147L326.33 23.6093ZM332.26 14.3572C332.823 13.4568 333.353 12.6025 333.848 11.7985L330.443 9.69953C329.952 10.4964 329.427 11.3434 328.868 12.2363L332.26 14.3572ZM337.999 4.91371C338.24 4.50307 338.423 4.18724 338.547 3.97331C338.609 3.86634 338.656 3.78485 338.687 3.72971C338.703 3.70214 338.715 3.68116 338.724 3.66688C338.728 3.65974 338.731 3.65428 338.733 3.6505C338.734 3.64862 338.735 3.64715 338.735 3.6461C338.736 3.64558 338.736 3.64517 338.736 3.64486C338.736 3.64471 338.736 3.64458 338.736 3.64448C338.736 3.64443 338.736 3.64438 338.736 3.64435C338.736 3.64432 338.736 3.64431 338.736 3.6443C338.736 3.64427 338.737 3.64425 337 2.65197C335.264 1.65969 335.264 1.65967 335.264 1.65966C335.264 1.65966 335.264 1.65964 335.264 1.65963C335.264 1.65963 335.264 1.65962 335.264 1.65962C335.264 1.65963 335.264 1.65966 335.264 1.65971C335.263 1.65984 335.263 1.66006 335.263 1.66039C335.263 1.66104 335.262 1.66212 335.261 1.66362C335.26 1.66662 335.257 1.67131 335.253 1.67767C335.246 1.6904 335.235 1.7098 335.22 1.73579C335.19 1.78777 335.145 1.86606 335.085 1.96978C334.965 2.17721 334.785 2.48634 334.548 2.89009L337.999 4.91371Z" fill="#48A4FE"/>
</svg>
