<svg width="369" height="118" viewBox="0 0 369 118" fill="none" xmlns="http://www.w3.org/2000/svg">
<path d="M93.4995 18.3241L93.1752 17.3781L93.4995 18.3241ZM247 14.6515L246.666 15.5942L246.612 15.575L246.561 15.5498L247 14.6515ZM363.979 115.35C363.869 115.891 363.341 116.241 362.8 116.132L353.979 114.344C353.438 114.235 353.088 113.707 353.198 113.166C353.308 112.624 353.835 112.274 354.377 112.384L362.217 113.973L363.806 106.132C363.916 105.591 364.443 105.241 364.985 105.351C365.526 105.46 365.876 105.988 365.766 106.529L363.979 115.35ZM1.99894 77.551C2.40032 77.1716 3.03323 77.1895 3.41259 77.5909C3.79195 77.9922 3.77409 78.6252 3.37272 79.0045L1.99894 77.551ZM9.29671 73.5778C8.88471 73.9456 8.25256 73.9098 7.88476 73.4978C7.51696 73.0858 7.55279 72.4536 7.96479 72.0858L9.29671 73.5778ZM10.2418 70.0703C10.6568 69.706 11.2886 69.7471 11.653 70.1621C12.0173 70.5772 11.9762 71.209 11.5612 71.5734L10.2418 70.0703ZM17.6731 66.321C17.2505 66.6766 16.6197 66.6224 16.264 66.1998C15.9084 65.7773 15.9627 65.1464 16.3852 64.7908L17.6731 66.321ZM18.7198 62.8413C19.1451 62.4889 19.7755 62.5479 20.1279 62.9732C20.4802 63.3985 20.4212 64.0289 19.9959 64.3812L18.7198 62.8413ZM26.2467 59.308C25.8143 59.6516 25.1853 59.5797 24.8416 59.1473C24.498 58.715 24.57 58.0859 25.0023 57.7423L26.2467 59.308ZM27.3926 55.8578C27.8276 55.5176 28.4561 55.5945 28.7963 56.0295C29.1366 56.4646 29.0597 57.093 28.6246 57.4333L27.3926 55.8578ZM35.0231 52.5389C34.5808 52.8696 33.9541 52.7792 33.6234 52.3369C33.2926 51.8946 33.383 51.2679 33.8253 50.9372L35.0231 52.5389ZM36.2646 49.1291C36.7097 48.8021 37.3355 48.8978 37.6625 49.3429C37.9895 49.7879 37.8938 50.4138 37.4487 50.7408L36.2646 49.1291ZM43.9899 46.052C43.5372 46.3683 42.9138 46.2578 42.5974 45.8051C42.2811 45.3524 42.3917 44.7289 42.8444 44.4126L43.9899 46.052ZM45.3428 42.6842C45.7985 42.3721 46.4209 42.4886 46.7329 42.9443C47.045 43.4 46.9285 44.0223 46.4729 44.3344L45.3428 42.6842ZM53.1764 39.8731C52.7125 40.1728 52.0935 40.0396 51.7939 39.5757C51.4942 39.1118 51.6274 38.4928 52.0913 38.1931L53.1764 39.8731ZM54.6515 36.5589C55.1186 36.2643 55.7362 36.4042 56.0308 36.8713C56.3254 37.3385 56.1855 37.956 55.7184 38.2506L54.6515 36.5589ZM62.5875 34.0646C62.1113 34.3444 61.4985 34.1853 61.2187 33.7091C60.9388 33.233 61.098 32.6202 61.5741 32.3403L62.5875 34.0646ZM64.2065 30.8157C64.6862 30.542 65.2969 30.7089 65.5706 31.1886C65.8444 31.6683 65.6774 32.2791 65.1977 32.5528L64.2065 30.8157ZM72.2499 28.6978C71.7603 28.9534 71.1562 28.7637 70.9006 28.2741C70.6451 27.7845 70.8348 27.1804 71.3244 26.9248L72.2499 28.6978ZM74.0347 25.5363C74.5282 25.2883 75.1293 25.4874 75.3772 25.9808C75.6252 26.4743 75.4262 27.0754 74.9327 27.3234L74.0347 25.5363ZM82.1851 23.8799C81.6808 24.105 81.0895 23.8785 80.8644 23.3742C80.6394 22.8698 80.8658 22.2785 81.3701 22.0535L82.1851 23.8799ZM84.1629 20.839C84.6715 20.6237 85.2583 20.8615 85.4736 21.3701C85.6889 21.8787 85.4512 22.4655 84.9426 22.6808L84.1629 20.839ZM92.4128 19.7635C91.8926 19.9489 91.3205 19.6775 91.1351 19.1572C90.9497 18.637 91.2211 18.065 91.7413 17.8796L92.4128 19.7635ZM94.6257 16.885C95.1491 16.7086 95.7164 16.9898 95.8928 17.5132C96.0692 18.0365 95.788 18.6038 95.2646 18.7802L94.6257 16.885ZM103.002 16.2893C102.474 16.4514 101.915 16.1548 101.753 15.6268C101.591 15.0988 101.888 14.5394 102.416 14.3774L103.002 16.2893ZM105.353 13.492C105.883 13.3353 106.439 13.6375 106.596 14.1671C106.752 14.6967 106.45 15.2531 105.92 15.4098L105.353 13.492ZM113.746 13.2079C113.213 13.3503 112.665 13.0333 112.522 12.4997C112.38 11.9661 112.697 11.418 113.23 11.2756L113.746 13.2079ZM116.198 10.4991C116.733 10.362 117.278 10.6845 117.415 11.2195C117.553 11.7545 117.23 12.2994 116.695 12.4365L116.198 10.4991ZM124.596 10.524C124.057 10.6467 123.521 10.3097 123.398 9.77123C123.276 9.23275 123.613 8.69674 124.151 8.574L124.596 10.524ZM127.147 7.90709C127.686 7.78979 128.219 8.13219 128.336 8.67188C128.454 9.21157 128.111 9.74416 127.571 9.86146L127.147 7.90709ZM135.537 8.24284C134.994 8.34543 134.471 7.98868 134.369 7.44601C134.266 6.90334 134.623 6.38025 135.165 6.27764L135.537 8.24284ZM138.184 5.72308C138.728 5.62609 139.247 5.98823 139.344 6.53193C139.441 7.07563 139.079 7.59501 138.535 7.692L138.184 5.72308ZM146.556 6.37632C146.01 6.45804 145.501 6.08149 145.419 5.53529C145.337 4.98908 145.714 4.48005 146.26 4.39833L146.556 6.37632ZM149.296 3.96071C149.843 3.88487 150.348 4.26686 150.424 4.81391C150.5 5.36096 150.118 5.86593 149.571 5.94177L149.296 3.96071ZM157.638 4.9433C157.089 5.00301 156.595 4.60633 156.536 4.05727C156.476 3.50823 156.873 3.01472 157.422 2.95501L157.638 4.9433ZM160.472 2.64075C161.021 2.58728 161.51 2.98954 161.564 3.53924C161.617 4.08892 161.215 4.57788 160.665 4.63136L160.472 2.64075ZM168.766 3.97045C168.215 4.00664 167.739 3.58921 167.703 3.0381C167.667 2.487 168.084 2.01092 168.635 1.97475L168.766 3.97045ZM171.699 1.79238C172.251 1.76294 172.722 2.18617 172.751 2.73767C172.781 3.28918 172.357 3.7601 171.806 3.78954L171.699 1.79238ZM179.921 3.49378C179.369 3.50435 178.912 3.06531 178.902 2.51312C178.891 1.96094 179.33 1.50473 179.882 1.49413L179.921 3.49378ZM182.957 1.45577C183.509 1.4526 183.96 1.89775 183.963 2.45002C183.966 3.0023 183.521 3.45257 182.968 3.45574L182.957 1.45577ZM191.081 3.56044C190.529 3.54273 190.096 3.0809 190.114 2.5289C190.131 1.9769 190.593 1.54376 191.145 1.56145L191.081 3.56044ZM194.219 1.68299C194.771 1.70898 195.197 2.17728 195.171 2.72895C195.145 3.28062 194.677 3.70678 194.125 3.68079L194.219 1.68299ZM202.22 4.2326C201.67 4.18311 201.265 3.69709 201.314 3.14702C201.364 2.59696 201.85 2.19117 202.4 2.24065L202.22 4.2326ZM205.455 2.54163C206.004 2.60049 206.401 3.09339 206.342 3.64252C206.283 4.19166 205.791 4.58911 205.241 4.53023L205.455 2.54163ZM213.28 5.58854C212.735 5.5028 212.362 4.99099 212.448 4.44541C212.534 3.89982 213.045 3.52706 213.591 3.6128L213.28 5.58854ZM216.631 4.12137C217.174 4.21797 217.537 4.73709 217.44 5.28086C217.344 5.82463 216.825 6.18714 216.281 6.09055L216.631 4.12137ZM224.209 7.73075C223.671 7.60301 223.339 7.06387 223.467 6.52657C223.595 5.98926 224.134 5.65725 224.671 5.78499L224.209 7.73075ZM227.654 6.53093C228.188 6.67127 228.507 7.21806 228.367 7.75221C228.227 8.28637 227.68 8.60563 227.146 8.46529L227.654 6.53093ZM234.894 10.7826C234.371 10.6058 234.09 10.0384 234.267 9.51515C234.444 8.99192 235.011 8.71109 235.535 8.88789L234.894 10.7826ZM238.45 9.91887C238.967 10.1105 239.232 10.6857 239.04 11.2037C238.849 11.7217 238.274 11.9863 237.756 11.7946L238.45 9.91887ZM245.204 14.9004C244.703 14.6662 244.488 14.0709 244.722 13.5707C244.956 13.0706 245.551 12.8549 246.052 13.0891L245.204 14.9004ZM248.769 14.2264C249.287 14.4168 249.553 14.9915 249.362 15.5099C249.172 16.0283 248.597 16.2941 248.079 16.1036L248.769 14.2264ZM255.525 19.1015C255.019 18.8801 254.788 18.2905 255.009 17.7845C255.231 17.2786 255.82 17.0478 256.326 17.2692L255.525 19.1015ZM259.115 18.5245C259.616 18.7565 259.834 19.3508 259.602 19.852C259.37 20.3532 258.776 20.5715 258.275 20.3395L259.115 18.5245ZM265.474 23.9071C264.986 23.6492 264.799 23.0442 265.057 22.5558C265.314 22.0674 265.919 21.8806 266.408 22.1385L265.474 23.9071ZM269.093 23.5879C269.576 23.8547 269.752 24.4629 269.485 24.9465C269.218 25.4301 268.61 25.6059 268.127 25.3391L269.093 23.5879ZM275.079 29.3873C274.608 29.0987 274.46 28.483 274.748 28.0121C275.037 27.5412 275.652 27.3934 276.123 27.6819L275.079 29.3873ZM278.711 29.2959C279.177 29.5919 279.315 30.2099 279.019 30.6761C278.723 31.1424 278.105 31.2804 277.639 30.9843L278.711 29.2959ZM284.346 35.4362C283.892 35.1218 283.778 34.4988 284.093 34.0447C284.407 33.5907 285.03 33.4775 285.484 33.7919L284.346 35.4362ZM287.977 35.5441C288.426 35.8648 288.531 36.4893 288.21 36.9389C287.889 37.3885 287.265 37.493 286.815 37.1722L287.977 35.5441ZM293.289 41.9676C292.851 41.6312 292.769 41.0034 293.105 40.5654C293.441 40.1274 294.069 40.045 294.507 40.3813L293.289 41.9676ZM296.911 42.2513C297.345 42.5931 297.419 43.2218 297.077 43.6557C296.736 44.0895 296.107 44.164 295.673 43.8222L296.911 42.2513ZM301.919 48.9068C301.497 48.5516 301.442 47.9208 301.797 47.4979C302.152 47.075 302.783 47.0202 303.206 47.3754L301.919 48.9068ZM305.532 49.352C305.951 49.7119 305.999 50.3433 305.639 50.7622C305.279 51.1811 304.648 51.2289 304.229 50.8689L305.532 49.352ZM310.266 56.2082C309.858 55.8366 309.828 55.2042 310.199 54.7956C310.571 54.387 311.203 54.3571 311.612 54.7287L310.266 56.2082ZM313.854 56.7888C314.259 57.1645 314.282 57.7972 313.907 58.202C313.531 58.6068 312.898 58.6304 312.493 58.2547L313.854 56.7888ZM318.336 63.8199C317.941 63.4339 317.933 62.8008 318.319 62.4058C318.705 62.0108 319.338 62.0034 319.734 62.3894L318.336 63.8199ZM321.891 64.5171C322.283 64.9067 322.284 65.5398 321.894 65.9313C321.505 66.3228 320.872 66.3243 320.48 65.9347L321.891 64.5171ZM326.14 71.7037C325.758 71.3049 325.771 70.6719 326.17 70.2898C326.569 69.9077 327.202 69.9212 327.584 70.3199L326.14 71.7037ZM329.668 72.5141C330.047 72.9161 330.028 73.549 329.626 73.9277C329.224 74.3064 328.591 74.2875 328.213 73.8854L329.668 72.5141ZM333.691 79.833C333.321 79.4226 333.354 78.7903 333.764 78.4207C334.175 78.051 334.807 78.084 335.177 78.4944L333.691 79.833ZM337.19 80.7482C337.557 81.1615 337.519 81.7935 337.105 82.1598C336.692 82.5262 336.06 82.4881 335.694 82.0748L337.19 80.7482ZM340.996 88.1883C340.639 87.7673 340.691 87.1362 341.112 86.7788C341.533 86.4214 342.164 86.473 342.521 86.894L340.996 88.1883ZM344.47 89.2075C344.824 89.6314 344.767 90.262 344.343 90.6161C343.919 90.9702 343.289 90.9137 342.935 90.4899L344.47 89.2075ZM348.04 96.7335C347.695 96.3023 347.765 95.673 348.196 95.3279C348.628 94.9828 349.257 95.0526 349.602 95.4839L348.04 96.7335ZM351.508 97.885C351.849 98.319 351.774 98.9477 351.34 99.2893C350.906 99.6308 350.278 99.5559 349.936 99.1219L351.508 97.885ZM354.848 105.507C354.516 105.066 354.605 104.439 355.047 104.107C355.489 103.775 356.115 103.864 356.447 104.306L354.848 105.507ZM358.266 106.751C358.594 107.195 358.499 107.821 358.055 108.149C357.61 108.477 356.984 108.382 356.656 107.937L358.266 106.751ZM361.354 114.51C361.041 114.055 361.156 113.432 361.611 113.119C362.066 112.806 362.689 112.921 363.002 113.376L361.354 114.51ZM1.60653 79.3084C0.908945 78.5919 0.908956 78.5919 0.908968 78.5919C0.908974 78.5919 0.908989 78.5919 0.909 78.5918C0.909025 78.5918 0.909056 78.5918 0.909091 78.5918C0.909162 78.5917 0.909256 78.5916 0.909373 78.5915C0.909606 78.5913 0.90993 78.5909 0.910344 78.5905C0.911172 78.5897 0.912363 78.5886 0.913912 78.5871C0.917014 78.5841 0.921557 78.5796 0.927535 78.5738C0.939491 78.5622 0.957181 78.5451 0.980543 78.5225C1.02726 78.4773 1.09666 78.4104 1.18821 78.3226C1.37129 78.1469 1.64296 77.8874 1.99894 77.551L3.37272 79.0045C3.02056 79.3374 2.75258 79.5933 2.57305 79.7655C2.48329 79.8517 2.41564 79.9169 2.37064 79.9604C2.34814 79.9822 2.3313 79.9985 2.32019 80.0093C2.31464 80.0147 2.31052 80.0187 2.30783 80.0213C2.30649 80.0226 2.30551 80.0235 2.30489 80.0241C2.30458 80.0244 2.30437 80.0247 2.30424 80.0248C2.30417 80.0249 2.30413 80.0249 2.30411 80.0249C2.3041 80.0249 2.3041 80.0249 2.3041 80.0249C2.3041 80.0249 2.3041 80.0249 2.30411 80.0249C2.30411 80.0249 2.30412 80.0249 1.60653 79.3084ZM7.96479 72.0858C8.67606 71.4509 9.43587 70.7777 10.2418 70.0703L11.5612 71.5734C10.7596 72.277 10.0039 72.9464 9.29671 73.5778L7.96479 72.0858ZM16.3852 64.7908C17.1407 64.155 17.9192 63.5046 18.7198 62.8413L19.9959 64.3812C19.1993 65.0413 18.4247 65.6884 17.6731 66.321L16.3852 64.7908ZM25.0023 57.7423C25.7847 57.1205 26.5816 56.492 27.3926 55.8578L28.6246 57.4333C27.8179 58.0642 27.025 58.6894 26.2467 59.308L25.0023 57.7423ZM33.8253 50.9372C34.6283 50.3367 35.4416 49.7337 36.2646 49.1291L37.4487 50.7408C36.6304 51.3421 35.8217 51.9417 35.0231 52.5389L33.8253 50.9372ZM42.8444 44.4126C43.6698 43.8358 44.5028 43.2595 45.3428 42.6842L46.4729 44.3344C45.6381 44.906 44.8103 45.4788 43.9899 46.052L42.8444 44.4126ZM52.0913 38.1931C52.9392 37.6454 53.7928 37.1005 54.6515 36.5589L55.7184 38.2506C54.8659 38.7882 54.0184 39.3293 53.1764 39.8731L52.0913 38.1931ZM61.5741 32.3403C62.4477 31.827 63.3252 31.3185 64.2065 30.8157L65.1977 32.5528C64.324 33.0513 63.4538 33.5554 62.5875 34.0646L61.5741 32.3403ZM71.3244 26.9248C72.2253 26.4545 73.1289 25.9915 74.0347 25.5363L74.9327 27.3234C74.0363 27.7738 73.1419 28.2321 72.2499 28.6978L71.3244 26.9248ZM81.3701 22.0535C82.2999 21.6386 83.2309 21.2336 84.1629 20.839L84.9426 22.6808C84.0228 23.0702 83.1035 23.4701 82.1851 23.8799L81.3701 22.0535ZM91.7413 17.8796C92.2194 17.7092 92.6973 17.542 93.1752 17.3781L93.8239 19.27C93.3538 19.4312 92.8834 19.5957 92.4128 19.7635L91.7413 17.8796ZM93.1752 17.3781C93.658 17.2126 94.1415 17.0482 94.6257 16.885L95.2646 18.7802C94.7836 18.9423 94.3034 19.1056 93.8239 19.27L93.1752 17.3781ZM102.416 14.3774C103.392 14.0775 104.372 13.7824 105.353 13.492L105.92 15.4098C104.946 15.6982 103.973 15.9915 103.002 16.2893L102.416 14.3774ZM113.23 11.2756C114.218 11.0118 115.208 10.753 116.198 10.4991L116.695 12.4365C115.711 12.6887 114.728 12.9459 113.746 13.2079L113.23 11.2756ZM124.151 8.574C125.149 8.3466 126.147 8.12428 127.147 7.90709L127.571 9.86146C126.579 10.0772 125.587 10.2981 124.596 10.524L124.151 8.574ZM135.165 6.27764C136.171 6.08746 137.178 5.90259 138.184 5.72308L138.535 7.692C137.536 7.87029 136.536 8.05393 135.537 8.24284L135.165 6.27764ZM146.26 4.39833C147.273 4.24685 148.285 4.10095 149.296 3.96071L149.571 5.94177C148.567 6.08101 147.562 6.22588 146.556 6.37632L146.26 4.39833ZM157.422 2.95501C158.44 2.8443 159.456 2.73953 160.472 2.64075L160.665 4.63136C159.658 4.72939 158.648 4.83339 157.638 4.9433L157.422 2.95501ZM168.635 1.97475C169.659 1.90757 170.68 1.84676 171.699 1.79238L171.806 3.78954C170.795 3.84348 169.782 3.9038 168.766 3.97045L168.635 1.97475ZM179.882 1.49413C180.91 1.47444 181.935 1.46163 182.957 1.45577L182.968 3.45574C181.956 3.46153 180.94 3.47423 179.921 3.49378L179.882 1.49413ZM191.145 1.56145C192.174 1.59444 193.199 1.63492 194.219 1.68299L194.125 3.68079C193.115 3.63319 192.1 3.59309 191.081 3.56044L191.145 1.56145ZM202.4 2.24065C203.423 2.33273 204.442 2.43303 205.455 2.54163L205.241 4.53023C204.24 4.42286 203.233 4.32368 202.22 4.2326L202.4 2.24065ZM213.591 3.6128C214.611 3.7731 215.624 3.94259 216.631 4.12137L216.281 6.09055C215.288 5.91413 214.287 5.74682 213.28 5.58854L213.591 3.6128ZM224.671 5.78499C225.674 6.02334 226.668 6.27195 227.654 6.53093L227.146 8.46529C226.175 8.21037 225.196 7.96555 224.209 7.73075L224.671 5.78499ZM235.535 8.88789C236.517 9.21978 237.489 9.5634 238.45 9.91887L237.756 11.7946C236.813 11.4459 235.859 11.1086 234.894 10.7826L235.535 8.88789ZM246.052 13.0891C246.517 13.3072 246.98 13.5285 247.439 13.7532L246.561 15.5498C246.112 15.3302 245.659 15.1137 245.204 14.9004L246.052 13.0891ZM247.334 13.7088C247.813 13.8783 248.291 14.0509 248.769 14.2264L248.079 16.1036C247.609 15.9309 247.138 15.7611 246.666 15.5942L247.334 13.7088ZM256.326 17.2692C257.259 17.6773 258.189 18.0959 259.115 18.5245L258.275 20.3395C257.361 19.9167 256.445 19.5039 255.525 19.1015L256.326 17.2692ZM266.408 22.1385C267.306 22.613 268.201 23.0963 269.093 23.5879L268.127 25.3391C267.246 24.8532 266.362 24.3758 265.474 23.9071L266.408 22.1385ZM276.123 27.6819C276.99 28.2128 277.852 28.751 278.711 29.2959L277.639 30.9843C276.789 30.445 275.936 29.9125 275.079 29.3873L276.123 27.6819ZM285.484 33.7919C286.32 34.3704 287.15 34.9546 287.977 35.5441L286.815 37.1722C285.996 36.588 285.173 36.0092 284.346 35.4362L285.484 33.7919ZM294.507 40.3813C295.313 41.0005 296.115 41.6239 296.911 42.2513L295.673 43.8222C294.883 43.1999 294.089 42.5816 293.289 41.9676L294.507 40.3813ZM303.206 47.3754C303.987 48.0315 304.762 48.6905 305.532 49.352L304.229 50.8689C303.465 50.2122 302.695 49.558 301.919 48.9068L303.206 47.3754ZM311.612 54.7287C312.365 55.4142 313.113 56.101 313.854 56.7888L312.493 58.2547C311.757 57.5714 311.015 56.8891 310.266 56.2082L311.612 54.7287ZM319.734 62.3894C320.46 63.0992 321.179 63.8085 321.891 64.5171L320.48 65.9347C319.773 65.2304 319.058 64.5253 318.336 63.8199L319.734 62.3894ZM327.584 70.3199C328.287 71.0539 328.982 71.7855 329.668 72.5141L328.213 73.8854C327.53 73.1609 326.839 72.4335 326.14 71.7037L327.584 70.3199ZM335.177 78.4944C335.858 79.2511 336.53 80.0026 337.19 80.7482L335.694 82.0748C335.036 81.3332 334.369 80.5857 333.691 79.833L335.177 78.4944ZM342.521 86.894C343.184 87.6752 343.834 88.4467 344.47 89.2075L342.935 90.4899C342.302 89.7329 341.656 88.9654 340.996 88.1883L342.521 86.894ZM349.602 95.4839C350.258 96.3035 350.893 97.1044 351.508 97.885L349.936 99.1219C349.325 98.3455 348.693 97.5488 348.04 96.7335L349.602 95.4839ZM356.447 104.306C357.094 105.167 357.7 105.983 358.266 106.751L356.656 107.937C356.094 107.174 355.491 106.363 354.848 105.507L356.447 104.306ZM363.002 113.376C363.274 113.773 363.481 114.077 363.62 114.283C363.69 114.386 363.742 114.465 363.778 114.517C363.795 114.544 363.809 114.564 363.818 114.578C363.822 114.584 363.826 114.59 363.828 114.593C363.829 114.595 363.83 114.596 363.831 114.597C363.831 114.598 363.832 114.598 363.832 114.598C363.832 114.599 363.832 114.599 363.832 114.599C363.832 114.599 363.832 114.599 363.832 114.599C363.832 114.599 363.832 114.599 363.832 114.599C363.832 114.599 363.832 114.599 362.999 115.151C362.165 115.704 362.165 115.704 362.165 115.704C362.165 115.704 362.165 115.704 362.165 115.704C362.165 115.704 362.165 115.704 362.165 115.704C362.165 115.704 362.165 115.704 362.165 115.704C362.165 115.704 362.165 115.704 362.165 115.703C362.164 115.703 362.163 115.702 362.162 115.7C362.161 115.697 362.157 115.692 362.153 115.686C362.145 115.674 362.132 115.655 362.115 115.63C362.082 115.579 362.031 115.503 361.963 115.402C361.827 115.201 361.623 114.901 361.354 114.51L363.002 113.376ZM93.4995 18.3241L92.8509 16.4322L93.4995 18.3241ZM247 14.6515L246.333 16.5369L246.225 16.4986L246.121 16.4482L247 14.6515ZM364.959 115.549C364.739 116.631 363.684 117.331 362.601 117.112L344.96 113.537C343.877 113.318 343.178 112.262 343.397 111.18C343.616 110.097 344.672 109.397 345.754 109.617L361.436 112.794L364.613 97.1128C364.833 96.0303 365.888 95.3305 366.971 95.5499C368.053 95.7692 368.753 96.8247 368.534 97.9072L364.959 115.549ZM1.31205 76.8242C2.11481 76.0655 3.38063 76.1012 4.13935 76.904C4.89807 77.7067 4.86236 78.9726 4.05961 79.7313L1.31205 76.8242ZM9.96266 74.3238C9.13867 75.0594 7.87437 74.9877 7.13877 74.1637C6.40317 73.3397 6.47484 72.0754 7.29883 71.3398L9.96266 74.3238ZM9.58205 69.3188C10.4122 68.5901 11.6758 68.6723 12.4045 69.5024C13.1332 70.3325 13.051 71.5962 12.2209 72.3249L9.58205 69.3188ZM18.317 67.0861C17.4718 67.7974 16.2102 67.6889 15.4989 66.8437C14.7877 65.9986 14.8962 64.737 15.7413 64.0257L18.317 67.0861ZM18.0818 62.0713C18.9323 61.3665 20.1931 61.4846 20.8978 62.3351C21.6026 63.1857 21.4845 64.4465 20.6339 65.1512L18.0818 62.0713ZM26.8689 60.0909C26.0042 60.7781 24.746 60.6343 24.0588 59.7695C23.3715 58.9048 23.5154 57.6467 24.3801 56.9594L26.8689 60.0909ZM26.7765 55.0701C27.6466 54.3897 28.9036 54.5434 29.5841 55.4135C30.2645 56.2836 30.1108 57.5405 29.2407 58.221L26.7765 55.0701ZM35.6219 53.3397C34.7373 54.0012 33.484 53.8203 32.8225 52.9357C32.161 52.0512 32.3419 50.7978 33.2265 50.1363L35.6219 53.3397ZM35.6725 48.3232C36.5626 47.6692 37.8144 47.8606 38.4684 48.7508C39.1224 49.6409 38.931 50.8927 38.0408 51.5467L35.6725 48.3232ZM44.5627 46.8717C43.6573 47.5044 42.4104 47.2833 41.7777 46.3778C41.145 45.4724 41.3662 44.2255 42.2716 43.5929L44.5627 46.8717ZM44.7778 41.8591C45.6892 41.235 46.9339 41.4679 47.558 42.3793C48.1821 43.2906 47.9492 44.5354 47.0379 45.1594L44.7778 41.8591ZM53.719 40.7131C52.7912 41.3124 51.5532 41.0461 50.9538 40.1183C50.3545 39.1904 50.6209 37.9524 51.5487 37.3531L53.719 40.7131ZM54.1181 35.7131C55.0524 35.1239 56.2874 35.4036 56.8766 36.3379C57.4658 37.2722 57.1861 38.5072 56.2518 39.0964L54.1181 35.7131ZM63.0941 34.9267C62.1418 35.4864 60.9162 35.1681 60.3565 34.2158C59.7969 33.2635 60.1152 32.0378 61.0675 31.4782L63.0941 34.9267ZM63.7109 29.9471C64.6703 29.3997 65.8918 29.7337 66.4392 30.693C66.9866 31.6524 66.6527 32.8739 65.6933 33.4213L63.7109 29.9471ZM72.7127 29.5843C71.7335 30.0954 70.5253 29.716 70.0142 28.7369C69.503 27.7577 69.8824 26.5495 70.8616 26.0384L72.7127 29.5843ZM73.5857 24.6428C74.5727 24.1468 75.7748 24.5449 76.2708 25.5319C76.7667 26.5188 76.3687 27.721 75.3817 28.2169L73.5857 24.6428ZM82.5926 24.7931C81.5839 25.2432 80.4013 24.7904 79.9512 23.7817C79.5011 22.773 79.9539 21.5904 80.9626 21.1403L82.5926 24.7931ZM83.773 19.9182C84.7902 19.4876 85.9639 19.963 86.3945 20.9802C86.8251 21.9974 86.3496 23.1711 85.3324 23.6017L83.773 19.9182ZM92.7486 20.7054C91.7081 21.0763 90.564 20.5334 90.1932 19.493C89.8223 18.4525 90.3651 17.3084 91.4056 16.9376L92.7486 20.7054ZM94.3063 15.9374C95.353 15.5845 96.4875 16.147 96.8404 17.1937C97.1932 18.2404 96.6307 19.375 95.584 19.7278L94.3063 15.9374ZM103.296 17.2453C102.24 17.5694 101.121 16.9762 100.797 15.9202C100.473 14.8643 101.066 13.7455 102.122 13.4214L103.296 17.2453ZM105.069 12.5331C106.128 12.2197 107.241 12.8242 107.555 13.8834C107.868 14.9426 107.263 16.0553 106.204 16.3687L105.069 12.5331ZM114.004 14.174C112.937 14.459 111.841 13.8248 111.556 12.7576C111.271 11.6904 111.905 10.5943 112.972 10.3094L114.004 14.174ZM115.95 9.53037C117.02 9.25617 118.11 9.90128 118.384 10.9713C118.658 12.0413 118.013 13.131 116.943 13.4052L115.95 9.53037ZM124.818 11.499C123.741 11.7444 122.669 11.0704 122.423 9.99346C122.178 8.91652 122.852 7.84448 123.929 7.599L124.818 11.499ZM126.934 6.92989C128.014 6.69529 129.079 7.38012 129.313 8.4595C129.548 9.53886 128.863 10.604 127.784 10.8386L126.934 6.92989ZM135.723 9.22543C134.637 9.43063 133.591 8.71713 133.386 7.63179C133.181 6.54645 133.894 5.50026 134.98 5.29506L135.723 9.22543ZM138.008 4.73863C139.096 4.54464 140.134 5.26891 140.328 6.35631C140.522 7.44371 139.798 8.48248 138.711 8.67646L138.008 4.73863ZM146.704 7.36531C145.611 7.52874 144.593 6.77565 144.43 5.68323C144.267 4.59082 145.02 3.57277 146.112 3.40934L146.704 7.36531ZM149.159 2.97018C150.253 2.81851 151.263 3.58249 151.415 4.67658C151.566 5.77069 150.802 6.7806 149.708 6.93229L149.159 2.97018ZM157.746 5.93742C156.648 6.05686 155.661 5.26348 155.541 4.1654C155.422 3.06731 156.215 2.08031 157.313 1.96087L157.746 5.93742ZM160.375 1.64545C161.474 1.5385 162.452 2.34302 162.559 3.44241C162.666 4.54179 161.862 5.51971 160.762 5.62666L160.375 1.64545ZM168.832 4.96831C167.729 5.04067 166.777 4.2058 166.705 3.10361C166.633 2.00141 167.467 1.04925 168.57 0.976891L168.832 4.96831ZM171.646 0.793789C172.749 0.734935 173.691 1.58139 173.75 2.6844C173.809 3.78739 172.962 4.72926 171.859 4.78811L171.646 0.793789ZM179.94 4.49358C178.836 4.51477 177.923 3.63666 177.902 2.53229C177.881 1.42793 178.759 0.515497 179.863 0.494328L179.94 4.49358ZM182.951 0.455783C184.056 0.449458 184.956 1.33975 184.963 2.4443C184.969 3.54885 184.079 4.44939 182.974 4.45571L182.951 0.455783ZM191.049 4.55991C189.945 4.52453 189.079 3.60087 189.114 2.49686C189.15 1.39286 190.073 0.526578 191.177 0.561977L191.049 4.55991ZM194.266 0.684112C195.37 0.736085 196.222 1.67265 196.17 2.77601C196.118 3.87935 195.181 4.73165 194.078 4.67967L194.266 0.684112ZM202.131 5.22859C201.031 5.12961 200.219 4.15753 200.318 3.05742C200.417 1.95729 201.389 1.14569 202.489 1.24467L202.131 5.22859ZM205.561 1.54733C206.659 1.66507 207.454 2.65084 207.337 3.74912C207.219 4.84739 206.233 5.64228 205.135 5.52454L205.561 1.54733ZM213.125 6.57642C212.034 6.40492 211.288 5.38132 211.46 4.29015C211.631 3.19897 212.655 2.45343 213.746 2.62493L213.125 6.57642ZM216.806 3.13679C217.893 3.32998 218.618 4.36821 218.425 5.45575C218.232 6.5433 217.193 7.26833 216.106 7.07514L216.806 3.13679ZM223.977 8.70363C222.903 8.44814 222.239 7.36988 222.494 6.29526C222.75 5.22065 223.828 4.55662 224.903 4.81211L223.977 8.70363ZM227.908 5.56375C228.976 5.84443 229.615 6.938 229.334 8.00632C229.053 9.07463 227.96 9.71314 226.892 9.43246L227.908 5.56375ZM234.574 11.73C233.528 11.3764 232.966 10.2415 233.32 9.19503C233.673 8.14858 234.808 7.58692 235.855 7.94051L234.574 11.73ZM238.796 8.98098C239.832 9.36419 240.362 10.5147 239.978 11.5506C239.595 12.5866 238.445 13.1158 237.409 12.7325L238.796 8.98098ZM244.78 15.8061C243.779 15.3377 243.348 14.1471 243.816 13.1467C244.285 12.1464 245.475 11.7151 246.476 12.1834L244.78 15.8061ZM249.114 13.2877C250.15 13.6687 250.682 14.818 250.301 15.8548C249.92 16.8916 248.771 17.4232 247.734 17.0423L249.114 13.2877ZM255.124 20.0177C254.112 19.575 253.65 18.3957 254.093 17.3838C254.536 16.3718 255.715 15.9103 256.727 16.353L255.124 20.0177ZM259.535 17.617C260.537 18.0809 260.974 19.2696 260.51 20.272C260.046 21.2744 258.857 21.711 257.855 21.247L259.535 17.617ZM265.007 24.7913C264.03 24.2756 263.657 23.0657 264.172 22.0889C264.688 21.1121 265.898 20.7384 266.875 21.2542L265.007 24.7913ZM269.576 22.7123C270.543 23.2458 270.894 24.4624 270.361 25.4296C269.827 26.3967 268.611 26.7482 267.643 26.2147L269.576 22.7123ZM274.556 30.2399C273.614 29.6628 273.319 28.4315 273.896 27.4897C274.473 26.5478 275.704 26.2522 276.646 26.8293L274.556 30.2399ZM279.247 28.4517C280.179 29.0438 280.455 30.2797 279.863 31.2121C279.271 32.1446 278.035 32.4206 277.103 31.8285L279.247 28.4517ZM283.776 36.2583C282.868 35.6295 282.642 34.3836 283.271 33.4755C283.899 32.5673 285.145 32.3409 286.053 32.9697L283.776 36.2583ZM288.558 34.73C289.457 35.3715 289.666 36.6205 289.024 37.5197C288.383 38.4189 287.134 38.6278 286.235 37.9863L288.558 34.73ZM292.68 42.7607C291.804 42.0879 291.639 40.8323 292.312 39.9563C292.985 39.0803 294.24 38.9155 295.116 39.5882L292.68 42.7607ZM297.53 41.4658C298.397 42.1494 298.547 43.4069 297.863 44.2745C297.179 45.1422 295.922 45.2913 295.054 44.6077L297.53 41.4658ZM301.276 49.6725C300.43 48.962 300.321 47.7004 301.031 46.8547C301.742 46.0089 303.003 45.8992 303.849 46.6097L301.276 49.6725ZM306.184 48.5935C307.022 49.3134 307.117 50.5761 306.397 51.4139C305.678 52.2517 304.415 52.3473 303.577 51.6274L306.184 48.5935ZM309.593 56.948C308.776 56.2048 308.716 54.9399 309.459 54.1228C310.203 53.3056 311.468 53.2457 312.285 53.9889L309.593 56.948ZM314.534 56.0558C315.344 56.8072 315.391 58.0727 314.64 58.8823C313.888 59.6919 312.623 59.7391 311.813 58.9877L314.534 56.0558ZM317.637 64.5352C316.847 63.7632 316.832 62.497 317.604 61.7069C318.376 60.9169 319.642 60.9022 320.432 61.6742L317.637 64.5352ZM322.596 63.8083C323.379 64.5875 323.382 65.8538 322.603 66.6367C321.824 67.4196 320.558 67.4227 319.775 66.6435L322.596 63.8083ZM325.418 72.3955C324.654 71.598 324.681 70.3319 325.478 69.5677C326.276 68.8035 327.542 68.8305 328.306 69.6281L325.418 72.3955ZM330.396 71.8284C331.154 72.6324 331.116 73.8982 330.312 74.6556C329.508 75.413 328.242 75.3751 327.485 74.5711L330.396 71.8284ZM332.948 80.5023C332.208 79.6816 332.274 78.417 333.095 77.6777C333.916 76.9384 335.18 77.0044 335.92 77.8251L332.948 80.5023ZM337.939 80.0849C338.671 80.9115 338.595 82.1755 337.769 82.9082C336.942 83.6409 335.678 83.5647 334.945 82.7381L337.939 80.0849ZM340.234 88.8355C339.519 87.9934 339.622 86.7313 340.464 86.0165C341.307 85.3016 342.569 85.4048 343.284 86.2468L340.234 88.8355ZM345.237 88.5664C345.945 89.414 345.832 90.6753 344.984 91.3835C344.137 92.0917 342.876 91.9787 342.167 91.131L345.237 88.5664ZM347.26 97.3583C346.57 96.4959 346.709 95.2373 347.572 94.5471C348.434 93.857 349.693 93.9966 350.383 94.859L347.26 97.3583ZM352.293 97.2665C352.977 98.1345 352.827 99.392 351.959 100.075C351.091 100.758 349.833 100.608 349.15 99.7404L352.293 97.2665ZM354.049 106.108C353.385 105.225 353.563 103.971 354.446 103.308C355.329 102.644 356.583 102.822 357.247 103.705L354.049 106.108ZM359.071 106.157C359.727 107.047 359.537 108.299 358.648 108.954C357.759 109.609 356.507 109.42 355.851 108.53L359.071 106.157ZM360.53 115.077C359.904 114.167 360.134 112.921 361.044 112.295C361.954 111.669 363.199 111.899 363.826 112.809L360.53 115.077ZM1.60653 79.3084C0.211357 77.8754 0.211378 77.8754 0.211399 77.8754C0.211409 77.8753 0.211433 77.8753 0.211452 77.8753C0.211489 77.8753 0.211532 77.8752 0.211581 77.8752C0.211678 77.8751 0.211798 77.875 0.21194 77.8748C0.212226 77.8746 0.212602 77.8742 0.213068 77.8737C0.214001 77.8728 0.215296 77.8716 0.216952 77.87C0.220263 77.8667 0.225018 77.8621 0.231206 77.8561C0.243585 77.8441 0.261703 77.8266 0.285494 77.8036C0.333077 77.7576 0.403352 77.6898 0.495787 77.6011C0.680652 77.4237 0.954165 77.1625 1.31205 76.8242L4.05961 79.7313C3.70936 80.0623 3.44322 80.3165 3.26547 80.487C3.1766 80.5723 3.10983 80.6367 3.06569 80.6794C3.04362 80.7007 3.02721 80.7166 3.01652 80.727C3.01118 80.7322 3.00727 80.736 3.0048 80.7384C3.00356 80.7396 3.00268 80.7404 3.00217 80.741C3.00191 80.7412 3.00174 80.7414 3.00167 80.7414C3.00163 80.7415 3.00161 80.7415 3.00162 80.7415C3.00162 80.7415 3.00163 80.7415 3.00165 80.7415C3.00166 80.7415 3.00167 80.7414 3.00167 80.7414C3.00169 80.7414 3.00171 80.7414 1.60653 79.3084ZM7.29883 71.3398C8.01212 70.7031 8.77401 70.0281 9.58205 69.3188L12.2209 72.3249C11.4214 73.0267 10.6679 73.6942 9.96266 74.3238L7.29883 71.3398ZM15.7413 64.0257C16.4987 63.3883 17.2792 62.7363 18.0818 62.0713L20.6339 65.1512C19.8394 65.8096 19.0667 66.4552 18.317 67.0861L15.7413 64.0257ZM24.3801 56.9594C25.1645 56.3361 25.9635 55.7059 26.7765 55.0701L29.2407 58.221C28.436 58.8502 27.6452 59.4739 26.8689 60.0909L24.3801 56.9594ZM33.2265 50.1363C34.0317 49.5342 34.8472 48.9295 35.6725 48.3232L38.0408 51.5467C37.2248 52.1462 36.4183 52.7442 35.6219 53.3397L33.2265 50.1363ZM42.2716 43.5929C43.0995 43.0143 43.9351 42.4362 44.7778 41.8591L47.0379 45.1594C46.2057 45.7293 45.3805 46.3003 44.5627 46.8717L42.2716 43.5929ZM51.5487 37.3531C52.3996 36.8035 53.2562 36.2566 54.1181 35.7131L56.2518 39.0964C55.4024 39.6321 54.5581 40.1712 53.719 40.7131L51.5487 37.3531ZM61.0675 31.4782C61.9446 30.9627 62.8258 30.4522 63.7109 29.9471L65.6933 33.4213C64.8234 33.9177 63.9569 34.4197 63.0941 34.9267L61.0675 31.4782ZM70.8616 26.0384C71.767 25.5657 72.6751 25.1003 73.5857 24.6428L75.3817 28.2169C74.49 28.665 73.6002 29.1209 72.7127 29.5843L70.8616 26.0384ZM80.9626 21.1403C81.8981 20.7229 82.835 20.3153 83.773 19.9182L85.3324 23.6017C84.4187 23.9885 83.5053 24.3858 82.5926 24.7931L80.9626 21.1403ZM91.4056 16.9376C91.8873 16.7659 92.3691 16.5974 92.8509 16.4322L94.1482 20.216C93.682 20.3758 93.2154 20.539 92.7486 20.7054L91.4056 16.9376ZM92.8509 16.4322C93.3353 16.2661 93.8204 16.1012 94.3063 15.9374L95.584 19.7278C95.1047 19.8894 94.6261 20.0521 94.1482 20.216L92.8509 16.4322ZM102.122 13.4214C103.102 13.1205 104.085 12.8244 105.069 12.5331L106.204 16.3687C105.233 16.6562 104.263 16.9484 103.296 17.2453L102.122 13.4214ZM112.972 10.3094C113.963 10.0448 114.956 9.78512 115.95 9.53037L116.943 13.4052C115.962 13.6566 114.982 13.9129 114.004 14.174L112.972 10.3094ZM123.929 7.599C124.93 7.37086 125.932 7.1478 126.934 6.92989L127.784 10.8386C126.794 11.0537 125.806 11.2738 124.818 11.499L123.929 7.599ZM134.98 5.29506C135.989 5.10423 136.999 4.91874 138.008 4.73863L138.711 8.67646C137.715 8.85414 136.719 9.03715 135.723 9.22543L134.98 5.29506ZM146.112 3.40934C147.128 3.25732 148.144 3.11093 149.159 2.97018L149.708 6.93229C148.708 7.07105 147.706 7.2154 146.704 7.36531L146.112 3.40934ZM157.313 1.96087C158.335 1.84976 159.356 1.74459 160.375 1.64545L160.762 5.62666C159.758 5.72432 158.753 5.82794 157.746 5.93742L157.313 1.96087ZM168.57 0.976891C169.597 0.90945 170.623 0.848394 171.646 0.793789L171.859 4.78811C170.852 4.84184 169.843 4.90192 168.832 4.96831L168.57 0.976891ZM179.863 0.494328C180.896 0.474536 181.925 0.461667 182.951 0.455783L182.974 4.45571C181.966 4.46148 180.954 4.47413 179.94 4.49358L179.863 0.494328ZM191.177 0.561977C192.211 0.595108 193.241 0.635787 194.266 0.684112L194.078 4.67967C193.073 4.63232 192.063 4.59242 191.049 4.55991L191.177 0.561977ZM202.489 1.24467C203.518 1.33725 204.542 1.43812 205.561 1.54733L205.135 5.52454C204.139 5.41779 203.138 5.31916 202.131 5.22859L202.489 1.24467ZM213.746 2.62493C214.773 2.78624 215.792 2.95682 216.806 3.13679L216.106 7.07514C215.119 6.89989 214.126 6.73368 213.125 6.57642L213.746 2.62493ZM224.903 4.81211C225.913 5.05224 226.915 5.30275 227.908 5.56375L226.892 9.43246C225.929 9.17957 224.958 8.93666 223.977 8.70363L224.903 4.81211ZM235.855 7.94051C236.846 8.27537 237.826 8.62215 238.796 8.98098L237.409 12.7325C236.475 12.3871 235.53 12.053 234.574 11.73L235.855 7.94051ZM246.476 12.1834C246.946 12.4039 247.414 12.6277 247.879 12.8548L246.121 16.4482C245.677 16.2311 245.23 16.017 244.78 15.8061L246.476 12.1834ZM247.667 12.7661C248.15 12.937 248.632 13.1109 249.114 13.2877L247.734 17.0423C247.268 16.8709 246.8 16.7024 246.333 16.5369L247.667 12.7661ZM256.727 16.353C257.667 16.764 258.603 17.1854 259.535 17.617L257.855 21.247C256.948 20.8271 256.037 20.4172 255.124 20.0177L256.727 16.353ZM266.875 21.2542C267.779 21.7316 268.679 22.2178 269.576 22.7123L267.643 26.2147C266.768 25.7317 265.889 25.2572 265.007 24.7913L266.875 21.2542ZM276.646 26.8293C277.517 27.363 278.384 27.904 279.247 28.4517L277.103 31.8285C276.258 31.292 275.409 30.7623 274.556 30.2399L276.646 26.8293ZM286.053 32.9697C286.893 33.5509 287.727 34.1378 288.558 34.73L286.235 37.9863C285.419 37.4048 284.6 36.8286 283.776 36.2583L286.053 32.9697ZM295.116 39.5882C295.926 40.2099 296.73 40.8359 297.53 41.4658L295.054 44.6077C294.268 43.9879 293.476 43.3721 292.68 42.7607L295.116 39.5882ZM303.849 46.6097C304.633 47.2683 305.411 47.9297 306.184 48.5935L303.577 51.6274C302.816 50.9731 302.049 50.3213 301.276 49.6725L303.849 46.6097ZM312.285 53.9889C313.041 54.6767 313.791 55.3658 314.534 56.0558L311.813 58.9877C311.079 58.3067 310.339 57.6266 309.593 56.948L312.285 53.9889ZM320.432 61.6742C321.161 62.3861 321.882 63.0976 322.596 63.8083L319.775 66.6435C319.069 65.9413 318.357 65.2384 317.637 64.5352L320.432 61.6742ZM328.306 69.6281C329.011 70.3642 329.708 71.0978 330.396 71.8284L327.485 74.5711C326.804 73.8486 326.115 73.1233 325.418 72.3955L328.306 69.6281ZM335.92 77.8251C336.603 78.5838 337.276 79.3373 337.939 80.0849L334.945 82.7381C334.29 81.9984 333.624 81.2529 332.948 80.5023L335.92 77.8251ZM343.284 86.2468C343.948 87.03 344.6 87.8035 345.237 88.5664L342.167 91.131C341.537 90.3761 340.892 89.6106 340.234 88.8355L343.284 86.2468ZM350.383 94.859C351.04 95.6808 351.677 96.4838 352.293 97.2665L349.15 99.7404C348.541 98.966 347.91 98.1714 347.26 97.3583L350.383 94.859ZM357.247 103.705C357.895 104.568 358.504 105.387 359.071 106.157L355.851 108.53C355.291 107.77 354.689 106.961 354.049 106.108L357.247 103.705ZM363.826 112.809C364.1 113.208 364.309 113.515 364.449 113.724C364.519 113.828 364.573 113.907 364.609 113.961C364.627 113.988 364.641 114.009 364.65 114.023C364.655 114.03 364.659 114.036 364.661 114.04C364.662 114.042 364.663 114.043 364.664 114.044C364.665 114.045 364.665 114.045 364.665 114.046C364.665 114.046 364.665 114.046 364.665 114.046C364.665 114.046 364.665 114.046 364.665 114.046C364.665 114.046 364.666 114.046 364.666 114.046C364.666 114.046 364.666 114.046 362.999 115.151C361.332 116.257 361.332 116.257 361.332 116.257C361.332 116.257 361.332 116.257 361.332 116.257C361.332 116.257 361.332 116.257 361.332 116.257C361.332 116.257 361.332 116.257 361.332 116.257C361.332 116.257 361.332 116.257 361.331 116.256C361.331 116.256 361.331 116.255 361.33 116.253C361.328 116.251 361.325 116.246 361.321 116.24C361.313 116.229 361.301 116.21 361.284 116.186C361.251 116.136 361.201 116.061 361.134 115.962C361 115.763 360.798 115.466 360.53 115.077L363.826 112.809Z" fill="#48A4FE"/>
</svg>
