<svg width="50" height="66" viewBox="0 0 50 66" fill="none" xmlns="http://www.w3.org/2000/svg">
<path d="M25 66C25 66 50 42.5452 50 24.75C50 18.1859 47.3661 11.8906 42.6777 7.24911C37.9893 2.60758 31.6304 0 25 0C18.3696 0 12.0107 2.60758 7.32233 7.24911C2.63392 11.8906 9.88008e-08 18.1859 0 24.75C0 42.5452 25 66 25 66ZM25 37.125C21.6848 37.125 18.5054 35.8212 16.1612 33.5004C13.817 31.1797 12.5 28.0321 12.5 24.75C12.5 21.4679 13.817 18.3203 16.1612 15.9996C18.5054 13.6788 21.6848 12.375 25 12.375C28.3152 12.375 31.4946 13.6788 33.8388 15.9996C36.183 18.3203 37.5 21.4679 37.5 24.75C37.5 28.0321 36.183 31.1797 33.8388 33.5004C31.4946 35.8212 28.3152 37.125 25 37.125Z" fill="#0056FF"/>
</svg>
