<svg width="164" height="169" viewBox="0 0 164 169" fill="none" xmlns="http://www.w3.org/2000/svg">
<circle cx="75.5" cy="85.5" r="75.5" fill="#DEEFFF"/>
<path d="M79.0759 168.744C118.341 168.744 150.171 164.571 150.171 159.424C150.171 154.277 118.341 150.105 79.0759 150.105C39.811 150.105 7.98047 154.277 7.98047 159.424C7.98047 164.571 39.811 168.744 79.0759 168.744Z" fill="#D1D3D4"/>
<path d="M74.0129 62.0132C74.0129 62.0132 67.2275 62.8276 64.7356 62.9918C62.2437 63.156 59.6729 64.9621 59.2521 65.3167C58.8313 65.6714 56.8456 68.4692 57.5097 70.6234C58.1738 72.7776 60.9155 74.8529 62.0793 75.0171C63.2431 75.1813 72.5533 70.492 74.631 68.8304L74.0129 62.0132Z" fill="white"/>
<path d="M62.1189 75.3456H62.0334C60.6856 75.1552 57.8649 72.909 57.1877 70.7483C56.4513 68.3577 58.6342 65.4088 59.0418 65.0738C59.0418 65.0738 61.8756 62.8671 64.716 62.6832C67.1685 62.519 73.921 61.7112 73.9736 61.7046C74.0182 61.6992 74.0635 61.7027 74.1066 61.7151C74.1498 61.7274 74.1901 61.7483 74.2251 61.7764C74.26 61.8046 74.2889 61.8395 74.3101 61.8791C74.3313 61.9187 74.3443 61.9621 74.3484 62.0068L74.9665 68.8305C74.9727 68.8864 74.9645 68.9428 74.9426 68.9946C74.9207 69.0463 74.8859 69.0916 74.8415 69.1261C72.9151 70.6301 63.8021 75.3456 62.1189 75.3456ZM73.7041 62.3745C72.2839 62.5453 66.9055 63.1758 64.7555 63.3203C62.6055 63.4648 60.153 65.0279 59.4955 65.5664C59.1865 65.8094 57.2403 68.489 57.8649 70.5119C58.4895 72.5347 61.0866 74.5181 62.1518 74.6692C63.2169 74.8202 71.9551 70.433 74.3024 68.6663L73.7041 62.3745Z" fill="#231F20"/>
<path d="M58.4901 71.0896C58.4901 71.0896 63.0334 75.0302 64.5259 75.0696C66.0184 75.109 65.1834 73.5721 65.1834 73.5721C65.1834 73.5721 66.6168 74.6952 66.8666 73.7626C67.1165 72.83 66.8009 72.4491 66.8009 72.4491C66.8009 72.4491 67.9844 74.0647 68.3 72.8825C68.6156 71.7004 68.4249 71.326 68.4249 71.326C68.4249 71.326 69.3585 73.1978 69.7925 71.8908C70.2264 70.5839 67.6753 65.9799 65.1242 63.7995C65.1242 63.7995 68.1093 64.1147 68.3591 63.0573C68.609 61.9999 65.933 61.5599 64.8086 61.5008C63.6843 61.4417 61.5211 62.8669 59.5815 63.0573C57.9161 63.127 56.2478 63.0435 54.5977 62.8078L54.8475 70.0322L58.4901 71.0896Z" fill="white"/>
<path d="M64.6112 75.4115H64.5125C62.9937 75.3524 59.0027 71.9832 58.3255 71.3987L54.7224 70.361C54.6522 70.3425 54.5899 70.3018 54.5448 70.245C54.4998 70.1881 54.4744 70.1182 54.4725 70.0457L54.2227 62.8213C54.2223 62.7713 54.232 62.7216 54.2512 62.6754C54.2704 62.6291 54.2987 62.5872 54.3344 62.5521C54.3726 62.5208 54.4169 62.4976 54.4644 62.4841C54.5118 62.4705 54.5616 62.4668 54.6106 62.4732C56.2348 62.7029 57.8766 62.7842 59.5155 62.7162C60.5246 62.5554 61.5069 62.2571 62.4348 61.8296C63.1727 61.4628 63.9738 61.2399 64.7953 61.1729C64.8281 61.1729 67.7211 61.3502 68.4838 62.3682C68.5699 62.4769 68.63 62.6038 68.6596 62.7392C68.6892 62.8747 68.6876 63.015 68.6548 63.1497C68.4444 64.0495 67.0045 64.2005 66.0248 64.2005C68.3786 66.5846 70.5615 70.6434 70.1079 72.0095C69.9632 72.4495 69.7265 72.6662 69.4175 72.7056C69.293 72.703 69.1704 72.6749 69.0573 72.6229C68.9442 72.5709 68.843 72.4963 68.76 72.4035C68.76 72.5743 68.6877 72.7647 68.6351 72.9815C68.5036 73.4741 68.234 73.6382 68.0302 73.6382C67.8972 73.6522 67.7628 73.6391 67.635 73.5996C67.5073 73.56 67.389 73.495 67.2872 73.4084C67.2663 73.5521 67.2378 73.6946 67.2017 73.8353C67.1749 73.9683 67.1133 74.0918 67.0233 74.1933C66.9332 74.2948 66.8178 74.3707 66.6889 74.4132C66.3815 74.4893 66.057 74.4519 65.7749 74.3081C65.8081 74.5357 65.7617 74.7676 65.6434 74.9649C65.5303 75.1282 65.3736 75.2565 65.1911 75.3354C65.0087 75.4144 64.8078 75.4407 64.6112 75.4115ZM55.1432 69.7699L58.5819 70.7616C58.6289 70.775 58.6718 70.7998 58.7068 70.8339C60.5018 72.3773 63.5329 74.6891 64.5388 74.7285C64.7953 74.7285 64.9728 74.6956 65.0254 74.6037C65.078 74.5117 64.9728 73.9469 64.8544 73.7433C64.8183 73.6748 64.8065 73.5961 64.821 73.5201C64.8356 73.444 64.8755 73.3751 64.9344 73.3248C64.9932 73.2744 65.0675 73.2454 65.1449 73.2427C65.2224 73.24 65.2985 73.2637 65.3607 73.3099C65.6593 73.5772 66.034 73.7448 66.4324 73.7893C66.4324 73.7893 66.4785 73.7893 66.5048 73.6776C66.6337 73.3528 66.6337 72.9911 66.5048 72.6662C66.4521 72.5955 66.4295 72.5069 66.4418 72.4196C66.4541 72.3323 66.5003 72.2534 66.5705 72.1999C66.6403 72.1475 66.7276 72.1237 66.8144 72.1334C66.9012 72.1432 66.981 72.1858 67.0373 72.2525C67.2397 72.5617 67.5212 72.8111 67.8526 72.9749C67.8822 72.9159 67.9065 72.8544 67.925 72.791C68.0784 72.3712 68.1258 71.92 68.063 71.4775C68.0431 71.438 68.0314 71.3949 68.0286 71.3507C68.0258 71.3066 68.032 71.2623 68.0467 71.2206C68.0615 71.1789 68.0845 71.1406 68.1144 71.108C68.1443 71.0754 68.1805 71.0492 68.2208 71.0309C68.303 70.992 68.3971 70.9867 68.4831 71.0162C68.5691 71.0456 68.6401 71.1075 68.6811 71.1885C68.8252 71.5182 69.0516 71.8054 69.3386 72.0226C69.3765 71.9482 69.4094 71.8714 69.4372 71.7927C69.7857 70.7616 67.4647 66.3022 64.8676 64.0758C64.8122 64.0284 64.7734 63.9647 64.7569 63.8938C64.7403 63.8229 64.7468 63.7486 64.7755 63.6817C64.8045 63.6152 64.8538 63.5596 64.9165 63.523C64.9791 63.4864 65.0518 63.4707 65.124 63.4781C66.2549 63.5963 67.8789 63.4781 67.9973 62.9921C68.006 62.9544 68.0057 62.9151 67.9966 62.8775C67.9874 62.8399 67.9697 62.8049 67.9447 62.7754C67.5436 62.2434 65.8078 61.9084 64.7558 61.8559C64.0363 61.937 63.3371 62.1461 62.6913 62.4732C61.7027 62.926 60.6561 63.2398 59.5813 63.4059C58.0247 63.4867 56.4639 63.4208 54.9196 63.2088L55.1432 69.7699Z" fill="#231F20"/>
<path d="M69.3909 62.6701C68.4368 62.6307 67.4812 62.657 66.5308 62.7489C64.8081 62.9131 62.954 63.4056 61.8954 64.7586C61.8265 64.8282 61.776 64.9139 61.7484 65.0079C61.7209 65.1019 61.7172 65.2013 61.7376 65.2971C61.8165 65.4876 62.0532 65.5467 62.2504 65.5795C63.6763 65.8005 65.1263 65.8182 66.5571 65.6321C66.7512 65.5826 66.9547 65.5826 67.1488 65.6321C67.2979 65.6993 67.4338 65.7927 67.5499 65.9079C68.117 66.3776 68.8197 66.6538 69.5553 66.696" fill="white"/>
<path d="M69.556 67.018C68.7448 66.9766 67.9692 66.6723 67.3468 66.151L67.2876 66.1051C67.2157 66.036 67.1337 65.9784 67.0443 65.9343C66.9059 65.9016 66.7619 65.9016 66.6235 65.9343C65.1579 66.127 63.6723 66.1094 62.2117 65.8817C62.0526 65.873 61.8984 65.8238 61.7637 65.7387C61.6291 65.6537 61.5185 65.5356 61.4424 65.3957C61.3913 65.2451 61.3827 65.0833 61.4174 64.9281C61.4522 64.7728 61.5291 64.6302 61.6397 64.5157C62.5733 63.3007 64.171 62.6045 66.5117 62.3812C67.4775 62.2893 68.4485 62.263 69.4179 62.3024C69.4619 62.3041 69.5052 62.3144 69.5452 62.3328C69.5853 62.3513 69.6213 62.3774 69.6512 62.4097C69.6811 62.442 69.7044 62.4799 69.7196 62.5213C69.7349 62.5626 69.7418 62.6065 69.7401 62.6505C69.7319 62.7393 69.6912 62.8221 69.6256 62.8827C69.5601 62.9434 69.4743 62.9776 69.385 62.9789C68.4486 62.9406 67.5107 62.9648 66.5775 63.0511C64.434 63.2613 62.9941 63.8721 62.1788 64.9294C62.067 65.0805 62.067 65.1396 62.067 65.1396C62.067 65.1396 62.1065 65.179 62.3169 65.2119C63.7099 65.4296 65.1269 65.4473 66.5249 65.2644C66.7727 65.1993 67.0332 65.1993 67.281 65.2644C67.4473 65.3339 67.599 65.4342 67.7281 65.5599C68.2496 66.0063 68.9033 66.2693 69.5888 66.3086C69.6789 66.3154 69.7629 66.3568 69.823 66.4242C69.8831 66.4916 69.9147 66.5797 69.911 66.6699C69.9119 66.7164 69.9033 66.7626 69.8857 66.8057C69.8681 66.8488 69.8419 66.8878 69.8087 66.9204C69.7754 66.953 69.7358 66.9785 69.6924 66.9953C69.6489 67.012 69.6025 67.0198 69.556 67.018Z" fill="#231F20"/>
<path d="M131.387 151.55C131.387 151.55 131.92 155.004 131.124 156.331C130.329 157.658 129.612 159.346 129.264 162.446C129.9 163.157 130.678 163.728 131.547 164.124C132.416 164.52 133.358 164.731 134.313 164.744C137.509 164.744 140.698 162.354 141.053 161.204C141.408 160.055 138.482 147.833 138.482 147.833L131.387 151.55Z" fill="white"/>
<path d="M134.312 165.086C133.305 165.073 132.312 164.85 131.396 164.432C130.48 164.013 129.661 163.408 128.993 162.656C128.94 162.584 128.915 162.495 128.921 162.406C129.302 159.063 130.104 157.369 130.828 156.16C131.432 155.155 131.196 152.528 131.051 151.602C131.041 151.532 131.053 151.461 131.084 151.397C131.116 151.334 131.166 151.282 131.229 151.248L138.323 147.53C138.369 147.508 138.42 147.496 138.471 147.496C138.522 147.496 138.573 147.508 138.619 147.53C138.667 147.551 138.709 147.582 138.743 147.622C138.776 147.662 138.799 147.709 138.81 147.76C139.303 149.816 141.742 160.127 141.374 161.309C141.006 162.492 137.659 165.086 134.312 165.086ZM129.611 162.334C130.218 162.974 130.946 163.487 131.753 163.843C132.56 164.2 133.43 164.392 134.312 164.409C137.376 164.409 140.434 162.058 140.729 161.125C140.933 160.469 139.625 154.124 138.251 148.351L131.755 151.76C131.866 152.588 132.142 155.307 131.413 156.528C130.683 157.75 129.986 159.214 129.611 162.334Z" fill="#231F20"/>
<path d="M109.327 76.3175L124.699 80.5668L128.276 33.9365C128.276 33.9365 114.239 36.2418 111.181 37.6538C108.124 39.0659 109.327 76.3175 109.327 76.3175Z" fill="white"/>
<path d="M124.699 80.9085H124.607L109.242 76.6592C109.172 76.6398 109.11 76.5989 109.065 76.5422C109.02 76.4856 108.995 76.4162 108.992 76.344C108.992 76.252 108.683 66.9128 108.755 57.5211C108.906 38.3239 110.438 37.6146 111.017 37.3518C114.101 35.9267 127.645 33.7002 128.217 33.6017C128.268 33.5923 128.321 33.5949 128.37 33.6092C128.42 33.6236 128.466 33.6492 128.504 33.6842C128.543 33.7192 128.572 33.7626 128.591 33.811C128.609 33.8594 128.617 33.9114 128.612 33.9629L125.035 80.5932C125.032 80.6441 125.017 80.6936 124.992 80.738C124.967 80.7824 124.932 80.8205 124.89 80.8494C124.834 80.8883 124.768 80.909 124.699 80.9085ZM109.662 76.055L124.39 80.1335L127.902 34.3307C125.535 34.7314 114.002 36.7082 111.306 37.9495C109.452 38.8099 109.071 58.1713 109.662 76.055Z" fill="#231F20"/>
<path d="M114.429 146.651V157.041L109.465 158.459L109.583 156.331L107.361 158.558C107.361 158.558 94.0204 160.948 94.0862 159.175C94.1519 157.402 95.5064 156.43 97.1896 155.543C98.9977 154.597 103.765 151.911 103.765 151.911L104.475 144.299" fill="white"/>
<path d="M96.5651 160.18C95.3224 160.18 94.369 160.055 94.0008 159.734C93.9179 159.668 93.8519 159.584 93.8084 159.488C93.765 159.392 93.7452 159.287 93.751 159.182C93.8299 157.212 95.375 156.134 97.0385 155.241C98.7019 154.348 102.607 152.168 103.436 151.701L104.133 144.26C104.129 144.211 104.135 144.162 104.152 144.116C104.169 144.07 104.195 144.028 104.23 143.994C104.265 143.959 104.307 143.933 104.353 143.916C104.399 143.899 104.448 143.893 104.497 143.897C104.546 143.902 104.593 143.917 104.636 143.941C104.678 143.966 104.714 144 104.742 144.04C104.77 144.08 104.789 144.126 104.797 144.174C104.806 144.223 104.803 144.272 104.79 144.319L104.093 151.99C104.087 152.044 104.069 152.096 104.039 152.142C104.01 152.188 103.97 152.226 103.922 152.253C103.87 152.253 99.1425 154.952 97.3475 155.891C95.5525 156.831 94.4874 157.704 94.4282 159.234C94.7898 159.891 100.622 159.458 107.197 158.289L109.367 156.121C109.413 156.071 109.475 156.037 109.542 156.024C109.61 156.011 109.679 156.02 109.741 156.049C109.805 156.077 109.858 156.123 109.894 156.182C109.931 156.24 109.948 156.309 109.945 156.377L109.853 158.026L114.114 156.811V146.651C114.099 146.6 114.097 146.546 114.106 146.494C114.116 146.443 114.138 146.394 114.17 146.351C114.201 146.309 114.243 146.275 114.29 146.251C114.337 146.228 114.39 146.215 114.442 146.215C114.495 146.215 114.548 146.228 114.595 146.251C114.642 146.275 114.684 146.309 114.715 146.351C114.747 146.394 114.769 146.443 114.779 146.494C114.788 146.546 114.786 146.6 114.771 146.651V157.041C114.771 157.114 114.747 157.185 114.703 157.244C114.659 157.303 114.598 157.347 114.528 157.369L109.557 158.781C109.506 158.796 109.451 158.799 109.399 158.788C109.346 158.778 109.297 158.755 109.255 158.722C109.212 158.689 109.179 158.646 109.157 158.597C109.135 158.547 109.126 158.493 109.13 158.44L109.196 157.198L107.578 158.814C107.531 158.865 107.469 158.9 107.401 158.913C105.948 159.175 100.089 160.18 96.5651 160.18Z" fill="#231F20"/>
<path d="M138.297 80.5077L142.472 150.841C142.472 150.841 142.078 153.724 135.812 154.078C129.546 154.433 130.177 152.969 130.177 152.969L120.314 103.659L116.29 149.593L102.766 150.427L105.455 74.8989L138.297 80.5077Z" fill="#231F20"/>
<path d="M134.031 154.46C131.776 154.46 130.415 154.151 129.981 153.527C129.863 153.361 129.814 153.157 129.843 152.956L120.454 105.964L116.633 149.619C116.627 149.698 116.592 149.773 116.536 149.828C116.479 149.884 116.404 149.917 116.324 149.921L102.8 150.755C102.707 150.759 102.618 150.726 102.55 150.663C102.485 150.596 102.45 150.507 102.451 150.414L105.14 74.8859C105.143 74.8398 105.155 74.7947 105.176 74.7538C105.198 74.713 105.228 74.6773 105.265 74.6495C105.3 74.6191 105.341 74.5968 105.385 74.5843C105.43 74.5718 105.476 74.5694 105.522 74.5772L138.351 80.2057C138.423 80.2177 138.49 80.2542 138.539 80.3091C138.588 80.3641 138.617 80.4343 138.62 80.5078L142.802 150.841C142.802 151.031 142.289 154.059 135.832 154.427C135.175 154.44 134.577 154.46 134.031 154.46ZM130.48 153.087C130.499 153.122 130.521 153.155 130.546 153.185C130.77 153.435 131.723 153.98 135.806 153.75C141.362 153.442 142.092 151.09 142.158 150.821L137.996 80.7902L105.778 75.2668L103.148 150.079L116.029 149.284L120.026 103.626C120.033 103.547 120.068 103.474 120.124 103.42C120.181 103.365 120.256 103.333 120.335 103.33C120.414 103.326 120.491 103.35 120.553 103.398C120.614 103.447 120.656 103.516 120.671 103.593L130.533 152.903C130.553 152.965 130.553 153.031 130.533 153.093L130.48 153.087Z" fill="#231F20"/>
<path d="M125.884 32.5049C125.884 32.5049 120.558 81.69 122.925 84.7636C125.292 87.8373 135.871 91.9027 140.598 88.1263C145.326 84.3499 139.533 39.8869 137.442 36.5834C133.783 34.7282 129.897 33.3571 125.884 32.5049Z" fill="#48A4FE"/>
<path d="M145.642 96.4737C145.642 96.4737 144.985 92.277 145.36 91.8764C145.734 91.4757 155.137 91.2196 155.88 91.305C156.623 91.3904 156.747 95.7579 156.747 95.7579L155.347 95.8958C155.347 95.8958 155.498 93.052 154.979 92.9272C154.459 92.8024 146.826 93.0323 146.826 93.0323L147.233 96.4606L145.642 96.4737Z" fill="#231F20"/>
<path d="M145.642 96.8219C145.564 96.8214 145.489 96.7934 145.43 96.7429C145.371 96.6924 145.332 96.6227 145.319 96.5461C144.859 93.6497 144.793 92.0144 145.129 91.6729C145.714 91.0818 155.839 91.0161 155.938 91.0161C156.648 91.0687 157.043 92.6777 157.108 95.7908C157.108 95.8728 157.077 95.9518 157.023 96.0133C156.969 96.0748 156.894 96.1147 156.812 96.1257L155.412 96.2637C155.365 96.2675 155.318 96.2613 155.274 96.2455C155.23 96.2296 155.189 96.2045 155.156 96.1717C155.12 96.1408 155.092 96.1023 155.074 96.0591C155.056 96.0158 155.048 95.969 155.05 95.9221C155.14 95.0434 155.084 94.1559 154.886 93.2951C154.275 93.2294 150.053 93.2951 147.22 93.4067L147.588 96.4804C147.593 96.5262 147.589 96.5726 147.575 96.6167C147.562 96.6608 147.539 96.7016 147.509 96.7365C147.479 96.7718 147.442 96.8001 147.4 96.8194C147.358 96.8387 147.312 96.8485 147.266 96.8482H145.642V96.8219ZM145.602 92.1523C145.565 93.4976 145.673 94.843 145.924 96.1651H146.897L146.529 93.1046C146.525 93.0599 146.53 93.0147 146.543 92.9718C146.557 92.9289 146.579 92.8892 146.608 92.8551C146.637 92.8199 146.673 92.7916 146.714 92.7723C146.755 92.753 146.799 92.7431 146.845 92.7434C148.127 92.704 154.557 92.507 155.09 92.6383C155.274 92.6843 155.826 92.8156 155.747 95.5675L156.471 95.4952C156.405 93.5775 156.142 91.8502 155.866 91.6466C155.044 91.5678 146.648 91.8174 145.602 92.1326V92.1523Z" fill="#231F20"/>
<path d="M147.64 85.6176C146.874 86.8756 146.246 88.2121 145.766 89.6041C145.552 90.3364 145.572 91.1172 145.825 91.8371L148.014 91.4825C148.014 91.4825 147.692 95.7515 148.376 95.7515C149.06 95.7515 150.125 96.2703 150.059 92.9733C150.059 92.9733 150.355 94.2343 151.473 93.7418C152.092 93.5017 152.594 93.0308 152.873 92.4282C152.873 92.4282 153.853 94.0176 154.846 92.2706C155.839 90.5236 154.221 85.5782 154.221 85.5782L154.063 83.2007L147.363 83.3846L147.64 85.6176Z" fill="white"/>
<path d="M148.916 96.119C148.804 96.119 148.699 96.119 148.6 96.119H148.377C148.232 96.1134 148.095 96.0522 147.995 95.9482C147.509 95.4294 147.568 93.2095 147.647 91.9157L145.885 92.1981C145.813 92.21 145.739 92.1986 145.674 92.1655C145.608 92.1324 145.556 92.0794 145.523 92.0142C145.233 91.2255 145.203 90.3648 145.438 89.5579C145.903 88.1636 146.525 86.8263 147.292 85.5713L147.048 83.4565C147.043 83.4097 147.047 83.3621 147.06 83.3169C147.074 83.2717 147.097 83.2298 147.127 83.1938C147.192 83.1229 147.281 83.0804 147.377 83.0756L154.077 82.8983C154.241 82.8589 154.412 83.0296 154.426 83.2135L154.577 85.5451C154.748 86.0639 156.194 90.6744 155.155 92.4674C154.781 93.1241 154.347 93.4525 153.84 93.4591C153.665 93.4589 153.492 93.4227 153.331 93.3526C153.17 93.2826 153.026 93.1802 152.907 93.0519C152.568 93.5067 152.114 93.8628 151.592 94.083C151.417 94.1703 151.225 94.2157 151.03 94.2157C150.834 94.2157 150.642 94.1703 150.467 94.083L150.356 94.0239C150.382 94.6736 150.167 95.3101 149.751 95.8103C149.523 96.0178 149.224 96.1286 148.916 96.119ZM148.462 95.4097H148.659C148.962 95.4097 149.159 95.4097 149.317 95.298C149.475 95.1864 149.757 94.5427 149.724 92.9665C149.724 92.8824 149.754 92.801 149.81 92.7379C149.866 92.6749 149.943 92.6347 150.027 92.625C150.109 92.6147 150.192 92.6352 150.26 92.6825C150.328 92.7298 150.376 92.8005 150.395 92.8811C150.453 93.1165 150.596 93.3223 150.796 93.4591C150.885 93.492 150.979 93.5056 151.073 93.4988C151.167 93.492 151.259 93.465 151.342 93.4197C151.88 93.2207 152.317 92.8169 152.558 92.2966C152.582 92.2381 152.621 92.187 152.671 92.149C152.722 92.1109 152.781 92.0872 152.844 92.0805C152.907 92.0737 152.971 92.0842 153.028 92.1107C153.085 92.1372 153.134 92.1787 153.17 92.2309C153.249 92.3688 153.551 92.7366 153.827 92.7366C154.103 92.7366 154.373 92.382 154.544 92.0799C155.313 90.7663 154.333 86.9965 153.886 85.6633C153.883 85.6349 153.883 85.6062 153.886 85.5779L153.748 83.5288L147.745 83.693L147.956 85.5582C147.963 85.6314 147.947 85.7051 147.91 85.7684C147.165 86.9995 146.55 88.3047 146.075 89.663C145.924 90.2432 145.913 90.8508 146.042 91.4362L147.936 91.1276C147.987 91.1177 148.039 91.1203 148.088 91.1352C148.137 91.1501 148.182 91.1768 148.219 91.2129C148.257 91.2475 148.287 91.2903 148.306 91.3381C148.326 91.3858 148.334 91.4374 148.331 91.4888C148.232 93.1176 148.252 95.0156 148.462 95.4097Z" fill="#231F20"/>
<path d="M140.888 96.8613L136.713 97.367L138.547 118.482L143.018 118.85L140.888 96.8613Z" fill="white"/>
<path d="M143.019 119.185L138.548 118.824C138.468 118.818 138.393 118.783 138.336 118.726C138.279 118.67 138.245 118.595 138.239 118.515L136.404 97.3934C136.4 97.3502 136.404 97.3066 136.416 97.265C136.429 97.2234 136.449 97.1847 136.477 97.1511C136.504 97.1175 136.538 97.0897 136.576 97.0693C136.615 97.0489 136.657 97.0363 136.7 97.0322L140.875 96.5199C140.964 96.514 141.053 96.5395 141.125 96.5921C141.161 96.6211 141.19 96.657 141.212 96.6976C141.233 96.7383 141.246 96.7828 141.25 96.8286L143.36 118.817C143.366 118.864 143.362 118.911 143.347 118.956C143.333 119.001 143.309 119.043 143.277 119.078C143.245 119.113 143.206 119.14 143.163 119.159C143.119 119.177 143.072 119.186 143.025 119.185H143.019ZM138.863 118.167L142.644 118.476L140.586 97.2358L137.081 97.6627L138.863 118.167Z" fill="#231F20"/>
<path d="M140.888 96.8613C140.789 97.1502 143.018 118.85 143.018 118.85L163.013 116.794L161.665 95.5806L140.888 96.8613Z" fill="white"/>
<path d="M143.018 119.185C142.939 119.184 142.864 119.158 142.801 119.112C142.734 119.053 142.691 118.971 142.682 118.882C140.447 97.1107 140.532 96.8414 140.565 96.756C140.584 96.6899 140.624 96.6315 140.678 96.5891C140.732 96.5467 140.799 96.5224 140.868 96.5196L161.645 95.2389C161.734 95.2335 161.822 95.2635 161.89 95.3225C161.958 95.3815 161.999 95.4647 162.006 95.5542L163.354 116.774C163.36 116.861 163.331 116.946 163.275 117.013C163.218 117.079 163.138 117.121 163.052 117.129L143.05 119.185H143.018ZM141.236 97.1764C141.367 99.1467 142.511 110.568 143.32 118.475L162.657 116.505L161.342 95.9482L141.236 97.1764Z" fill="#231F20"/>
<path d="M145.754 104.513C145.698 104.513 145.643 104.499 145.594 104.472C145.544 104.446 145.502 104.408 145.471 104.362L140.606 97.0453C140.569 96.9708 140.56 96.8854 140.582 96.8051C140.604 96.7249 140.654 96.6552 140.723 96.6093C140.793 96.5634 140.876 96.5443 140.959 96.5557C141.041 96.567 141.117 96.608 141.171 96.671L145.925 103.817L158.621 102.825L161.35 95.4625C161.365 95.4204 161.388 95.3816 161.417 95.3485C161.447 95.3154 161.484 95.2885 161.524 95.2696C161.564 95.2506 161.608 95.2399 161.653 95.2381C161.697 95.2362 161.742 95.2433 161.784 95.2589C161.826 95.2743 161.865 95.2979 161.898 95.3284C161.932 95.3589 161.959 95.3957 161.977 95.4366C161.996 95.4775 162.007 95.5217 162.009 95.5668C162.011 95.6118 162.003 95.6567 161.988 95.699L159.18 103.258C159.158 103.319 159.119 103.372 159.068 103.412C159.017 103.451 158.955 103.476 158.891 103.482L145.78 104.513H145.754Z" fill="#231F20"/>
<path d="M153.772 101.898L151.844 102.109L152.267 105.968L154.195 105.757L153.772 101.898Z" fill="#D1D3D4"/>
<path d="M104.601 36.7608C104.601 36.7608 98.9271 86.885 100.347 88.3037C101.767 89.7223 108.033 87.949 110.157 86.5304C112.281 85.1118 115.378 33.1157 115.378 33.1157C115.378 33.1157 107.678 34.16 104.601 36.7608Z" fill="#48A4FE"/>
<path d="M104.601 36.7607C104.601 36.7607 94.5414 57.7772 89.7942 59.2549C82.6998 61.4682 72.6992 61.2909 72.6992 61.2909L73.5014 71.9174C73.5014 71.9174 86.3884 73.7169 93.7129 71.832C101.037 69.9471 108.875 59.314 108.875 59.314L104.601 36.7607Z" fill="#48A4FE"/>
<path d="M117.047 40.3271L118.434 42.3368L113.438 72.305L116.633 76.3769L120.709 72.837L119.822 42.6652L121.387 40.4782L119.408 39.0596L117.047 40.3271Z" fill="#D1D3D4"/>
<path d="M100.702 74.8267H100.669C100.58 74.8168 100.498 74.773 100.441 74.7046C100.383 74.6361 100.354 74.5481 100.36 74.4589C100.827 68.8567 102.944 46.1064 102.99 45.8765C103.017 45.8061 103.066 45.7463 103.13 45.7066C103.194 45.6669 103.269 45.6495 103.344 45.657C103.419 45.6645 103.489 45.6965 103.544 45.7481C103.599 45.7996 103.636 45.8679 103.648 45.9422C103.648 46.1721 101.511 68.929 101.018 74.518C101.011 74.5989 100.976 74.6748 100.918 74.7316C100.86 74.7884 100.783 74.8222 100.702 74.8267Z" fill="#231F20"/>
<path d="M115.745 29.2276L114.975 35.6968C114.975 35.6968 115.468 38.7507 119.92 38.2582C124.371 37.7656 125.39 34.8758 125.39 34.8758L126.39 22.7651C126.39 22.7651 123.904 20.5781 125.732 13.7543C125.732 13.7543 118.802 14.9561 112.483 13.3208C112.483 13.3208 111.392 21.202 111.484 24.5777C111.576 27.9535 115.745 29.2276 115.745 29.2276Z" fill="white"/>
<path d="M119.032 38.652C115.192 38.652 114.686 35.7819 114.679 35.7491V35.6571L115.416 29.4638C114.449 29.1092 111.274 27.7103 111.188 24.5841C111.09 21.1886 112.142 13.5964 112.188 13.2746C112.194 13.2275 112.211 13.1825 112.237 13.1427C112.263 13.103 112.298 13.0695 112.339 13.0447C112.377 13.0171 112.421 12.9981 112.468 12.989C112.514 12.9799 112.562 12.981 112.608 12.9922C118.769 14.5947 125.607 13.4125 125.706 13.4125C125.761 13.4022 125.818 13.4064 125.871 13.4249C125.924 13.4433 125.971 13.4753 126.008 13.5176C126.048 13.5588 126.076 13.6095 126.089 13.6648C126.103 13.7201 126.102 13.778 126.087 13.8328C124.332 20.4005 126.613 22.4824 126.639 22.5021C126.678 22.538 126.708 22.5819 126.727 22.6308C126.746 22.6796 126.755 22.7321 126.751 22.7845L125.752 34.8953C125.758 34.9234 125.758 34.9526 125.752 34.9807C125.712 35.1054 124.614 38.074 120.005 38.5863C119.682 38.6269 119.357 38.6488 119.032 38.652ZM115.363 35.6834C115.436 36.0315 116.093 38.3105 119.92 37.923C123.865 37.4829 124.956 35.1383 125.094 34.7968L126.074 22.8896C125.581 22.3314 123.898 19.9342 125.318 14.1678C123.628 14.3977 118.033 15.0019 112.825 13.7409C112.608 15.3434 111.793 21.6221 111.879 24.5644C111.964 27.684 115.824 28.8925 115.896 28.9056C115.971 28.9292 116.037 28.9779 116.081 29.0435C116.125 29.1092 116.146 29.1879 116.139 29.2668L115.363 35.6834Z" fill="#231F20"/>
<path d="M124.41 22.1606C124.634 21.5872 125.038 21.1012 125.561 20.7749C126.061 20.4948 126.606 20.3037 127.171 20.21C127.475 20.1241 127.794 20.1062 128.105 20.1575C128.317 20.2207 128.516 20.3232 128.69 20.4596C129.129 20.7476 129.448 21.1836 129.591 21.6878C129.657 22.1013 129.623 22.5246 129.492 22.9225C129.383 23.3673 129.215 23.7958 128.993 24.1966C128.762 24.5904 128.455 24.9344 128.089 25.2084C127.724 25.4825 127.308 25.6813 126.865 25.7931C126.422 25.905 125.961 25.9277 125.509 25.86C125.057 25.7922 124.623 25.6353 124.232 25.3985" fill="white"/>
<path d="M126.022 26.233C125.327 26.2345 124.645 26.046 124.049 25.6878C123.973 25.6416 123.919 25.5672 123.898 25.4811C123.877 25.3949 123.891 25.3039 123.937 25.2281C123.96 25.1892 123.99 25.1552 124.026 25.1281C124.061 25.101 124.102 25.0813 124.146 25.0703C124.189 25.0592 124.235 25.0571 124.279 25.0639C124.323 25.0707 124.366 25.0863 124.404 25.1099C124.756 25.323 125.147 25.4641 125.554 25.525C125.961 25.5859 126.376 25.5653 126.775 25.4644C127.174 25.3636 127.549 25.1845 127.878 24.9376C128.207 24.6907 128.483 24.3809 128.691 24.0262C128.901 23.6532 129.058 23.2532 129.158 22.8375C129.278 22.4918 129.312 22.1221 129.257 21.7604C129.124 21.3399 128.85 20.9781 128.481 20.7358C128.342 20.6242 128.184 20.5395 128.014 20.4863C127.754 20.4496 127.49 20.4675 127.238 20.5388C126.71 20.6266 126.201 20.8043 125.732 21.0642C125.274 21.35 124.921 21.7763 124.726 22.2792C124.694 22.3636 124.629 22.4317 124.547 22.4687C124.464 22.5056 124.37 22.5083 124.286 22.4763C124.201 22.4439 124.133 22.3794 124.096 22.297C124.059 22.2145 124.057 22.1207 124.089 22.0362C124.347 21.3905 124.808 20.8464 125.404 20.4863C125.937 20.187 126.517 19.9805 127.12 19.8755C127.473 19.778 127.844 19.7623 128.205 19.8295C128.463 19.9004 128.705 20.0233 128.915 20.1907C129.417 20.5254 129.783 21.0286 129.947 21.6093C130.023 22.0796 129.987 22.5611 129.842 23.0148C129.724 23.4882 129.543 23.9433 129.303 24.3677C129.043 24.8036 128.698 25.1833 128.29 25.4844C127.881 25.7855 127.416 26.0021 126.922 26.1213C126.628 26.1958 126.325 26.2333 126.022 26.233Z" fill="#231F20"/>
<path d="M115.126 18.8574C115.126 18.8574 112.325 21.8523 112.766 22.5222C113.206 23.1921 114.738 23.0476 114.738 23.0476" fill="white"/>
<path d="M114.431 23.3956C113.878 23.3956 112.905 23.3037 112.511 22.6994C111.985 21.9507 113.773 19.8228 114.891 18.6669C114.921 18.6363 114.957 18.612 114.996 18.5954C115.036 18.5789 115.078 18.5703 115.121 18.5703C115.164 18.5703 115.206 18.5789 115.246 18.5954C115.285 18.612 115.321 18.6363 115.351 18.6669C115.412 18.7294 115.446 18.813 115.446 18.9001C115.446 18.9871 115.412 19.0707 115.351 19.1332C114.036 20.5321 112.951 22.0624 113.03 22.417C113.273 22.7783 114.273 22.8242 114.72 22.7848C114.806 22.7792 114.89 22.8067 114.956 22.8617C115.023 22.9167 115.065 22.995 115.075 23.0804C115.082 23.1665 115.055 23.252 115 23.3184C114.944 23.3848 114.865 23.4267 114.779 23.435C114.662 23.428 114.546 23.4148 114.431 23.3956Z" fill="#231F20"/>
<path d="M118.36 18.0832C118.522 17.675 118.419 17.2506 118.128 17.1352C117.838 17.0197 117.471 17.2571 117.308 17.6652C117.145 18.0734 117.249 18.4979 117.54 18.6133C117.83 18.7287 118.197 18.4914 118.36 18.0832Z" fill="#231F20"/>
<path d="M114.213 17.396C114.375 16.9878 114.27 16.564 113.98 16.4494C113.689 16.3348 113.323 16.5729 113.161 16.9811C113 17.3893 113.105 17.8131 113.395 17.9277C113.686 18.0423 114.052 17.8042 114.213 17.396Z" fill="#231F20"/>
<path d="M113.772 24.5776L116.711 24.7681C116.711 24.7681 116.901 26.8894 115.31 27.2704C113.719 27.6513 113.772 24.5776 113.772 24.5776Z" fill="white"/>
<path d="M115.041 27.6119C114.771 27.6157 114.508 27.5251 114.298 27.3558C113.423 26.6596 113.43 24.7681 113.43 24.5514C113.432 24.4618 113.47 24.3769 113.535 24.3149C113.603 24.2581 113.689 24.2278 113.778 24.2296L116.717 24.4266C116.796 24.4295 116.871 24.4613 116.928 24.5157C116.985 24.5702 117.02 24.6436 117.026 24.7221C117.099 25.5497 116.849 27.2113 115.376 27.5725C115.266 27.5978 115.153 27.611 115.041 27.6119ZM114.1 24.9126C114.133 25.5168 114.278 26.502 114.705 26.8435C114.779 26.8984 114.864 26.9353 114.954 26.9512C115.044 26.9672 115.137 26.9618 115.225 26.9354C116.217 26.6924 116.362 25.5891 116.375 25.0571L114.1 24.9126Z" fill="#231F20"/>
<path d="M130.867 20.8081C130.821 20.8171 130.774 20.8171 130.729 20.8081C130.688 20.7903 130.651 20.7646 130.62 20.7324C130.589 20.7002 130.565 20.6622 130.549 20.6206C130.533 20.579 130.526 20.5347 130.527 20.4902C130.529 20.4457 130.539 20.4019 130.558 20.3615C131.44 18.5985 131.952 16.6743 132.063 14.7067C132.109 13.7515 131.936 12.7983 131.558 11.9198C131.18 11.0412 130.606 10.2603 129.88 9.63649C129.045 8.97973 127.711 8.5791 126.744 9.19646C126.692 9.23134 126.63 9.25067 126.567 9.25222C126.504 9.25377 126.442 9.23748 126.387 9.20523C126.333 9.17298 126.289 9.12607 126.26 9.06991C126.232 9.01375 126.219 8.95062 126.225 8.88778C126.208 8.66597 126.146 8.44997 126.042 8.25333C125.938 8.05669 125.794 7.88364 125.62 7.74501C122.793 4.84868 118.302 4.57941 114.475 4.783C114.857 5.12104 115.201 5.49984 115.501 5.91264C115.532 5.96555 115.548 6.02558 115.548 6.08668C115.548 6.14778 115.532 6.20781 115.501 6.26072C115.475 6.31483 115.435 6.36103 115.386 6.39453C115.336 6.42803 115.278 6.4476 115.218 6.45118C113.129 6.57414 111.038 6.2239 109.103 5.42663C109.328 7.04115 109.793 8.61295 110.484 10.0897C110.513 10.1484 110.524 10.2143 110.515 10.2791C110.507 10.3439 110.48 10.4048 110.437 10.4544C110.394 10.5039 110.338 10.54 110.275 10.558C110.212 10.5761 110.146 10.5754 110.083 10.556C108.431 10.0685 107.005 9.0121 106.059 7.57425C105.868 9.06002 106.04 10.57 106.561 11.9748C107.082 13.3795 107.936 14.637 109.051 15.6393C109.083 15.67 109.108 15.7067 109.125 15.7473C109.143 15.7879 109.151 15.8316 109.151 15.8758C109.151 15.9199 109.143 15.9636 109.125 16.0042C109.108 16.0448 109.083 16.0816 109.051 16.1122C109.02 16.1442 108.982 16.1696 108.941 16.1869C108.9 16.2043 108.856 16.2132 108.811 16.2132C108.766 16.2132 108.722 16.2043 108.681 16.1869C108.639 16.1696 108.602 16.1442 108.571 16.1122C107.247 14.927 106.267 13.4075 105.733 11.7134C105.2 10.0192 105.133 8.21288 105.54 6.48402C105.556 6.41575 105.593 6.3543 105.646 6.30834C105.7 6.26238 105.766 6.23424 105.836 6.22788C105.906 6.22325 105.976 6.23949 106.037 6.27457C106.097 6.30964 106.147 6.36197 106.178 6.42491C106.868 7.85762 108.054 8.99172 109.518 9.61679C108.91 8.09976 108.527 6.50236 108.38 4.87495C108.375 4.81571 108.385 4.75615 108.41 4.70216C108.435 4.64817 108.474 4.60163 108.522 4.56713C108.571 4.53263 108.628 4.51137 108.687 4.50546C108.746 4.49955 108.806 4.50919 108.86 4.53343C110.634 5.35903 112.571 5.77862 114.528 5.76158C114.18 5.37829 113.787 5.03865 113.358 4.75016C113.299 4.71059 113.253 4.65367 113.228 4.5873C113.203 4.52094 113.2 4.44842 113.218 4.37982C113.236 4.31123 113.275 4.24995 113.329 4.20451C113.384 4.15907 113.451 4.13171 113.522 4.12624C117.671 3.83069 122.845 3.90951 126.093 7.2393C126.425 7.54811 126.676 7.93382 126.823 8.36237C127.413 8.18295 128.039 8.15385 128.643 8.27775C129.247 8.40164 129.81 8.67457 130.282 9.07168C131.09 9.75912 131.73 10.6217 132.154 11.5936C132.578 12.5656 132.774 13.6213 132.727 14.6804C132.617 16.737 132.084 18.749 131.163 20.5913C131.139 20.6518 131.099 20.7043 131.046 20.7427C130.994 20.7811 130.932 20.8038 130.867 20.8081Z" fill="#231F20"/>
<path d="M115.744 29.2276C115.744 29.2276 119.117 29.556 120.767 28.7876C120.767 28.7876 119.097 32.5049 115.35 33.1288L115.744 29.2276Z" fill="#231F20"/>
<path d="M115.378 33.4507C115.337 33.452 115.296 33.4452 115.257 33.4305C115.219 33.4158 115.184 33.3937 115.154 33.3653C115.116 33.3324 115.086 33.2907 115.068 33.2437C115.05 33.1968 115.043 33.1461 115.049 33.0961L115.45 29.1949C115.454 29.1525 115.467 29.1114 115.487 29.0739C115.507 29.0364 115.534 29.0033 115.567 28.9764C115.6 28.9495 115.638 28.9295 115.679 28.9174C115.72 28.9052 115.763 28.9014 115.805 28.9059C115.805 28.9059 119.093 29.2146 120.664 28.4921C120.723 28.463 120.791 28.4536 120.856 28.4654C120.921 28.4773 120.98 28.5096 121.026 28.5578C121.073 28.6034 121.106 28.6625 121.119 28.7271C121.132 28.7917 121.124 28.8587 121.098 28.919C121.026 29.0767 119.31 32.8071 115.43 33.4507H115.378ZM116.068 29.5824L115.746 32.7217C117.57 32.1948 119.126 30.9951 120.099 29.3656C118.771 29.6188 117.415 29.6917 116.068 29.5824Z" fill="#231F20"/>
<path d="M137.159 36.3994C137.159 36.3994 144.674 39.9853 148.58 50.0404C152.485 60.0955 155.957 83.4697 155.957 83.4697L144.214 84.4877C144.214 84.4877 142.682 60.0955 134.352 48.4707L137.159 36.3994Z" fill="#48A4FE"/>
<path d="M103.534 81.4404C103.485 81.4397 103.436 81.4282 103.392 81.4066C103.348 81.3851 103.309 81.354 103.278 81.3156C103.248 81.2824 103.226 81.2436 103.212 81.2015C103.198 81.1595 103.193 81.115 103.196 81.0708C103.2 81.0266 103.213 80.9836 103.234 80.9444C103.254 80.9052 103.283 80.8707 103.317 80.8428L109.116 76.055C109.15 76.0268 109.19 76.0057 109.232 75.9927C109.274 75.9798 109.319 75.9753 109.363 75.9796C109.407 75.9839 109.449 75.9968 109.488 76.0176C109.527 76.0384 109.562 76.0667 109.59 76.1009C109.647 76.1707 109.674 76.2603 109.666 76.3501C109.657 76.44 109.613 76.5227 109.544 76.5804L103.751 81.3616C103.691 81.4132 103.614 81.4412 103.534 81.4404Z" fill="#231F20"/>
<path d="M136.166 81.4405C136.1 81.441 136.036 81.4203 135.982 81.3814C133.674 79.8709 128.29 76.2784 128.04 75.5428C128.012 75.4565 128.02 75.3631 128.06 75.2822C128.101 75.2012 128.171 75.1393 128.257 75.1093C128.34 75.0819 128.43 75.0878 128.508 75.1258C128.587 75.1638 128.648 75.2309 128.677 75.3129C128.967 75.7989 132.8 78.4917 136.35 80.8166C136.388 80.8412 136.42 80.8729 136.446 80.91C136.471 80.9471 136.489 80.9887 136.498 81.0326C136.507 81.0766 136.507 81.1218 136.499 81.1659C136.491 81.21 136.474 81.252 136.449 81.2895C136.418 81.3362 136.376 81.3746 136.327 81.401C136.278 81.4273 136.222 81.441 136.166 81.4405Z" fill="#231F20"/>
<path d="M125.056 58.1776C125.001 58.1779 124.946 58.1643 124.898 58.1382C124.818 58.0963 124.758 58.0243 124.731 57.9382C124.703 57.852 124.712 57.7586 124.753 57.6785L129.941 47.8927L126.029 44.8781C125.99 44.8476 125.957 44.8088 125.935 44.7646C125.912 44.7203 125.899 44.6717 125.897 44.622C125.895 44.5727 125.904 44.5236 125.924 44.4782C125.943 44.4327 125.972 44.3922 126.009 44.3593C126.141 44.2411 129.034 41.6534 129.803 41.0164C129.533 40.4318 127.745 38.4484 126.114 36.8196C126.063 36.7539 126.037 36.6717 126.042 36.5884C126.047 36.5051 126.083 36.4266 126.142 36.3676C126.201 36.3086 126.279 36.2733 126.363 36.2682C126.446 36.2632 126.529 36.2888 126.594 36.3402C128.08 37.8245 130.539 40.4187 130.539 41.1346C130.535 41.1972 130.518 41.2582 130.488 41.3137C130.459 41.3691 130.418 41.4178 130.368 41.4564C130.033 41.706 128.034 43.4858 126.792 44.5892L130.605 47.5315C130.669 47.5799 130.713 47.6495 130.73 47.7279C130.747 47.8062 130.735 47.888 130.697 47.9584L125.378 57.9937C125.349 58.0532 125.303 58.1026 125.245 58.1354C125.188 58.1682 125.122 58.1829 125.056 58.1776Z" fill="#231F20"/>
<path d="M112.404 54.2764C112.343 54.2769 112.282 54.2607 112.229 54.2295C112.175 54.1982 112.132 54.1532 112.102 54.0991L107.611 45.4758C107.57 45.4014 107.56 45.314 107.582 45.2319C107.604 45.1499 107.657 45.0796 107.73 45.0358L111.55 42.5992L108.433 40.5238C108.391 40.4965 108.356 40.4601 108.33 40.4174C108.304 40.3747 108.288 40.3267 108.283 40.2769C108.278 40.2272 108.284 40.1769 108.301 40.1298C108.318 40.0828 108.345 40.0401 108.381 40.0049L112.635 35.7425C112.7 35.6911 112.783 35.6655 112.866 35.6705C112.949 35.6756 113.028 35.711 113.087 35.77C113.146 35.8289 113.182 35.9075 113.187 35.9908C113.192 36.074 113.166 36.1563 113.114 36.222L109.169 40.1626L112.358 42.3102C112.405 42.3413 112.443 42.3833 112.469 42.4326C112.496 42.4818 112.509 42.5368 112.51 42.5926C112.508 42.6488 112.492 42.7037 112.465 42.7528C112.437 42.8019 112.399 42.8438 112.352 42.875L108.354 45.4232L112.707 53.7707C112.747 53.8512 112.754 53.944 112.727 54.0296C112.7 54.1153 112.641 54.1873 112.562 54.2305C112.513 54.2553 112.459 54.2708 112.404 54.2764Z" fill="#231F20"/>
<path d="M120.209 106.017C120.13 106.018 120.053 105.99 119.993 105.94C119.933 105.889 119.893 105.818 119.88 105.741C119.775 105.084 117.25 89.1969 117.395 86.1823C117.4 86.0952 117.44 86.0138 117.505 85.9559C117.57 85.898 117.656 85.8684 117.743 85.8736C117.83 85.8789 117.912 85.9185 117.97 85.9838C118.028 86.049 118.057 86.1346 118.052 86.2217C117.875 89.164 120.505 105.471 120.531 105.636C120.537 105.678 120.536 105.722 120.525 105.764C120.515 105.806 120.496 105.845 120.471 105.88C120.445 105.915 120.413 105.944 120.376 105.967C120.339 105.989 120.298 106.004 120.255 106.01L120.209 106.017Z" fill="white"/>
<path d="M144.319 83.5093C144.241 83.509 144.165 83.4813 144.105 83.4309C144.045 83.3805 144.005 83.3106 143.991 83.2335L136.364 45.5024C136.355 45.4588 136.355 45.4139 136.364 45.3704C136.373 45.3269 136.391 45.2856 136.416 45.249C136.441 45.2123 136.473 45.181 136.51 45.1568C136.548 45.1327 136.59 45.1162 136.633 45.1083C136.676 45.0988 136.721 45.0981 136.765 45.1062C136.808 45.1144 136.85 45.1312 136.887 45.1557C136.923 45.1803 136.955 45.212 136.979 45.249C137.003 45.286 137.02 45.3275 137.028 45.371L144.674 83.1021C144.684 83.1453 144.685 83.19 144.677 83.2335C144.668 83.277 144.652 83.3183 144.627 83.3551C144.602 83.3919 144.571 83.4234 144.534 83.4476C144.497 83.4719 144.455 83.4884 144.411 83.4962L144.319 83.5093Z" fill="#231F20"/>
<path d="M40.021 118.994L38.7783 148.273C38.7783 148.273 50.7185 155.366 50.1794 156.108C49.6402 156.85 28.7383 153.172 28.7383 153.172L30.1453 119.349" fill="white"/>
<path d="M49.4041 156.482C46.8858 156.482 39.9426 155.49 28.6797 153.507C28.5978 153.494 28.5236 153.451 28.4714 153.387C28.4192 153.323 28.3927 153.242 28.3969 153.159L29.804 119.336C29.8091 119.246 29.8492 119.162 29.9156 119.102C29.982 119.042 30.0694 119.01 30.159 119.014C30.2037 119.015 30.2475 119.026 30.288 119.045C30.3285 119.064 30.3648 119.09 30.3948 119.123C30.4248 119.156 30.4479 119.195 30.4628 119.237C30.4776 119.279 30.4839 119.324 30.4812 119.368L29.0873 152.863C36.3198 154.131 47.5696 155.924 49.6933 155.852C48.6676 154.788 43.4865 151.438 38.6079 148.542C38.5557 148.509 38.513 148.464 38.4841 148.41C38.4552 148.355 38.4412 148.295 38.4435 148.233L39.6862 118.955C39.687 118.91 39.6968 118.866 39.7148 118.825C39.7329 118.785 39.7589 118.748 39.7914 118.717C39.8238 118.687 39.8621 118.663 39.9038 118.647C39.9456 118.632 39.9901 118.624 40.0347 118.626C40.0796 118.628 40.1237 118.638 40.1646 118.657C40.2054 118.676 40.2421 118.703 40.2727 118.735C40.3032 118.768 40.3269 118.807 40.3425 118.849C40.3581 118.891 40.3652 118.936 40.3634 118.981L39.1273 148.062C42.6187 150.138 50.3048 154.821 50.5218 155.944C50.5385 156.004 50.5406 156.068 50.528 156.13C50.5155 156.191 50.4886 156.249 50.4495 156.298C50.3662 156.421 50.0177 156.482 49.4041 156.482Z" fill="#231F20"/>
<path d="M42.8866 149.251L39.0205 152.739L27.9219 151.195V155.596C27.9219 155.596 52.4269 158.827 53.5644 156.798C54.7018 154.768 42.8866 149.251 42.8866 149.251Z" fill="#231F20"/>
<path d="M32.0249 125.201L30.7888 154.486C30.7888 154.486 42.7224 161.579 42.1833 162.314C41.6441 163.05 20.7422 159.385 20.7422 159.385L22.1492 125.562" fill="white"/>
<path d="M41.4077 162.695C38.8895 162.695 31.9463 161.697 20.6833 159.72C20.6021 159.706 20.5287 159.663 20.4768 159.599C20.4248 159.535 20.3978 159.454 20.4006 159.372L21.8076 125.549C21.8143 125.459 21.8546 125.375 21.9205 125.315C21.9864 125.254 22.0729 125.22 22.1627 125.22C22.2076 125.222 22.2517 125.232 22.2926 125.251C22.3334 125.27 22.3701 125.296 22.4007 125.329C22.4312 125.362 22.4549 125.401 22.4705 125.443C22.4861 125.485 22.4932 125.53 22.4914 125.575L21.091 159.07C28.3235 160.337 39.5667 162.13 41.697 162.051C40.6713 160.988 35.4968 157.645 30.6116 154.742C30.5593 154.709 30.5166 154.664 30.4878 154.609C30.4589 154.555 30.4449 154.494 30.4472 154.433L31.6899 125.154C31.7103 125.083 31.7534 125.02 31.8127 124.976C31.872 124.931 31.9443 124.907 32.0186 124.907C32.0929 124.907 32.1652 124.931 32.2245 124.976C32.2838 125.02 32.327 125.083 32.3474 125.154L31.1113 154.236C34.6026 156.311 42.2888 160.994 42.5123 162.117C42.5258 162.179 42.5264 162.243 42.514 162.305C42.5015 162.368 42.4763 162.426 42.44 162.478C42.3677 162.636 42.0192 162.695 41.4077 162.695Z" fill="#231F20"/>
<path d="M34.7937 155.412L31.0065 158.984L19.875 157.671L19.9539 162.065C19.9539 162.065 44.5247 164.744 45.5964 162.689C46.6681 160.633 34.7937 155.412 34.7937 155.412Z" fill="#231F20"/>
<path d="M45.7878 71.7533C46.7477 78.2815 41.8428 142.861 41.8428 142.861C34.759 143.578 27.6154 143.458 20.5595 142.507C14.9313 130.836 8.97435 94.3263 10.6313 85.8212C12.2882 77.3161 16.3055 68.4629 16.3055 68.4629C16.3055 68.4629 45.8207 71.9897 45.7878 71.7533Z" fill="#231F20"/>
<path d="M45.8455 75.0763C45.8455 75.0763 49.0936 40.4188 47.5024 37.818C42.1569 29.1028 14.3973 29.3786 12.0369 37.6407C10.1761 44.1427 13.4505 70.9452 13.4505 70.9452L45.8455 75.0763Z" fill="#48A4FE"/>
<path d="M28.5872 68.4629C28.5872 68.4629 48.3122 72.7187 55.5447 71.4183L57.32 62.2236C57.32 62.2236 34.3864 59.0383 32.6111 57.8561C30.8359 56.674 30.7175 44.6289 30.7175 44.6289C30.7175 44.6289 25.1617 45.8111 23.748 48.7665C22.3344 51.722 21.0194 65.2973 28.5872 68.4629Z" fill="#48A4FE"/>
<path d="M25.9831 34.429C25.4966 34.7114 37.5091 54.7887 37.5091 54.7887L33.6233 34.0152C33.6233 34.0152 30.5922 31.8019 25.9831 34.429Z" fill="white"/>
<path d="M50.1587 72.5215C49.8366 72.5215 17.9412 70.1506 17.3889 50.4082C17.3872 50.3637 17.3943 50.3193 17.41 50.2775C17.4256 50.2358 17.4495 50.1976 17.4801 50.1652C17.5107 50.1328 17.5475 50.1068 17.5883 50.0888C17.6291 50.0707 17.6731 50.061 17.7177 50.0602C17.7625 50.0575 17.8074 50.064 17.8496 50.0793C17.8917 50.0946 17.9304 50.1183 17.963 50.1491C17.9956 50.1799 18.0216 50.217 18.0394 50.2582C18.0571 50.2993 18.0662 50.3437 18.0662 50.3885C18.5856 69.5201 49.8892 71.8253 50.2048 71.845C50.2762 71.8654 50.3391 71.9085 50.3838 71.9678C50.4285 72.027 50.4527 72.0992 50.4527 72.1734C50.4527 72.2476 50.4285 72.3198 50.3838 72.3791C50.3391 72.4383 50.2762 72.4814 50.2048 72.5018L50.1587 72.5215Z" fill="#231F20"/>
<path d="M25.9822 34.4292C25.614 30.0026 25.3247 26.108 24.9828 21.6814C24.871 20.046 24.6935 18.3976 24.6475 16.7622C24.5817 14.3913 25.614 14.943 27.935 14.9233C28.1015 13.3996 28.3339 11.889 28.6319 10.3916L29.7694 14.1417C33.3133 13.1434 40.6773 14.1417 40.6773 14.1417C40.6773 14.1417 41.4203 21.2742 40.4801 24.65C39.1256 29.5232 32.7873 28.4526 32.7873 28.4526L33.6092 34.0154C33.6092 34.0154 33.8459 35.8412 31.6367 36.4652C28.4544 37.3649 25.9822 34.4292 25.9822 34.4292Z" fill="white"/>
<path d="M30.4017 36.9775C29.0839 36.9412 27.8131 36.4804 26.7788 35.664C26.7788 35.664 25.7071 34.8496 25.6479 34.508C25.2929 30.2654 24.9904 26.2591 24.6485 21.7537C24.6091 21.2348 24.5696 20.7094 24.5236 20.184C24.4316 19.0806 24.3395 17.9444 24.3066 16.8214C24.3066 15.8822 24.4184 15.3371 24.7669 14.9956C25.2206 14.549 25.8978 14.5752 26.838 14.6146C27.0879 14.6146 27.3509 14.6146 27.6467 14.6146C27.8111 13.1895 28.0347 11.7577 28.3042 10.3588C28.3153 10.2819 28.3527 10.2111 28.4102 10.1587C28.4678 10.1064 28.5417 10.0756 28.6194 10.0717C28.6972 10.0678 28.7738 10.0911 28.8363 10.1375C28.8987 10.1839 28.9431 10.2505 28.9617 10.326L30.0006 13.7608C33.6629 12.8939 40.4285 13.7609 40.7178 13.8003C40.7939 13.8101 40.8645 13.8453 40.9182 13.9001C40.9719 13.9549 41.0055 14.0261 41.0137 14.1024C41.0137 14.3979 41.7567 21.3268 40.8033 24.7485C39.6067 29.0635 34.7149 28.9847 33.1895 28.8467L33.9456 33.9695C33.9456 33.9695 34.1954 36.104 31.7364 36.7936C31.302 36.9155 30.8529 36.9774 30.4017 36.9775ZM26.3252 34.311C26.7328 34.7511 28.9091 36.8921 31.5852 36.1368C33.4656 35.6048 33.3144 34.114 33.3078 34.0549L32.4662 28.5184C32.4586 28.4658 32.4635 28.4122 32.4806 28.362C32.4978 28.3117 32.5267 28.2663 32.5648 28.2294C32.6028 28.1909 32.6496 28.1624 32.7013 28.1464C32.7529 28.1304 32.8076 28.1273 32.8607 28.1374C33.104 28.1768 38.9097 29.0963 40.1655 24.5778C40.9743 21.6617 40.5009 15.7771 40.3759 14.457C39.0281 14.2994 32.933 13.6492 29.8559 14.5096C29.8141 14.5226 29.77 14.5272 29.7264 14.523C29.6827 14.5188 29.6403 14.5059 29.6017 14.4851C29.5631 14.4643 29.5291 14.436 29.5016 14.4018C29.4741 14.3677 29.4538 14.3284 29.4417 14.2863L28.7053 11.8628C28.5278 12.9071 28.3766 13.9579 28.2648 15.0021C28.2552 15.0846 28.2159 15.1608 28.1542 15.2164C28.0924 15.272 28.0126 15.3032 27.9295 15.3042C27.5152 15.3042 27.1339 15.3042 26.792 15.3042C26.0227 15.3042 25.477 15.2517 25.2206 15.4881C24.9843 15.8827 24.8936 16.3474 24.9641 16.8017C24.997 17.905 25.0891 19.0347 25.1811 20.1249C25.2206 20.6569 25.2666 21.1823 25.306 21.7077C25.6677 26.1409 25.9635 30.1143 26.3252 34.311Z" fill="#231F20"/>
<path d="M32.8008 28.4528C32.8008 28.4528 30.1708 28.1244 28.8887 26.8306C28.8887 26.8306 30.6179 31.1455 33.2808 31.7957L32.8008 28.4528Z" fill="#231F20"/>
<path d="M33.2818 32.242C33.247 32.2484 33.2114 32.2484 33.1766 32.242C30.3165 31.5524 28.5741 27.1981 28.4689 26.9879C28.4339 26.8921 28.4323 26.7874 28.4642 26.6906C28.4962 26.5939 28.5599 26.5107 28.645 26.4545C28.7301 26.3983 28.8317 26.3724 28.9334 26.381C29.035 26.3896 29.1308 26.4322 29.2053 26.5019C30.3822 27.6775 32.8347 27.9927 32.861 27.9993C32.9586 28.0113 33.0495 28.0552 33.1196 28.1241C33.1898 28.1929 33.2352 28.283 33.2489 28.3802L33.7289 31.7232C33.7384 31.7871 33.7339 31.8523 33.7158 31.9143C33.6976 31.9763 33.6662 32.0336 33.6237 32.0823C33.5812 32.131 33.5286 32.17 33.4696 32.1964C33.4105 32.2228 33.3465 32.2361 33.2818 32.2354V32.242ZM30.0337 28.1241C30.653 29.3383 31.5831 30.3671 32.7295 31.1058L32.4007 28.8465C31.5859 28.7001 30.7913 28.4576 30.0337 28.1241Z" fill="#231F20"/>
<path d="M25.9969 19.9148C25.884 19.3542 25.6178 18.8359 25.2278 18.4174C24.8378 17.9989 24.3393 17.6965 23.7877 17.5438C23.5416 17.4632 23.2811 17.4362 23.0237 17.4645C22.7662 17.4928 22.5178 17.5759 22.2952 17.708C22.0351 17.9311 21.8376 18.2179 21.7223 18.5404C21.607 18.8629 21.5779 19.2098 21.6377 19.547C21.7132 20.6276 22.2004 21.6383 22.9989 22.3712C23.7975 23.1041 24.8468 23.5036 25.9312 23.4876" fill="white"/>
<path d="M25.8523 23.8289C24.6886 23.8321 23.5669 23.3949 22.713 22.6053C21.859 21.8156 21.3362 20.7322 21.2498 19.573C21.1881 19.174 21.2321 18.7657 21.3774 18.3889C21.5228 18.0121 21.7644 17.6799 22.0782 17.4254C22.3438 17.2675 22.6398 17.1671 22.9467 17.1309C23.2537 17.0947 23.5649 17.1234 23.8601 17.2153C24.4714 17.3851 25.0239 17.7203 25.4566 18.1838C25.8894 18.6474 26.1856 19.2213 26.3125 19.8423C26.323 19.9268 26.3009 20.0121 26.2507 20.0808C26.2006 20.1496 26.1261 20.1967 26.0423 20.2126C25.9586 20.2285 25.872 20.212 25.8001 20.1664C25.7281 20.1208 25.6763 20.0495 25.655 19.9671C25.5473 19.4713 25.3069 19.014 24.9596 18.6439C24.6122 18.2738 24.1709 18.0048 23.6825 17.8655C23.4831 17.797 23.2713 17.7722 23.0615 17.7926C22.8516 17.813 22.6486 17.8781 22.4662 17.9837C22.2599 18.1782 22.1033 18.4192 22.0095 18.6866C21.9157 18.954 21.8874 19.2399 21.927 19.5205C21.999 20.5123 22.4474 21.4392 23.1806 22.1118C23.9139 22.7844 24.8766 23.1519 25.872 23.1393C25.9229 23.1248 25.9764 23.1222 26.0285 23.1319C26.0805 23.1416 26.1296 23.1632 26.1718 23.195C26.2141 23.2268 26.2483 23.268 26.2719 23.3154C26.2955 23.3627 26.3078 23.4148 26.3078 23.4677C26.3078 23.5205 26.2955 23.5727 26.2719 23.62C26.2483 23.6673 26.2141 23.7085 26.1718 23.7403C26.1296 23.7721 26.0805 23.7937 26.0285 23.8034C25.9764 23.8131 25.9229 23.8106 25.872 23.796L25.8523 23.8289Z" fill="#231F20"/>
<path d="M39.7215 15.7626C39.7437 15.317 39.5677 14.9462 39.3283 14.9343C39.0889 14.9224 38.8769 15.2739 38.8547 15.7195C38.8325 16.1651 39.0085 16.536 39.2479 16.5479C39.4872 16.5598 39.6993 16.2082 39.7215 15.7626Z" fill="#231F20"/>
<path d="M35.7215 16.3169C35.7437 15.8713 35.5677 15.5004 35.3283 15.4885C35.0889 15.4766 34.8769 15.8282 34.8547 16.2737C34.8325 16.7193 35.0085 17.0902 35.2479 17.1021C35.4872 17.114 35.6993 16.7624 35.7215 16.3169Z" fill="#231F20"/>
<path d="M39.357 24.2952C38.7857 24.6608 38.1598 24.9334 37.5029 25.103C36.6284 25.3329 35.5698 25.3263 34.9649 24.6564C34.7179 24.3547 34.5345 24.0062 34.4258 23.6318" fill="white"/>
<path d="M36.5102 25.5762C36.1822 25.5937 35.8543 25.5412 35.5482 25.4223C35.2422 25.3034 34.9649 25.1208 34.7349 24.8866C34.4617 24.5505 34.2562 24.1647 34.13 23.7504C34.0986 23.6633 34.1032 23.5674 34.1426 23.4836C34.1821 23.3999 34.2532 23.3352 34.3404 23.3038C34.4276 23.2725 34.5237 23.277 34.6076 23.3164C34.6914 23.3558 34.7561 23.4269 34.7875 23.514C34.889 23.8463 35.0493 24.1577 35.2609 24.4335C35.9184 25.0902 37.1019 24.8669 37.457 24.775C38.0717 24.6126 38.6573 24.3556 39.1928 24.0131C39.2678 23.9644 39.3591 23.9473 39.4466 23.9658C39.5342 23.9843 39.6108 24.0368 39.6596 24.1117C39.7084 24.1866 39.7255 24.2778 39.707 24.3652C39.6885 24.4527 39.636 24.5292 39.561 24.578C38.9683 24.9629 38.318 25.2511 37.6345 25.4318C37.2674 25.5276 36.8896 25.5761 36.5102 25.5762Z" fill="#231F20"/>
<path d="M38.4615 17.248C38.4615 17.248 42.1172 21.4054 41.2164 22.2986C40.3156 23.1918 38.2051 22.7452 38.2051 22.7452" fill="white"/>
<path d="M39.3632 23.1986C38.9528 23.1969 38.5434 23.1574 38.1402 23.0803C38.0667 23.0498 38.0062 22.9945 37.9691 22.9242C37.932 22.8538 37.9206 22.7727 37.937 22.6948C37.9534 22.617 37.9964 22.5473 38.0587 22.4978C38.121 22.4482 38.1987 22.422 38.2783 22.4236C38.8175 22.5352 40.3494 22.6928 40.9806 22.0689C41.3291 21.7143 40.0076 19.5272 38.206 17.4716C38.1487 17.4027 38.1202 17.3145 38.1263 17.2253C38.1324 17.136 38.1727 17.0525 38.2389 16.9921C38.2701 16.9602 38.3074 16.9347 38.3486 16.9174C38.3899 16.9 38.4341 16.8911 38.4789 16.8911C38.5236 16.8911 38.5679 16.9 38.6091 16.9174C38.6503 16.9347 38.6876 16.9602 38.7189 16.9921C39.8826 18.3057 42.4732 21.4975 41.4606 22.5089C40.8744 22.9964 40.1246 23.2429 39.3632 23.1986Z" fill="#231F20"/>
<path d="M45.7278 61.0085H45.6424C34.6358 58.145 28.8893 52.4049 26.0028 48.0899C24.1581 45.4537 22.9085 42.4487 22.3406 39.2827C22.3294 39.1948 22.3535 39.106 22.4078 39.0358C22.462 38.9657 22.5419 38.9198 22.6299 38.9084C22.7196 38.8972 22.8102 38.9221 22.8817 38.9775C22.9531 39.0328 22.9997 39.1143 23.0112 39.2039C23.0112 39.3615 25.1941 54.9663 45.8133 60.3517C45.8904 60.3739 45.957 60.4229 46.001 60.4899C46.045 60.5569 46.0635 60.6374 46.0531 60.7168C46.0428 60.7963 46.0043 60.8694 45.9446 60.9229C45.8849 60.9764 45.808 61.0068 45.7278 61.0085Z" fill="#231F20"/>
<path d="M17.9164 28.2293C17.845 28.2309 17.7753 28.2077 17.7191 28.1637C17.6757 28.1331 17.6401 28.0928 17.615 28.0461C17.5898 27.9994 17.576 27.9474 17.5745 27.8944L17.5021 17.8196C17.5021 14.7919 17.4561 11.3571 18.8171 8.34908C19.6522 6.46416 21.3156 4.19832 23.4722 3.48902C24.0255 3.3025 24.6113 3.23247 25.193 3.28334C25.7746 3.3342 26.3394 3.50486 26.8518 3.78456C27.6187 3.1816 28.4177 2.62035 29.2451 2.10325C30.2805 1.58531 31.3892 1.22871 32.5326 1.04585C34.6432 0.691201 36.4776 1.09183 38.7723 2.35938C40.1328 3.18448 41.3165 4.27017 42.2553 5.55398C43.1942 6.8378 43.8696 8.29439 44.2427 9.83993C44.971 12.9016 44.971 16.0912 44.2427 19.1529C44.2417 19.2031 44.2296 19.2525 44.2073 19.2975C44.185 19.3425 44.1531 19.3821 44.1137 19.4134C44.0743 19.4447 44.0286 19.4669 43.9796 19.4785C43.9307 19.49 43.8798 19.4907 43.8306 19.4804C43.7813 19.47 43.735 19.449 43.6949 19.4187C43.6547 19.3885 43.6218 19.3497 43.5983 19.3053C43.5749 19.2608 43.5616 19.2118 43.5593 19.1616C43.557 19.1114 43.5658 19.0613 43.5852 19.0149C44.287 16.0545 44.287 12.9712 43.5852 10.0107C43.2354 8.55295 42.6005 7.17869 41.7169 5.96701C40.8334 4.75533 39.7187 3.73015 38.4369 2.95047C36.2935 1.73546 34.6103 1.3808 32.6444 1.70262C31.5759 1.88074 30.5407 2.21954 29.5738 2.70747C29.37 2.81255 27.3383 4.25087 27.1214 4.42162L27.0753 4.46103C27.0224 4.49158 26.9623 4.50766 26.9011 4.50766C26.8399 4.50766 26.7798 4.49158 26.7269 4.46103C26.2799 4.18905 25.7789 4.01761 25.2589 3.95863C24.7388 3.89965 24.2122 3.95455 23.7155 4.11951C21.743 4.77628 20.2373 6.85822 19.4615 8.61178C18.1859 11.4884 18.2057 14.8445 18.232 17.8065L18.2977 27.4215C18.9813 27.2379 19.6874 27.1517 20.3951 27.1654C20.3725 26.4818 20.5607 25.8077 20.9343 25.2345C20.9726 25.1835 21.024 25.1438 21.083 25.1195C21.142 25.0953 21.2065 25.0873 21.2696 25.0966C21.3321 25.1072 21.3903 25.1349 21.4379 25.1766C21.4855 25.2184 21.5206 25.2725 21.5392 25.333C21.7087 25.8978 21.7973 26.4838 21.8022 27.0734L23.3605 26.9749C23.4054 26.9723 23.4504 26.9785 23.4929 26.9932C23.5354 27.008 23.5746 27.0309 23.6082 27.0608C23.6418 27.0907 23.6691 27.127 23.6887 27.1674C23.7082 27.2079 23.7196 27.2519 23.7221 27.2967C23.7248 27.3407 23.7187 27.3848 23.7043 27.4265C23.6898 27.4682 23.6673 27.5066 23.638 27.5395C23.6087 27.5725 23.5731 27.5993 23.5334 27.6185C23.4937 27.6377 23.4505 27.6489 23.4065 27.6514L21.4734 27.7696C21.426 27.7736 21.3783 27.7667 21.3339 27.7497C21.2895 27.7326 21.2496 27.7058 21.217 27.6711C21.1822 27.6384 21.1548 27.5986 21.1367 27.5544C21.1185 27.5102 21.1101 27.4627 21.1118 27.415C21.1221 27.1252 21.1067 26.8351 21.0658 26.548C20.9936 26.8536 20.9802 27.1701 21.0263 27.4806C21.0327 27.5306 21.0278 27.5813 21.0118 27.6291C20.9959 27.6768 20.9694 27.7204 20.9343 27.7565C20.9003 27.7952 20.8574 27.825 20.8093 27.8433C20.7612 27.8616 20.7093 27.8679 20.6581 27.8616C19.7679 27.7978 18.8739 27.9117 18.0281 28.1965C17.9931 28.2139 17.9553 28.225 17.9164 28.2293Z" fill="#231F20"/>
<path d="M46.0828 57.6458C45.9926 57.6424 45.9073 57.6042 45.8448 57.5393C45.7823 57.4744 45.7474 57.3878 45.7474 57.2977C45.7474 57.186 45.9118 45.6007 44.5179 40.5699C44.4989 40.4846 44.5134 40.3953 44.5583 40.3203C44.6033 40.2454 44.6753 40.1905 44.7595 40.1669C44.8437 40.1434 44.9338 40.153 45.0111 40.1937C45.0885 40.2345 45.1473 40.3033 45.1754 40.386C46.589 45.5153 46.4378 56.8051 46.4247 57.3108C46.4247 57.3553 46.4158 57.3994 46.3985 57.4405C46.3813 57.4816 46.356 57.5188 46.3241 57.55C46.2923 57.5812 46.2545 57.6057 46.2131 57.6222C46.1717 57.6386 46.1273 57.6466 46.0828 57.6458Z" fill="#231F20"/>
<path d="M41.5927 159.484C41.5052 159.483 41.4209 159.45 41.356 159.392C40.6131 158.643 36.267 156.476 34.6495 155.707C34.5722 155.668 34.5132 155.6 34.485 155.518C34.4568 155.436 34.4615 155.346 34.4983 155.267C34.5366 155.19 34.6034 155.131 34.6845 155.103C34.7656 155.075 34.8545 155.08 34.9323 155.116C35.1755 155.234 40.8498 157.953 41.8229 158.925C41.8835 158.988 41.9174 159.071 41.9174 159.158C41.9174 159.245 41.8835 159.329 41.8229 159.392C41.7597 159.449 41.678 159.481 41.5927 159.484Z" fill="white"/>
<path d="M14.8717 84.3825C14.8285 84.3907 14.7842 84.3903 14.7411 84.3814C14.6981 84.3724 14.6573 84.3551 14.6209 84.3304C14.5846 84.3057 14.5535 84.2741 14.5294 84.2374C14.5053 84.2007 14.4887 84.1596 14.4805 84.1165C14.4723 84.0734 14.4727 84.0291 14.4816 83.9861C14.4906 83.9431 14.5079 83.9023 14.5326 83.866C14.5573 83.8297 14.589 83.7987 14.6257 83.7746C14.6625 83.7505 14.7036 83.7339 14.7468 83.7257C18.8036 82.0313 20.2172 76.9085 20.2303 76.856C20.2416 76.8129 20.2612 76.7724 20.2881 76.7368C20.315 76.7013 20.3486 76.6713 20.3871 76.6488C20.4255 76.6262 20.4681 76.6114 20.5122 76.6053C20.5564 76.5991 20.6014 76.6018 20.6446 76.613C20.6877 76.6242 20.7283 76.6438 20.7639 76.6706C20.7994 76.6975 20.8294 76.7311 20.852 76.7695C20.8746 76.8079 20.8894 76.8504 20.8955 76.8946C20.9017 76.9387 20.8991 76.9836 20.8878 77.0267C20.8287 77.25 19.3822 82.5173 15.0229 84.33C14.9763 84.3568 14.925 84.3747 14.8717 84.3825Z" fill="white"/>
</svg>
