<svg width="165" height="180" viewBox="0 0 165 180" fill="none" xmlns="http://www.w3.org/2000/svg">
<circle cx="75.9883" cy="94.5" r="75.5" fill="#DEEFFF"/>
<path d="M82.5642 179.639C121.829 179.639 153.66 175.467 153.66 170.319C153.66 165.172 121.829 161 82.5642 161C43.2993 161 11.4688 165.172 11.4688 170.319C11.4688 175.467 43.2993 179.639 82.5642 179.639Z" fill="#D1D3D4"/>
<path d="M8.70224 82.8784L25.051 92.4212L16.8766 106.798L0.337891 97.1828L8.70224 82.8784Z" fill="white"/>
<path d="M16.8763 107.133C16.8163 107.134 16.7572 107.118 16.706 107.087L0.167247 97.4717C0.128662 97.45 0.0948635 97.4207 0.0678915 97.3855C0.0409196 97.3504 0.0213365 97.3101 0.0103182 97.2671C-0.0007002 97.2241 -0.00292165 97.1794 0.00378676 97.1355C0.0104952 97.0917 0.0259911 97.0497 0.0493467 97.012L8.40715 82.7076C8.42945 82.6696 8.45901 82.6364 8.49415 82.6099C8.52929 82.5833 8.5693 82.564 8.61191 82.553C8.65451 82.5421 8.69886 82.5396 8.7424 82.5459C8.78594 82.5521 8.82782 82.5669 8.86565 82.5894L25.2406 92.1256C25.317 92.1709 25.3728 92.2443 25.396 92.3302C25.4193 92.416 25.4082 92.5076 25.3651 92.5854L17.171 106.962C17.1237 107.041 17.049 107.099 16.9614 107.126L16.8763 107.133ZM0.802598 97.058L16.7518 106.331L24.6118 92.5394L8.85255 83.3447L0.802598 97.058Z" fill="#231F20"/>
<path d="M24.9723 152.87C24.1412 154.347 23.461 155.905 22.9418 157.52C22.254 159.805 23.6361 163.089 24.6055 163.969C25.1204 164.367 25.7538 164.579 26.4037 164.572C27.0536 164.565 27.6822 164.338 28.1883 163.93C29.256 162.99 28.1883 153.98 28.1883 153.98L24.9723 152.87Z" fill="#231F20"/>
<path d="M26.3146 164.908C25.5957 164.931 24.8944 164.683 24.3496 164.212C23.3016 163.26 21.8737 159.818 22.6008 157.428C23.121 155.78 23.8149 154.193 24.6706 152.692C24.7103 152.631 24.7693 152.585 24.8381 152.561C24.9069 152.538 24.9816 152.537 25.0505 152.561L28.2272 153.671C28.2851 153.691 28.3361 153.726 28.3744 153.774C28.4127 153.822 28.4366 153.879 28.4434 153.94C28.7119 156.094 29.4848 163.201 28.3713 164.179C27.789 164.651 27.0631 164.908 26.3146 164.908ZM25.1225 153.27C24.3636 154.656 23.7406 156.112 23.2623 157.618C22.6073 159.739 23.9173 162.872 24.8278 163.726C25.2835 164.069 25.8398 164.251 26.4097 164.244C26.9797 164.237 27.5312 164.041 27.9783 163.687C28.5613 163.181 28.3779 158.511 27.8604 154.223L25.1225 153.27Z" fill="#231F20"/>
<path d="M35.4394 119.985C32.3352 124.027 30.0398 128.632 28.6798 133.548C26.5903 141.429 25.4834 152.285 25.3589 152.653C25.2345 153.021 23.2695 156.475 24.6516 157.125C26.0336 157.776 27.4156 158.143 28.1558 153.979C28.1558 153.979 42.4479 125.41 42.9981 121.988C43.5483 118.567 35.4394 119.985 35.4394 119.985Z" fill="white"/>
<path d="M26.0004 157.861C25.4779 157.828 24.9687 157.682 24.507 157.434C24.3694 157.371 24.2461 157.28 24.1447 157.167C24.0434 157.054 23.9661 156.921 23.9175 156.777C23.5769 155.825 24.2188 154.269 24.8869 152.876C24.9655 152.719 25.0179 152.607 25.0376 152.554C25.0572 152.502 25.1358 151.852 25.2275 151.136C25.6664 147.721 26.6947 139.728 28.3519 133.469C29.7325 128.509 32.0495 123.86 35.177 119.775C35.2296 119.714 35.3011 119.673 35.38 119.657C35.6158 119.618 41.1178 118.679 42.8339 120.38C43.0499 120.593 43.2087 120.858 43.2957 121.15C43.3827 121.441 43.3951 121.75 43.3317 122.048C42.7815 125.45 29.3213 152.417 28.4763 154.098C28.1161 156.121 27.5659 157.263 26.7602 157.684C26.5254 157.805 26.2644 157.866 26.0004 157.861ZM35.6224 120.301C32.5953 124.286 30.3484 128.81 29.0003 133.633C27.3563 139.853 26.3345 147.813 25.8956 151.215C25.745 152.417 25.7122 152.666 25.6795 152.765C25.6467 152.863 25.5878 152.968 25.4961 153.165C25.1555 153.868 24.2647 155.727 24.5529 156.541C24.5715 156.602 24.6027 156.658 24.6444 156.705C24.6862 156.753 24.7376 156.791 24.7952 156.817C25.4961 157.145 26.0135 157.303 26.4458 157.08C27.0419 156.764 27.5069 155.707 27.8213 153.921C27.8263 153.888 27.8374 153.857 27.8541 153.829C27.9982 153.546 42.1265 125.266 42.6636 121.936C42.7094 121.744 42.7052 121.544 42.6512 121.354C42.5973 121.164 42.4956 120.991 42.3558 120.852C41.1702 119.683 37.214 120.038 35.6224 120.301Z" fill="#231F20"/>
<path d="M81.2696 152.87C82.1001 154.347 82.7782 155.905 83.2936 157.52C83.9879 159.805 82.6058 163.089 81.6364 163.969C81.1215 164.367 80.4881 164.579 79.8382 164.572C79.1883 164.565 78.5597 164.338 78.0536 163.93C76.9794 162.99 78.0536 153.98 78.0536 153.98L81.2696 152.87Z" fill="#231F20"/>
<path d="M79.9262 164.895C79.1676 164.91 78.428 164.656 77.8368 164.179C76.7233 163.201 77.4962 156.095 77.7648 153.94C77.7715 153.88 77.7954 153.822 77.8337 153.774C77.872 153.727 77.9231 153.691 77.9809 153.671L81.1576 152.561C81.2266 152.539 81.301 152.54 81.3695 152.563C81.438 152.587 81.497 152.632 81.5375 152.693C82.386 154.196 83.0796 155.783 83.6074 157.428C84.3344 159.818 82.8999 163.26 81.8519 164.212C81.3154 164.669 80.63 164.912 79.9262 164.895ZM78.387 154.223C77.8696 158.512 77.6861 163.181 78.2691 163.687C78.7157 164.042 79.2674 164.239 79.8377 164.246C80.4079 164.253 80.9643 164.071 81.4196 163.726C82.3366 162.892 83.627 159.74 82.9851 157.618C82.5016 156.113 81.8766 154.657 81.1184 153.271L78.387 154.223Z" fill="#231F20"/>
<path d="M70.8026 119.985C73.9068 124.027 76.2022 128.632 77.5622 133.548C79.6516 141.429 80.7586 152.285 80.883 152.653C81.0075 153.021 82.9725 156.475 81.5904 157.125C80.2084 157.776 78.8263 158.143 78.0862 153.979C78.0862 153.979 63.7941 125.41 63.2373 121.988C62.6806 118.567 70.8026 119.985 70.8026 119.985Z" fill="white"/>
<path d="M80.2478 157.861C79.9833 157.863 79.7223 157.8 79.488 157.677C78.6824 157.257 78.1322 156.114 77.7654 154.091C76.927 152.41 63.4602 125.443 62.91 122.041C62.8493 121.743 62.8636 121.434 62.9516 121.143C63.0397 120.852 63.1987 120.587 63.4143 120.373C65.1304 118.672 70.6193 119.611 70.8682 119.65C70.9472 119.666 71.0187 119.708 71.0713 119.769C74.1988 123.853 76.5157 128.502 77.8964 133.462C79.5535 139.721 80.5819 147.714 81.0207 151.129C81.1124 151.845 81.191 152.443 81.2107 152.561L81.3613 152.869C82.0163 154.262 82.6713 155.818 82.3307 156.771C82.2812 156.914 82.2035 157.046 82.1023 157.159C82.001 157.272 81.8782 157.363 81.7412 157.427C81.2798 157.677 80.7707 157.824 80.2478 157.861ZM67.3902 120.038C65.9557 120.038 64.5278 120.228 63.8925 120.852C63.7531 120.992 63.6512 121.164 63.5962 121.353C63.5412 121.543 63.535 121.743 63.5781 121.936C64.1217 125.266 78.2501 153.546 78.3942 153.828C78.408 153.858 78.419 153.889 78.4269 153.92C78.7413 155.707 79.2064 156.764 79.8024 157.079C80.2347 157.303 80.7522 157.145 81.453 156.817C81.5106 156.791 81.562 156.752 81.6038 156.705C81.6456 156.657 81.6768 156.601 81.6954 156.541C81.9836 155.726 81.0862 153.868 80.7522 153.165C80.6842 153.035 80.623 152.901 80.5688 152.764C80.5688 152.666 80.5033 152.416 80.3461 151.214C79.9138 147.812 78.892 139.852 77.2414 133.633C75.8945 128.81 73.6498 124.287 70.6259 120.301C69.5535 120.129 68.4695 120.041 67.3836 120.038H67.3902Z" fill="#231F20"/>
<path d="M40.2337 82.018C40.2337 82.3858 35.0723 108.893 34.0898 120.728C34.0898 120.728 54.2507 131.328 72.6955 119.986C72.6955 119.986 68.5101 102.975 68.3922 99.0282C68.2743 95.0811 66.2962 84.7305 63.4731 80.4155L40.2337 82.018Z" fill="#231F20"/>
<path d="M53.7659 125.522C46.9083 125.469 40.143 123.932 33.9325 121.016C33.8761 120.987 33.8298 120.941 33.7995 120.885C33.7692 120.829 33.7562 120.765 33.7622 120.701C34.5547 111.126 38.0786 91.994 39.4083 84.7893C39.6899 83.2393 39.8995 82.1228 39.9061 81.998C39.9146 81.9191 39.9497 81.8454 40.0057 81.7893C40.0617 81.7331 40.1352 81.6979 40.2139 81.6893L63.4468 80.0868C63.5044 80.0814 63.5624 80.092 63.6144 80.1175C63.6664 80.143 63.7104 80.1824 63.7415 80.2313C66.5973 84.5923 68.5885 94.8706 68.713 99.0214C68.8374 102.883 72.9639 119.736 73.0098 119.906C73.0253 119.974 73.0198 120.045 72.994 120.11C72.9683 120.174 72.9235 120.229 72.8657 120.268C67.1124 123.771 60.4966 125.591 53.7659 125.522ZM34.4303 120.53C36.5263 121.555 55.2527 130.165 72.322 119.834C71.798 117.693 68.1824 102.758 68.0645 99.0411C67.9401 95.1005 65.9947 85.0454 63.3027 80.7502L40.5152 82.3264C40.4563 82.6614 40.3318 83.3707 40.0436 84.9075C38.7336 92.0465 35.2556 110.922 34.4303 120.53Z" fill="#231F20"/>
<path d="M76.3174 24.7351L77.8697 20.5187C77.8697 20.5187 77.1492 18.857 77.9549 17.6158C78.7605 16.3745 79.2649 15.3171 79.9199 15.698C80.5749 16.0789 83.8499 17.7931 83.3193 19.8488C82.7888 21.9044 81.3543 22.1868 81.3543 22.1868C80.6687 24.1238 79.8093 25.9945 78.7867 27.7759L76.3174 24.7351Z" fill="white"/>
<path d="M78.7738 28.1106C78.7238 28.1099 78.6744 28.0985 78.6292 28.0769C78.584 28.0554 78.5439 28.0243 78.5118 27.9858L76.0425 24.9515C76.0054 24.9051 75.9811 24.8498 75.9719 24.791C75.9627 24.7323 75.969 24.6722 75.9901 24.6166L77.4966 20.5249C77.2952 20.029 77.2054 19.4946 77.2337 18.9599C77.262 18.4252 77.4077 17.9033 77.6603 17.4316L77.9813 16.9259C78.6363 15.8422 79.2913 14.9096 80.0707 15.4087L80.2672 15.527C81.2301 16.0852 84.1645 17.7928 83.6208 19.9339C83.5301 20.493 83.2966 21.0191 82.9431 21.461C82.5896 21.9029 82.1281 22.2456 81.6034 22.4558C80.9182 24.3633 80.0724 26.2089 79.0751 27.9727C79.0476 28.0209 79.0087 28.0616 78.9619 28.0914C78.9151 28.1211 78.8618 28.139 78.8066 28.1434L78.7738 28.1106ZM76.6909 24.6888L78.7214 27.1911C79.6286 25.5629 80.3956 23.8601 81.0139 22.1012C81.0323 22.0424 81.0665 21.9899 81.1127 21.9493C81.1589 21.9088 81.2154 21.8818 81.2759 21.8713C81.3218 21.8713 82.5073 21.5955 82.9658 19.7894C83.385 18.1409 80.7847 16.6303 79.9266 16.1312L79.717 16.0064C79.4681 15.8553 79.0031 16.5909 78.5577 17.3199C78.4463 17.4841 78.3415 17.6614 78.2236 17.8388C77.5293 18.9027 78.1647 20.4002 78.1712 20.4199C78.2008 20.5004 78.2008 20.5889 78.1712 20.6694L76.6909 24.6888Z" fill="#231F20"/>
<path d="M79.5464 16.5581C80.4972 17.0334 81.3044 17.7543 81.8847 18.6466C81.9622 18.7455 82.0017 18.8691 81.9961 18.9947C81.9961 19.1458 81.8127 19.2311 81.6751 19.2968C81.4903 19.41 81.2758 19.4649 81.0594 19.4544C80.9209 19.4302 80.7891 19.3765 80.673 19.2968C80.1953 19.009 79.7552 18.6626 79.363 18.2657C79.543 18.4127 79.6774 18.6083 79.7503 18.8293C79.8232 19.0504 79.8316 19.2877 79.7745 19.5134C79.7174 19.7391 79.5971 19.9437 79.4279 20.1031C79.2587 20.2626 79.0475 20.3702 78.8193 20.4133" fill="white"/>
<path d="M78.8455 20.7483C78.7674 20.748 78.6918 20.7203 78.632 20.6699C78.5722 20.6195 78.5318 20.5496 78.518 20.4725C78.5007 20.3837 78.5193 20.2916 78.5696 20.2165C78.62 20.1413 78.698 20.0893 78.7866 20.0719C78.9447 20.0318 79.0891 19.9496 79.2044 19.834C79.3197 19.7184 79.4017 19.5736 79.4416 19.4151C79.4718 19.2809 79.4716 19.1416 79.441 19.0075C79.4104 18.8733 79.3502 18.7478 79.2647 18.6401C79.2123 18.5941 79.1665 18.5416 79.1141 18.4891C79.0814 18.4593 79.0549 18.4234 79.0361 18.3834C79.0172 18.3433 79.0064 18.3 79.0043 18.2557C79.0022 18.2115 79.0087 18.1673 79.0236 18.1257C79.0385 18.084 79.0615 18.0457 79.0912 18.0129C79.1208 17.9801 79.1567 17.9535 79.1966 17.9347C79.2365 17.9158 79.2798 17.9049 79.3239 17.9028C79.368 17.9007 79.412 17.9073 79.4536 17.9222C79.4951 17.9372 79.5334 17.9602 79.5661 17.9899C79.6363 18.0483 79.7019 18.112 79.7625 18.1804C80.0847 18.488 80.4382 18.761 80.8171 18.9948C80.8949 19.0471 80.9814 19.0849 81.0725 19.1064C81.2214 19.1005 81.366 19.0551 81.4917 18.9751C81.539 18.9582 81.5833 18.9338 81.6228 18.9028C81.6017 18.8767 81.5841 18.848 81.5704 18.8174C81.0218 17.976 80.26 17.296 79.363 16.8472C79.2924 16.8023 79.2408 16.7329 79.2179 16.6523C79.195 16.5717 79.2025 16.4855 79.2389 16.41C79.2753 16.3346 79.3381 16.2752 79.4153 16.2432C79.4926 16.2112 79.5788 16.2087 79.6578 16.2364C80.6657 16.7386 81.5208 17.503 82.1337 18.4497C82.1992 18.5345 82.2469 18.6318 82.2739 18.7356C82.3009 18.8395 82.3067 18.9477 82.2908 19.0539C82.2535 19.1746 82.1893 19.2852 82.103 19.3773C82.0168 19.4695 81.9108 19.5408 81.793 19.5859C81.6008 19.7201 81.3723 19.792 81.138 19.792C80.9038 19.792 80.6753 19.7201 80.483 19.5859L80.1555 19.3691C80.1488 19.4467 80.1357 19.5236 80.1162 19.599C80.0427 19.88 79.894 20.1356 79.6862 20.3382C79.4785 20.5407 79.2195 20.6825 78.9372 20.7483H78.8455Z" fill="#231F20"/>
<path d="M20.4457 77.9659L19.7448 83.4893C19.699 83.8308 20.4391 84.9079 20.5374 85.3282C20.7994 86.5235 20.8387 87.8502 21.0024 89.0718C21.0024 89.2557 21.0417 89.4855 20.8911 89.5972C20.7404 89.7088 20.4457 89.5972 20.2361 89.433L18.7034 88.1851C17.9469 89.5249 17.2902 90.9188 16.7384 92.3556C15.4677 92.6643 14.2101 91.8105 13.2996 90.8647C13.1979 90.7669 13.1117 90.6539 13.0442 90.5298C12.9831 90.3769 12.9477 90.2149 12.9394 90.0503C12.7036 87.8502 12.4416 83.5878 15.0354 82.4516C15.3239 79.9228 15.8413 77.4255 16.5812 74.9907L20.4457 77.9659Z" fill="white"/>
<path d="M16.2544 92.7561C15.6458 92.7046 15.0536 92.5316 14.5126 92.2474C13.9715 91.9632 13.4926 91.5734 13.1039 91.1011C12.9761 90.9773 12.8699 90.833 12.7895 90.6742C12.7089 90.4892 12.6623 90.2912 12.6519 90.0897C12.4816 88.4806 11.9969 83.6599 14.7676 82.2085C15.0717 79.7285 15.5844 77.2788 16.3003 74.8855C16.3147 74.8313 16.3428 74.7818 16.3818 74.7415C16.4207 74.7013 16.4694 74.6717 16.523 74.6557C16.5747 74.6392 16.6297 74.6353 16.6833 74.6445C16.7368 74.6536 16.7874 74.6755 16.8308 74.7082L20.656 77.6834C20.7021 77.721 20.7382 77.7695 20.761 77.8245C20.7839 77.8795 20.7928 77.9393 20.787 77.9986C20.787 77.9986 20.0796 83.4957 20.0796 83.522C20.1793 83.8148 20.3088 84.0965 20.4661 84.3627C20.6329 84.6395 20.767 84.9348 20.8656 85.2427C21.0219 86.0346 21.1313 86.8351 21.1931 87.6399C21.2324 88.1062 21.2783 88.566 21.3372 89.0126C21.3769 89.1615 21.3754 89.3186 21.3327 89.4667C21.29 89.6148 21.2077 89.7485 21.0949 89.8532C20.9311 89.978 20.5774 90.1159 20.0534 89.6825L18.8286 88.6907C18.1715 89.9086 17.5939 91.1678 17.0994 92.4606C17.0799 92.5121 17.0483 92.5581 17.0072 92.5947C16.9661 92.6313 16.9169 92.6574 16.8636 92.6707C16.6643 92.7218 16.46 92.7505 16.2544 92.7561ZM16.8112 75.5686C16.1432 77.8287 15.672 80.1426 15.4029 82.4843C15.3961 82.5449 15.3739 82.6028 15.3383 82.6522C15.3028 82.7017 15.2551 82.7411 15.1999 82.7667C13.4838 83.5154 12.8615 85.8929 13.3004 90.024C13.3059 90.148 13.3325 90.2702 13.379 90.3852C13.4276 90.4804 13.4944 90.5652 13.5755 90.6348C14.1715 91.2587 15.3243 92.2373 16.5164 92.0665C17.0574 90.6763 17.692 89.3247 18.4159 88.0208C18.4399 87.9784 18.4728 87.9417 18.5124 87.9133C18.552 87.885 18.5973 87.8656 18.6452 87.8566C18.6945 87.8471 18.7454 87.8486 18.7941 87.8611C18.8428 87.8736 18.8881 87.8968 18.9268 87.9289L20.4595 89.1833C20.5251 89.237 20.5978 89.2812 20.6757 89.3147C20.6757 89.3147 20.6757 89.2293 20.6757 89.1242C20.6167 88.671 20.5709 88.1982 20.525 87.7253C20.4688 86.9488 20.3638 86.1767 20.2106 85.4135C20.1235 85.1642 20.0116 84.9244 19.8766 84.6976C19.6172 84.3286 19.457 83.8989 19.4115 83.4498C19.4115 83.4038 19.9748 79.0888 20.0665 78.1234L16.8112 75.5686Z" fill="#231F20"/>
<path d="M47.6155 47.8463C47.4753 47.7795 47.3281 47.7288 47.1766 47.6953C46.0566 47.4523 44.3208 48.8052 43.3776 49.4751C42.3961 50.2372 41.6826 51.2932 41.3406 52.4897C40.8811 54.0639 40.5697 55.6779 40.4105 57.3103C39.369 65.8483 39.369 74.6489 38.8516 83.2525C38.8516 83.2525 45.9911 88.4278 51.9516 87.5938C57.9121 86.7597 65.3856 83.3445 65.3856 83.3445C65.3856 83.3445 63.2962 59.4974 63.2176 55.8786C63.2176 55.8786 66.9904 50.7952 71.5099 44.51C76.0294 38.2247 80.2083 26.0024 80.2083 26.0024L76.2783 23.3228C76.2783 23.3228 62.8442 44.7136 60.5059 46.7167C58.2723 48.6279 54.9711 49.1861 52.1219 49.0285C51.1001 48.9754 50.0863 48.8192 49.0958 48.5622C48.5838 48.3643 48.0887 48.1248 47.6155 47.8463Z" fill="#48A4FE"/>
<path d="M44.1568 45.3115C43.687 45.034 43.3211 44.6094 43.1154 44.1031C43.081 43.71 43.1463 43.3146 43.3053 42.9537C44.6153 39.0131 44.3533 34.5077 46.5803 31.0006C46.8485 30.5148 47.2335 30.1039 47.7004 29.8053C47.9352 29.6586 48.2064 29.5808 48.4831 29.5808C48.7598 29.5808 49.031 29.6586 49.2658 29.8053C51.2308 26.4624 56.0582 28.853 57.4271 31.5457C58.8747 34.3961 59.7262 37.6668 60.8004 40.6748C61.2057 41.5799 61.3985 42.5663 61.3637 43.558C61.3358 44.0525 61.1451 44.5239 60.8216 44.8982C60.498 45.2726 60.0598 45.5288 59.5755 45.6268L59.0515 44.7139C59.1106 44.7849 59.1552 44.867 59.1826 44.9554C59.2099 45.0438 59.2197 45.1367 59.2111 45.2288C59.2026 45.321 59.176 45.4105 59.1329 45.4923C59.0898 45.5742 59.031 45.6466 58.9598 45.7056C58.6813 45.9371 58.347 46.0911 57.9904 46.1522C54.5255 47.0257 50.7854 47.7284 47.4318 46.5331C46.9144 46.3492 46.3052 45.8763 46.5083 45.3772C46.1873 46.2835 45.0411 45.9289 44.1568 45.3115Z" fill="white"/>
<path d="M51.4273 47.4919C50.0397 47.5079 48.6596 47.2858 47.3467 46.8351C46.946 46.7043 46.5942 46.4547 46.338 46.1192C46.2816 46.1509 46.2224 46.1773 46.1611 46.198C45.3424 46.4739 44.2944 45.7974 43.9865 45.5872C43.7442 45.4165 42.9254 44.7991 42.8075 44.1621C42.7597 43.7329 42.8228 43.2987 42.9909 42.9011C43.465 41.3526 43.8175 39.7694 44.0455 38.1658C44.4712 35.6438 44.9166 33.0299 46.3052 30.8166C46.6061 30.2829 47.0335 29.8317 47.5497 29.5031C47.7918 29.363 48.0616 29.2781 48.34 29.2543C48.6185 29.2304 48.8988 29.2683 49.161 29.3652C49.4991 28.8629 49.9623 28.4581 50.5046 28.1908C51.0469 27.9235 51.6495 27.8031 52.2526 27.8415C53.3851 27.9471 54.4755 28.3253 55.4311 28.9439C56.3867 29.5624 57.1793 30.4031 57.7415 31.3946C58.7167 33.4728 59.5335 35.6222 60.1847 37.8243C60.486 38.7438 60.7873 39.6567 61.1082 40.5499C61.531 41.5055 61.7283 42.5461 61.6846 43.5907C61.6475 44.1624 61.4211 44.7055 61.0415 45.1337C60.6618 45.562 60.1506 45.851 59.5886 45.955C59.5298 45.9608 59.4704 45.9511 59.4165 45.9269C59.3625 45.9028 59.3157 45.8649 59.2808 45.8171L59.1956 45.9156C58.8766 46.1905 58.4897 46.3742 58.0756 46.4476C55.9095 47.063 53.6773 47.4136 51.4273 47.4919ZM46.8423 45.5216C46.8236 45.5702 46.8236 45.624 46.8423 45.6726C47.0122 45.9256 47.2647 46.1113 47.5563 46.198C50.792 47.3408 54.4469 46.684 57.9249 45.8105C58.2195 45.764 58.497 45.6418 58.7306 45.4559C58.819 45.3665 58.8705 45.2468 58.8747 45.1209L58.7699 44.9305C58.7211 44.8604 58.7009 44.7742 58.7134 44.6897C58.7259 44.6051 58.7702 44.5286 58.8372 44.4757C58.9042 44.4228 58.9887 44.3976 59.0736 44.4052C59.1585 44.4129 59.2373 44.4527 59.2939 44.5167C59.3913 44.6148 59.4652 44.7338 59.51 44.8648L59.7524 45.2983C60.1123 45.1637 60.4266 44.9292 60.6586 44.6222C60.8906 44.3152 61.0306 43.9483 61.0624 43.5644C61.0825 42.6248 60.8969 41.6922 60.5187 40.8323C60.1978 39.9325 59.8965 39.013 59.5886 38.087C58.9384 35.9141 58.1261 33.7933 57.1586 31.7426C56.6561 30.8557 55.9479 30.1031 55.0939 29.5487C54.24 28.9942 53.2654 28.6542 52.2526 28.5573C51.7153 28.5264 51.1801 28.6481 50.7086 28.9083C50.237 29.1685 49.8482 29.5568 49.5868 30.0285C49.5622 30.0685 49.5298 30.103 49.4915 30.1301C49.4532 30.1572 49.4099 30.1763 49.3641 30.1861C49.3177 30.1959 49.2697 30.1957 49.2234 30.1855C49.1771 30.1754 49.1335 30.1554 49.0955 30.127C48.9159 30.0174 48.7097 29.9594 48.4995 29.9594C48.2892 29.9594 48.083 30.0174 47.9034 30.127C47.4687 30.3841 47.1041 30.7451 46.8423 31.1778C45.5323 33.2795 45.1066 35.7095 44.6743 38.2775C44.4467 39.9021 44.0963 41.507 43.6263 43.0784C43.4929 43.3867 43.4302 43.7211 43.4429 44.057C43.6407 44.4713 43.9578 44.8168 44.3533 45.0487C44.7866 45.4216 45.3492 45.6081 45.9188 45.5675C45.9784 45.548 46.0326 45.5146 46.077 45.4701C46.1214 45.4256 46.1547 45.3712 46.1742 45.3114C46.1726 45.2895 46.1726 45.2676 46.1742 45.2457C46.2055 45.1586 46.27 45.0876 46.3535 45.0481C46.437 45.0087 46.5328 45.0042 46.6196 45.0356C46.7065 45.0669 46.7773 45.1316 46.8167 45.2153C46.856 45.2991 46.8605 45.3951 46.8292 45.4822C46.8353 45.4947 46.8397 45.5079 46.8423 45.5216Z" fill="#231F20"/>
<path d="M53.3336 54.815L53.2026 54.9266C53.0366 55.062 52.8347 55.146 52.6218 55.1681C52.4089 55.1903 52.1942 55.1497 52.004 55.0514C51.8286 54.923 51.6815 54.7598 51.5717 54.5719C50.17 52.5557 49.2268 50.4606 49.646 47.9518C49.6475 47.9277 49.6475 47.9036 49.646 47.8795L49.5805 47.0323L49.4102 44.6942V44.3527V43.8601L49.6198 41.2725L55.0366 41.3316L55.2266 44.4972V44.6942L55.351 46.7236L55.4165 47.8335V47.8795C55.4185 49.9847 54.8962 52.0571 53.8969 53.9086C53.7597 54.2395 53.5694 54.5457 53.3336 54.815Z" fill="white"/>
<path d="M52.4694 55.5173C52.2378 55.5211 52.0102 55.4572 51.8144 55.3334C51.6019 55.1822 51.4216 54.9902 51.2838 54.7686C50.1114 53.0741 48.8276 50.7689 49.3188 47.8988L49.083 44.7201L49.142 43.8334L49.3516 41.2458C49.3582 41.1604 49.3972 41.0809 49.4606 41.0235C49.5239 40.9661 49.6068 40.9352 49.6922 40.9371L55.109 40.9896C55.1944 40.9926 55.2758 41.0271 55.3374 41.0865C55.399 41.1459 55.4367 41.226 55.4431 41.3115L55.6265 44.4771C55.6265 44.4771 55.6265 44.5427 55.6265 44.5493L55.8164 47.8331C55.8348 50.0133 55.3007 52.1624 54.2641 54.079C54.091 54.4525 53.8538 54.7926 53.5632 55.0838L53.406 55.2217C53.1313 55.414 52.8044 55.5172 52.4694 55.5173ZM49.9935 41.6136L49.7511 44.7135L49.9935 47.8528C49.9981 47.9053 49.9981 47.958 49.9935 48.0105C49.6463 50.0858 50.2031 51.9904 51.8602 54.3811C51.9492 54.5281 52.0647 54.6573 52.2008 54.762C52.3324 54.8225 52.4783 54.8448 52.6219 54.8262C52.7655 54.8076 52.901 54.749 53.013 54.6569C53.0509 54.6298 53.086 54.599 53.1178 54.565C53.3531 54.3312 53.542 54.0549 53.6746 53.7506C54.6517 51.9561 55.1608 49.9433 55.1549 47.8988L54.9584 44.5624V44.4968L54.7946 41.6661L49.9935 41.6136Z" fill="#231F20"/>
<path d="M49.4102 44.6941C49.8375 45.4363 50.4432 46.0594 51.1721 46.5068C52.3249 47.2621 53.9624 47.932 55.3772 47.7021L55.279 44.4971C54.2445 44.6382 53.1957 44.6382 52.1612 44.4971C51.2343 44.439 50.3251 44.2166 49.4757 43.8403L49.4102 44.6941Z" fill="#231F20"/>
<path d="M54.7742 48.0764C53.4193 47.9884 52.1134 47.5345 50.9948 46.7628C50.2146 46.2751 49.5702 45.5973 49.1215 44.7926C49.1053 44.7346 49.1053 44.6732 49.1215 44.6152L49.1805 43.7811C49.1852 43.7275 49.2025 43.6757 49.2309 43.6301C49.2594 43.5844 49.2982 43.5462 49.3442 43.5184C49.3914 43.4926 49.4444 43.479 49.4982 43.479C49.552 43.479 49.6049 43.4926 49.6521 43.5184C50.4694 43.8648 51.3403 44.067 52.2262 44.1161C53.2348 44.251 54.2568 44.251 55.2654 44.1161C55.3107 44.1067 55.3575 44.1084 55.402 44.121C55.4464 44.1335 55.4872 44.1566 55.5209 44.1883C55.5568 44.2165 55.586 44.2524 55.6064 44.2933C55.6268 44.3341 55.6378 44.3791 55.6388 44.4248L55.737 47.6298C55.7397 47.7096 55.7132 47.7876 55.6625 47.8493C55.6119 47.911 55.5406 47.952 55.4619 47.9647C55.236 48.0201 55.006 48.0574 54.7742 48.0764ZM49.7438 44.6218C50.1426 45.2792 50.6929 45.831 51.3485 46.2309C52.4272 47.0002 53.7191 47.4113 55.0427 47.4065L54.9641 44.8648C54.0176 44.9537 53.0641 44.9361 52.1214 44.8123C51.3193 44.7507 50.5275 44.592 49.7634 44.3394L49.7438 44.6218Z" fill="#231F20"/>
<path d="M52.1675 45.259H52.7374C53.3627 45.2659 53.9833 45.1493 54.5637 44.9157C55.1441 44.6821 55.6729 44.3362 56.1199 43.8977C56.567 43.4592 56.9235 42.9367 57.1692 42.3601C57.4148 41.7834 57.5448 41.1638 57.5516 40.5368C57.4963 39.0722 57.3586 37.6118 57.139 36.1628C57.139 36.1628 54.9447 35.3746 53.209 34.7179C50.3204 33.6211 49.541 32.0908 49.541 32.0908C49.4582 33.1312 49.2379 34.156 48.886 35.1382C48.5061 35.8312 48.0679 36.4904 47.576 37.1085C47.576 37.1085 47.4908 39.4597 47.4777 40.4383C47.4672 41.6996 47.9542 42.914 48.8326 43.817C49.711 44.7199 50.9097 45.2382 52.1675 45.259Z" fill="white"/>
<path d="M52.7768 45.6069H52.1611C50.8124 45.5896 49.5254 45.0375 48.5815 44.0714C47.6377 43.1053 47.1137 41.8037 47.1242 40.4513C47.1242 39.4662 47.2159 37.1084 47.2159 37.1084C47.2199 37.037 47.245 36.9684 47.2879 36.9113C47.7561 36.3072 48.1745 35.6658 48.539 34.9936C48.8847 34.048 49.1049 33.061 49.194 32.0579C49.1998 31.9833 49.2299 31.9127 49.2796 31.857C49.3293 31.8012 49.3958 31.7633 49.4691 31.7492C49.5419 31.7346 49.6175 31.7447 49.6839 31.778C49.7504 31.8113 49.8038 31.8659 49.8359 31.9331C49.8359 31.9331 50.6153 33.4042 53.327 34.4288C55.0431 35.0855 57.257 35.8737 57.257 35.8737C57.3153 35.8936 57.3669 35.9293 57.4062 35.9768C57.4455 36.0243 57.471 36.0818 57.4797 36.1429C57.7065 37.6087 57.8443 39.087 57.8924 40.5695C57.8734 41.9155 57.3255 43.1997 56.3676 44.1429C55.4097 45.0861 54.1194 45.6122 52.7768 45.6069ZM52.1677 44.9501H52.7375C53.3184 44.9639 53.896 44.8593 54.4353 44.6425C54.9746 44.4258 55.4644 44.1014 55.875 43.6892C56.2879 43.2816 56.6163 42.7961 56.8411 42.2607C57.0659 41.7253 57.1828 41.1505 57.185 40.5695C57.14 39.1884 57.0131 37.8111 56.8051 36.445C56.2352 36.2414 54.4929 35.6044 53.0716 35.0658C51.8164 34.6343 50.6793 33.9146 49.7507 32.9642C49.6343 33.7523 49.4322 34.5253 49.1481 35.2694C48.7875 35.9635 48.3644 36.623 47.884 37.2397C47.884 37.7126 47.7988 39.6041 47.7923 40.4579C47.7854 41.0397 47.8929 41.6173 48.1088 42.1574C48.3247 42.6975 48.6447 43.1897 49.0505 43.6057C49.4563 44.0217 49.9399 44.3535 50.4736 44.5819C51.0074 44.8103 51.5808 44.931 52.1611 44.937L52.1677 44.9501Z" fill="#231F20"/>
<path d="M52.6521 40.2084C52.3742 40.2074 52.0965 40.192 51.8202 40.1624C51.732 40.1494 51.6524 40.1022 51.5985 40.0309C51.5447 39.9597 51.5208 39.8702 51.532 39.7815C51.5376 39.7373 51.552 39.6947 51.5742 39.6562C51.5964 39.6177 51.6261 39.584 51.6615 39.557C51.6968 39.5301 51.7372 39.5106 51.7802 39.4995C51.8232 39.4884 51.868 39.486 51.9119 39.4925C52.3149 39.5325 52.7207 39.5325 53.1237 39.4925C53.0428 38.5618 52.8059 37.6514 52.4228 36.7998C52.3907 36.7127 52.3944 36.6164 52.4331 36.532C52.4717 36.4476 52.5423 36.3821 52.6291 36.3499C52.716 36.3177 52.8121 36.3214 52.8962 36.3601C52.9803 36.3989 53.0457 36.4697 53.0778 36.5568C53.3857 37.3514 54.0734 39.2823 53.7328 39.8931C53.691 39.9649 53.6331 40.0259 53.5638 40.0715C53.4945 40.1171 53.4156 40.1459 53.3333 40.1558C53.1075 40.1877 52.88 40.2052 52.6521 40.2084Z" fill="#231F20"/>
<path d="M50.6443 37.5203C50.6492 37.0741 50.5065 36.7109 50.3257 36.7089C50.1448 36.7069 49.9942 37.0669 49.9893 37.513C49.9844 37.9592 50.1271 38.3224 50.3079 38.3244C50.4888 38.3264 50.6394 37.9664 50.6443 37.5203Z" fill="#231F20"/>
<path d="M54.9753 37.4143C54.9802 36.9682 54.8376 36.6049 54.6567 36.6029C54.4759 36.6009 54.3253 36.961 54.3204 37.4071C54.3155 37.8532 54.4581 38.2165 54.639 38.2185C54.8199 38.2204 54.9704 37.8604 54.9753 37.4143Z" fill="#231F20"/>
<path d="M58.2 49.2125C58.2 50.5261 58.2983 53.1991 55.4752 58.1642L52.7373 55.1497C53.4382 53.8362 55.246 52.9364 55.3901 48.2274C55.3901 48.1092 55.3901 47.9975 55.3901 47.8793C55.4246 47.8584 55.4622 47.8429 55.5014 47.8333C56.5298 47.3867 58.0559 48.1748 58.2 48.7265C58.2147 48.8882 58.2147 49.0509 58.2 49.2125Z" fill="white"/>
<path d="M55.4758 58.4993C55.4293 58.5001 55.3832 58.4912 55.3403 58.4731C55.2975 58.455 55.2588 58.4281 55.2269 58.3942L52.4563 55.3797C52.409 55.3282 52.3787 55.2635 52.3693 55.1942C52.3599 55.1249 52.372 55.0544 52.4039 54.9922C52.5912 54.6441 52.8105 54.3143 53.0589 54.007C53.8711 52.9759 54.8798 51.6952 54.9846 48.2144C54.9905 48.1028 54.9905 47.991 54.9846 47.8794C54.9838 47.821 54.9985 47.7634 55.0273 47.7126C55.0561 47.6618 55.0979 47.6197 55.1483 47.5904C55.2035 47.5564 55.263 47.5299 55.3252 47.5116C55.674 47.3919 56.0439 47.3458 56.4113 47.3763C56.7788 47.4068 57.136 47.5133 57.4605 47.689C57.7159 47.8137 58.3316 48.1553 58.4561 48.6413C58.4869 48.8323 58.4978 49.026 58.4888 49.2192V49.4031C58.4888 50.8349 58.4888 53.5145 55.7116 58.3286C55.6867 58.3761 55.6502 58.4167 55.6056 58.4465C55.561 58.4764 55.5096 58.4945 55.4562 58.4993H55.4758ZM53.1178 55.1038L55.4038 57.593C57.8404 53.1795 57.8535 50.7298 57.8666 49.3966V49.2127C57.8782 49.0772 57.8782 48.9409 57.8666 48.8055C57.7035 48.5766 57.4752 48.4025 57.2116 48.3063C56.7475 48.0587 56.2082 47.9931 55.6985 48.1224C55.6953 48.1618 55.6953 48.2013 55.6985 48.2406C55.5806 51.9448 54.4475 53.3831 53.6222 54.4339C53.4322 54.6704 53.2619 54.9002 53.1178 55.1038Z" fill="#231F20"/>
<path d="M52.4562 55.1762L49.417 58.1842C46.0765 55.8723 46.7446 49.1471 46.8494 48.7464C46.9807 48.4548 47.2136 48.2213 47.5044 48.0897C47.8207 47.8872 48.1806 47.7632 48.5541 47.7278C48.9277 47.6924 49.3043 47.7467 49.6528 47.8861V47.9583C49.7838 52.8447 51.7357 53.8232 52.4562 55.1762Z" fill="white"/>
<path d="M49.4165 58.499C49.3466 58.4996 49.2781 58.479 49.22 58.4399C45.5389 55.8916 46.5083 48.7066 46.528 48.641C46.6788 48.2701 46.9611 47.9684 47.3205 47.7937C47.6855 47.5635 48.1001 47.4242 48.5297 47.3876C48.9594 47.3511 49.3915 47.4183 49.7899 47.5836C49.8446 47.6129 49.8905 47.6564 49.9227 47.7095C49.955 47.7627 49.9724 47.8235 49.9733 47.8857V47.9579C50.065 51.5636 51.1457 52.9231 52.0169 54.0133C52.2864 54.3269 52.5255 54.6656 52.7308 55.0247C52.7649 55.0891 52.7776 55.1627 52.767 55.2347C52.7564 55.3068 52.723 55.3736 52.6719 55.4253L49.6327 58.4136C49.5723 58.4657 49.4961 58.4958 49.4165 58.499ZM47.648 48.3848C47.4537 48.4794 47.2901 48.6275 47.1764 48.8117C47.0258 49.416 46.5607 55.445 49.3838 57.7175L52.0038 55.0904C51.8597 54.8671 51.6828 54.6438 51.4863 54.3942C50.6086 53.304 49.4231 51.8131 49.2921 48.0696C48.727 47.9443 48.1355 48.0431 47.6415 48.3454L47.648 48.3848Z" fill="#231F20"/>
<path d="M53.465 41.062H51.8799C51.8799 41.062 51.6965 43.9058 52.6724 43.6037C53.465 43.3541 53.668 42.1063 53.465 41.062Z" fill="#231F20"/>
<path d="M45.2447 48.2275C44.9696 47.3737 25.693 57.9804 22.2346 60.3185C18.7762 62.6566 14.2305 80.0215 14.2305 80.0215L21.5141 80.3761C21.5141 80.3761 27.1929 66.722 29.7343 64.5087C32.2757 62.2954 43.0963 58.1643 43.0963 58.1643L45.2447 48.2275Z" fill="#48A4FE"/>
<path d="M146.088 19.9732C146.327 19.3144 146.449 18.6186 146.448 17.9176C146.324 17.2608 145.846 16.0392 146.088 15.2905C146.33 14.5418 147.169 12.2037 148.138 12.2628C149.108 12.3219 151.996 13.11 152.297 14.5615C152.599 16.0129 149.677 23.4213 149.677 23.4213L146.088 19.9732Z" fill="white"/>
<path d="M149.678 23.7498C149.593 23.749 149.511 23.7162 149.449 23.6579L145.892 20.2099C145.848 20.1665 145.816 20.1115 145.801 20.0512C145.786 19.9909 145.788 19.9276 145.807 19.8683C146.038 19.2645 146.158 18.6236 146.161 17.9769C146.128 17.8061 146.075 17.6091 146.017 17.3858C145.751 16.6754 145.679 15.907 145.807 15.1593C146.043 14.3778 146.914 11.8164 148.191 11.8755C149.03 11.9281 152.291 12.703 152.652 14.4369C152.966 15.9409 150.287 22.745 149.979 23.5134C149.96 23.5646 149.929 23.6101 149.888 23.6458C149.846 23.6814 149.797 23.7059 149.743 23.717L149.678 23.7498ZM146.495 19.8815L149.554 22.8435C150.706 19.8815 152.206 15.5403 152.01 14.5945C151.767 13.4123 149.161 12.6242 148.152 12.5586C147.621 12.5586 146.842 13.9509 146.429 15.3498C146.35 15.9799 146.424 16.6198 146.645 17.215C146.711 17.458 146.77 17.6747 146.803 17.8718C146.819 18.5574 146.703 19.2398 146.462 19.8815H146.495Z" fill="#231F20"/>
<path d="M141.634 11.3436L158.094 19.7699L163.995 8.29619L147.398 0.342773L141.634 11.3436Z" fill="white"/>
<path d="M158.094 20.0916C158.041 20.0919 157.989 20.0783 157.943 20.0522L141.483 11.6456C141.443 11.6259 141.407 11.5982 141.378 11.5644C141.349 11.5306 141.327 11.4912 141.313 11.4486C141.295 11.4071 141.286 11.3624 141.286 11.3172C141.286 11.2721 141.295 11.2274 141.313 11.1859L147.07 0.185065C147.11 0.106111 147.179 0.0459464 147.262 0.0176586C147.345 -0.0106291 147.437 -0.00475344 147.516 0.0340086L164.113 7.98743C164.155 8.00614 164.192 8.03333 164.223 8.06726C164.253 8.10118 164.276 8.1411 164.29 8.18446C164.308 8.22599 164.317 8.27067 164.317 8.31581C164.317 8.36096 164.308 8.40564 164.29 8.44716L158.395 19.9208C158.365 19.9742 158.322 20.0183 158.268 20.0484C158.215 20.0785 158.155 20.0934 158.094 20.0916ZM142.092 11.199L157.95 19.3101L163.537 8.44716L147.548 0.789289L142.092 11.199Z" fill="#231F20"/>
<path d="M97.8013 19.9732C97.5592 19.3152 97.4371 18.6189 97.441 17.9176C97.5589 17.2608 98.0436 16.0392 97.8013 15.2905C97.5589 14.5418 96.714 12.2037 95.7511 12.2628C94.7883 12.3219 91.8932 13.11 91.5919 14.5615C91.2906 16.0129 94.2446 23.4541 94.2446 23.4541L97.8013 19.9732Z" fill="white"/>
<path d="M94.2444 23.7496H94.1724C94.12 23.7364 94.0714 23.7112 94.0304 23.6758C93.9895 23.6405 93.9574 23.596 93.9366 23.546C93.6353 22.7776 90.9563 15.9735 91.2707 14.4695C91.631 12.7357 94.8863 11.9607 95.7313 11.9082C96.9954 11.8162 97.8731 14.3842 98.1155 15.192C98.2371 15.9399 98.1649 16.7066 97.9059 17.4184C97.8469 17.6417 97.7945 17.8388 97.7618 18.0095C97.7641 18.6557 97.8816 19.2963 98.1089 19.901C98.131 19.9593 98.1353 20.0229 98.1213 20.0837C98.1073 20.1445 98.0757 20.1998 98.0303 20.2425L94.4737 23.6905C94.4068 23.7371 94.3254 23.758 94.2444 23.7496ZM95.7902 12.5846C94.7815 12.6503 92.1746 13.4384 91.9323 14.6206C91.7358 15.5663 93.2423 19.8747 94.3885 22.8696L97.4474 19.9076C97.2122 19.2604 97.1075 18.5728 97.1395 17.8847C97.1723 17.7008 97.2312 17.4841 97.2902 17.228C97.5111 16.6328 97.5852 15.9929 97.5063 15.3627C97.0675 13.9704 96.3208 12.5584 95.7902 12.5584V12.5846Z" fill="#231F20"/>
<path d="M139.479 157.073C139.538 157.257 138.935 162.819 139.479 163.726C140.023 164.632 145.328 167.233 147.621 165.538C149.913 163.844 148.164 162.412 147.621 161.598C147.077 160.783 144.785 155.818 144.785 155.818L139.479 157.073Z" fill="#231F20"/>
<path d="M145.59 166.426C145.087 166.421 144.584 166.369 144.09 166.268C141.968 165.841 139.623 164.606 139.198 163.897C138.772 163.188 138.877 161.204 139.099 158.091C139.099 157.651 139.158 157.198 139.158 157.119C139.14 157.082 139.131 157.042 139.131 157.001C139.131 156.96 139.14 156.92 139.158 156.883C139.211 156.813 139.288 156.766 139.374 156.751L144.686 155.484C144.76 155.466 144.838 155.475 144.906 155.509C144.974 155.542 145.028 155.598 145.06 155.668C145.06 155.714 147.346 160.613 147.87 161.408C147.957 161.537 148.051 161.662 148.151 161.782C148.444 162.073 148.676 162.42 148.831 162.803C148.986 163.185 149.063 163.596 149.055 164.009C148.979 164.379 148.827 164.729 148.61 165.037C148.392 165.346 148.114 165.606 147.791 165.802C147.141 166.237 146.371 166.455 145.59 166.426ZM139.807 157.356C139.807 157.52 139.807 157.763 139.754 158.157C139.656 159.47 139.414 162.991 139.754 163.575C140.023 164.035 142.099 165.217 144.215 165.644C145.197 165.841 146.547 165.94 147.418 165.296C147.67 165.147 147.89 164.949 148.065 164.713C148.239 164.477 148.364 164.209 148.433 163.923C148.41 163.269 148.132 162.649 147.66 162.196C147.542 162.045 147.431 161.9 147.346 161.776C146.861 161.034 145.079 157.178 144.601 156.193L139.807 157.356Z" fill="#231F20"/>
<path d="M99.341 154.623C99.341 154.623 94.8149 162.156 95.542 164.146C96.269 166.136 102.871 164.422 104.136 162.971C105.4 161.519 105.491 152.719 105.491 152.719L99.341 154.623Z" fill="#231F20"/>
<path d="M97.7357 165.381C97.3997 165.385 97.0641 165.356 96.7335 165.296C96.4131 165.275 96.1042 165.168 95.84 164.985C95.5758 164.803 95.3661 164.551 95.2336 164.258C94.4803 162.176 98.5872 155.241 99.0588 154.452C99.101 154.384 99.166 154.333 99.2422 154.308L105.393 152.403C105.442 152.388 105.495 152.384 105.547 152.393C105.598 152.402 105.646 152.423 105.688 152.454C105.73 152.486 105.763 152.527 105.786 152.574C105.809 152.621 105.82 152.673 105.818 152.725C105.818 153.638 105.687 161.683 104.384 163.187C103.467 164.232 100.113 165.381 97.7357 165.381ZM99.5566 154.873C97.775 157.854 95.3646 162.669 95.8493 164.008C95.9606 164.317 96.2947 164.521 96.8514 164.626C98.895 165.013 102.969 163.779 103.886 162.728C104.803 161.677 105.104 155.825 105.157 153.139L99.5566 154.873Z" fill="#231F20"/>
<path d="M111.465 81.4204C111.465 81.4204 105.223 116.978 103.232 125.686C101.241 134.395 97.625 155.806 97.625 155.806C97.625 155.806 100.52 157.776 105.223 156.528L122.659 102.279L139.034 157.979L146.088 156.351L134.534 83.8964L111.465 81.4204Z" fill="#231F20"/>
<path d="M139.06 158.308C138.989 158.309 138.919 158.286 138.862 158.243C138.805 158.201 138.764 158.14 138.745 158.071L122.645 103.396L105.53 156.633C105.514 156.684 105.485 156.73 105.446 156.767C105.407 156.804 105.36 156.83 105.308 156.843C100.513 158.157 97.559 156.186 97.4476 156.075C97.3962 156.039 97.3561 155.989 97.3317 155.93C97.3074 155.872 97.2999 155.809 97.3101 155.746C97.3494 155.536 100.952 134.231 102.923 125.614C104.895 116.997 111.091 81.7159 111.157 81.3612C111.17 81.2793 111.214 81.2055 111.28 81.1554C111.346 81.1052 111.428 81.0825 111.51 81.092L134.58 83.568C134.651 83.5758 134.718 83.607 134.77 83.6569C134.822 83.7067 134.857 83.7724 134.868 83.8438L146.448 156.298C146.462 156.38 146.444 156.463 146.397 156.532C146.351 156.6 146.28 156.648 146.199 156.666L139.145 158.301L139.06 158.308ZM122.685 101.951C122.755 101.952 122.822 101.976 122.877 102.018C122.933 102.061 122.973 102.12 122.993 102.187L139.302 157.592L145.76 156.094L134.252 84.1985L111.733 81.775C111.117 85.2624 105.419 117.569 103.552 125.778C101.685 133.988 98.3712 153.362 97.9847 155.654C98.6397 156.035 101.207 157.237 104.967 156.278L122.351 102.187C122.369 102.12 122.409 102.06 122.465 102.017C122.521 101.974 122.589 101.951 122.659 101.951H122.685Z" fill="#231F20"/>
<path d="M151.059 20.6367C149.37 27.0467 138.392 55.2088 137.547 57.1463C136.702 59.0837 137.429 84.9865 137.429 84.9865C130.427 89.4657 110.404 87.5216 110.043 86.681C109.683 85.8403 110.168 68.0486 109.565 64.6662C108.963 61.2839 92.6924 21.2409 92.6924 21.2409L98.4826 19.3101L104.482 32.2812C104.482 32.2812 111.596 44.3459 113.286 45.5544C113.885 45.922 114.554 46.1612 115.251 46.2571C116.928 46.534 118.628 46.6505 120.327 46.6052C123.694 47.5706 127.827 46.2571 130.086 45.1538C130.501 44.9644 130.902 44.7449 131.285 44.497C132.844 43.4002 145.747 19.3101 145.747 19.3101L151.059 20.6367Z" fill="#48A4FE"/>
<path d="M130.08 45.1538L122.822 73.4932L115.244 46.2572C116.921 46.534 118.621 46.6506 120.32 46.6053C123.687 47.5707 127.82 46.2572 130.08 45.1538Z" fill="#231F20"/>
<path d="M122.822 73.8214C122.751 73.8214 122.683 73.7984 122.626 73.7557C122.569 73.7131 122.528 73.6532 122.508 73.585L114.962 46.3621C114.947 46.3076 114.946 46.2504 114.959 46.1954C114.971 46.1403 114.997 46.0893 115.034 46.0468C115.072 46.004 115.121 45.9722 115.175 45.9549C115.229 45.9375 115.287 45.9353 115.342 45.9483C116.996 46.2188 118.671 46.3331 120.346 46.2898H120.445C123.504 47.1699 127.375 46.1256 129.968 44.8581C130.025 44.8335 130.087 44.8252 130.148 44.8339C130.209 44.8427 130.267 44.8682 130.314 44.9076C130.362 44.947 130.397 44.9989 130.417 45.0573C130.437 45.1158 130.44 45.1787 130.427 45.239L123.17 73.5784C123.153 73.649 123.113 73.7117 123.055 73.7559C122.998 73.8002 122.927 73.8233 122.855 73.8214H122.822ZM115.703 46.6708L122.822 72.2255L129.602 45.7447C126.942 46.9138 123.281 47.7741 120.294 46.9335C118.759 46.9738 117.223 46.8859 115.703 46.6708Z" fill="#231F20"/>
<path d="M128.508 36.7669C128.59 36.5519 128.66 36.3327 128.717 36.1101C129.87 31.8608 128.174 26.3966 123.183 26.0551C122.04 26.0074 120.907 26.2856 119.916 26.8576C118.925 27.4296 118.116 28.2717 117.582 29.2863C116.148 31.7886 116.548 34.9871 116.81 37.7389C116.81 37.9215 116.865 38.0997 116.967 38.2512C117.255 38.5861 117.812 38.3628 118.178 38.3563C118.709 38.3563 119.266 38.4351 119.796 38.4679C120.726 38.5139 121.65 38.5467 122.574 38.527C123.911 38.5851 125.25 38.5478 126.582 38.4154C127.145 38.3234 127.532 38.3234 127.892 37.8637C128.161 37.538 128.37 37.1665 128.508 36.7669Z" fill="white"/>
<path d="M124.591 38.8488H123.766H122.6C121.788 38.8488 120.897 38.8488 119.803 38.7897L119.148 38.7372C118.827 38.7372 118.493 38.6715 118.179 38.678H117.897C117.742 38.7503 117.571 38.7814 117.401 38.7683C117.231 38.7553 117.067 38.6986 116.925 38.6036C116.783 38.5086 116.667 38.3786 116.59 38.226C116.512 38.0734 116.475 37.9034 116.482 37.7323V37.3514C116.214 34.6389 115.912 31.5587 117.327 29.0827C117.894 28.0214 118.747 27.1421 119.79 26.5461C120.833 25.95 122.023 25.6614 123.222 25.7135C124.151 25.7643 125.056 26.0274 125.867 26.4827C126.679 26.9381 127.376 27.5736 127.905 28.3406C128.643 29.4977 129.126 30.7988 129.324 32.1576C129.521 33.5163 129.429 34.9017 129.052 36.2217C128.99 36.4441 128.918 36.6633 128.835 36.8785C128.685 37.3005 128.463 37.6937 128.18 38.041C128.02 38.2367 127.821 38.3963 127.595 38.5095C127.37 38.6226 127.123 38.6868 126.87 38.6977H126.674C125.985 38.8045 125.288 38.855 124.591 38.8488ZM122.947 38.192H123.779C124.704 38.2313 125.631 38.1917 126.55 38.0738H126.753C126.926 38.0781 127.099 38.0446 127.258 37.9754C127.418 37.9062 127.56 37.8031 127.676 37.6732C127.904 37.3799 128.083 37.0517 128.207 36.7012C128.279 36.491 128.344 36.2743 128.403 36.0444C128.754 34.8195 128.841 33.534 128.659 32.2727C128.477 31.0115 128.031 29.8033 127.349 28.7281C126.874 28.0449 126.249 27.4801 125.522 27.077C124.795 26.6739 123.986 26.4434 123.157 26.4031C122.086 26.3651 121.027 26.6302 120.101 27.168C119.174 27.7059 118.417 28.4946 117.917 29.4439C116.607 31.7426 116.895 34.698 117.15 37.3251L117.19 37.706C117.192 37.8199 117.218 37.932 117.268 38.0344C117.353 38.1329 117.563 38.1132 117.858 38.0344L118.224 37.995C118.572 37.995 118.919 37.995 119.259 38.0541L119.869 38.1067C120.949 38.1592 121.834 38.1789 122.626 38.1658L122.947 38.192Z" fill="#231F20"/>
<path d="M118.729 37.2858C118.467 35.1711 115.008 34.534 115.093 37.0166C115.094 37.8769 115.393 38.7101 115.938 39.3744C116.217 39.7015 116.586 39.9385 116.998 40.0555C117.411 40.1724 117.849 40.1639 118.257 40.0311" fill="white"/>
<path d="M117.583 40.4515C117.224 40.446 116.871 40.3669 116.544 40.2189C116.217 40.0709 115.925 39.8572 115.683 39.5912C115.083 38.8709 114.754 37.962 114.753 37.0232C114.714 36.7873 114.725 36.5458 114.786 36.3146C114.847 36.0834 114.955 35.8676 115.105 35.6815C115.255 35.4954 115.442 35.3432 115.655 35.2348C115.867 35.1265 116.1 35.0645 116.338 35.0529C116.976 35.0072 117.608 35.2031 118.109 35.602C118.61 36.0009 118.944 36.5736 119.044 37.2071C119.049 37.2502 119.046 37.294 119.035 37.336C119.024 37.378 119.004 37.4173 118.978 37.4518C118.951 37.4863 118.918 37.5152 118.881 37.5368C118.843 37.5585 118.802 37.5726 118.759 37.5782C118.716 37.5838 118.672 37.5808 118.63 37.5695C118.588 37.5582 118.549 37.5387 118.515 37.5122C118.48 37.4856 118.451 37.4526 118.43 37.4149C118.408 37.3772 118.394 37.3356 118.389 37.2925C118.307 36.8276 118.058 36.4091 117.688 36.117C117.318 35.825 116.854 35.68 116.384 35.7097C116.004 35.7097 115.369 35.9461 115.402 36.9707C115.397 37.763 115.673 38.5313 116.181 39.138C116.419 39.4129 116.732 39.6113 117.082 39.7083C117.431 39.8053 117.802 39.7965 118.146 39.6831C118.226 39.6521 118.315 39.6533 118.395 39.6863C118.474 39.7193 118.537 39.7817 118.572 39.8604C118.603 39.9417 118.602 40.0318 118.569 40.1123C118.536 40.1929 118.474 40.2578 118.395 40.2939C118.137 40.3989 117.861 40.4524 117.583 40.4515Z" fill="#231F20"/>
<path d="M126.268 37.2858C126.53 35.1711 129.995 34.534 129.909 37.0166C129.909 37.8782 129.608 38.7124 129.058 39.3744C128.781 39.7017 128.413 39.9389 128.002 40.0559C127.59 40.1729 127.153 40.1643 126.746 40.0311" fill="white"/>
<path d="M127.407 40.4514C127.138 40.4531 126.872 40.4041 126.621 40.3069C126.541 40.2721 126.478 40.2073 126.445 40.1263C126.412 40.0453 126.411 39.9545 126.444 39.8734C126.478 39.7936 126.541 39.7301 126.621 39.6969C126.701 39.6637 126.79 39.6634 126.87 39.6961C127.215 39.8086 127.585 39.817 127.934 39.72C128.284 39.6231 128.597 39.4252 128.835 39.151C129.329 38.5451 129.598 37.7859 129.595 37.0034C129.628 35.9788 128.992 35.7752 128.612 35.7424C128.143 35.7141 127.679 35.8597 127.31 36.1515C126.94 36.4433 126.691 36.8609 126.608 37.3252C126.597 37.4114 126.552 37.4895 126.483 37.5424C126.414 37.5953 126.327 37.6188 126.241 37.6076C126.198 37.6028 126.157 37.5893 126.119 37.5681C126.082 37.5468 126.049 37.5181 126.022 37.4838C125.996 37.4494 125.977 37.4101 125.966 37.3682C125.955 37.3263 125.953 37.2826 125.96 37.2398C126.06 36.6064 126.393 36.0336 126.894 35.6347C127.395 35.2358 128.027 35.0399 128.665 35.0856C128.903 35.0972 129.136 35.1592 129.349 35.2676C129.561 35.3759 129.748 35.5281 129.898 35.7142C130.048 35.9003 130.157 36.1161 130.217 36.3473C130.278 36.5786 130.289 36.8201 130.25 37.0559C130.25 37.996 129.918 38.9057 129.313 39.6239C129.069 39.8848 128.773 40.0928 128.445 40.2351C128.118 40.3774 127.764 40.451 127.407 40.4514Z" fill="#231F20"/>
<path d="M118.467 47.7939C119.843 48.3889 121.324 48.6994 122.823 48.7068C125.56 48.8053 126.026 48.05 126.026 48.05L125.96 46.5788L125.809 43.1505L125.665 39.9521L119.397 39.7354L119.096 42.3624L119.004 43.2031L118.467 47.7939Z" fill="white"/>
<path d="M123.281 49.0419H122.823C121.28 49.034 119.755 48.71 118.342 48.0896C118.283 48.06 118.233 48.0125 118.202 47.9537C118.17 47.8948 118.157 47.8275 118.166 47.7612L119.083 39.7092C119.091 39.6274 119.13 39.5518 119.192 39.4981C119.254 39.4443 119.335 39.4165 119.417 39.4203L125.685 39.637C125.767 39.6415 125.846 39.676 125.905 39.734C125.964 39.792 126 39.8696 126.006 39.9522L126.366 48.0501C126.369 48.1155 126.351 48.1801 126.314 48.234C126.202 48.372 125.659 49.0419 123.281 49.0419ZM118.814 47.5904C120.094 48.0859 121.451 48.3526 122.823 48.3785C124.788 48.4442 125.482 48.0699 125.678 47.9254L125.338 40.2741L119.672 40.077L118.814 47.5904Z" fill="#231F20"/>
<path d="M118.991 43.1833C119.481 43.9648 120.156 44.6124 120.956 45.0682C122.266 45.8629 124.264 46.7758 125.915 46.5853L125.764 43.157C124.566 43.2693 123.36 43.2429 122.168 43.0782C121.105 42.9983 120.06 42.7569 119.07 42.3623L118.991 43.1833Z" fill="#231F20"/>
<path d="M125.482 46.9401C123.733 46.9401 121.847 45.9681 120.818 45.3507C119.96 44.8832 119.235 44.2053 118.709 43.3804C118.671 43.3222 118.655 43.2524 118.663 43.1834L118.755 42.3362C118.762 42.2849 118.78 42.2357 118.808 42.1925C118.837 42.1493 118.874 42.113 118.919 42.0866C118.965 42.0624 119.017 42.0498 119.069 42.0498C119.122 42.0498 119.173 42.0624 119.22 42.0866C120.181 42.4575 121.192 42.6789 122.22 42.7434C123.391 42.9194 124.578 42.9524 125.757 42.8419C125.802 42.8376 125.847 42.8424 125.889 42.8559C125.932 42.8694 125.972 42.8915 126.006 42.9207C126.041 42.9498 126.069 42.9858 126.09 43.0265C126.11 43.0672 126.121 43.1117 126.124 43.1571L126.274 46.5789C126.278 46.6618 126.251 46.7431 126.197 46.8065C126.144 46.8698 126.068 46.9105 125.986 46.9204C125.819 46.9367 125.65 46.9433 125.482 46.9401ZM119.325 43.1112C119.795 43.8072 120.424 44.3812 121.159 44.7859C121.958 45.2653 123.916 46.3359 125.606 46.2768L125.482 43.5184C124.364 43.5876 123.243 43.5414 122.135 43.3804C121.19 43.3001 120.259 43.1105 119.358 42.8156L119.325 43.1112Z" fill="#231F20"/>
<path d="M127.991 31.5852L127.722 39.2103C127.716 39.5361 127.672 39.86 127.591 40.1757C127.331 41.2537 126.708 42.2088 125.828 42.8799C124.947 43.5511 123.863 43.8973 122.757 43.8602H122.194C121.157 43.8234 120.159 43.451 119.351 42.7988C118.542 42.1465 117.966 41.2493 117.707 40.2414C117.594 39.7952 117.543 39.3355 117.557 38.8753L117.825 31.2568C117.825 31.2568 119.011 32.8265 122.41 32.7937C124.336 32.8035 126.241 32.3911 127.991 31.5852Z" fill="white"/>
<path d="M122.921 44.1882H122.744H122.181C121.073 44.145 120.009 43.7455 119.145 43.0489C118.282 42.3522 117.665 41.3953 117.386 40.3198C117.267 39.8433 117.215 39.3527 117.229 38.8618L117.497 31.2368C117.498 31.1694 117.52 31.104 117.56 31.0498C117.6 30.9956 117.656 30.9553 117.72 30.9347C117.785 30.9145 117.854 30.915 117.919 30.9362C117.984 30.9574 118.04 30.9982 118.08 31.0529C118.08 31.0529 119.259 32.5109 122.41 32.4584C124.279 32.4743 126.129 32.0845 127.833 31.3156C127.883 31.2868 127.94 31.2716 127.997 31.2716C128.055 31.2716 128.111 31.2868 128.161 31.3156C128.209 31.3464 128.248 31.3893 128.274 31.44C128.301 31.4907 128.314 31.5474 128.311 31.6046L128.063 39.223C128.055 39.5708 128.009 39.9167 127.925 40.2542C127.65 41.3765 127.007 42.3739 126.1 43.087C125.193 43.8002 124.073 44.1879 122.921 44.1882ZM118.126 31.9461L117.884 38.8684C117.843 40.0589 118.276 41.2169 119.086 42.0876C119.897 42.9584 121.02 43.4706 122.207 43.5117H122.77C123.799 43.5421 124.807 43.2185 125.627 42.5948C126.446 41.9711 127.029 41.0849 127.277 40.0834C127.348 39.7864 127.387 39.4825 127.394 39.1771L127.643 32.084C125.975 32.7425 124.197 33.079 122.403 33.0757C120.894 33.1701 119.394 32.7739 118.126 31.9461Z" fill="#231F20"/>
<path d="M122.875 35.1973C122.875 35.1973 124.453 38.6913 123.752 38.7569C123.162 38.7309 122.585 38.5738 122.062 38.2972" fill="white"/>
<path d="M123.635 39.0786C123.032 39.0303 122.446 38.8582 121.912 38.5729C121.871 38.5545 121.834 38.5278 121.804 38.4945C121.774 38.4612 121.751 38.4221 121.736 38.3795C121.722 38.3369 121.716 38.2917 121.72 38.2469C121.723 38.202 121.736 38.1583 121.757 38.1186C121.779 38.0789 121.808 38.044 121.843 38.016C121.878 37.988 121.918 37.9676 121.962 37.956C122.005 37.9444 122.051 37.9419 122.095 37.9486C122.139 37.9553 122.182 37.9711 122.22 37.995C122.653 38.221 123.124 38.3657 123.609 38.4219C123.421 37.3432 123.074 36.2986 122.58 35.3219C122.562 35.2832 122.551 35.2411 122.549 35.1982C122.546 35.1553 122.553 35.1123 122.568 35.0719C122.582 35.0315 122.605 34.9945 122.634 34.963C122.663 34.9314 122.698 34.9061 122.737 34.8885C122.817 34.8527 122.908 34.8498 122.99 34.8805C123.072 34.9112 123.139 34.973 123.176 35.0526C123.694 36.202 124.486 38.2248 124.172 38.8225C124.132 38.8918 124.076 38.9506 124.009 38.994C123.941 39.0374 123.865 39.0641 123.785 39.0721L123.635 39.0786Z" fill="#231F20"/>
<path d="M120.648 35.4076C120.829 35.4076 120.975 35.0724 120.975 34.6589C120.975 34.2454 120.829 33.9102 120.648 33.9102C120.467 33.9102 120.32 34.2454 120.32 34.6589C120.32 35.0724 120.467 35.4076 120.648 35.4076Z" fill="#231F20"/>
<path d="M125.364 35.4076C125.545 35.4076 125.691 35.0724 125.691 34.6589C125.691 34.2454 125.545 33.9102 125.364 33.9102C125.183 33.9102 125.036 34.2454 125.036 34.6589C125.036 35.0724 125.183 35.4076 125.364 35.4076Z" fill="#231F20"/>
<path d="M95.2074 12.9131C94.5962 13.0295 94.0241 13.2983 93.5437 13.6946C93.0524 14.0559 92.535 14.5287 92.5481 15.133C92.5459 15.1984 92.5694 15.2621 92.6136 15.3103C92.6705 15.345 92.7384 15.3568 92.8035 15.3431C93.6977 15.2826 94.5614 14.9932 95.3122 14.5025C94.9286 14.8669 94.6639 15.3392 94.5528 15.8573C94.4418 16.3754 94.4896 16.915 94.6899 17.4054L94.8144 17.4448" fill="white"/>
<path d="M94.7823 17.7799H94.684L94.5596 17.7405C94.5141 17.7272 94.4722 17.7037 94.4371 17.6719C94.4019 17.64 94.3744 17.6006 94.3565 17.5566C94.0749 16.8549 94.0749 16.0713 94.3565 15.3696C93.876 15.5456 93.3734 15.6539 92.8631 15.6914C92.71 15.7124 92.5548 15.6723 92.4308 15.5797C92.374 15.5271 92.3289 15.4631 92.2984 15.3918C92.2679 15.3205 92.2528 15.2435 92.254 15.166C92.2848 14.8104 92.4002 14.4673 92.5905 14.1656C92.7809 13.864 93.0406 13.6124 93.3478 13.4321C93.869 12.9977 94.4945 12.7079 95.1622 12.5915C95.2049 12.586 95.2482 12.5892 95.2897 12.6009C95.3311 12.6125 95.3698 12.6324 95.4034 12.6594C95.437 12.6863 95.4649 12.7198 95.4853 12.7578C95.5058 12.7958 95.5184 12.8375 95.5224 12.8804C95.5316 12.9666 95.5065 13.0529 95.4525 13.1206C95.3985 13.1882 95.3201 13.2318 95.2342 13.2417C94.6818 13.3528 94.1661 13.6012 93.7343 13.9641C93.1906 14.3582 92.9221 14.68 92.8762 15.0084C93.6684 14.9313 94.4303 14.6632 95.0967 14.2268C95.1662 14.182 95.2501 14.1652 95.3315 14.1798C95.4129 14.1944 95.4858 14.2394 95.5355 14.3056C95.5847 14.3707 95.608 14.4519 95.6007 14.5333C95.5934 14.6146 95.5562 14.6904 95.4962 14.7457C95.1789 15.0464 94.9542 15.432 94.8485 15.8568C94.7429 16.2817 94.7608 16.7279 94.9002 17.1428C94.9765 17.175 95.0383 17.2345 95.0734 17.3097C95.1085 17.385 95.1145 17.4706 95.0901 17.55C95.0686 17.6154 95.0275 17.6726 94.9724 17.7137C94.9173 17.7549 94.8509 17.778 94.7823 17.7799Z" fill="#231F20"/>
<path d="M123.478 40.3464L121.689 39.7422C121.689 39.7422 120.93 41.4366 121.912 42.0277C122.895 42.6188 123.478 40.3464 123.478 40.3464Z" fill="#231F20"/>
<path d="M147.019 14.4305C147.096 14.3263 147.194 14.2393 147.307 14.1749C147.42 14.1105 147.545 14.0701 147.674 14.0562C148.17 13.9342 148.684 13.8965 149.193 13.9445C149.705 13.9999 150.187 14.2107 150.575 14.5487C150.66 14.6154 150.722 14.7073 150.752 14.8115C150.76 14.9006 150.738 14.9897 150.689 15.0647C150.64 15.1397 150.568 15.1962 150.484 15.2252C150.314 15.2759 150.135 15.2915 149.959 15.2712L148.649 15.1792C149.033 15.4546 149.356 15.8054 149.599 16.2104C149.717 16.4113 149.775 16.6419 149.766 16.8748C149.756 17.1077 149.68 17.3331 149.547 17.5239" fill="white"/>
<path d="M149.559 17.865C149.484 17.8641 149.41 17.8387 149.35 17.7928C149.284 17.7356 149.243 17.6548 149.236 17.5676C149.228 17.4805 149.255 17.394 149.311 17.3265C149.401 17.1816 149.448 17.0144 149.448 16.8437C149.448 16.6731 149.401 16.5059 149.311 16.361C149.084 15.996 148.788 15.6791 148.439 15.4284C148.387 15.3839 148.35 15.3242 148.334 15.2575C148.317 15.1909 148.322 15.1208 148.347 15.057C148.373 14.9933 148.417 14.939 148.475 14.902C148.533 14.8649 148.6 14.8469 148.669 14.8505L149.979 14.9424C150.104 14.9667 150.233 14.9667 150.359 14.9424C150.386 14.93 150.409 14.9094 150.424 14.8833C150.402 14.857 150.378 14.8328 150.352 14.8111C150.015 14.5194 149.596 14.3384 149.153 14.2922C148.681 14.2462 148.205 14.2818 147.745 14.3973C147.581 14.4301 147.365 14.4958 147.3 14.614C147.279 14.652 147.25 14.6854 147.216 14.7124C147.182 14.7393 147.143 14.7593 147.102 14.7712C147.06 14.7831 147.017 14.7867 146.974 14.7817C146.931 14.7767 146.889 14.7632 146.851 14.7421C146.813 14.721 146.78 14.6926 146.753 14.6585C146.726 14.6245 146.706 14.5854 146.694 14.5437C146.682 14.5019 146.679 14.4582 146.684 14.415C146.689 14.3719 146.702 14.3302 146.723 14.2922C146.823 14.1449 146.953 14.0206 147.104 13.9277C147.255 13.8348 147.425 13.7755 147.601 13.7537C148.134 13.6227 148.686 13.5849 149.232 13.642C149.806 13.6957 150.351 13.9249 150.791 14.2988C150.932 14.4114 151.032 14.5689 151.073 14.7454C151.095 14.9083 151.06 15.074 150.976 15.2149C150.891 15.3558 150.761 15.4635 150.607 15.5204C150.398 15.5953 150.173 15.6179 149.952 15.586H149.579C149.707 15.7372 149.821 15.8999 149.92 16.072C150.068 16.334 150.137 16.6332 150.12 16.9338C150.102 17.2344 149.999 17.5235 149.821 17.7665C149.788 17.8021 149.747 17.8295 149.702 17.8466C149.657 17.8637 149.608 17.87 149.559 17.865Z" fill="#231F20"/>
<path d="M122.823 89.4983C122.736 89.4983 122.652 89.4637 122.591 89.4021C122.53 89.3405 122.495 89.257 122.495 89.1699V73.4929C122.495 73.4058 122.53 73.3223 122.591 73.2607C122.652 73.1992 122.736 73.1646 122.823 73.1646C122.909 73.1662 122.991 73.2014 123.052 73.2626C123.113 73.3238 123.148 73.4064 123.15 73.4929V89.1699C123.148 89.2565 123.113 89.339 123.052 89.4002C122.991 89.4615 122.909 89.4966 122.823 89.4983Z" fill="#231F20"/>
</svg>
