<svg width="258" height="180" viewBox="0 0 258 180" fill="none" xmlns="http://www.w3.org/2000/svg">
<path d="M256.505 113.495H0.905487L6.25612 103.645L13.4808 90.3269L17.9623 82.0791L25.1871 68.7614L30.5377 58.9111H226.873L232.223 68.7614L239.448 82.0791L243.929 90.3269L251.154 103.645L256.505 113.495Z" fill="white"/>
<path d="M226.872 58.9113L232.223 68.7615L239.466 82.0793L243.947 90.327L251.19 103.645L256.504 113.459H0.905153L6.25579 103.609L13.4986 90.2908L18.0254 82.0431L25.2682 68.7253L30.6188 58.8751H226.872M226.872 57.9697H30.5374C30.3745 57.9693 30.2145 58.0128 30.0743 58.0956C29.9341 58.1785 29.8188 58.2976 29.7407 58.4405L24.39 68.2908L17.1472 81.6085L12.6204 89.8563L5.3776 103.174L0.144656 113.06C0.0691172 113.199 0.0308687 113.354 0.0336837 113.511C0.0364987 113.669 0.0802799 113.822 0.160709 113.958C0.241138 114.093 0.355435 114.205 0.492332 114.283C0.629228 114.36 0.783997 114.401 0.941368 114.4H256.504C256.662 114.401 256.817 114.36 256.953 114.283C257.09 114.205 257.205 114.093 257.285 113.958C257.366 113.822 257.409 113.669 257.412 113.511C257.415 113.354 257.377 113.199 257.301 113.06L251.951 103.21L244.708 89.8925L240.226 81.6447L232.983 68.327L227.633 58.4767C227.555 58.3338 227.439 58.2147 227.299 58.1319C227.159 58.049 226.999 58.0055 226.836 58.0059L226.872 57.9697Z" fill="#231F20"/>
<path d="M237.203 107.583H23.3764C23.2974 107.582 23.2199 107.561 23.1516 107.522C23.0833 107.482 23.0266 107.425 22.9871 107.357C22.9491 107.287 22.9292 107.209 22.9292 107.13C22.9292 107.051 22.9491 106.973 22.9871 106.904C23.1682 106.596 23.3402 106.279 23.4941 105.999C24.6982 103.473 24.7978 101.173 23.7567 99.5253C22.8513 98.0949 21.1221 97.3072 18.8949 97.3072C18.8165 97.3064 18.7395 97.2856 18.6713 97.2468C18.6031 97.208 18.5459 97.1524 18.5051 97.0854C18.4643 97.0183 18.4413 96.942 18.4383 96.8636C18.4352 96.7852 18.4521 96.7073 18.4875 96.6372L31.76 71.1697C31.7994 71.0978 31.8568 71.0374 31.9267 70.9945C31.9966 70.9516 32.0764 70.9278 32.1584 70.9252C36.5222 70.9252 41.6193 67.9738 43.2851 64.4791C43.3757 64.2799 43.4572 64.0807 43.5386 63.8725C43.5703 63.785 43.6281 63.7094 43.7042 63.6559C43.7804 63.6025 43.8711 63.5738 43.9642 63.5737H216.633C216.725 63.573 216.815 63.6015 216.89 63.6552C216.965 63.7089 217.021 63.785 217.05 63.8725C217.131 64.0807 217.213 64.2799 217.312 64.4791C218.969 67.9738 224.066 70.9252 228.439 70.9252C228.521 70.9268 228.601 70.9503 228.671 70.9933C228.741 71.0363 228.799 71.0971 228.837 71.1697L242.11 96.6372C242.145 96.7073 242.162 96.7852 242.159 96.8636C242.156 96.942 242.133 97.0183 242.092 97.0854C242.051 97.1524 241.994 97.208 241.926 97.2468C241.858 97.2856 241.781 97.3064 241.702 97.3072C239.466 97.3072 237.737 98.0949 236.832 99.5344C235.799 101.173 235.926 103.473 237.094 106.008C237.248 106.325 237.42 106.641 237.601 106.913C237.639 106.982 237.659 107.06 237.659 107.139C237.659 107.218 237.639 107.296 237.601 107.366C237.56 107.434 237.501 107.49 237.431 107.528C237.361 107.566 237.282 107.585 237.203 107.583ZM24.1369 106.678H236.442L236.279 106.352C234.939 103.527 234.858 100.92 236.062 99.0002C236.614 98.2054 237.346 97.5529 238.199 97.0964C239.052 96.64 240.002 96.3926 240.969 96.3747L228.158 71.8125C223.478 71.6948 218.281 68.6166 216.488 64.8503C216.425 64.7235 216.371 64.5968 216.316 64.461H44.2991C44.2448 64.5968 44.1905 64.7235 44.1271 64.8503C42.3164 68.6166 37.1469 71.6948 32.4662 71.8125L19.6192 96.3747C20.5853 96.3926 21.5333 96.64 22.385 97.0965C23.2366 97.553 23.9674 98.2056 24.5172 99.0002C25.7213 100.911 25.6489 103.527 24.2999 106.352L24.1369 106.678Z" fill="#E6E7E8"/>
<path d="M153.475 113.495H103.935L104.976 103.645L106.379 90.3269L107.248 82.0791L108.642 68.7614L109.684 58.9111H147.726L148.768 68.7614L150.162 82.0791L151.031 90.3269L152.434 103.645L153.475 113.495Z" fill="#E6E7E8"/>
<path d="M147.718 58.9112L148.759 68.7615L150.153 82.0792L151.058 90.327L152.462 103.645L153.476 113.459H103.935L104.976 103.609L106.379 90.2908L107.284 82.043L108.679 68.7253L109.693 58.9112H147.718ZM147.718 58.0059H109.693C109.469 58.0045 109.252 58.0861 109.085 58.2349C108.918 58.3837 108.812 58.5892 108.787 58.8116L107.755 68.6619L106.352 81.9796L105.447 90.2274L104.052 103.554L103.011 113.404C102.998 113.53 103.012 113.657 103.051 113.777C103.09 113.897 103.153 114.008 103.238 114.102C103.322 114.195 103.426 114.27 103.541 114.322C103.656 114.373 103.781 114.4 103.907 114.4H153.448C153.575 114.4 153.7 114.373 153.815 114.322C153.93 114.27 154.034 114.195 154.118 114.102C154.203 114.008 154.266 113.897 154.305 113.777C154.344 113.657 154.358 113.53 154.345 113.404L153.304 103.554L151.909 90.2274L151.004 81.9796L149.601 68.6619L148.623 58.8116C148.598 58.5892 148.492 58.3837 148.325 58.2349C148.158 58.0861 147.941 58.0045 147.718 58.0059Z" fill="#231F20"/>
<path d="M174.1 51.2158C175.405 51.8144 176.577 52.6672 177.549 53.7242C178.52 54.7813 179.271 56.0215 179.758 57.3722C182.329 64.0718 185.706 82.0431 185.706 82.0431C193.293 82.8096 200.871 83.6788 208.44 84.6505C211.998 85.1122 215.556 85.5559 219.086 86.1805C220.507 86.5093 221.957 86.7003 223.414 86.7509C224.908 86.7057 226.845 86.1806 228.267 86.7509C228.347 86.773 228.421 86.813 228.484 86.8679C228.547 86.9227 228.596 86.9911 228.629 87.0678C228.642 87.2331 228.593 87.3974 228.493 87.5295L227.588 89.0415C228.251 89.3047 228.891 89.6258 229.498 90.0011C229.873 90.2873 230.17 90.6634 230.361 91.0948C230.553 91.5261 230.632 91.9987 230.593 92.4688C230.553 92.939 230.395 93.3916 230.134 93.7847C229.873 94.1778 229.518 94.4988 229.1 94.718C228.125 95.064 227.09 95.2057 226.058 95.1345C224.826 95.2341 223.604 95.3156 222.364 95.2975C219.865 95.2522 217.366 95.0168 214.868 94.9082C210.676 94.709 206.484 94.5007 202.292 94.2472C193.039 93.6769 183.588 93.2242 174.48 91.3954C172.895 91.0785 169.79 90.7707 168.758 89.2859C165.825 85.1213 174.1 51.2158 174.1 51.2158Z" fill="white"/>
<path d="M222.735 95.7681H222.328C220.761 95.7681 219.186 95.6413 217.656 95.5417C216.751 95.4784 215.764 95.415 214.822 95.3788C210.114 95.1615 206.004 94.9442 202.238 94.7179L200.056 94.582C191.564 94.075 182.791 93.5499 174.371 91.866L173.565 91.7211C171.755 91.4043 169.346 90.9787 168.36 89.5664C165.408 85.3474 172.805 54.6107 173.656 51.116C173.673 51.0543 173.703 50.9967 173.744 50.9469C173.784 50.897 173.834 50.856 173.891 50.8263C173.949 50.7995 174.013 50.7856 174.077 50.7856C174.141 50.7856 174.204 50.7995 174.262 50.8263C175.627 51.4462 176.854 52.3337 177.869 53.4363C178.885 54.5389 179.669 55.8342 180.174 57.2453C182.574 63.4832 185.607 79.1096 186.086 81.6898C193.854 82.4865 201.396 83.3466 208.494 84.2701C211.88 84.7046 215.51 85.1754 219.159 85.8001C219.53 85.8544 219.892 85.9269 220.263 85.9993C221.294 86.2348 222.348 86.3563 223.405 86.3614C223.822 86.3614 224.31 86.2981 224.754 86.2437C225.978 86.0014 227.241 86.0573 228.439 86.4067C228.585 86.4538 228.718 86.5351 228.826 86.6437C228.935 86.7523 229.016 86.8852 229.063 87.0314C229.09 87.1724 229.087 87.3172 229.056 87.4572C229.025 87.5972 228.966 87.7295 228.882 87.8462L228.212 88.9236L228.43 89.0232C228.894 89.2013 229.335 89.4354 229.743 89.7203C230.168 90.0541 230.504 90.4885 230.72 90.9844C230.936 91.4803 231.025 92.0222 230.979 92.5611C230.933 93.1 230.754 93.619 230.457 94.0714C230.161 94.5238 229.757 94.8953 229.281 95.1524C228.522 95.4911 227.693 95.6432 226.863 95.596C226.601 95.596 226.329 95.596 226.067 95.596C224.845 95.7047 223.767 95.7681 222.735 95.7681ZM174.407 51.8947C172.044 61.6544 166.848 85.8454 169.102 89.0775C169.872 90.182 172.189 90.5894 173.719 90.8882L174.543 91.0421C182.909 92.717 191.654 93.2421 200.11 93.7582L202.292 93.894C206.049 94.1203 210.16 94.3376 214.859 94.5549C215.818 94.6032 216.769 94.6575 217.71 94.7179C219.231 94.8174 220.798 94.917 222.346 94.9442C223.505 94.9442 224.645 94.8899 225.967 94.7812C226.257 94.7812 226.538 94.7812 226.873 94.7812C227.556 94.8269 228.242 94.7122 228.873 94.4462C229.225 94.2634 229.524 93.9948 229.744 93.6656C229.964 93.3363 230.097 92.9569 230.131 92.5625C230.165 92.168 230.1 91.7713 229.94 91.409C229.78 91.0468 229.532 90.7306 229.217 90.4899C228.868 90.2492 228.491 90.0516 228.095 89.9014C227.85 89.7927 227.606 89.6931 227.37 89.5664C227.315 89.5381 227.267 89.4984 227.228 89.4501C227.189 89.4017 227.16 89.3458 227.144 89.2857C227.116 89.1654 227.136 89.039 227.198 88.9326L228.104 87.4207C228.127 87.3905 228.145 87.3569 228.158 87.3211H228.095C227.038 87.0305 225.927 86.9964 224.854 87.2215C224.356 87.2759 223.876 87.3302 223.432 87.3392C222.308 87.3376 221.187 87.2101 220.091 86.959L219.014 86.7598C215.393 86.1623 211.771 85.6734 208.385 85.2388C201.142 84.3335 193.537 83.4281 185.661 82.6314C185.564 82.6197 185.473 82.5775 185.401 82.5108C185.33 82.444 185.281 82.3563 185.263 82.2602C185.263 82.0791 181.858 64.2527 179.332 57.6708C178.449 55.21 176.698 53.1562 174.407 51.8947Z" fill="#231F20"/>
<path d="M64.4795 75.3706C64.4795 75.3706 65.9461 36.9565 66.9782 34.168C68.0103 31.3795 71.6679 28.3013 70.3461 25.368C69.0243 22.4346 64.1897 15.8437 63.3115 13.5984C62.4334 11.3531 61.2564 4.81648 56.8564 3.00577C52.4564 1.19507 54.0679 5.8848 54.9551 8.81814C55.8424 11.7515 56.5667 27.5861 56.123 35.7977C55.6794 44.0092 46.0103 81.2554 46.0103 81.2554" fill="white"/>
<path d="M46.0102 81.6899H45.8925C45.8348 81.6751 45.7806 81.6491 45.7329 81.6133C45.6853 81.5775 45.6452 81.5327 45.6149 81.4814C45.5846 81.4301 45.5648 81.3733 45.5565 81.3143C45.5482 81.2553 45.5516 81.1953 45.5666 81.1376C45.6662 80.7664 55.2358 43.8461 55.6703 35.7794C56.123 27.3596 55.3353 11.6699 54.5205 8.95379L54.3938 8.52828C53.6876 6.21963 52.8999 3.61221 54.0588 2.55295C54.6654 2.00973 55.6341 2.01879 57.0284 2.55295C60.8037 4.11015 62.3066 8.96285 63.2029 11.86C63.402 12.5028 63.5741 13.0641 63.728 13.4534C64.6885 15.3349 65.7743 17.1497 66.9782 18.8855C68.3638 20.9214 69.6274 23.0376 70.7626 25.223C71.7403 27.4049 70.337 29.5325 68.9519 31.5605C68.3265 32.4232 67.7981 33.3523 67.3765 34.3308C66.5798 36.4856 65.4119 62.1342 64.9049 75.3977C64.9049 75.5177 64.8572 75.6329 64.7723 75.7178C64.6875 75.8026 64.5723 75.8503 64.4522 75.8503C64.3322 75.8503 64.2171 75.8026 64.1322 75.7178C64.0473 75.6329 63.9996 75.5177 63.9996 75.3977C64.0629 73.8314 65.4844 36.8839 66.5255 34.0592C66.9773 33.0036 67.5451 32.0016 68.2185 31.0716C69.4498 29.2609 70.7082 27.3053 69.9387 25.5761C68.8247 23.4393 67.5884 21.3687 66.2358 19.3744C64.9979 17.5977 63.8847 15.7372 62.9041 13.8065C62.7411 13.381 62.5601 12.8106 62.3518 12.1497C61.5098 9.43363 60.0884 4.80728 56.7024 3.41303C55.7065 2.99657 54.9913 2.9332 54.6835 3.2048C53.9501 3.87476 54.7831 6.60893 55.272 8.24762L55.4078 8.67313C56.3131 11.7513 57.0283 27.6856 56.5938 35.8337C56.1592 43.9819 46.8612 79.852 46.4629 81.382C46.4314 81.4757 46.3701 81.5565 46.2883 81.6121C46.2066 81.6677 46.1089 81.695 46.0102 81.6899Z" fill="#231F20"/>
<path d="M67.8472 55.996L68.5896 54.2577C72.5731 44.9144 76.1945 40.1251 79.2727 36.8115C82.3509 33.4979 87.7197 29.0164 88.3806 26.2823C89.0415 23.5481 87.0588 19.3563 87.2851 17.3827C87.5114 15.409 87.774 1.24926 85.3024 0.55214C80.2415 -0.878318 78.4851 18.0436 76.5023 21.3753C74.5196 24.707 67.9287 37.3095 61.5459 44.9597C59.4274 47.5128 56.0052 51.5054 52.3747 56.0322L67.8472 55.996Z" fill="white"/>
<path d="M67.847 56.4215H52.3745C52.2897 56.4211 52.2066 56.3969 52.1349 56.3515C52.0631 56.3062 52.0056 56.2416 51.9688 56.1652C51.932 56.0887 51.9174 56.0035 51.9267 55.9191C51.936 55.8348 51.9688 55.7547 52.0215 55.6881C54.7375 52.2569 57.354 49.1877 59.4363 46.7161L61.247 44.6066C66.3441 38.4955 71.6405 29.0708 74.4923 24.0098C75.1985 22.7423 75.7689 21.7284 76.1672 21.0765C76.7648 20.0806 77.3985 17.2921 78.0775 14.3407C79.4084 8.51925 80.9203 1.92828 83.573 0.352966C83.8546 0.180193 84.1689 0.0676591 84.4961 0.0224694C84.8234 -0.0227203 85.1564 0.0004146 85.4743 0.090413C88.6883 0.995766 87.792 17.2378 87.7738 17.4008C87.7966 18.5004 87.9733 19.5914 88.299 20.6419C88.7607 22.5251 89.2767 24.6617 88.8693 26.3547C88.3623 28.4642 85.4109 31.3523 82.5319 34.1498C81.4726 35.191 80.4586 36.1778 79.6166 37.0922C76.8281 40.107 73.089 44.8058 69.024 54.4025L68.2816 56.1499C68.2441 56.233 68.1828 56.3032 68.1055 56.3515C68.0281 56.3998 67.9382 56.4242 67.847 56.4215ZM53.3614 55.5161H67.5935L68.2182 54.0495C72.3376 44.3169 76.1401 39.5638 78.9829 36.4766C79.843 35.5712 80.857 34.5572 81.9253 33.4979C84.5598 30.9267 87.5385 28.0024 87.9911 26.1465C88.3442 24.6617 87.8553 22.6428 87.4208 20.8592C87.0593 19.7078 86.8761 18.5079 86.8776 17.3012C87.2125 14.2864 87.0767 1.48466 85.2298 1.00482C85.0304 0.946292 84.8208 0.930552 84.6149 0.958636C84.4089 0.986719 84.2112 1.05799 84.0347 1.16779C81.717 2.54392 80.1236 9.50609 78.9557 14.5851C78.2405 17.7357 77.6158 20.4518 76.9368 21.5835C76.5475 22.2263 75.9862 23.2312 75.28 24.4897C72.4191 29.5778 67.1318 39.0478 61.9441 45.2223C61.4281 45.847 60.8305 46.5531 60.1334 47.3317C58.205 49.6132 55.8421 52.4198 53.3161 55.5161H53.3614Z" fill="#231F20"/>
<path d="M113.577 61.0479C113.577 61.0479 106.334 57.5894 92.1922 62.0166C78.0506 66.4438 63.4654 72.2562 63.4654 72.2562L72.0753 49.1787H57.5172C57.5172 49.1787 31.3706 69.187 36.6941 82.2603C42.0175 95.3336 113.577 92.9978 113.577 92.9978V61.0479Z" fill="#231F20"/>
<path d="M100.766 93.6316C79.8069 93.6316 40.2973 92.3007 36.2775 82.4324C33.996 76.8373 36.8569 69.4677 44.7697 60.5228C48.5874 56.2727 52.7612 52.3564 57.2455 48.8166C57.3241 48.7584 57.4192 48.7267 57.5171 48.7261H72.0751C72.1475 48.7271 72.2186 48.7448 72.2829 48.7778C72.3473 48.8108 72.4032 48.8581 72.4463 48.9162C72.4858 48.9772 72.5111 49.0463 72.5205 49.1183C72.5299 49.1903 72.5231 49.2636 72.5007 49.3327L64.2438 71.4685C67.7113 70.1105 80.1056 65.3302 92.0563 61.5911C106.216 57.1549 113.468 60.4957 113.785 60.6858C113.863 60.7209 113.93 60.7781 113.977 60.8505C114.023 60.9228 114.048 61.0071 114.047 61.0932V92.9978C114.045 93.1156 113.998 93.2281 113.915 93.3123C113.833 93.3965 113.721 93.4459 113.604 93.4505C112.843 93.4777 107.882 93.6316 100.766 93.6316ZM57.671 49.6314C55.7697 51.1253 32.1581 69.9385 37.1195 82.0883C39.2199 87.267 53.0718 90.7164 77.1542 92.0472C93.8851 92.9526 110.263 92.6085 113.124 92.5271V61.3557C111.721 60.8125 104.659 58.6397 92.3007 62.4512C78.3402 66.8241 63.755 72.6183 63.6101 72.6817C63.5276 72.7137 63.4377 72.7213 63.351 72.7036C63.2644 72.686 63.1846 72.6438 63.1212 72.5821C63.0588 72.5211 63.0153 72.4434 62.996 72.3583C62.9767 72.2731 62.9825 72.1842 63.0126 72.1023L71.3961 49.6314H57.671Z" fill="#231F20"/>
<path d="M158.763 47.0146C158.763 47.0146 135.667 69.1505 131.05 70.0016C127.039 70.7621 123.807 63.1752 113.576 61.0205V92.9975C123.363 92.8979 142.231 92.5449 152.733 91.2774C167.345 89.521 179.658 87.4839 183.841 70.0287C188.024 52.5735 169.763 47.1776 158.763 47.0146Z" fill="#48A4FE"/>
<path d="M113.577 93.4504C113.459 93.4511 113.345 93.4056 113.26 93.3236C113.216 93.2818 113.181 93.2312 113.157 93.1751C113.134 93.1189 113.123 93.0585 113.124 92.9977V61.0478C113.125 60.9808 113.14 60.9148 113.168 60.854C113.196 60.7932 113.237 60.7389 113.287 60.6947C113.34 60.6538 113.402 60.6246 113.467 60.609C113.533 60.5934 113.601 60.5917 113.667 60.6042C119.47 61.8174 123.101 64.7779 125.754 66.9417C127.863 68.6528 129.375 69.9022 130.968 69.5943C134.517 68.9153 150.497 54.321 158.446 46.698C158.489 46.6554 158.539 46.6222 158.596 46.6003C158.652 46.5785 158.712 46.5686 158.772 46.5712C166.169 46.6798 176.625 49.1515 181.75 55.7515C184.783 59.6445 185.634 64.4881 184.276 70.1466C179.885 88.4709 166.105 90.1368 152.787 91.7393C142.34 92.9977 123.735 93.3599 113.577 93.4594V93.4504ZM114.029 61.6091V92.545C124.26 92.4364 142.421 92.0652 152.679 90.8339C168.667 88.9055 179.45 86.4067 183.397 69.9203C184.683 64.5515 183.886 59.9614 181.034 56.34C176.146 50.0025 166.123 47.6576 158.944 47.5218C156.853 49.5136 135.694 69.6487 131.14 70.5178C129.14 70.898 127.392 69.4766 125.183 67.684C122.549 65.475 119.289 62.8404 114.029 61.6091Z" fill="#231F20"/>
<path d="M190.269 21.8279C189.726 18.3876 189.174 15.2369 186.43 12.539C183.762 10.0484 180.342 8.51633 176.707 8.18425C173.877 7.89211 171.017 8.19111 168.308 9.06231C165.599 9.9335 163.101 11.3579 160.972 13.2452C158.94 15.0506 157.302 17.2562 156.162 19.7239C155.021 22.1916 154.403 24.8682 154.345 27.586C154.399 33.3621 153.104 39.2107 152.95 45.0774C152.869 48.1465 152.643 52.2206 155.413 54.3391C156.21 54.9457 155.286 53.5787 156.318 53.642C159.695 53.8774 163.28 54.2667 166.657 53.8774C169.808 53.5243 172.651 52.0667 175.711 51.6321C177.683 51.4596 179.669 51.716 181.532 52.3836C181.922 52.4922 182.311 52.6009 182.709 52.6914C185.664 53.5166 188.812 53.3025 191.627 52.0848C193.017 51.4551 194.204 50.4506 195.054 49.1841C195.905 47.9176 196.386 46.4391 196.444 44.9144C196.444 42.3885 194.977 40.1342 193.881 37.8527C191.727 33.3802 191.374 28.3374 190.559 23.5028C190.468 22.9234 190.387 22.3802 190.269 21.8279Z" fill="white"/>
<path d="M155.73 54.946C155.521 54.9267 155.325 54.841 155.168 54.7016C152.317 52.5287 152.452 48.5995 152.516 45.4398V45.0686C152.588 42.3525 152.905 39.6365 153.213 36.9204C153.635 33.817 153.868 30.6908 153.91 27.5591C153.967 24.7774 154.598 22.0375 155.765 19.5118C156.932 16.9861 158.609 14.7293 160.691 12.8833C162.869 10.9544 165.423 9.4982 168.192 8.60682C170.961 7.71545 173.885 7.40826 176.779 7.70468C180.51 8.06528 184.014 9.65801 186.738 12.2314C189.653 15.0924 190.188 18.4874 190.704 21.7739L190.749 22.0183C190.821 22.4891 190.894 22.9237 190.975 23.4488C191.147 24.4447 191.292 25.4496 191.437 26.4545C192.007 30.257 192.587 34.1863 194.262 37.6809C194.461 38.0883 194.678 38.5048 194.886 38.9213C195.846 40.8044 196.842 42.7599 196.869 44.9328C196.815 46.5431 196.311 48.1061 195.415 49.4452C194.519 50.7843 193.267 51.8461 191.799 52.5106C188.887 53.7718 185.632 53.9986 182.573 53.1534L181.387 52.8456L181.098 52.7641C179.386 52.1589 177.564 51.9304 175.756 52.0941C174.335 52.3487 172.934 52.7057 171.564 53.1625C169.971 53.7145 168.327 54.1117 166.657 54.3485C163.721 54.5807 160.769 54.5413 157.839 54.2308L156.237 54.1131V54.2398C156.262 54.3677 156.248 54.5003 156.196 54.6199C156.144 54.7396 156.058 54.8407 155.947 54.9098C155.878 54.9354 155.804 54.9477 155.73 54.946ZM174.606 8.5195C169.701 8.52594 164.968 10.326 161.298 13.5804C159.311 15.3407 157.709 17.4927 156.594 19.9014C155.478 22.3101 154.873 24.9234 154.815 27.5772C154.775 30.7484 154.539 33.9141 154.109 37.0562C153.81 39.6908 153.494 42.4069 153.421 45.0867V45.467C153.34 48.2826 153.249 51.8044 155.404 53.7238C155.445 53.6068 155.513 53.5012 155.603 53.416C155.704 53.3307 155.821 53.2667 155.947 53.2278C156.073 53.1889 156.205 53.1759 156.336 53.1896L157.948 53.3073C160.82 53.616 163.714 53.6585 166.594 53.4341C168.204 53.1955 169.789 52.8107 171.329 52.2843C172.741 51.8069 174.188 51.4377 175.657 51.1797C177.592 50.9966 179.544 51.2344 181.378 51.8769L181.659 51.9493L182.818 52.2571C185.673 53.0498 188.713 52.8454 191.437 51.6777C192.746 51.0859 193.864 50.1399 194.664 48.9465C195.464 47.753 195.914 46.3596 195.964 44.9237C195.964 42.9682 194.995 41.1122 194.081 39.3106C193.863 38.8941 193.655 38.4686 193.447 38.0521C191.708 34.4307 191.12 30.4381 190.55 26.5722C190.396 25.5673 190.251 24.5714 190.079 23.5755C189.997 23.0957 189.925 22.6158 189.853 22.136V21.9006C189.355 18.759 188.848 15.5179 186.141 12.8471C183.545 10.4332 180.219 8.95203 176.689 8.6372C175.997 8.55713 175.302 8.51783 174.606 8.5195Z" fill="#231F20"/>
<path d="M187.046 24.6709C187.046 24.6709 189.59 33.1269 187.816 39.3648C187.368 41.1074 186.422 42.6818 185.094 43.8957C183.766 45.1096 182.113 45.9103 180.337 46.2002L179.758 57.3722C179.758 57.3722 179.513 63.085 172.515 61.8447C170.5 61.4805 168.611 60.6085 167.027 59.3111C165.443 58.0136 164.216 56.3336 163.462 54.4299L163.742 33.8421C163.742 33.8421 171.89 29.6956 171.601 22.2808C171.646 22.2808 180.844 27.3326 187.046 24.6709Z" fill="white"/>
<path d="M174.425 62.4693C173.772 62.4686 173.121 62.408 172.479 62.2882C170.39 61.9197 168.43 61.0199 166.789 59.6754C165.148 58.3308 163.881 56.5868 163.108 54.6108C163.099 54.5599 163.099 54.5078 163.108 54.4569L163.389 33.8782C163.388 33.7954 163.41 33.714 163.453 33.6434C163.496 33.5728 163.559 33.5161 163.634 33.4799C163.715 33.4346 171.537 29.3696 171.248 22.335C171.246 22.2555 171.266 22.1771 171.304 22.1073C171.342 22.0375 171.397 21.9787 171.465 21.9366C171.534 21.8969 171.612 21.876 171.691 21.876C171.771 21.876 171.849 21.8969 171.917 21.9366C172.008 21.991 180.971 26.8527 186.928 24.3087C186.985 24.282 187.047 24.2682 187.109 24.2682C187.172 24.2682 187.234 24.282 187.29 24.3087C187.348 24.3344 187.399 24.3719 187.441 24.4187C187.483 24.4655 187.515 24.5205 187.535 24.5803C187.643 24.9333 190.097 33.2445 188.304 39.5276C187.841 41.2902 186.897 42.8888 185.576 44.1442C184.255 45.3996 182.61 46.262 180.826 46.6347L180.265 57.4446C180.144 58.9505 179.431 60.347 178.282 61.3285C177.171 62.1506 175.805 62.5546 174.425 62.4693ZM163.959 54.3211C164.701 56.1264 165.884 57.7169 167.399 58.9474C168.914 60.1778 170.714 61.0089 172.633 61.3647C174.806 61.745 176.499 61.4734 177.666 60.5409C178.61 59.7195 179.197 58.5639 179.305 57.3178L179.885 46.1458C179.888 46.0387 179.931 45.9366 180.004 45.8584C180.077 45.7802 180.176 45.7311 180.283 45.7203C181.974 45.4473 183.548 44.6842 184.81 43.5255C186.071 42.3668 186.965 40.8635 187.381 39.2017C188.866 33.9959 187.236 27.0971 186.747 25.2412C181.378 27.1877 174.308 24.0823 172.108 22.9868C171.89 29.4963 165.589 33.335 164.231 34.0865L163.959 54.3211Z" fill="#231F20"/>
<path d="M167.726 32.6018C167.726 32.6018 164.675 24.6709 160.537 29.3606C156.4 34.0503 161.786 39.6997 165.254 39.4191" fill="white"/>
<path d="M165.001 39.8809C162.909 39.8809 160.474 38.1427 159.27 35.8068C158.687 34.7315 158.461 33.499 158.624 32.2869C158.786 31.0748 159.33 29.9456 160.175 29.062C161.298 27.7854 162.475 27.2513 163.661 27.4685C166.377 27.9574 168.061 32.2579 168.133 32.4389C168.16 32.4952 168.175 32.5563 168.177 32.6186C168.179 32.6808 168.168 32.7428 168.145 32.8007C168.122 32.8585 168.087 32.911 168.043 32.9548C167.999 32.9986 167.946 33.0329 167.888 33.0554C167.83 33.0778 167.768 33.0881 167.705 33.0855C167.643 33.0829 167.582 33.0674 167.526 33.0402C167.47 33.0129 167.42 32.9744 167.38 32.927C167.339 32.8796 167.309 32.8244 167.291 32.7649C167.291 32.7649 165.716 28.7541 163.507 28.3558C162.601 28.2019 161.75 28.6455 160.854 29.6595C160.13 30.4085 159.663 31.368 159.52 32.3996C159.377 33.4312 159.565 34.4816 160.057 35.3994C161.117 37.5089 163.425 39.0933 165.2 38.9665C165.32 38.9569 165.439 38.9954 165.53 39.0735C165.622 39.1516 165.679 39.2629 165.689 39.383C165.698 39.503 165.66 39.622 165.582 39.7137C165.504 39.8054 165.392 39.8623 165.272 39.8719L165.001 39.8809Z" fill="#231F20"/>
<path d="M179.54 40.4509C178.701 40.4317 177.869 40.2946 177.069 40.0435C177.013 40.026 176.961 39.9976 176.916 39.9598C176.871 39.922 176.833 39.8757 176.806 39.8234C176.78 39.7712 176.763 39.7142 176.759 39.6556C176.754 39.597 176.761 39.5381 176.779 39.4822C176.797 39.4249 176.825 39.3717 176.864 39.3256C176.902 39.2795 176.949 39.2415 177.002 39.2137C177.055 39.1859 177.113 39.1689 177.173 39.1637C177.232 39.1585 177.292 39.1652 177.349 39.1834C177.938 39.3736 179.685 39.781 180.591 39.3736C180.808 38.9209 179.459 36.1777 177.675 33.5521C177.609 33.4509 177.586 33.3279 177.609 33.2094C177.633 33.0909 177.702 32.9864 177.802 32.9184C177.901 32.852 178.022 32.8271 178.139 32.8491C178.255 32.8712 178.359 32.9383 178.427 33.0361C179.233 34.2311 181.831 38.2238 181.433 39.6271C181.4 39.7491 181.342 39.8629 181.262 39.9611C181.183 40.0594 181.083 40.1399 180.971 40.1974C180.517 40.3802 180.03 40.4665 179.54 40.4509Z" fill="#231F20"/>
<path d="M180.31 46.1998C180.31 46.1998 174.299 46.6435 170.922 45.5933C170.922 45.5933 174.208 54.5834 179.885 54.8279L180.31 46.1998Z" fill="#231F20"/>
<path d="M179.912 55.2808C174 55.0273 170.677 46.1277 170.541 45.7475C170.512 45.6676 170.506 45.581 170.523 45.4977C170.541 45.4145 170.582 45.3379 170.641 45.2767C170.701 45.2186 170.775 45.1771 170.856 45.1565C170.937 45.1358 171.022 45.1367 171.103 45.159C174.362 46.173 180.265 45.7565 180.319 45.7475C180.385 45.742 180.45 45.7514 180.511 45.7749C180.572 45.7984 180.627 45.8355 180.672 45.8833C180.717 45.9285 180.752 45.9823 180.775 46.0414C180.799 46.1005 180.81 46.1638 180.808 46.2273L180.383 54.8553C180.376 54.9738 180.322 55.0848 180.234 55.1644C180.146 55.244 180.03 55.2858 179.912 55.2808ZM171.709 46.2273C172.615 48.3277 175.403 53.7598 179.477 54.3031L179.857 46.6528C177.136 46.8383 174.401 46.7077 171.709 46.2635V46.2273Z" fill="#231F20"/>
<path d="M172.937 32.8176C173.422 32.8163 173.814 32.1262 173.812 31.2762C173.809 30.4262 173.414 29.7381 172.929 29.7394C172.444 29.7407 172.053 30.4308 172.055 31.2808C172.057 32.1308 172.452 32.8189 172.937 32.8176Z" fill="#231F20"/>
<path d="M181.275 32.4333C181.76 32.432 182.151 31.7419 182.149 30.8919C182.147 30.0419 181.752 29.3539 181.267 29.3551C180.782 29.3564 180.39 30.0465 180.393 30.8965C180.395 31.7465 180.79 32.4346 181.275 32.4333Z" fill="#231F20"/>
<path d="M153.15 41.0306C152.796 45.0685 152.289 49.7129 153.928 53.5516C156.137 58.7303 162.511 57.6348 166.694 55.6883C168.45 54.8734 170.369 53.8051 170.858 51.9401C171.266 50.3738 170.523 48.7623 169.69 47.4133C167.816 44.2791 165.426 41.4844 162.62 39.1475" fill="white"/>
<path d="M160.13 57.7706C159.102 57.7849 158.08 57.61 157.115 57.2545C156.309 56.9476 155.575 56.4759 154.961 55.8695C154.346 55.2631 153.865 54.5354 153.548 53.7327C151.937 49.9483 152.335 45.4578 152.688 41.4924V40.9944C152.702 40.8751 152.761 40.7658 152.854 40.6897C152.947 40.6136 153.066 40.5768 153.186 40.587C153.305 40.5985 153.414 40.6562 153.49 40.7478C153.566 40.8393 153.603 40.9572 153.593 41.0759V41.5738C153.249 45.4306 152.851 49.8035 154.381 53.3434C154.653 54.0326 155.065 54.6576 155.592 55.1782C156.119 55.6989 156.749 56.1039 157.441 56.3673C159.741 57.2727 163.145 56.829 166.495 55.2537C168.305 54.4208 169.989 53.443 170.415 51.7953C170.795 50.3467 170.016 48.7804 169.292 47.5763C167.451 44.4821 165.093 41.7262 162.321 39.4281C162.229 39.3522 162.171 39.243 162.159 39.1243C162.147 39.0056 162.183 38.8871 162.258 38.7944C162.336 38.7039 162.447 38.6469 162.566 38.6351C162.686 38.6233 162.805 38.6576 162.9 38.731C165.747 41.1038 168.171 43.9414 170.071 47.1236C170.886 48.4726 171.755 50.2562 171.284 52.0397C170.768 54.0315 168.858 55.1541 166.875 56.0776C164.764 57.0919 162.47 57.6678 160.13 57.7706Z" fill="#231F20"/>
<path d="M173.855 37.3273C172.52 37.337 171.233 36.8288 170.265 35.9096C169.296 34.9903 168.722 33.7315 168.662 32.3976C168.603 31.0637 169.062 29.7586 169.945 28.7565C170.827 27.7545 172.063 27.1334 173.394 27.0238C174.725 26.9142 176.046 27.3246 177.081 28.1689C178.115 29.0131 178.782 30.2254 178.941 31.5511C179.101 32.8768 178.74 34.2126 177.935 35.2779C177.13 36.3432 175.943 37.055 174.625 37.2639C174.37 37.3069 174.113 37.3281 173.855 37.3273ZM173.855 28.0926C173.643 28.09 173.431 28.1052 173.221 28.1379C172.681 28.2207 172.163 28.4092 171.696 28.6925C171.229 28.9759 170.822 29.3485 170.499 29.7891C170.177 30.2297 169.944 30.7297 169.814 31.2604C169.685 31.7911 169.661 32.3421 169.745 32.882C169.87 33.6958 170.234 34.4542 170.791 35.0607C171.348 35.6673 172.073 36.0947 172.873 36.2887C173.673 36.4827 174.513 36.4345 175.286 36.1504C176.059 35.8662 176.73 35.3589 177.214 34.6927C177.541 34.2532 177.776 33.753 177.907 33.2213C178.037 32.6895 178.06 32.1371 177.975 31.5964C177.817 30.6192 177.318 29.7299 176.564 29.0879C175.811 28.4458 174.854 28.093 173.864 28.0926H173.855Z" fill="#231F20"/>
<path d="M182.8 37.3278C181.864 37.3228 180.948 37.0596 180.153 36.567C179.357 36.0745 178.713 35.3718 178.292 34.5364C177.87 33.7011 177.688 32.7656 177.765 31.8331C177.841 30.9006 178.174 30.0074 178.726 29.252C179.219 28.5799 179.871 28.0398 180.623 27.6797C181.375 27.3196 182.204 27.1506 183.037 27.1876C183.87 27.2246 184.682 27.4665 185.399 27.8919C186.116 28.3172 186.717 28.9129 187.149 29.6261C187.581 30.3394 187.83 31.1481 187.875 31.9808C187.92 32.8134 187.759 33.6442 187.405 34.3996C187.052 35.155 186.518 35.8116 185.851 36.3113C185.183 36.811 184.403 37.1384 183.579 37.2644C183.321 37.3079 183.061 37.3291 182.8 37.3278ZM182.8 28.0931C182.588 28.0902 182.376 28.1053 182.166 28.1384C181.077 28.3078 180.1 28.9028 179.45 29.7924C178.8 30.6821 178.53 31.7936 178.699 32.8825C178.773 33.4195 178.955 33.9363 179.231 34.4026C179.508 34.8689 179.875 35.2755 180.31 35.5985C180.751 35.9238 181.252 36.1585 181.784 36.2891C182.316 36.4198 182.868 36.4437 183.41 36.3595C183.951 36.2753 184.47 36.0847 184.937 35.7987C185.405 35.5127 185.81 35.1369 186.132 34.6932C186.458 34.2537 186.694 33.7535 186.824 33.2218C186.955 32.69 186.978 32.1376 186.892 31.5969C186.736 30.6258 186.241 29.7413 185.496 29.1C184.75 28.4588 183.801 28.1021 182.818 28.0931H182.8Z" fill="#231F20"/>
<path d="M175.91 42.6332C174.668 42.7004 173.445 42.3035 172.479 41.5196C171.746 40.8687 171.281 39.9683 171.175 38.9937C171.17 38.8751 171.212 38.7593 171.292 38.6712C171.371 38.5832 171.482 38.5299 171.601 38.5229C171.661 38.5166 171.721 38.5229 171.779 38.5413C171.836 38.5597 171.889 38.5899 171.934 38.6299C171.98 38.67 172.016 38.719 172.041 38.7738C172.066 38.8286 172.08 38.8881 172.081 38.9484C172.169 39.6806 172.52 40.356 173.067 40.8496C173.555 41.2168 174.112 41.4814 174.705 41.6277C175.298 41.7739 175.914 41.7988 176.517 41.7007C176.576 41.6965 176.636 41.7041 176.692 41.723C176.749 41.7419 176.801 41.7717 176.846 41.8108C176.891 41.8499 176.928 41.8975 176.955 41.9508C176.981 42.0042 176.997 42.0622 177.001 42.1217C177.005 42.1811 176.998 42.2408 176.979 42.2973C176.96 42.3538 176.93 42.406 176.891 42.451C176.852 42.496 176.804 42.5328 176.751 42.5594C176.698 42.586 176.64 42.6019 176.58 42.606L175.91 42.6332Z" fill="#231F20"/>
<path d="M169.237 31.7326C169.196 31.7409 169.153 31.7409 169.111 31.7326L166.53 30.9721C166.471 30.9554 166.415 30.9272 166.367 30.8891C166.318 30.851 166.278 30.8037 166.248 30.7499C166.217 30.6961 166.198 30.6368 166.19 30.5755C166.183 30.5142 166.188 30.4521 166.205 30.3927C166.221 30.3332 166.249 30.2776 166.288 30.2291C166.326 30.1805 166.373 30.14 166.427 30.1097C166.481 30.0794 166.54 30.0601 166.601 30.0527C166.662 30.0453 166.725 30.0501 166.784 30.0667L169.364 30.8272C169.421 30.8439 169.475 30.8716 169.521 30.9088C169.567 30.946 169.606 30.992 169.634 31.0441C169.663 31.0963 169.681 31.1535 169.687 31.2126C169.694 31.2717 169.689 31.3315 169.672 31.3885C169.649 31.4867 169.594 31.5743 169.515 31.6368C169.436 31.6993 169.338 31.7331 169.237 31.7326Z" fill="#231F20"/>
<path d="M188.458 33.0089H187.163C187.043 33.0089 186.928 32.9612 186.843 32.8763C186.759 32.7914 186.711 32.6762 186.711 32.5562C186.711 32.4361 186.759 32.321 186.843 32.2361C186.928 32.1512 187.043 32.1035 187.163 32.1035H188.458C188.578 32.1035 188.693 32.1512 188.778 32.2361C188.863 32.321 188.911 32.4361 188.911 32.5562C188.908 32.6755 188.86 32.7893 188.776 32.8737C188.691 32.9581 188.577 33.0066 188.458 33.0089Z" fill="#231F20"/>
<path d="M199.477 74.2387C197.095 78.2041 199.766 86.9951 199.766 86.9951L203.297 89.5573C205.83 90.9984 208.826 91.3917 211.646 90.6532C214.465 89.9147 216.884 88.103 218.385 85.6052C219.886 83.1073 220.351 80.1213 219.68 77.2853C219.01 74.4492 217.256 71.9879 214.795 70.4272L210.875 68.5078C210.875 68.5078 201.858 70.2823 199.477 74.2387Z" fill="#48A4FE"/>
<path d="M209.028 91.6035C206.925 91.6049 204.862 91.032 203.062 89.9467L199.495 87.3574C199.413 87.3018 199.355 87.218 199.332 87.122C199.223 86.7599 196.616 78.0685 199.087 74.0034C201.559 69.9384 210.413 68.1458 210.784 68.0643C210.878 68.0332 210.98 68.0332 211.074 68.0643L214.994 69.9746C217.175 71.2796 218.868 73.264 219.813 75.6235C220.759 77.9831 220.904 80.5875 220.226 83.0374C219.549 85.4873 218.087 87.6474 216.064 89.1865C214.042 90.7257 211.57 91.5588 209.028 91.5582V91.6035ZM200.155 86.7146L203.56 89.1862C205.996 90.6449 208.911 91.0762 211.665 90.3851C214.419 89.6941 216.786 87.9374 218.244 85.5014C219.703 83.0655 220.134 80.1498 219.443 77.3959C218.752 74.6419 216.996 72.2753 214.56 70.8166L210.811 69.0059C209.653 69.2503 201.957 71.0158 199.866 74.4923C197.774 77.9689 199.83 85.5739 200.155 86.7146Z" fill="#231F20"/>
<path d="M206.611 89.6932C212.776 89.6932 217.774 84.6953 217.774 78.5302C217.774 72.365 212.776 67.3672 206.611 67.3672C200.445 67.3672 195.448 72.365 195.448 78.5302C195.448 84.6953 200.445 89.6932 206.611 89.6932Z" fill="#48A4FE"/>
<path d="M206.566 90.1459C204 90.1452 201.507 89.295 199.475 87.7281C197.443 86.1613 195.988 83.9659 195.335 81.4846C194.683 79.0033 194.87 76.3759 195.868 74.0123C196.866 71.6486 198.618 69.6819 200.852 68.4191C203.085 67.1563 205.673 66.6684 208.213 67.0315C210.753 67.3947 213.101 68.5886 214.891 70.4267C216.681 72.2649 217.812 74.6439 218.107 77.1925C218.403 79.741 217.846 82.3157 216.524 84.5146C215.489 86.2305 214.028 87.6503 212.284 88.6367C210.539 89.6232 208.57 90.143 206.566 90.1459ZM206.566 67.829C203.977 67.8266 201.475 68.7626 199.524 70.4634C197.573 72.1643 196.304 74.5147 195.953 77.0793C195.602 79.6438 196.193 82.2487 197.615 84.4112C199.038 86.5738 201.196 88.1474 203.69 88.8406C206.184 89.5338 208.845 89.2996 211.179 88.1814C213.513 87.0631 215.363 85.1366 216.386 82.7588C217.409 80.381 217.535 77.713 216.742 75.2492C215.948 72.7854 214.288 70.6928 212.07 69.359C210.429 68.3652 208.548 67.8363 206.629 67.829H206.566Z" fill="#231F20"/>
<path d="M177.721 88.4077V94.1567C177.721 96.3295 183.035 98.0859 189.59 98.0859C196.145 98.0859 201.45 96.3295 201.45 94.1567V88.4077H177.721Z" fill="#48A4FE"/>
<path d="M189.59 98.5387C183.614 98.5387 177.268 97.0086 177.268 94.1567V88.4078C177.27 88.2884 177.319 88.1746 177.403 88.0902C177.487 88.0058 177.601 87.9574 177.721 87.9551H201.45C201.57 87.9551 201.685 88.0028 201.77 88.0877C201.855 88.1726 201.903 88.2877 201.903 88.4078V94.1567C201.903 97.0086 195.556 98.5387 189.59 98.5387ZM178.173 88.8604V94.1567C178.173 95.8045 182.863 97.6333 189.59 97.6333C196.317 97.6333 200.997 95.8226 200.997 94.1567V88.8604H178.173Z" fill="#231F20"/>
<path d="M189.59 92.3458C196.14 92.3458 201.45 90.5826 201.45 88.4075C201.45 86.2325 196.14 84.4692 189.59 84.4692C183.04 84.4692 177.73 86.2325 177.73 88.4075C177.73 90.5826 183.04 92.3458 189.59 92.3458Z" fill="#231F20"/>
<path d="M189.59 92.7985C183.614 92.7985 177.268 91.2594 177.268 88.4076C177.268 85.5557 183.605 84.0166 189.59 84.0166C195.574 84.0166 201.903 85.5557 201.903 88.4076C201.903 91.2594 195.556 92.7985 189.59 92.7985ZM189.59 84.922C182.863 84.922 178.173 86.7327 178.173 88.4076C178.173 90.0825 182.863 91.8932 189.59 91.8932C196.317 91.8932 200.997 90.0825 200.997 88.4076C200.997 86.7327 196.317 84.922 189.59 84.922Z" fill="#231F20"/>
<path d="M180.518 80.54V86.2981C180.518 88.4709 185.833 90.2364 192.378 90.2364C198.924 90.2364 204.248 88.4257 204.248 86.2981V80.5581L180.518 80.54Z" fill="#48A4FE"/>
<path d="M192.379 90.671C186.412 90.671 180.066 89.1319 180.066 86.28V80.5401C180.066 80.42 180.114 80.3049 180.198 80.22C180.283 80.1351 180.398 80.0874 180.519 80.0874H204.248C204.368 80.0874 204.483 80.1351 204.568 80.22C204.653 80.3049 204.701 80.42 204.701 80.5401V86.2981C204.701 89.1319 198.354 90.671 192.379 90.671ZM180.971 80.9928V86.2981C180.971 87.9459 185.661 89.7837 192.379 89.7837C199.096 89.7837 203.795 87.973 203.795 86.2981V81.0109L180.971 80.9928Z" fill="#231F20"/>
<path d="M192.378 84.4781C198.929 84.4781 204.239 82.7149 204.239 80.5399C204.239 78.3648 198.929 76.6016 192.378 76.6016C185.828 76.6016 180.518 78.3648 180.518 80.5399C180.518 82.7149 185.828 84.4781 192.378 84.4781Z" fill="#231F20"/>
<path d="M192.379 84.9223C186.412 84.9223 180.066 83.3922 180.066 80.5404C180.066 77.6885 186.403 76.1494 192.379 76.1494C198.354 76.1494 204.701 77.6885 204.701 80.5404C204.701 83.3922 198.354 84.9223 192.379 84.9223ZM192.379 77.0548C185.661 77.0548 180.971 78.8655 180.971 80.5404C180.971 82.2153 185.661 84.0169 192.379 84.0169C199.096 84.0169 203.795 82.2062 203.795 80.5404C203.795 78.8745 199.105 77.0548 192.379 77.0548Z" fill="#231F20"/>
<path d="M178.092 71.7583V77.5073C178.092 79.6801 183.406 81.4365 189.952 81.4365C196.498 81.4365 201.821 79.6801 201.821 77.5073V71.7583H178.092Z" fill="#48A4FE"/>
<path d="M189.952 81.8888C183.986 81.8888 177.639 80.3587 177.639 77.5068V71.7579C177.639 71.6378 177.687 71.5226 177.772 71.4378C177.857 71.3529 177.972 71.3052 178.092 71.3052H201.821C201.941 71.3075 202.055 71.3559 202.139 71.4403C202.223 71.5247 202.272 71.6385 202.274 71.7579V77.5068C202.274 80.3587 195.928 81.8888 189.952 81.8888ZM178.545 72.2105V77.5068C178.545 79.1546 183.235 80.9834 189.952 80.9834C196.67 80.9834 201.369 79.1727 201.369 77.5068V72.2105H178.545Z" fill="#231F20"/>
<path d="M189.952 75.6964C196.502 75.6964 201.812 73.9332 201.812 71.7581C201.812 69.5831 196.502 67.8198 189.952 67.8198C183.402 67.8198 178.092 69.5831 178.092 71.7581C178.092 73.9332 183.402 75.6964 189.952 75.6964Z" fill="#231F20"/>
<path d="M189.952 76.1491C183.986 76.1491 177.639 74.61 177.639 71.7582C177.639 68.9063 183.977 67.3672 189.952 67.3672C195.928 67.3672 202.274 68.9063 202.274 71.7582C202.274 74.61 195.928 76.1491 189.952 76.1491ZM189.952 68.2725C183.235 68.2725 178.545 70.0833 178.545 71.7582C178.545 73.4331 183.235 75.2438 189.952 75.2438C196.67 75.2438 201.369 73.4331 201.369 71.7582C201.369 70.0833 196.679 68.2725 189.952 68.2725Z" fill="#231F20"/>
<path d="M208.956 87.4116V93.1516C208.956 95.3244 214.261 97.0898 220.816 97.0898C227.371 97.0898 232.685 95.3244 232.685 93.1516V87.4116H208.956Z" fill="#48A4FE"/>
<path d="M220.815 97.5426C214.849 97.5426 208.503 96.0035 208.503 93.1516V87.4117C208.503 87.2916 208.55 87.1765 208.635 87.0916C208.72 87.0067 208.835 86.959 208.955 86.959H232.685C232.805 86.959 232.92 87.0067 233.005 87.0916C233.09 87.1765 233.137 87.2916 233.137 87.4117V93.1516C233.137 96.0035 226.791 97.5426 220.815 97.5426ZM209.408 87.8643V93.1516C209.408 94.7994 214.089 96.6372 220.815 96.6372C227.542 96.6372 232.232 94.8265 232.232 93.1516V87.8643H209.408Z" fill="#231F20"/>
<path d="M220.816 91.3497C227.366 91.3497 232.676 89.5865 232.676 87.4114C232.676 85.2364 227.366 83.4731 220.816 83.4731C214.266 83.4731 208.956 85.2364 208.956 87.4114C208.956 89.5865 214.266 91.3497 220.816 91.3497Z" fill="#231F20"/>
<path d="M220.815 91.8029C214.849 91.8029 208.503 90.2638 208.503 87.412C208.503 84.5601 214.84 83.021 220.815 83.021C226.791 83.021 233.137 84.5601 233.137 87.412C233.137 90.2638 226.791 91.8029 220.815 91.8029ZM220.815 83.9263C214.089 83.9263 209.408 85.737 209.408 87.412C209.408 89.0869 214.089 90.8976 220.815 90.8976C227.542 90.8976 232.232 89.0869 232.232 87.412C232.232 85.737 227.542 83.9263 220.815 83.9263Z" fill="#231F20"/>
<path d="M207.407 80.6035V86.3435C207.407 88.5163 212.722 90.2817 219.277 90.2817C225.831 90.2817 231.137 88.471 231.137 86.3435V80.6035H207.407Z" fill="#48A4FE"/>
<path d="M219.24 90.7344C213.265 90.7344 206.918 89.1954 206.918 86.3435V80.6036C206.918 80.4835 206.966 80.3684 207.051 80.2835C207.136 80.1986 207.251 80.1509 207.371 80.1509H231.1C231.22 80.1509 231.335 80.1986 231.42 80.2835C231.505 80.3684 231.553 80.4835 231.553 80.6036V86.3435C231.589 89.1954 225.243 90.7344 219.24 90.7344ZM207.824 81.0562V86.3435C207.824 87.9912 212.513 89.8291 219.24 89.8291C225.967 89.8291 230.648 88.0184 230.648 86.3435V81.0562H207.824Z" fill="#231F20"/>
<path d="M219.277 84.5416C225.827 84.5416 231.137 82.7784 231.137 80.6033C231.137 78.4283 225.827 76.665 219.277 76.665C212.726 76.665 207.417 78.4283 207.417 80.6033C207.417 82.7784 212.726 84.5416 219.277 84.5416Z" fill="#231F20"/>
<path d="M219.24 84.9943C213.265 84.9943 206.918 83.4552 206.918 80.6034C206.918 77.7515 213.256 76.2124 219.24 76.2124C225.224 76.2124 231.553 77.7515 231.553 80.6034C231.553 83.4552 225.243 84.9943 219.24 84.9943ZM219.24 77.1178C212.513 77.1178 207.824 78.9285 207.824 80.6034C207.824 82.2783 212.513 84.089 219.24 84.089C225.967 84.089 230.648 82.2783 230.648 80.6034C230.648 78.9285 225.994 77.1178 219.24 77.1178Z" fill="#231F20"/>
<path d="M209.281 72.3105V78.0505C209.281 80.2233 214.596 81.9888 221.151 81.9888C227.705 81.9888 233.011 80.1781 233.011 78.0505V72.3105H209.281Z" fill="#48A4FE"/>
<path d="M221.187 82.441C215.212 82.441 208.865 80.9019 208.865 78.05V72.3101C208.865 72.19 208.913 72.0749 208.998 71.99C209.083 71.9051 209.198 71.8574 209.318 71.8574H233.047C233.167 71.8574 233.282 71.9051 233.367 71.99C233.452 72.0749 233.5 72.19 233.5 72.3101V78.05C233.5 80.8657 227.153 82.441 221.187 82.441ZM209.77 72.7628V78.05C209.77 79.6978 214.46 81.5356 221.187 81.5356C227.914 81.5356 232.594 79.7249 232.594 78.05V72.7628H209.77Z" fill="#231F20"/>
<path d="M221.187 76.2486C227.737 76.2486 233.047 74.4854 233.047 72.3104C233.047 70.1353 227.737 68.3721 221.187 68.3721C214.637 68.3721 209.327 70.1353 209.327 72.3104C209.327 74.4854 214.637 76.2486 221.187 76.2486Z" fill="#231F20"/>
<path d="M221.187 76.7014C215.212 76.7014 208.865 75.1623 208.865 72.3104C208.865 69.4585 215.203 67.9194 221.187 67.9194C227.171 67.9194 233.5 69.4585 233.5 72.3104C233.5 75.1623 227.153 76.7014 221.187 76.7014ZM221.187 68.8248C214.46 68.8248 209.77 70.6355 209.77 72.3104C209.77 73.9853 214.46 75.796 221.187 75.796C227.914 75.796 232.594 73.9853 232.594 72.3104C232.594 70.6355 227.914 68.8248 221.187 68.8248Z" fill="#231F20"/>
<path d="M207.407 63.9814V69.7304C207.407 71.9033 212.722 73.6687 219.277 73.6687C225.831 73.6687 231.137 71.858 231.137 69.7304V63.9814H207.407Z" fill="#48A4FE"/>
<path d="M219.24 74.121C213.265 74.121 206.918 72.5819 206.918 69.73V63.981C206.921 63.8617 206.969 63.7479 207.053 63.6635C207.138 63.5791 207.252 63.5306 207.371 63.5283H231.1C231.22 63.5283 231.335 63.576 231.42 63.6609C231.505 63.7458 231.553 63.8609 231.553 63.981V69.73C231.589 72.5819 225.243 74.121 219.24 74.121ZM207.824 64.4337V69.73C207.824 71.3777 212.513 73.2156 219.24 73.2156C225.967 73.2156 230.648 71.4049 230.648 69.73V64.4337H207.824Z" fill="#231F20"/>
<path d="M219.277 67.9195C225.827 67.9195 231.137 66.1563 231.137 63.9813C231.137 61.8062 225.827 60.043 219.277 60.043C212.726 60.043 207.417 61.8062 207.417 63.9813C207.417 66.1563 212.726 67.9195 219.277 67.9195Z" fill="#231F20"/>
<path d="M219.24 68.372C213.265 68.372 206.918 66.8329 206.918 63.981C206.918 61.1292 213.256 59.5991 219.24 59.5991C225.224 59.5991 231.553 61.1382 231.553 63.981C231.553 66.8238 225.243 68.372 219.24 68.372ZM219.24 60.5045C212.513 60.5045 207.824 62.3152 207.824 63.981C207.824 65.6469 212.513 67.4666 219.24 67.4666C225.967 67.4666 230.648 65.6559 230.648 63.981C230.648 62.3061 225.994 60.5045 219.24 60.5045Z" fill="#231F20"/>
<path d="M211.237 57.1729V62.9218C211.237 65.0947 216.542 66.8601 223.097 66.8601C229.652 66.8601 234.957 65.0494 234.957 62.9218V57.1729H211.237Z" fill="#48A4FE"/>
<path d="M223.097 67.2855C217.131 67.2855 210.784 65.7464 210.784 62.8945V57.1455C210.784 57.0255 210.832 56.9103 210.917 56.8255C211.002 56.7406 211.117 56.6929 211.237 56.6929H234.957C235.077 56.6929 235.193 56.7406 235.278 56.8255C235.362 56.9103 235.41 57.0255 235.41 57.1455V62.8945C235.41 65.7736 229.073 67.2855 223.097 67.2855ZM211.69 57.5982V62.8945C211.69 64.5423 216.371 66.3801 223.097 66.3801C229.824 66.3801 234.505 64.5694 234.505 62.8945V57.5982H211.69Z" fill="#231F20"/>
<path d="M223.097 61.1114C229.647 61.1114 234.957 59.3482 234.957 57.1731C234.957 54.9981 229.647 53.2349 223.097 53.2349C216.547 53.2349 211.237 54.9981 211.237 57.1731C211.237 59.3482 216.547 61.1114 223.097 61.1114Z" fill="#231F20"/>
<path d="M223.097 61.5639C217.131 61.5639 210.784 60.0248 210.784 57.1729C210.784 54.3211 217.122 52.791 223.097 52.791C229.073 52.791 235.41 54.3301 235.41 57.1729C235.41 60.0157 229.073 61.5639 223.097 61.5639ZM223.097 53.6964C216.371 53.6964 211.69 55.5071 211.69 57.1729C211.69 58.8388 216.371 60.6585 223.097 60.6585C229.824 60.6585 234.505 58.8478 234.505 57.1729C234.505 55.498 229.824 53.7054 223.097 53.7054V53.6964Z" fill="#231F20"/>
<path d="M208.629 50.3647V56.1137C208.629 58.2866 213.944 60.052 220.499 60.052C227.053 60.052 232.359 58.2413 232.359 56.1137V50.3647H208.629Z" fill="#48A4FE"/>
<path d="M220.499 60.5047C214.523 60.5047 208.177 58.9656 208.177 56.1138V50.3648C208.177 50.2447 208.225 50.1296 208.31 50.0447C208.394 49.9598 208.51 49.9121 208.63 49.9121H232.359C232.479 49.9121 232.594 49.9598 232.679 50.0447C232.764 50.1296 232.812 50.2447 232.812 50.3648V56.1138C232.821 58.9656 226.483 60.5047 220.499 60.5047ZM209.082 50.8175V56.1138C209.082 57.7615 213.772 59.5994 220.499 59.5994C227.226 59.5994 231.906 57.7887 231.906 56.1138V50.8175H209.082Z" fill="#231F20"/>
<path d="M220.499 54.3028C227.049 54.3028 232.359 52.5396 232.359 50.3646C232.359 48.1895 227.049 46.4263 220.499 46.4263C213.949 46.4263 208.639 48.1895 208.639 50.3646C208.639 52.5396 213.949 54.3028 220.499 54.3028Z" fill="#48A4FE"/>
<path d="M220.499 54.7558C214.523 54.7558 208.177 53.2167 208.177 50.3648C208.177 47.513 214.514 45.9829 220.499 45.9829C226.483 45.9829 232.812 47.522 232.812 50.3648C232.812 53.2076 226.483 54.7558 220.499 54.7558ZM220.499 46.8883C213.772 46.8883 209.082 48.699 209.082 50.3648C209.082 52.0307 213.772 53.8504 220.499 53.8504C227.226 53.8504 231.906 52.0397 231.906 50.3648C231.906 48.6899 227.217 46.8883 220.499 46.8883Z" fill="#231F20"/>
<path d="M195.556 94.6275L195.81 98.9098C195.864 101.78 201.342 104.007 208.041 103.88C214.741 103.753 220.137 101.327 220.082 98.4481L219.82 94.1748L195.556 94.6275Z" fill="#48A4FE"/>
<path d="M207.471 104.332C204.665 104.385 201.873 103.912 199.241 102.938C196.751 101.924 195.366 100.494 195.33 98.9185L195.076 94.6543C195.073 94.5934 195.082 94.5325 195.102 94.475C195.122 94.4175 195.153 94.3646 195.194 94.3193C195.235 94.2735 195.285 94.2369 195.341 94.2119C195.398 94.1869 195.458 94.1742 195.52 94.1744L219.783 93.7218C219.842 93.7167 219.902 93.724 219.957 93.7431C220.013 93.7623 220.065 93.7928 220.108 93.8328C220.151 93.8729 220.186 93.9215 220.21 93.9756C220.233 94.0298 220.245 94.0882 220.245 94.1473L220.499 98.4205C220.499 100.023 219.204 101.499 216.751 102.603C213.982 103.745 211.017 104.332 208.023 104.332H207.471ZM196.009 95.0707L196.235 98.8823C196.235 100.077 197.476 101.245 199.576 102.096C205.038 103.98 210.992 103.868 216.379 101.779C218.444 100.874 219.62 99.6428 219.602 98.4568L219.367 94.6362L196.009 95.0707Z" fill="#231F20"/>
<path d="M207.779 99.605C214.478 99.4799 219.865 97.0522 219.812 94.1827C219.758 91.3131 214.284 89.0883 207.585 89.2134C200.886 89.3385 195.499 91.7662 195.552 94.6358C195.606 97.5053 201.08 99.7302 207.779 99.605Z" fill="#48A4FE"/>
<path d="M207.244 100.06C204.435 100.109 201.64 99.6332 199.006 98.6564C196.516 97.6424 195.131 96.221 195.103 94.6366C195.076 93.0523 196.407 91.5766 198.852 90.472C201.621 89.3349 204.586 88.7506 207.579 88.7519C214.614 88.607 220.209 90.9971 220.254 94.184C220.318 97.3527 214.822 99.933 207.778 100.069L207.244 100.06ZM208.15 89.6481H207.634C204.762 89.6428 201.917 90.1995 199.259 91.2868C197.195 92.1922 196.018 93.4325 196.045 94.6095C196.072 95.7864 197.285 96.9544 199.386 97.8054C202.08 98.8004 204.945 99.2527 207.815 99.1362C214.152 99.0185 219.448 96.7461 219.403 94.1749C219.322 91.7305 214.215 89.6481 208.113 89.6481H208.15Z" fill="#231F20"/>
<path d="M177.929 64.9497L178.192 69.2321C178.246 72.102 183.723 74.3292 190.423 74.2025C197.123 74.0757 202.509 71.6494 202.455 68.7703L202.193 64.4971L177.929 64.9497Z" fill="#48A4FE"/>
<path d="M189.871 74.6553C183.08 74.6553 177.793 72.3195 177.739 69.2232L177.485 64.959C177.48 64.898 177.487 64.8364 177.508 64.7786C177.528 64.7208 177.56 64.6681 177.603 64.624C177.643 64.5793 177.692 64.5434 177.746 64.5184C177.801 64.4935 177.86 64.4801 177.92 64.4791L202.192 64.0265C202.309 64.024 202.421 64.0672 202.506 64.1468C202.59 64.2263 202.64 64.3359 202.645 64.452L202.908 68.7252C202.908 70.3277 201.604 71.8035 199.159 72.908C196.391 74.0484 193.426 74.6358 190.432 74.6372L189.871 74.6553ZM178.409 65.3936L178.644 69.2051C178.689 71.7944 184.076 73.8676 190.414 73.7318C193.286 73.7343 196.131 73.1746 198.788 72.0841C200.853 71.1788 202.02 69.9475 202.002 68.7615L201.767 64.9409L178.409 65.3936Z" fill="#231F20"/>
<path d="M190.153 69.9268C196.852 69.8017 202.239 67.374 202.186 64.5044C202.132 61.6349 196.658 59.4101 189.959 59.5352C183.26 59.6603 177.873 62.088 177.926 64.9575C177.98 67.8271 183.454 70.0519 190.153 69.9268Z" fill="#48A4FE"/>
<path d="M189.608 70.3822C182.818 70.3822 177.54 68.0464 177.476 64.9501C177.476 63.3657 178.78 61.89 181.233 60.7855C186.846 58.6003 193.053 58.4847 198.743 60.4596C201.233 61.4736 202.618 62.895 202.645 64.4793C202.645 66.0637 201.35 67.5394 198.897 68.644C196.128 69.7819 193.163 70.3663 190.169 70.3641L189.608 70.3822ZM190.513 59.9707H189.979C187.107 59.9644 184.262 60.5211 181.605 61.6094C179.54 62.5147 178.363 63.7551 178.381 64.932C178.436 67.5032 183.814 69.5855 190.151 69.4588C193.023 69.4651 195.868 68.9083 198.526 67.8201C200.59 66.9147 201.767 65.6744 201.74 64.4974C201.74 63.3205 200.508 62.1526 198.408 61.3015C195.883 60.3672 193.205 59.9157 190.513 59.9707Z" fill="#231F20"/>
<path d="M153.484 67.8923C153.484 67.8923 160.03 107.556 167.372 108.506C180.953 110.263 207.733 93.043 207.733 93.043C207.733 93.043 221.377 91.7936 221.449 90.6167C221.522 89.4397 216.823 89.2315 216.823 89.2315C216.823 89.2315 225.034 88.8603 224.745 87.4208C224.455 85.9813 218.407 86.5154 218.407 86.5154C218.407 86.5154 226.555 85.8545 225.885 84.3154C225.215 82.7763 218.407 83.5821 218.407 83.5821C218.407 83.5821 225.442 82.1878 224.636 80.6487C223.83 79.1096 210.63 83.0298 210.63 83.0298C210.63 83.0298 215.546 80.178 214.007 78.4125C212.468 76.6471 205.859 84.0619 205.859 84.0619L175.041 95.3517L170.994 68.0824C170.994 68.0824 169.319 61.0479 161.696 61.0479C154.073 61.0479 153.484 67.8923 153.484 67.8923Z" fill="white"/>
<path d="M169.446 109.086C168.735 109.09 168.024 109.048 167.318 108.959C164.068 108.534 160.673 101.472 157.233 87.955C154.707 77.9961 153.059 68.0372 153.041 67.9648C153.036 67.9287 153.036 67.8922 153.041 67.8562C153.278 65.7619 154.308 63.8379 155.919 62.4792C157.53 61.1205 159.601 60.4302 161.705 60.55C169.6 60.55 171.419 67.8652 171.438 67.9377L175.421 94.6908L205.66 83.6727C206.493 82.7673 211.146 77.6883 213.41 77.6883C213.594 77.6857 213.776 77.7223 213.944 77.7957C214.113 77.8691 214.264 77.9775 214.388 78.1138C214.55 78.2947 214.669 78.5101 214.737 78.7437C214.804 78.9773 214.818 79.2231 214.777 79.4628C214.484 80.428 213.887 81.2727 213.075 81.871C218.063 80.4858 224.365 79.0644 225.08 80.4406C225.153 80.5803 225.191 80.7356 225.191 80.8933C225.191 81.0509 225.153 81.2062 225.08 81.3459C224.447 82.1236 223.58 82.6761 222.608 82.9212C224.328 82.9756 225.949 83.2743 226.329 84.1435C226.385 84.276 226.408 84.4198 226.397 84.5631C226.386 84.7063 226.341 84.8449 226.266 84.9673C225.931 85.5196 224.808 85.9451 223.495 86.2529C224.401 86.4521 225.062 86.8052 225.179 87.3846C225.205 87.5048 225.203 87.6294 225.173 87.7486C225.143 87.8679 225.087 87.9787 225.007 88.0727C224.491 88.7427 222.527 89.141 220.607 89.3855C220.992 89.4927 221.344 89.695 221.63 89.9739C221.72 90.0638 221.79 90.1715 221.835 90.2901C221.88 90.4086 221.9 90.5353 221.893 90.662C221.893 91.0423 221.793 92.2102 207.878 93.4867C205.968 94.7089 183.135 109.086 169.446 109.086ZM153.937 67.8833C155.748 78.8653 161.687 107.311 167.427 108.063C180.654 109.783 207.262 92.8349 207.489 92.6719C207.551 92.6306 207.623 92.6057 207.697 92.5995C213.546 92.0653 219.928 91.16 220.951 90.5353C220.616 90.1731 218.733 89.7838 216.805 89.6933C216.685 89.6933 216.57 89.6456 216.485 89.5607C216.4 89.4758 216.352 89.3607 216.352 89.2406C216.352 89.1206 216.4 89.0054 216.485 88.9205C216.57 88.8356 216.685 88.7879 216.805 88.7879C220.58 88.6159 224.048 88.0274 224.31 87.5114C224.193 87.0587 221.359 86.769 218.471 86.9772C218.411 86.9814 218.352 86.9738 218.295 86.9549C218.239 86.936 218.186 86.9061 218.141 86.867C218.05 86.7881 217.995 86.6763 217.986 86.5562C217.978 86.4362 218.018 86.3177 218.096 86.2269C218.175 86.136 218.287 86.0803 218.407 86.0719C222.029 85.7822 225.315 85.0398 225.505 84.4875C225.188 83.7723 221.621 83.6727 218.498 84.0439C218.381 84.0571 218.263 84.0252 218.169 83.9545C218.075 83.8838 218.011 83.7797 217.991 83.6636C217.972 83.5474 218 83.4285 218.067 83.3322C218.135 83.2359 218.237 83.1697 218.353 83.1476C220.589 82.704 223.894 81.7352 224.265 80.9566C223.568 80.2233 216.723 81.7171 210.802 83.4735C210.696 83.507 210.581 83.5 210.479 83.4539C210.378 83.4079 210.297 83.3259 210.252 83.2239C210.207 83.1218 210.202 83.0067 210.236 82.9008C210.271 82.7948 210.344 82.7054 210.44 82.6496C211.346 82.1336 213.681 80.5221 213.871 79.327C213.896 79.2196 213.894 79.1076 213.864 79.0015C213.834 78.8954 213.777 78.7987 213.699 78.7204C213.662 78.6766 213.614 78.6429 213.561 78.6223C213.507 78.6017 213.449 78.595 213.392 78.6027C211.925 78.6027 208.231 82.1426 206.239 84.3698C206.191 84.427 206.129 84.4706 206.058 84.4966L175.195 95.741C175.135 95.7675 175.07 95.7811 175.005 95.7811C174.939 95.7811 174.874 95.7675 174.815 95.741C174.756 95.7064 174.706 95.6592 174.669 95.6028C174.631 95.5464 174.607 95.4823 174.597 95.4151L170.541 68.1549C170.028 66.214 168.876 64.5023 167.272 63.2953C165.667 62.0883 163.703 61.4561 161.696 61.5006C154.833 61.4553 154.055 67.2134 153.937 67.8833Z" fill="#231F20"/>
<path d="M54.9548 75.8231C54.8642 75.8232 54.7755 75.7967 54.6998 75.7468C54.6241 75.6969 54.5648 75.6258 54.5293 75.5424C54.5072 75.4871 54.4963 75.4281 54.4971 75.3686C54.4979 75.309 54.5105 75.2503 54.534 75.1956C54.5575 75.141 54.5916 75.0915 54.6343 75.05C54.677 75.0085 54.7275 74.9759 54.7828 74.9539L59.898 72.8988C60.0097 72.8544 60.1344 72.8561 60.2448 72.9037C60.3551 72.9512 60.4421 73.0406 60.4865 73.1523C60.5309 73.2639 60.5292 73.3887 60.4816 73.499C60.4341 73.6094 60.3447 73.6964 60.233 73.7408L55.0997 75.7959L54.9548 75.8231Z" fill="#231F20"/>
<path d="M140.14 74.9448C136.835 74.9448 128.832 70.6082 128.488 70.418C128.382 70.3604 128.304 70.2632 128.27 70.1477C128.236 70.0323 128.249 69.908 128.307 69.8024C128.364 69.6967 128.461 69.6183 128.577 69.5844C128.692 69.5504 128.817 69.5637 128.922 69.6213C129.004 69.6213 137.07 74.0304 140.14 74.0304C140.26 74.0304 140.375 74.0781 140.46 74.163C140.545 74.2479 140.592 74.363 140.592 74.4831C140.592 74.6031 140.545 74.7183 140.46 74.8032C140.375 74.8881 140.26 74.9357 140.14 74.9357V74.9448Z" fill="#231F20"/>
<path d="M256.514 113.495H0.905487V176.797H256.514V113.495Z" fill="white"/>
<path d="M256.505 113.459V176.833H0.905353V113.459H256.505ZM256.505 112.553H0.905353C0.665239 112.553 0.434958 112.649 0.265171 112.818C0.0953845 112.988 0 113.218 0 113.459V176.833C0 177.073 0.0953845 177.304 0.265171 177.473C0.434958 177.643 0.665239 177.739 0.905353 177.739H256.505C256.745 177.739 256.975 177.643 257.145 177.473C257.315 177.304 257.41 177.073 257.41 176.833V113.459C257.41 113.218 257.315 112.988 257.145 112.818C256.975 112.649 256.745 112.553 256.505 112.553Z" fill="#231F20"/>
<path d="M128.605 154.806H58.3229C58.2029 154.806 58.0877 154.759 58.0028 154.674C57.9179 154.589 57.8702 154.474 57.8702 154.354C57.8702 154.233 57.9179 154.118 58.0028 154.033C58.0877 153.949 58.2029 153.901 58.3229 153.901H128.605C128.726 153.901 128.841 153.949 128.926 154.033C129.01 154.118 129.058 154.233 129.058 154.354C129.058 154.474 129.01 154.589 128.926 154.674C128.841 154.759 128.726 154.806 128.605 154.806Z" fill="#231F20"/>
<path d="M154.272 113.097H103.138V179.359H154.272V113.097Z" fill="#E6E7E8"/>
<path d="M154.272 179.812H103.138C103.018 179.812 102.902 179.764 102.818 179.68C102.733 179.595 102.685 179.48 102.685 179.359V113.097C102.685 112.977 102.733 112.862 102.818 112.777C102.902 112.692 103.018 112.644 103.138 112.644H154.272C154.392 112.644 154.507 112.692 154.592 112.777C154.677 112.862 154.725 112.977 154.725 113.097V179.359C154.725 179.48 154.677 179.595 154.592 179.68C154.507 179.764 154.392 179.812 154.272 179.812ZM103.572 178.907H153.801V113.549H103.59L103.572 178.907Z" fill="#231F20"/>
<path d="M84.6956 127.591H0.905191C0.785134 127.591 0.669994 127.544 0.5851 127.459C0.500207 127.374 0.452515 127.259 0.452515 127.139C0.452515 127.019 0.500207 126.904 0.5851 126.819C0.669994 126.734 0.785134 126.686 0.905191 126.686H84.6956C84.8157 126.686 84.9308 126.734 85.0157 126.819C85.1006 126.904 85.1483 127.019 85.1483 127.139C85.1483 127.259 85.1006 127.374 85.0157 127.459C84.9308 127.544 84.8157 127.591 84.6956 127.591Z" fill="#231F20"/>
<path d="M256.505 130.298H180.392C180.272 130.298 180.157 130.251 180.072 130.166C179.987 130.081 179.939 129.966 179.939 129.846C179.939 129.726 179.987 129.611 180.072 129.526C180.157 129.441 180.272 129.393 180.392 129.393H256.505C256.625 129.393 256.74 129.441 256.825 129.526C256.91 129.611 256.957 129.726 256.957 129.846C256.957 129.966 256.91 130.081 256.825 130.166C256.74 130.251 256.625 130.298 256.505 130.298Z" fill="#231F20"/>
<path d="M227.977 152.28H161.886C161.766 152.28 161.651 152.233 161.566 152.148C161.481 152.063 161.434 151.948 161.434 151.828C161.436 151.708 161.484 151.595 161.569 151.51C161.653 151.426 161.767 151.377 161.886 151.375H227.977C228.097 151.377 228.21 151.426 228.295 151.51C228.379 151.595 228.428 151.708 228.43 151.828C228.43 151.948 228.382 152.063 228.297 152.148C228.212 152.233 228.097 152.28 227.977 152.28Z" fill="#231F20"/>
<path d="M256.505 168.142H181.025C180.905 168.142 180.79 168.094 180.705 168.01C180.62 167.925 180.573 167.81 180.573 167.689C180.573 167.569 180.62 167.454 180.705 167.369C180.79 167.285 180.905 167.237 181.025 167.237H256.505C256.625 167.237 256.74 167.285 256.825 167.369C256.91 167.454 256.957 167.569 256.957 167.689C256.957 167.81 256.91 167.925 256.825 168.01C256.74 168.094 256.625 168.142 256.505 168.142Z" fill="#231F20"/>
<path d="M72.9805 168.142H16.7491C16.629 168.142 16.5139 168.094 16.429 168.01C16.3441 167.925 16.2964 167.81 16.2964 167.689C16.2964 167.569 16.3441 167.454 16.429 167.369C16.5139 167.285 16.629 167.237 16.7491 167.237H72.9805C73.1006 167.237 73.2157 167.285 73.3006 167.369C73.3855 167.454 73.4332 167.569 73.4332 167.689C73.4332 167.81 73.3855 167.925 73.3006 168.01C73.2157 168.094 73.1006 168.142 72.9805 168.142Z" fill="#231F20"/>
<path d="M63.6103 139.714H29.3608C29.2415 139.712 29.1277 139.663 29.0433 139.579C28.9589 139.494 28.9105 139.381 28.9081 139.261C28.9081 139.141 28.9558 139.026 29.0407 138.941C29.1256 138.856 29.2408 138.809 29.3608 138.809H63.6103C63.7304 138.809 63.8455 138.856 63.9304 138.941C64.0153 139.026 64.063 139.141 64.063 139.261C64.0607 139.381 64.0122 139.494 63.9278 139.579C63.8435 139.663 63.7297 139.712 63.6103 139.714Z" fill="#231F20"/>
<path d="M192.378 139.714H166.657C166.537 139.714 166.422 139.666 166.337 139.581C166.252 139.496 166.205 139.381 166.205 139.261C166.205 139.141 166.252 139.026 166.337 138.941C166.422 138.856 166.537 138.809 166.657 138.809H192.378C192.498 138.809 192.613 138.856 192.698 138.941C192.783 139.026 192.831 139.141 192.831 139.261C192.831 139.381 192.783 139.496 192.698 139.581C192.613 139.666 192.498 139.714 192.378 139.714Z" fill="#231F20"/>
</svg>
