<svg width="142" height="135" viewBox="0 0 142 135" fill="none" xmlns="http://www.w3.org/2000/svg">
<circle cx="69.5" cy="67.5" r="67.5" fill="#DEEFFF"/>
<path d="M11.6539 107.594C11.5939 107.594 11.5363 107.57 11.4938 107.528C11.4513 107.486 11.4275 107.428 11.4275 107.368V28.4301C11.4275 28.37 11.4513 28.3124 11.4938 28.2699C11.5363 28.2275 11.5939 28.2036 11.6539 28.2036C11.714 28.2036 11.7716 28.2275 11.8141 28.2699C11.8565 28.3124 11.8804 28.37 11.8804 28.4301V107.368C11.8804 107.428 11.8565 107.486 11.8141 107.528C11.7716 107.57 11.714 107.594 11.6539 107.594Z" fill="#D1D3D4"/>
<path d="M42.2929 107.594C42.2328 107.594 42.1752 107.57 42.1327 107.528C42.0903 107.486 42.0664 107.428 42.0664 107.368V28.4301C42.0664 28.37 42.0903 28.3124 42.1327 28.2699C42.1752 28.2275 42.2328 28.2036 42.2929 28.2036C42.3529 28.2036 42.4105 28.2275 42.453 28.2699C42.4955 28.3124 42.5193 28.37 42.5193 28.4301V107.368C42.5193 107.428 42.4955 107.486 42.453 107.528C42.4105 107.57 42.3529 107.594 42.2929 107.594Z" fill="#D1D3D4"/>
<path d="M72.9335 107.594C72.8734 107.594 72.8158 107.57 72.7734 107.528C72.7309 107.486 72.707 107.428 72.707 107.368V28.4301C72.707 28.37 72.7309 28.3124 72.7734 28.2699C72.8158 28.2275 72.8734 28.2036 72.9335 28.2036C72.9935 28.2036 73.0511 28.2275 73.0936 28.2699C73.1361 28.3124 73.1599 28.37 73.1599 28.4301V107.368C73.1599 107.428 73.1361 107.486 73.0936 107.528C73.0511 107.57 72.9935 107.594 72.9335 107.594Z" fill="#D1D3D4"/>
<path d="M103.574 107.594C103.514 107.594 103.456 107.57 103.414 107.528C103.372 107.486 103.348 107.428 103.348 107.368V28.4301C103.348 28.37 103.372 28.3124 103.414 28.2699C103.456 28.2275 103.514 28.2036 103.574 28.2036C103.634 28.2036 103.692 28.2275 103.734 28.2699C103.777 28.3124 103.801 28.37 103.801 28.4301V107.368C103.801 107.428 103.777 107.486 103.734 107.528C103.692 107.57 103.634 107.594 103.574 107.594Z" fill="#D1D3D4"/>
<path d="M134.213 107.594C134.153 107.594 134.095 107.57 134.053 107.528C134.01 107.486 133.986 107.428 133.986 107.368V28.4301C133.986 28.37 134.01 28.3124 134.053 28.2699C134.095 28.2275 134.153 28.2036 134.213 28.2036C134.273 28.2036 134.33 28.2275 134.373 28.2699C134.415 28.3124 134.439 28.37 134.439 28.4301V107.368C134.439 107.428 134.415 107.486 134.373 107.528C134.33 107.57 134.273 107.594 134.213 107.594Z" fill="#D1D3D4"/>
<path d="M134.212 28.6565H11.6539C11.5939 28.6565 11.5363 28.6327 11.4938 28.5902C11.4513 28.5477 11.4275 28.4901 11.4275 28.4301C11.4275 28.37 11.4513 28.3124 11.4938 28.2699C11.5363 28.2275 11.5939 28.2036 11.6539 28.2036H134.212C134.272 28.2036 134.329 28.2275 134.372 28.2699C134.414 28.3124 134.438 28.37 134.438 28.4301C134.438 28.4901 134.414 28.5477 134.372 28.5902C134.329 28.6327 134.272 28.6565 134.212 28.6565Z" fill="#D1D3D4"/>
<path d="M134.212 54.7669H11.6539C11.5939 54.7669 11.5363 54.743 11.4938 54.7005C11.4513 54.6581 11.4275 54.6005 11.4275 54.5404C11.4275 54.4804 11.4513 54.4228 11.4938 54.3803C11.5363 54.3378 11.5939 54.314 11.6539 54.314H134.212C134.272 54.314 134.329 54.3378 134.372 54.3803C134.414 54.4228 134.438 54.4804 134.438 54.5404C134.438 54.6005 134.414 54.6581 134.372 54.7005C134.329 54.743 134.272 54.7669 134.212 54.7669Z" fill="#D1D3D4"/>
<path d="M134.212 80.8548H11.6539C11.5939 80.8548 11.5363 80.8309 11.4938 80.7884C11.4513 80.746 11.4275 80.6884 11.4275 80.6283C11.4275 80.5683 11.4513 80.5106 11.4938 80.4682C11.5363 80.4257 11.5939 80.4019 11.6539 80.4019H134.212C134.272 80.4019 134.329 80.4257 134.372 80.4682C134.414 80.5106 134.438 80.5683 134.438 80.6283C134.438 80.6884 134.414 80.746 134.372 80.7884C134.329 80.8309 134.272 80.8548 134.212 80.8548Z" fill="#D1D3D4"/>
<path d="M141.206 107.821H0.540908C0.480849 107.821 0.423249 107.797 0.38078 107.755C0.338312 107.712 0.314453 107.655 0.314453 107.595C0.314453 107.535 0.338312 107.477 0.38078 107.434C0.423249 107.392 0.480849 107.368 0.540908 107.368H141.206C141.266 107.368 141.324 107.392 141.366 107.434C141.408 107.477 141.432 107.535 141.432 107.595C141.432 107.655 141.408 107.712 141.366 107.755C141.324 107.797 141.266 107.821 141.206 107.821Z" fill="#D1D3D4"/>
<path d="M3.28125 107.594H40.9725L123.728 47.0856L129.648 55.2108L139.313 21.9762L104.711 20.9844L110.63 29.1096L3.28125 107.594Z" fill="#48A4FE"/>
<path d="M19.5312 104.501V110.085C19.5312 112.2 25.5731 113.917 33.028 113.917C40.4829 113.917 46.5202 112.2 46.5202 110.085V104.501H19.5312Z" fill="white"/>
<path d="M33.0259 114.143C25.3264 114.143 19.3027 112.359 19.3027 110.067V104.501C19.3027 104.441 19.3266 104.383 19.3691 104.341C19.4115 104.298 19.4691 104.274 19.5292 104.274H46.5181C46.5782 104.274 46.6358 104.298 46.6783 104.341C46.7207 104.383 46.7446 104.441 46.7446 104.501V110.085C46.7446 112.359 40.7209 114.143 33.0259 114.143ZM19.7556 104.727V110.085C19.7556 111.824 25.0864 113.709 33.0259 113.709C40.9654 113.709 46.2917 111.843 46.2917 110.085V104.727H19.7556Z" fill="#231F20"/>
<path d="M33.028 108.328C40.482 108.328 46.5247 106.615 46.5247 104.501C46.5247 102.387 40.482 100.674 33.028 100.674C25.5739 100.674 19.5312 102.387 19.5312 104.501C19.5312 106.615 25.5739 108.328 33.028 108.328Z" fill="#231F20"/>
<path d="M33.028 108.532C25.3286 108.532 19.332 106.761 19.332 104.501C19.332 102.241 25.3467 100.475 33.028 100.475C40.7094 100.475 46.7195 102.245 46.7195 104.501C46.7195 106.756 40.7049 108.532 33.028 108.532ZM33.028 100.873C25.0749 100.873 19.7306 102.748 19.7306 104.496C19.7306 106.245 25.0749 108.12 33.028 108.12C40.9812 108.12 46.321 106.245 46.321 104.496C46.321 102.748 40.9812 100.873 33.028 100.873Z" fill="#231F20"/>
<path d="M22.7109 96.8467V102.431C22.7109 104.546 28.7528 106.258 36.2031 106.258C43.6535 106.258 49.6999 104.546 49.6999 102.431V96.8467H22.7109Z" fill="white"/>
<path d="M36.205 106.485C28.5055 106.485 22.4863 104.705 22.4863 102.431V96.8471C22.4863 96.787 22.5102 96.7294 22.5527 96.6869C22.5951 96.6445 22.6527 96.6206 22.7128 96.6206H49.7017C49.7618 96.6206 49.8194 96.6445 49.8618 96.6869C49.9043 96.7294 49.9282 96.787 49.9282 96.8471V102.431C49.9282 104.705 43.8999 106.485 36.205 106.485ZM22.9392 97.0735V102.431C22.9392 104.171 28.27 106.032 36.205 106.032C44.14 106.032 49.4753 104.171 49.4753 102.431V97.0735H22.9392Z" fill="#231F20"/>
<path d="M36.2018 100.674C43.6558 100.674 49.6985 98.9608 49.6985 96.8471C49.6985 94.7335 43.6558 93.02 36.2018 93.02C28.7478 93.02 22.7051 94.7335 22.7051 96.8471C22.7051 98.9608 28.7478 100.674 36.2018 100.674Z" fill="#231F20"/>
<path d="M36.2032 100.873C28.5037 100.873 22.5117 99.107 22.5117 96.847C22.5117 94.5869 28.5264 92.8115 36.2032 92.8115C43.88 92.8115 49.8992 94.5779 49.8992 96.8379C49.8992 99.0979 43.8846 100.873 36.2032 100.873ZM36.2032 93.2191C28.2501 93.2191 22.9103 95.0942 22.9103 96.8424C22.9103 98.5907 28.2501 100.466 36.2032 100.466C44.1563 100.466 49.5007 98.5907 49.5007 96.8424C49.5007 95.0942 44.1518 93.2191 36.2032 93.2191Z" fill="#231F20"/>
<path d="M19.9475 88.314V93.8983C19.9475 96.0134 25.9893 97.7254 33.4442 97.7254C40.8991 97.7254 46.941 96.0134 46.941 93.8983V88.314H19.9475Z" fill="white"/>
<path d="M33.4439 97.9518C25.7444 97.9518 19.7207 96.1718 19.7207 93.8982V88.3139C19.7207 88.2538 19.7446 88.1962 19.787 88.1537C19.8295 88.1113 19.8871 88.0874 19.9472 88.0874H46.9406C47.0007 88.0874 47.0583 88.1113 47.1008 88.1537C47.1432 88.1962 47.1671 88.2538 47.1671 88.3139V93.8982C47.1671 96.1718 41.1388 97.9518 33.4439 97.9518ZM20.1736 88.5403V93.8982C20.1736 95.6374 25.5044 97.4989 33.4439 97.4989C41.3834 97.4989 46.7142 95.6374 46.7142 93.8982V88.5403H20.1736Z" fill="#231F20"/>
<path d="M33.4442 92.141C40.8983 92.141 46.941 90.4276 46.941 88.3139C46.941 86.2003 40.8983 84.4868 33.4442 84.4868C25.9902 84.4868 19.9475 86.2003 19.9475 88.3139C19.9475 90.4276 25.9902 92.141 33.4442 92.141Z" fill="white"/>
<path d="M33.4439 92.3583C25.7444 92.3583 19.7207 90.5783 19.7207 88.2821C19.7207 85.9858 25.7489 84.2285 33.4439 84.2285C41.1388 84.2285 47.1671 86.0085 47.1671 88.2821C47.1671 90.5557 41.1388 92.3583 33.4439 92.3583ZM33.4439 84.7041C25.5044 84.7041 20.1736 86.5655 20.1736 88.3047C20.1736 90.0439 25.5044 91.928 33.4439 91.928C41.3834 91.928 46.7142 90.0665 46.7142 88.3047C46.7142 86.5429 41.3789 84.7131 33.4439 84.7131V84.7041Z" fill="#231F20"/>
<path d="M33.4459 90.8594C27.848 90.8594 21.8967 89.9536 21.8967 88.314C21.8967 86.6745 27.848 85.7642 33.4459 85.7642C39.0439 85.7642 44.9906 86.67 44.9906 88.314C44.9906 89.9581 39.0439 90.8594 33.4459 90.8594ZM33.4459 86.2171C26.9059 86.2171 22.3496 87.3222 22.3496 88.314C22.3496 89.3059 26.9059 90.4065 33.4459 90.4065C39.986 90.4065 44.5377 89.3059 44.5377 88.314C44.5377 87.3222 39.9814 86.2171 33.4459 86.2171Z" fill="#D1D3D4"/>
<path d="M56.1582 104.469V110.054C56.1582 112.169 62.2 113.885 69.6549 113.885C77.1098 113.885 83.1517 112.169 83.1517 110.054V104.469H56.1582Z" fill="white"/>
<path d="M69.6546 114.098C61.9551 114.098 55.9314 112.314 55.9314 110.022V104.469C55.9326 104.409 55.9568 104.353 55.999 104.31C56.0412 104.268 56.0982 104.244 56.1579 104.243H83.1513C83.211 104.244 83.2679 104.268 83.3102 104.31C83.3524 104.353 83.3766 104.409 83.3778 104.469V110.054C83.3778 112.327 77.3495 114.098 69.6546 114.098ZM56.3798 104.696V110.054C56.3798 111.797 61.7151 113.677 69.6501 113.677C77.5851 113.677 82.9203 111.815 82.9203 110.054V104.696H56.3798Z" fill="#231F20"/>
<path d="M69.6549 108.296C77.109 108.296 83.1517 106.583 83.1517 104.469C83.1517 102.356 77.109 100.642 69.6549 100.642C62.2009 100.642 56.1582 102.356 56.1582 104.469C56.1582 106.583 62.2009 108.296 69.6549 108.296Z" fill="#231F20"/>
<path d="M69.655 108.5C61.9555 108.5 55.959 106.729 55.959 104.469C55.959 102.209 61.9736 100.443 69.655 100.443C77.3364 100.443 83.351 102.214 83.351 104.469C83.351 106.725 77.3364 108.5 69.655 108.5ZM69.655 100.841C61.7019 100.841 56.3575 102.721 56.3575 104.465C56.3575 106.208 61.7019 108.088 69.655 108.088C77.6081 108.088 82.9524 106.213 82.9524 104.465C82.9524 102.716 77.6081 100.841 69.655 100.841Z" fill="#231F20"/>
<path d="M54.4004 97.8525V103.437C54.4004 105.552 60.4467 107.264 67.8971 107.264C75.3475 107.264 81.3938 105.552 81.3938 103.437V97.8525H54.4004Z" fill="white"/>
<path d="M67.897 107.49C60.1975 107.49 54.1738 105.71 54.1738 103.437V97.8524C54.1738 97.7924 54.1977 97.7348 54.2402 97.6923C54.2826 97.6498 54.3402 97.626 54.4003 97.626H81.3937C81.4538 97.626 81.5114 97.6498 81.5539 97.6923C81.5963 97.7348 81.6202 97.7924 81.6202 97.8524V103.437C81.6202 105.71 75.592 107.49 67.897 107.49ZM54.6267 98.0789V103.437C54.6267 105.176 59.962 107.037 67.897 107.037C75.832 107.037 81.1673 105.176 81.1673 103.437V98.0789H54.6267Z" fill="#231F20"/>
<path d="M67.8971 101.68C75.3512 101.68 81.3939 99.9661 81.3939 97.8525C81.3939 95.7388 75.3512 94.0254 67.8971 94.0254C60.4431 94.0254 54.4004 95.7388 54.4004 97.8525C54.4004 99.9661 60.4431 101.68 67.8971 101.68Z" fill="#231F20"/>
<path d="M67.8991 101.87C60.1997 101.87 54.2031 100.099 54.2031 97.8433C54.2031 95.5878 60.2223 93.8169 67.8991 93.8169C75.576 93.8169 81.5952 95.5832 81.5952 97.8433C81.5952 100.103 75.5805 101.87 67.8991 101.87ZM67.8991 94.2155C59.946 94.2155 54.6062 96.0905 54.6062 97.8387C54.6062 99.587 59.946 101.462 67.8991 101.462C75.8522 101.462 81.1966 99.587 81.1966 97.8387C81.1966 96.0905 75.8568 94.2245 67.8991 94.2245V94.2155Z" fill="#231F20"/>
<path d="M56.5781 89.7861V95.375C56.5781 97.4856 62.6199 99.2021 70.0703 99.2021C77.5207 99.2021 83.5671 97.4856 83.5671 95.375V89.7861H56.5781Z" fill="white"/>
<path d="M70.0722 99.4285C62.3727 99.4285 56.3535 97.644 56.3535 95.3523V89.786C56.3535 89.726 56.3774 89.6684 56.4198 89.6259C56.4623 89.5834 56.5199 89.5596 56.58 89.5596H83.5553C83.6154 89.5596 83.673 89.5834 83.7154 89.6259C83.7579 89.6684 83.7818 89.726 83.7818 89.786V95.3749C83.7954 97.644 77.7671 99.4285 70.0722 99.4285ZM56.8064 90.0125V95.3749C56.8064 97.1141 62.1372 98.9982 70.0722 98.9982C78.0072 98.9982 83.3425 97.1368 83.3425 95.3749V90.0125H56.8064Z" fill="#231F20"/>
<path d="M70.0729 93.6132C77.5269 93.6132 83.5696 91.8997 83.5696 89.7861C83.5696 87.6724 77.5269 85.959 70.0729 85.959C62.6189 85.959 56.5762 87.6724 56.5762 89.7861C56.5762 91.8997 62.6189 93.6132 70.0729 93.6132Z" fill="#231F20"/>
<path d="M70.0704 93.817C62.3936 93.817 56.3789 92.0462 56.3789 89.7861C56.3789 87.5261 62.3936 85.7598 70.0704 85.7598C77.7472 85.7598 83.7664 87.5307 83.7664 89.7861C83.7664 92.0416 77.7517 93.817 70.0704 93.817ZM70.0704 86.1583C62.1173 86.1583 56.7775 88.0379 56.7775 89.7816C56.7775 91.5253 62.1173 93.4049 70.0704 93.4049C78.0235 93.4049 83.3678 91.5298 83.3678 89.7816C83.3678 88.0334 78.0235 86.1583 70.0704 86.1583Z" fill="#231F20"/>
<path d="M54.4004 81.6924V87.2768C54.4004 89.3919 60.4467 91.1039 67.8971 91.1039C75.3475 91.1039 81.3938 89.3919 81.3938 87.2768V81.6924H54.4004Z" fill="white"/>
<path d="M67.897 91.3302C60.1975 91.3302 54.1738 89.5503 54.1738 87.2767V81.6923C54.175 81.6326 54.1992 81.5756 54.2414 81.5334C54.2837 81.4912 54.3406 81.467 54.4003 81.4658H81.3937C81.4538 81.4658 81.5114 81.4897 81.5539 81.5322C81.5963 81.5746 81.6202 81.6322 81.6202 81.6923V87.2767C81.6202 89.5503 75.592 91.3302 67.897 91.3302ZM54.6267 81.9414V87.2993C54.6267 89.0385 59.962 90.8999 67.897 90.8999C75.832 90.8999 81.1673 89.0385 81.1673 87.2993V81.9414H54.6267Z" fill="#231F20"/>
<path d="M67.8971 85.5194C75.3512 85.5194 81.3939 83.806 81.3939 81.6923C81.3939 79.5787 75.3512 77.8652 67.8971 77.8652C60.4431 77.8652 54.4004 79.5787 54.4004 81.6923C54.4004 83.806 60.4431 85.5194 67.8971 85.5194Z" fill="#231F20"/>
<path d="M67.8991 85.7188C60.1997 85.7188 54.2031 83.9524 54.2031 81.6924C54.2031 79.4324 60.2223 77.666 67.8991 77.666C75.576 77.666 81.5952 79.4369 81.5952 81.6924C81.5952 83.9479 75.5805 85.7188 67.8991 85.7188ZM67.8991 78.0646C59.946 78.0646 54.6062 79.9396 54.6062 81.6879C54.6062 83.4361 59.946 85.3111 67.8991 85.3111C75.8522 85.3111 81.1966 83.4361 81.1966 81.6879C81.1966 79.9396 75.8568 78.0646 67.8991 78.0646Z" fill="#231F20"/>
<path d="M58.752 75.0757V80.6601C58.752 82.7706 64.7938 84.4872 72.2487 84.4872C79.7036 84.4872 85.7409 82.7706 85.7409 80.6601V75.0757H58.752Z" fill="white"/>
<path d="M72.2332 84.7135C64.5337 84.7135 58.51 82.9336 58.51 80.6373V75.0756C58.51 75.0155 58.5339 74.9579 58.5763 74.9155C58.6188 74.873 58.6764 74.8491 58.7365 74.8491H85.7254C85.7855 74.8491 85.8431 74.873 85.8855 74.9155C85.928 74.9579 85.9519 75.0155 85.9519 75.0756V80.66C85.97 82.9336 79.9327 84.7135 72.2332 84.7135ZM58.9629 75.302V80.66C58.9629 82.3991 64.2937 84.2832 72.2332 84.2832C80.1727 84.2832 85.4989 82.4218 85.4989 80.66V75.302H58.9629Z" fill="#231F20"/>
<path d="M72.2487 78.9027C79.7027 78.9027 85.7454 77.1893 85.7454 75.0756C85.7454 72.962 79.7027 71.2485 72.2487 71.2485C64.7946 71.2485 58.752 72.962 58.752 75.0756C58.752 77.1893 64.7946 78.9027 72.2487 78.9027Z" fill="#231F20"/>
<path d="M72.2331 79.1017C64.5336 79.1017 58.5371 77.3308 58.5371 75.0708C58.5371 72.8108 64.5518 71.0444 72.2331 71.0444C79.9145 71.0444 85.9246 72.8153 85.9246 75.0708C85.9246 77.3263 79.9326 79.1017 72.2331 79.1017ZM72.2331 71.443C64.28 71.443 58.9357 73.3226 58.9357 75.0663C58.9357 76.81 64.28 78.6896 72.2331 78.6896C80.1862 78.6896 85.5261 76.81 85.5261 75.0663C85.5261 73.3226 80.2043 71.443 72.2331 71.443Z" fill="#231F20"/>
<path d="M55.793 68.4541V74.0385C55.793 76.1536 61.8348 77.8656 69.2897 77.8656C76.7446 77.8656 82.7864 76.1536 82.7864 74.0385V68.4541H55.793Z" fill="white"/>
<path d="M69.2896 78.0919C61.5901 78.0919 55.5664 76.312 55.5664 74.0384V68.454C55.5664 68.3939 55.5903 68.3363 55.6327 68.2939C55.6752 68.2514 55.7328 68.2275 55.7929 68.2275H82.7863C82.8464 68.2275 82.904 68.2514 82.9465 68.2939C82.9889 68.3363 83.0128 68.3939 83.0128 68.454V74.0384C83.0128 76.312 76.9845 78.0919 69.2896 78.0919ZM56.0193 68.6804V74.0384C56.0193 75.7776 61.3501 77.639 69.2896 77.639C77.2291 77.639 82.5599 75.7776 82.5599 74.0384V68.6804H56.0193Z" fill="#231F20"/>
<path d="M69.2897 72.2811C76.7437 72.2811 82.7864 70.5677 82.7864 68.454C82.7864 66.3404 76.7437 64.627 69.2897 64.627C61.8357 64.627 55.793 66.3404 55.793 68.454C55.793 70.5677 61.8357 72.2811 69.2897 72.2811Z" fill="white"/>
<path d="M69.2896 72.5075C61.5901 72.5075 55.5664 70.7275 55.5664 68.4539C55.5664 66.1803 61.5946 64.4004 69.2896 64.4004C76.9845 64.4004 83.0128 66.1803 83.0128 68.4539C83.0128 70.7275 76.9845 72.5075 69.2896 72.5075ZM69.2896 64.8533C61.3501 64.8533 56.0193 66.7148 56.0193 68.4539C56.0193 70.1931 61.3501 72.0546 69.2896 72.0546C77.2291 72.0546 82.5599 70.1931 82.5599 68.4539C82.5599 66.7148 77.2155 64.8533 69.2896 64.8533Z" fill="#231F20"/>
<path d="M69.2875 70.9991C63.6895 70.9991 57.7383 70.0932 57.7383 68.4537C57.7383 66.8142 63.6895 65.9038 69.2875 65.9038C74.8855 65.9038 80.8322 66.8096 80.8322 68.4537C80.8322 70.0978 74.8855 70.9991 69.2875 70.9991ZM69.2875 66.3567C62.7475 66.3567 58.1912 67.4618 58.1912 68.4537C58.1912 69.4456 62.7475 70.5461 69.2875 70.5461C75.8275 70.5461 80.3838 69.4456 80.3838 68.4537C80.3838 67.4618 75.823 66.3567 69.2875 66.3567Z" fill="#D1D3D4"/>
<path d="M120.46 104.469V110.054C120.46 112.169 114.418 113.885 106.967 113.885C99.5171 113.885 93.4707 112.169 93.4707 110.054V104.469H120.46Z" fill="white"/>
<path d="M106.967 114.098C99.2679 114.098 93.2441 112.314 93.2441 110.022V104.47C93.2441 104.41 93.268 104.352 93.3105 104.309C93.3529 104.267 93.4105 104.243 93.4706 104.243H120.46C120.52 104.243 120.577 104.267 120.62 104.309C120.662 104.352 120.686 104.41 120.686 104.47V110.054C120.695 112.328 114.658 114.098 106.967 114.098ZM93.6971 104.682V110.04C93.6971 111.784 99.0278 113.664 106.967 113.664C114.907 113.664 120.233 111.802 120.233 110.04V104.696L93.6971 104.682Z" fill="#231F20"/>
<path d="M106.967 108.296C114.421 108.296 120.464 106.583 120.464 104.469C120.464 102.356 114.421 100.642 106.967 100.642C99.5134 100.642 93.4707 102.356 93.4707 104.469C93.4707 106.583 99.5134 108.296 106.967 108.296Z" fill="#231F20"/>
<path d="M106.965 108.5C99.2658 108.5 93.2693 106.729 93.2693 104.469C93.2693 102.209 99.2839 100.443 106.965 100.443C114.647 100.443 120.657 102.214 120.657 104.469C120.657 106.725 114.642 108.5 106.965 108.5ZM106.965 100.841C99.0077 100.841 93.6679 102.721 93.6679 104.465C93.6679 106.208 99.0077 108.088 106.965 108.088C114.923 108.088 120.258 106.213 120.258 104.465C120.258 102.716 114.918 100.841 106.965 100.841Z" fill="#231F20"/>
<path d="M122.215 97.8525V103.437C122.215 105.552 116.174 107.264 108.719 107.264C101.264 107.264 95.2266 105.552 95.2266 103.437V97.8525H122.215Z" fill="white"/>
<path d="M108.719 107.49C101.019 107.49 95.0002 105.71 95.0002 103.437V97.8524C95.0002 97.7924 95.0241 97.7348 95.0666 97.6923C95.109 97.6498 95.1666 97.626 95.2267 97.626H122.216C122.276 97.626 122.333 97.6498 122.376 97.6923C122.418 97.7348 122.442 97.7924 122.442 97.8524V103.437C122.442 105.71 116.414 107.49 108.719 107.49ZM95.4532 98.0789V103.437C95.4532 105.176 100.784 107.037 108.719 107.037C116.654 107.037 121.989 105.176 121.989 103.437V98.0789H95.4532Z" fill="#231F20"/>
<path d="M108.719 101.68C116.173 101.68 122.216 99.9661 122.216 97.8525C122.216 95.7388 116.173 94.0254 108.719 94.0254C101.265 94.0254 95.2227 95.7388 95.2227 97.8525C95.2227 99.9661 101.265 101.68 108.719 101.68Z" fill="#231F20"/>
<path d="M108.719 101.87C101.042 101.87 95.0273 100.099 95.0273 97.8433C95.0273 95.5878 101.042 93.8169 108.719 93.8169C116.396 93.8169 122.415 95.5832 122.415 97.8433C122.415 100.103 116.4 101.87 108.719 101.87ZM108.719 94.2155C100.766 94.2155 95.4259 96.0905 95.4259 97.8387C95.4259 99.587 100.766 101.462 108.719 101.462C116.672 101.462 122.016 99.587 122.016 97.8387C122.016 96.0905 116.672 94.2245 108.719 94.2245V94.2155Z" fill="#231F20"/>
<path d="M120.04 89.7861V95.375C120.04 97.4856 113.999 99.2021 106.544 99.2021C99.0887 99.2021 93.0469 97.4856 93.0469 95.375V89.7861H120.04Z" fill="white"/>
<path d="M106.545 99.4285C98.846 99.4285 92.8223 97.644 92.8223 95.3523V89.786C92.8234 89.7263 92.8477 89.6694 92.8899 89.6272C92.9321 89.585 92.989 89.5607 93.0487 89.5596H120.042C120.102 89.5596 120.16 89.5834 120.202 89.6259C120.245 89.6684 120.269 89.726 120.269 89.786V95.3749C120.269 97.644 114.24 99.4285 106.545 99.4285ZM93.2752 90.0125V95.3749C93.2752 97.1141 98.6105 98.9982 106.545 98.9982C114.48 98.9982 119.816 97.1368 119.816 95.3749V90.0125H93.2752Z" fill="#231F20"/>
<path d="M106.544 93.6132C113.998 93.6132 120.04 91.8997 120.04 89.7861C120.04 87.6724 113.998 85.959 106.544 85.959C99.0896 85.959 93.0469 87.6724 93.0469 89.7861C93.0469 91.8997 99.0896 93.6132 106.544 93.6132Z" fill="#231F20"/>
<path d="M106.546 93.817C98.8688 93.817 92.8496 92.0462 92.8496 89.7861C92.8496 87.5261 98.8688 85.7598 106.546 85.7598C114.222 85.7598 120.242 87.5307 120.242 89.7861C120.242 92.0416 114.227 93.817 106.546 93.817ZM106.546 86.1583C98.5925 86.1583 93.2527 88.0379 93.2527 89.7816C93.2527 91.5253 98.5925 93.4049 106.546 93.4049C114.499 93.4049 119.843 91.5298 119.843 89.7816C119.843 88.0334 114.499 86.1583 106.546 86.1583Z" fill="#231F20"/>
<path d="M122.215 81.6924V87.2768C122.215 89.3919 116.174 91.1039 108.719 91.1039C101.264 91.1039 95.2266 89.3919 95.2266 87.2768V81.6924H122.215Z" fill="white"/>
<path d="M108.719 91.3302C101.019 91.3302 95.0002 89.5503 95.0002 87.2767V81.6923C95.0002 81.6322 95.0241 81.5746 95.0666 81.5322C95.109 81.4897 95.1666 81.4658 95.2267 81.4658H122.216C122.276 81.4658 122.333 81.4897 122.376 81.5322C122.418 81.5746 122.442 81.6322 122.442 81.6923V87.2767C122.442 89.5503 116.414 91.3302 108.719 91.3302ZM95.4532 81.9414V87.2993C95.4532 89.0385 100.784 90.8999 108.719 90.8999C116.654 90.8999 121.989 89.0385 121.989 87.2993V81.9414H95.4532Z" fill="#231F20"/>
<path d="M108.719 85.5194C116.173 85.5194 122.216 83.806 122.216 81.6923C122.216 79.5787 116.173 77.8652 108.719 77.8652C101.265 77.8652 95.2227 79.5787 95.2227 81.6923C95.2227 83.806 101.265 85.5194 108.719 85.5194Z" fill="#231F20"/>
<path d="M108.719 85.7188C101.042 85.7188 95.0273 83.9524 95.0273 81.6924C95.0273 79.4324 101.042 77.666 108.719 77.666C116.396 77.666 122.415 79.4369 122.415 81.6924C122.415 83.9479 116.4 85.7188 108.719 85.7188ZM108.719 78.0646C100.766 78.0646 95.4259 79.9396 95.4259 81.6879C95.4259 83.4361 100.766 85.3111 108.719 85.3111C116.672 85.3111 122.016 83.4361 122.016 81.6879C122.016 79.9396 116.672 78.0646 108.719 78.0646Z" fill="#231F20"/>
<path d="M117.867 75.0757V80.6601C117.867 82.7706 111.825 84.4872 104.37 84.4872C96.9149 84.4872 90.873 82.7706 90.873 80.6601V75.0757H117.867Z" fill="white"/>
<path d="M104.387 84.7135C96.6878 84.7135 90.6641 82.9336 90.6641 80.6373V75.0756C90.6641 75.0155 90.6879 74.9579 90.7304 74.9155C90.7729 74.873 90.8305 74.8491 90.8905 74.8491H117.884C117.944 74.8491 118.002 74.873 118.044 74.9155C118.087 74.9579 118.11 75.0155 118.11 75.0756V80.66C118.092 82.9336 112.087 84.7135 104.387 84.7135ZM91.117 75.302V80.66C91.117 82.3991 96.4477 84.2832 104.387 84.2832C112.327 84.2832 117.658 82.4218 117.658 80.66V75.302H91.117Z" fill="#231F20"/>
<path d="M104.37 78.9027C111.824 78.9027 117.867 77.1893 117.867 75.0756C117.867 72.962 111.824 71.2485 104.37 71.2485C96.9157 71.2485 90.873 72.962 90.873 75.0756C90.873 77.1893 96.9157 78.9027 104.37 78.9027Z" fill="#231F20"/>
<path d="M104.389 79.1017C96.6899 79.1017 90.6934 77.3308 90.6934 75.0708C90.6934 72.8108 96.6899 71.0444 104.389 71.0444C112.089 71.0444 118.085 72.8153 118.085 75.0708C118.085 77.3263 112.053 79.1017 104.389 79.1017ZM104.389 71.443C96.4363 71.443 91.0919 73.3226 91.0919 75.0663C91.0919 76.81 96.4363 78.6896 104.389 78.6896C112.342 78.6896 117.687 76.81 117.687 75.0663C117.687 73.3226 112.324 71.443 104.389 71.443Z" fill="#231F20"/>
<path d="M120.825 68.4541V74.0385C120.825 76.1536 114.783 77.8656 107.333 77.8656C99.8823 77.8656 93.8359 76.1536 93.8359 74.0385V68.4541H120.825Z" fill="white"/>
<path d="M107.333 78.0919C99.6331 78.0919 93.6094 76.312 93.6094 74.0384V68.454C93.6094 68.3939 93.6332 68.3363 93.6757 68.2939C93.7182 68.2514 93.7758 68.2275 93.8358 68.2275H120.825C120.885 68.2275 120.942 68.2514 120.985 68.2939C121.027 68.3363 121.051 68.3939 121.051 68.454V74.0384C121.051 76.312 115.028 78.0919 107.333 78.0919ZM94.0623 68.6804V74.0384C94.0623 75.7776 99.393 77.639 107.333 77.639C115.272 77.639 120.598 75.7776 120.598 74.0384V68.6804H94.0623Z" fill="#231F20"/>
<path d="M107.333 72.2811C114.787 72.2811 120.829 70.5677 120.829 68.454C120.829 66.3404 114.787 64.627 107.333 64.627C99.8786 64.627 93.8359 66.3404 93.8359 68.454C93.8359 70.5677 99.8786 72.2811 107.333 72.2811Z" fill="#231F20"/>
<path d="M107.332 72.4805C99.633 72.4805 93.6365 70.7141 93.6365 68.4541C93.6365 66.1941 99.6511 64.4277 107.332 64.4277C115.014 64.4277 121.029 66.1941 121.029 68.4541C121.029 70.7141 115.009 72.4805 107.332 72.4805ZM107.332 64.8263C99.3794 64.8263 94.035 66.7013 94.035 68.4496C94.035 70.1978 99.3794 72.0729 107.332 72.0729C115.286 72.0729 120.625 70.1978 120.625 68.4496C120.625 66.7013 115.286 64.8263 107.332 64.8263Z" fill="#231F20"/>
<path d="M121.299 60.9536V66.5425C121.299 68.6576 115.258 70.3696 107.803 70.3696C100.348 70.3696 94.3105 68.6576 94.3105 66.5425V60.9536H121.299Z" fill="white"/>
<path d="M107.805 70.5914C100.105 70.5914 94.0859 68.8115 94.0859 66.5379V60.9535C94.0859 60.8934 94.1098 60.8358 94.1523 60.7934C94.1947 60.7509 94.2523 60.7271 94.3124 60.7271H121.301C121.361 60.7271 121.419 60.7509 121.461 60.7934C121.504 60.8358 121.528 60.8934 121.528 60.9535V66.5424C121.528 68.807 115.5 70.5914 107.805 70.5914ZM94.5388 61.18V66.5424C94.5388 68.2816 99.8696 70.1431 107.805 70.1431C115.74 70.1431 121.075 68.2816 121.075 66.5424V61.18H94.5388Z" fill="#231F20"/>
<path d="M107.805 64.7807C115.259 64.7807 121.302 63.0672 121.302 60.9536C121.302 58.8399 115.259 57.1265 107.805 57.1265C100.351 57.1265 94.3086 58.8399 94.3086 60.9536C94.3086 63.0672 100.351 64.7807 107.805 64.7807Z" fill="#231F20"/>
<path d="M107.803 64.98C100.103 64.98 94.1113 63.2136 94.1113 60.9536C94.1113 58.6936 100.126 56.9272 107.803 56.9272C115.48 56.9272 121.499 58.6981 121.499 60.9536C121.499 63.2091 115.484 64.98 107.803 64.98ZM107.803 57.3258C99.8497 57.3258 94.5099 59.2009 94.5099 60.9491C94.5099 62.6973 99.8497 64.5724 107.803 64.5724C115.756 64.5724 121.1 62.6973 121.1 60.9491C121.1 59.2009 115.756 57.3258 107.803 57.3258Z" fill="#231F20"/>
<path d="M118.651 53.6436V59.2279C118.651 61.343 112.609 63.055 105.154 63.055C97.6994 63.055 91.6621 61.343 91.6621 59.2279V53.6436H118.651Z" fill="white"/>
<path d="M105.154 63.2819C97.4547 63.2819 91.4355 61.5019 91.4355 59.2057V53.6439C91.4355 53.5839 91.4594 53.5263 91.5019 53.4838C91.5443 53.4413 91.6019 53.4175 91.662 53.4175H118.651C118.711 53.4175 118.769 53.4413 118.811 53.4838C118.854 53.5263 118.877 53.5839 118.877 53.6439V59.2283C118.882 61.5019 112.849 63.2819 105.154 63.2819ZM91.8885 53.8613V59.2193C91.8885 60.9584 97.2192 62.8426 105.154 62.8426C113.089 62.8426 118.424 60.9811 118.424 59.2193V53.8613H91.8885Z" fill="#231F20"/>
<path d="M105.153 57.4706C112.607 57.4706 118.65 55.7571 118.65 53.6435C118.65 51.5299 112.607 49.8164 105.153 49.8164C97.6989 49.8164 91.6562 51.5299 91.6562 53.6435C91.6562 55.7571 97.6989 57.4706 105.153 57.4706Z" fill="#231F20"/>
<path d="M105.154 57.6699C97.4775 57.6699 91.4629 55.9036 91.4629 53.6436C91.4629 51.3835 97.4775 49.6172 105.154 49.6172C112.831 49.6172 118.85 51.3881 118.85 53.6436C118.85 55.8991 112.836 57.6699 105.154 57.6699ZM105.154 50.0158C97.2013 50.0158 91.8614 51.8908 91.8614 53.639C91.8614 55.3873 97.2013 57.2623 105.154 57.2623C113.107 57.2623 118.452 55.3873 118.452 53.639C118.452 51.8908 113.112 50.0158 105.154 50.0158Z" fill="#231F20"/>
<path d="M122.215 46.1616V51.7324C122.215 53.843 116.174 55.5595 108.719 55.5595C101.264 55.5595 95.2266 53.843 95.2266 51.7324V46.1616H122.215Z" fill="white"/>
<path d="M108.719 55.7859C101.019 55.7859 95.0002 54.0059 95.0002 51.7097V46.1615C95.0002 46.1015 95.0241 46.0439 95.0666 46.0014C95.109 45.9589 95.1666 45.9351 95.2267 45.9351H122.216C122.276 45.9351 122.333 45.9589 122.376 46.0014C122.418 46.0439 122.442 46.1015 122.442 46.1615V51.7323C122.442 54.0059 116.414 55.7859 108.719 55.7859ZM95.4532 46.3744V51.7323C95.4532 53.4715 100.784 55.3556 108.719 55.3556C116.654 55.3556 121.989 53.4941 121.989 51.7323V46.3744H95.4532Z" fill="#231F20"/>
<path d="M108.719 49.975C116.173 49.975 122.216 48.2615 122.216 46.1479C122.216 44.0343 116.173 42.3208 108.719 42.3208C101.265 42.3208 95.2227 44.0343 95.2227 46.1479C95.2227 48.2615 101.265 49.975 108.719 49.975Z" fill="white"/>
<path d="M108.719 50.2017C101.019 50.2017 95.0002 48.4172 95.0002 46.1255C95.0002 43.8338 101.024 42.0493 108.719 42.0493C116.414 42.0493 122.442 43.8338 122.442 46.1255C122.442 48.4172 116.414 50.2017 108.719 50.2017ZM108.719 42.543C100.784 42.543 95.4532 44.4045 95.4532 46.1663C95.4532 47.9281 100.784 49.7896 108.719 49.7896C116.654 49.7896 121.989 47.9281 121.989 46.1663C121.989 44.4045 116.658 42.5385 108.719 42.5385V42.543Z" fill="#231F20"/>
<path d="M108.719 48.6934C103.121 48.6934 97.1738 47.7876 97.1738 46.148C97.1738 44.5085 103.121 43.5981 108.719 43.5981C114.316 43.5981 120.268 44.504 120.268 46.148C120.268 47.7921 114.316 48.6934 108.719 48.6934ZM108.719 44.0511C102.183 44.0511 97.6267 45.1562 97.6267 46.148C97.6267 47.1399 102.183 48.2405 108.719 48.2405C115.254 48.2405 119.815 47.1354 119.815 46.148C119.815 45.1607 115.259 44.0511 108.719 44.0511Z" fill="#D1D3D4"/>
</svg>
